<svg width="860" height="484" viewBox="0 0 860 484" fill="none" xmlns="http://www.w3.org/2000/svg">
<rect width="860" height="484" fill="white"/>
<g clip-path="url(#clip0_4632_3426)">
<path d="M236.942 181.514L161.399 230.803C159.974 231.731 159.574 233.641 160.503 235.065C160.767 235.47 161.124 235.805 161.54 236.047L178.117 239.231C194.959 242.436 210.213 251.258 221.391 264.25L232.142 276.763C233.616 277.615 235.5 277.108 236.353 275.635C236.596 275.214 236.737 274.745 236.764 274.265L241.705 184.26C241.791 182.561 240.484 181.109 238.783 181.018C238.135 180.985 237.487 181.158 236.942 181.509V181.514Z" fill="#00D589"/>
<path d="M235.91 182.689L195.152 263.116C194.386 264.632 194.99 266.488 196.513 267.254C196.945 267.47 197.42 267.589 197.906 267.589L213.841 262.053C230.04 256.42 247.671 256.447 263.854 262.123L279.427 267.589C281.128 267.589 282.51 266.207 282.51 264.508C282.51 264.022 282.397 263.547 282.175 263.116L241.407 182.689C240.64 181.173 238.783 180.563 237.265 181.334C236.682 181.631 236.202 182.106 235.91 182.689Z" fill="#0078FF"/>
<path d="M241.703 184.253C241.794 182.553 240.493 181.097 238.787 181.005C238.733 181.005 238.679 181.005 238.625 181.005H238.241C238.117 181.005 237.998 181.048 237.874 181.075H237.836C237.728 181.102 237.631 181.14 237.529 181.183L237.426 181.221L237.167 181.35L237.048 181.453C236.557 181.749 236.162 182.181 235.909 182.694L202.57 248.466C208.272 251.844 213.499 255.961 218.127 260.698C224.488 258.901 231.054 257.946 237.658 257.855L241.703 184.253Z" fill="#006696"/>
<path d="M337.129 181.496V276.675H332.059V181.496H337.129Z" fill="#241F20"/>
<path d="M350.071 242.412C350.039 237.734 350.736 233.078 352.14 228.616C353.425 224.467 355.487 220.603 358.209 217.22C360.887 213.929 364.257 211.264 368.08 209.424C376.655 205.604 386.45 205.604 395.025 209.424C398.848 211.269 402.217 213.929 404.895 217.22C407.617 220.603 409.674 224.472 410.965 228.616C412.363 233.078 413.06 237.734 413.033 242.412C413.06 247.112 412.363 251.79 410.965 256.274C409.69 260.428 407.633 264.297 404.895 267.669C402.201 270.928 398.837 273.567 395.025 275.401C386.45 279.221 376.655 279.221 368.08 275.401C364.267 273.572 360.898 270.934 358.209 267.669C355.471 264.297 353.408 260.428 352.14 256.274C350.741 251.785 350.044 247.112 350.071 242.412ZM355.142 242.412C355.126 246.411 355.709 250.387 356.875 254.207C357.955 257.838 359.667 261.243 361.946 264.27C364.149 267.189 366.973 269.579 370.218 271.268C377.378 274.732 385.737 274.732 392.897 271.268C396.137 269.574 398.961 267.184 401.17 264.27C403.438 261.238 405.155 257.833 406.24 254.207C408.551 246.513 408.551 238.306 406.24 230.612C405.155 226.986 403.443 223.576 401.17 220.549C398.967 217.636 396.137 215.246 392.897 213.551C385.737 210.087 377.378 210.087 370.218 213.551C366.973 215.24 364.149 217.63 361.946 220.549C359.672 223.576 357.955 226.986 356.875 230.612C355.709 234.438 355.126 238.414 355.142 242.407V242.412Z" fill="#241F20"/>
<path d="M481.465 208.156V273.07C481.471 276.82 481.023 280.559 480.132 284.202C479.305 287.671 477.734 290.924 475.536 293.73C473.144 296.649 470.05 298.915 466.551 300.329C462.739 301.969 457.906 302.789 452.053 302.795C448.602 302.816 445.163 302.433 441.799 301.662C438.807 300.987 435.961 299.768 433.413 298.063C430.983 296.385 428.996 294.14 427.624 291.529C426.053 288.405 425.21 284.962 425.156 281.466H430.227C430.405 284.18 431.177 286.818 432.495 289.198C433.71 291.291 435.373 293.093 437.371 294.464C439.417 295.856 441.696 296.876 444.099 297.464C446.718 298.101 449.407 298.414 452.101 298.397C456.815 298.397 460.752 297.685 463.905 296.266C466.81 295.03 469.391 293.137 471.443 290.736C473.306 288.475 474.651 285.836 475.385 283.004C476.13 280.155 476.514 277.22 476.514 274.274V258.545H476.249C473.846 263.612 470.579 267.475 466.443 270.141C462.307 272.806 457.307 274.139 451.437 274.139C446.372 274.139 441.993 273.27 438.299 271.538C434.725 269.882 431.588 267.416 429.131 264.34C426.625 261.151 424.768 257.509 423.661 253.608C422.424 249.276 421.819 244.787 421.857 240.276C421.836 235.895 422.489 231.53 423.79 227.348C424.984 223.447 426.911 219.805 429.46 216.616C431.982 213.524 435.146 211.026 438.737 209.283C447.657 205.194 458.014 205.717 466.476 210.681C470.99 213.357 474.451 217.496 476.281 222.411H476.546V208.15H481.46L481.465 208.156ZM451.448 210.956C447.668 210.864 443.926 211.733 440.578 213.487C437.576 215.116 434.979 217.393 432.975 220.15C430.94 222.999 429.411 226.177 428.461 229.549C427.441 233.035 426.928 236.65 426.928 240.281C426.911 244.134 427.424 247.97 428.461 251.677C429.39 255.081 430.977 258.276 433.132 261.076C435.211 263.731 437.851 265.894 440.87 267.405C444.169 269.013 447.803 269.811 451.475 269.736C455.266 269.822 459.018 269.002 462.42 267.335C465.482 265.775 468.149 263.542 470.218 260.801C472.345 257.984 473.927 254.795 474.888 251.402C476.94 244.144 476.94 236.461 474.888 229.209C473.943 225.81 472.361 222.621 470.218 219.81C468.133 217.102 465.471 214.895 462.42 213.346C459.013 211.679 455.249 210.854 451.453 210.945L451.448 210.956Z" fill="#241F20"/>
<path d="M497.74 195.228V181.496H502.811V195.228H497.74ZM497.74 276.675V208.156H502.811V276.669H497.74V276.675Z" fill="#241F20"/>
<path d="M519.221 181.496H524.291V244.549L566.582 208.156H573.92L543.903 233.747L576.053 276.669H569.115L539.902 237.61L524.291 250.808V276.669H519.221V181.496Z" fill="#241F20"/>
<path d="M588.322 262.942H595.126V276.674H588.322V262.942Z" fill="#241F20"/>
<path d="M619.004 195.228V181.496H624.074V195.228H619.004ZM619.004 276.675V208.156H624.074V276.669H619.004V276.675Z" fill="#241F20"/>
<path d="M637.011 242.412C636.978 237.734 637.675 233.078 639.079 228.616C640.369 224.472 642.427 220.603 645.148 217.22C647.827 213.929 651.196 211.264 655.019 209.424C663.594 205.604 673.389 205.604 681.964 209.424C685.787 211.264 689.162 213.929 691.835 217.22C694.562 220.603 696.63 224.472 697.926 228.616C699.33 233.078 700.026 237.734 699.994 242.412C700.021 247.112 699.324 251.79 697.926 256.274C696.651 260.428 694.594 264.297 691.856 267.669C689.167 270.934 685.798 273.572 681.986 275.401C673.411 279.221 663.616 279.221 655.041 275.401C651.228 273.572 647.859 270.934 645.17 267.669C642.432 264.297 640.375 260.423 639.101 256.274C637.697 251.79 636.989 247.112 637.011 242.412ZM642.081 242.412C642.07 246.411 642.654 250.387 643.815 254.207C644.895 257.833 646.612 261.243 648.885 264.27C651.088 267.184 653.912 269.579 657.157 271.268C664.318 274.732 672.676 274.732 679.837 271.268C683.076 269.574 685.906 267.184 688.109 264.27C690.382 261.243 692.099 257.833 693.179 254.207C695.49 246.513 695.49 238.306 693.179 230.612C692.099 226.986 690.382 223.576 688.109 220.549C685.906 217.636 683.082 215.24 679.837 213.551C672.676 210.087 664.318 210.087 657.157 213.551C653.918 215.246 651.088 217.636 648.885 220.549C646.612 223.576 644.895 226.986 643.815 230.612C642.654 234.438 642.07 238.414 642.081 242.407V242.412Z" fill="#241F20"/>
</g>
<defs>
<clipPath id="clip0_4632_3426">
<rect width="540" height="121.8" fill="white" transform="translate(160 181)"/>
</clipPath>
</defs>
</svg>
