<svg xmlns="http://www.w3.org/2000/svg" xmlns:xlink="http://www.w3.org/1999/xlink" width="1080" zoomAndPan="magnify" viewBox="0 0 810 525.000007" height="700" preserveAspectRatio="xMidYMid meet" version="1.0"><defs><clipPath id="c154469985"><path d="M 381 8.953125 L 733 8.953125 L 733 69 L 381 69 Z M 381 8.953125 " clip-rule="nonzero"/></clipPath><clipPath id="ffa6861d85"><path d="M 132 45 L 783.96875 45 L 783.96875 493 L 132 493 Z M 132 45 " clip-rule="nonzero"/></clipPath><clipPath id="863dadf852"><path d="M 132 45 L 783.96875 45 L 783.96875 74 L 132 74 Z M 132 45 " clip-rule="nonzero"/></clipPath><clipPath id="8bb6dd39b6"><path d="M 131 45 L 783.96875 45 L 783.96875 494 L 131 494 Z M 131 45 " clip-rule="nonzero"/></clipPath><clipPath id="c3d9e08e9a"><path d="M 255 8.953125 L 670 8.953125 L 670 471 L 255 471 Z M 255 8.953125 " clip-rule="nonzero"/></clipPath><clipPath id="3842f634b5"><path d="M 26 412 L 231 412 L 231 514.988281 L 26 514.988281 Z M 26 412 " clip-rule="nonzero"/></clipPath><clipPath id="37bd820b85"><path d="M 25.664062 411 L 231 411 L 231 514.988281 L 25.664062 514.988281 Z M 25.664062 411 " clip-rule="nonzero"/></clipPath></defs><path fill="#ffffff" d="M 445.867188 68.234375 C 443.324219 35.421875 415.949219 9.589844 382.554688 9.589844 L 668.863281 9.589844 C 702.253906 9.589844 729.632812 35.421875 732.175781 68.234375 L 445.867188 68.234375 " fill-opacity="1" fill-rule="nonzero"/><g clip-path="url(#c154469985)"><path fill="#1c1d42" d="M 446.429688 67.625 L 731.515625 67.625 C 728.671875 35.371094 701.277344 10.199219 668.863281 10.199219 L 395.027344 10.199219 C 406.617188 12.492188 417.394531 17.964844 426.195312 26.160156 C 437.886719 37.054688 445.058594 51.757812 446.429688 67.625 Z M 732.175781 68.84375 L 445.867188 68.84375 C 445.550781 68.84375 445.285156 68.597656 445.261719 68.28125 C 442.734375 35.714844 415.191406 10.199219 382.554688 10.199219 C 382.21875 10.199219 381.945312 9.925781 381.945312 9.589844 C 381.945312 9.253906 382.21875 8.980469 382.554688 8.980469 L 668.863281 8.980469 C 685.109375 8.980469 700.609375 15.082031 712.503906 26.160156 C 724.332031 37.179688 731.535156 52.109375 732.78125 68.1875 C 732.796875 68.355469 732.738281 68.523438 732.625 68.648438 C 732.507812 68.769531 732.347656 68.84375 732.175781 68.84375 " fill-opacity="1" fill-rule="nonzero"/></g><g clip-path="url(#ffa6861d85)"><path fill="#ffffff" d="M 761.890625 493 L 153.910156 493 C 141.84375 493 132.0625 483.214844 132.0625 471.152344 L 132.0625 67.59375 C 132.0625 55.527344 141.84375 45.746094 153.910156 45.746094 L 761.890625 45.746094 C 773.957031 45.746094 783.738281 55.527344 783.738281 67.59375 L 783.738281 471.152344 C 783.738281 483.214844 773.957031 493 761.890625 493 " fill-opacity="1" fill-rule="nonzero"/></g><g clip-path="url(#863dadf852)"><path fill="#f0f9ff" d="M 783.738281 73.070312 L 783.738281 67.613281 C 783.738281 55.535156 773.964844 45.746094 761.914062 45.746094 L 153.886719 45.746094 C 141.835938 45.746094 132.0625 55.535156 132.0625 67.613281 L 132.0625 73.070312 L 783.738281 73.070312 " fill-opacity="1" fill-rule="nonzero"/></g><g clip-path="url(#8bb6dd39b6)"><path fill="#1c1d42" d="M 153.910156 46.351562 C 142.199219 46.351562 132.671875 55.882812 132.671875 67.59375 L 132.671875 471.152344 C 132.671875 482.863281 142.199219 492.386719 153.910156 492.386719 L 761.890625 492.386719 C 773.601562 492.386719 783.128906 482.863281 783.128906 471.152344 L 783.128906 67.59375 C 783.128906 55.882812 773.601562 46.351562 761.890625 46.351562 Z M 761.890625 493.605469 L 153.910156 493.605469 C 141.527344 493.605469 131.453125 483.535156 131.453125 471.152344 L 131.453125 67.59375 C 131.453125 55.210938 141.527344 45.136719 153.910156 45.136719 L 761.890625 45.136719 C 774.273438 45.136719 784.347656 55.210938 784.347656 67.59375 L 784.347656 471.152344 C 784.347656 483.535156 774.273438 493.605469 761.890625 493.605469 " fill-opacity="1" fill-rule="nonzero"/></g><path fill="#ffffff" d="M 668.863281 9.589844 C 633.789062 9.589844 605.355469 38.085938 605.355469 73.234375 L 605.355469 293.007812 L 605.46875 327.042969 L 605.46875 406.402344 C 605.46875 441.550781 577.035156 470.046875 541.964844 470.046875 L 255.652344 470.046875 C 290.726562 470.046875 319.164062 441.550781 319.164062 406.402344 L 319.164062 327.042969 L 319.046875 293.007812 L 319.046875 73.234375 C 319.046875 38.085938 347.480469 9.589844 382.554688 9.589844 L 668.863281 9.589844 " fill-opacity="1" fill-rule="nonzero"/><g clip-path="url(#c3d9e08e9a)"><path fill="#1c1d42" d="M 268.117188 469.441406 L 541.964844 469.441406 C 576.644531 469.441406 604.859375 441.160156 604.859375 406.402344 L 604.859375 327.042969 L 604.746094 293.007812 L 604.746094 73.234375 C 604.746094 42.074219 626.992188 16.027344 656.402344 10.199219 L 382.554688 10.199219 C 347.871094 10.199219 319.65625 38.480469 319.65625 73.234375 L 319.65625 293.007812 L 319.769531 327.042969 L 319.769531 406.402344 C 319.769531 437.5625 297.527344 463.609375 268.117188 469.441406 Z M 541.964844 470.65625 L 255.652344 470.65625 C 255.320312 470.65625 255.046875 470.382812 255.046875 470.046875 C 255.046875 469.710938 255.320312 469.441406 255.652344 469.441406 C 290.339844 469.441406 318.554688 441.160156 318.554688 406.402344 L 318.554688 327.042969 L 318.4375 293.007812 L 318.4375 73.234375 C 318.4375 37.804688 347.199219 8.980469 382.554688 8.980469 L 668.863281 8.980469 C 669.195312 8.980469 669.46875 9.253906 669.46875 9.589844 C 669.46875 9.925781 669.195312 10.199219 668.863281 10.199219 C 634.179688 10.199219 605.964844 38.480469 605.964844 73.234375 L 605.964844 293.007812 L 606.078125 327.042969 L 606.078125 406.402344 C 606.078125 441.832031 577.316406 470.65625 541.964844 470.65625 " fill-opacity="1" fill-rule="nonzero"/></g><path fill="#f0f9ff" d="M 547.847656 430.789062 L 349.738281 430.789062 L 349.738281 80.625 C 349.738281 64.871094 362.511719 52.097656 378.265625 52.097656 L 570.425781 52.097656 L 570.425781 408.210938 C 570.425781 420.679688 560.316406 430.789062 547.847656 430.789062 " fill-opacity="1" fill-rule="nonzero"/><path fill="#ffffff" d="M 541.964844 470.046875 C 508.566406 470.046875 481.195312 444.21875 478.648438 411.402344 L 192.339844 411.402344 C 194.886719 444.21875 222.261719 470.046875 255.652344 470.046875 L 541.964844 470.046875 " fill-opacity="1" fill-rule="nonzero"/><path fill="#1c1d42" d="M 193 412.011719 C 195.84375 444.265625 223.238281 469.441406 255.652344 469.441406 L 529.488281 469.441406 C 517.898438 467.144531 507.125 461.675781 498.320312 453.476562 C 486.628906 442.582031 479.457031 427.878906 478.085938 412.011719 Z M 541.964844 470.65625 L 255.652344 470.65625 C 239.40625 470.65625 223.910156 464.554688 212.011719 453.476562 C 200.183594 442.457031 192.980469 427.53125 191.734375 411.449219 C 191.722656 411.28125 191.777344 411.113281 191.894531 410.992188 C 192.007812 410.867188 192.171875 410.792969 192.339844 410.792969 L 478.648438 410.792969 C 478.964844 410.792969 479.230469 411.039062 479.257812 411.359375 C 481.78125 443.925781 509.324219 469.441406 541.964844 469.441406 C 542.296875 469.441406 542.570312 469.710938 542.570312 470.046875 C 542.570312 470.382812 542.296875 470.65625 541.964844 470.65625 " fill-opacity="1" fill-rule="nonzero"/><path fill="#ffffff" d="M 527.074219 178.007812 L 685.492188 178.007812 C 691.109375 178.007812 695.660156 173.445312 695.660156 167.8125 L 695.660156 95.421875 C 695.660156 89.789062 691.109375 85.226562 685.492188 85.226562 L 477.988281 85.226562 L 516.902344 120.8125 L 516.902344 167.8125 C 516.902344 173.445312 521.460938 178.007812 527.074219 178.007812 " fill-opacity="1" fill-rule="nonzero"/><path fill="#1c1d42" d="M 479.558594 85.835938 L 517.3125 120.363281 C 517.441406 120.480469 517.511719 120.644531 517.511719 120.8125 L 517.511719 167.8125 C 517.511719 173.097656 521.800781 177.398438 527.074219 177.398438 L 685.492188 177.398438 C 690.761719 177.398438 695.050781 173.097656 695.050781 167.8125 L 695.050781 95.421875 C 695.050781 90.136719 690.761719 85.835938 685.492188 85.835938 Z M 685.492188 178.617188 L 527.074219 178.617188 C 521.128906 178.617188 516.296875 173.769531 516.296875 167.8125 L 516.296875 121.082031 L 477.582031 85.675781 C 477.394531 85.507812 477.332031 85.242188 477.421875 85.003906 C 477.511719 84.769531 477.738281 84.617188 477.988281 84.617188 L 685.492188 84.617188 C 691.433594 84.617188 696.269531 89.464844 696.269531 95.421875 L 696.269531 167.8125 C 696.269531 173.769531 691.433594 178.617188 685.492188 178.617188 " fill-opacity="1" fill-rule="nonzero"/><path fill="#01baef" d="M 620.203125 157.6875 L 679.828125 157.6875 L 679.828125 109.816406 L 620.203125 109.816406 L 620.203125 157.6875 " fill-opacity="1" fill-rule="nonzero"/><path fill="#1c1d42" d="M 608.195312 110.800781 L 583.292969 110.800781 C 582.957031 110.800781 582.683594 110.53125 582.683594 110.195312 C 582.683594 109.855469 582.957031 109.585938 583.292969 109.585938 L 608.195312 109.585938 C 608.535156 109.585938 608.804688 109.855469 608.804688 110.195312 C 608.804688 110.53125 608.535156 110.800781 608.195312 110.800781 " fill-opacity="1" fill-rule="nonzero"/><path fill="#1c1d42" d="M 578.492188 110.800781 L 554.523438 110.800781 C 554.191406 110.800781 553.917969 110.53125 553.917969 110.195312 C 553.917969 109.855469 554.191406 109.585938 554.523438 109.585938 L 578.492188 109.585938 C 578.828125 109.585938 579.101562 109.855469 579.101562 110.195312 C 579.101562 110.53125 578.828125 110.800781 578.492188 110.800781 " fill-opacity="1" fill-rule="nonzero"/><path fill="#1c1d42" d="M 549.726562 110.800781 L 532.953125 110.800781 C 532.617188 110.800781 532.34375 110.53125 532.34375 110.195312 C 532.34375 109.855469 532.617188 109.585938 532.953125 109.585938 L 549.726562 109.585938 C 550.066406 109.585938 550.335938 109.855469 550.335938 110.195312 C 550.335938 110.53125 550.066406 110.800781 549.726562 110.800781 " fill-opacity="1" fill-rule="nonzero"/><path fill="#1c1d42" d="M 603.398438 133.894531 L 593.921875 133.894531 C 593.585938 133.894531 593.3125 133.621094 593.3125 133.285156 C 593.3125 132.949219 593.585938 132.675781 593.921875 132.675781 L 603.398438 132.675781 C 603.734375 132.675781 604.007812 132.949219 604.007812 133.285156 C 604.007812 133.621094 603.734375 133.894531 603.398438 133.894531 " fill-opacity="1" fill-rule="nonzero"/><path fill="#1c1d42" d="M 589.125 133.894531 L 548.0625 133.894531 C 547.730469 133.894531 547.453125 133.621094 547.453125 133.285156 C 547.453125 132.949219 547.730469 132.675781 548.0625 132.675781 L 589.125 132.675781 C 589.460938 132.675781 589.730469 132.949219 589.730469 133.285156 C 589.730469 133.621094 589.460938 133.894531 589.125 133.894531 " fill-opacity="1" fill-rule="nonzero"/><path fill="#1c1d42" d="M 543.265625 133.894531 L 528.152344 133.894531 C 527.820312 133.894531 527.542969 133.621094 527.542969 133.285156 C 527.542969 132.949219 527.820312 132.675781 528.152344 132.675781 L 543.265625 132.675781 C 543.601562 132.675781 543.875 132.949219 543.875 133.285156 C 543.875 133.621094 543.601562 133.894531 543.265625 133.894531 " fill-opacity="1" fill-rule="nonzero"/><path fill="#1c1d42" d="M 608.195312 156.984375 L 568.28125 156.984375 C 567.949219 156.984375 567.675781 156.714844 567.675781 156.375 C 567.675781 156.039062 567.949219 155.765625 568.28125 155.765625 L 608.195312 155.765625 C 608.535156 155.765625 608.804688 156.039062 608.804688 156.375 C 608.804688 156.714844 608.535156 156.984375 608.195312 156.984375 " fill-opacity="1" fill-rule="nonzero"/><path fill="#1c1d42" d="M 563.484375 156.984375 L 528.152344 156.984375 C 527.820312 156.984375 527.542969 156.714844 527.542969 156.375 C 527.542969 156.039062 527.820312 155.765625 528.152344 155.765625 L 563.484375 155.765625 C 563.824219 155.765625 564.09375 156.039062 564.09375 156.375 C 564.09375 156.714844 563.824219 156.984375 563.484375 156.984375 " fill-opacity="1" fill-rule="nonzero"/><path fill="#ffffff" d="M 452.273438 243.449219 L 293.855469 243.449219 C 288.238281 243.449219 283.683594 238.886719 283.683594 233.253906 L 283.683594 160.863281 C 283.683594 155.230469 288.238281 150.664062 293.855469 150.664062 L 452.273438 150.664062 C 457.890625 150.664062 462.441406 155.230469 462.441406 160.863281 L 462.441406 233.253906 C 462.441406 238.886719 457.890625 243.449219 452.273438 243.449219 " fill-opacity="1" fill-rule="nonzero"/><path fill="#1c1d42" d="M 293.855469 151.277344 C 288.585938 151.277344 284.296875 155.578125 284.296875 160.863281 L 284.296875 233.253906 C 284.296875 238.539062 288.585938 242.839844 293.855469 242.839844 L 452.273438 242.839844 C 457.546875 242.839844 461.835938 238.539062 461.835938 233.253906 L 461.835938 160.863281 C 461.835938 155.578125 457.546875 151.277344 452.273438 151.277344 Z M 452.273438 244.058594 L 293.855469 244.058594 C 287.914062 244.058594 283.078125 239.210938 283.078125 233.253906 L 283.078125 160.863281 C 283.078125 154.90625 287.914062 150.058594 293.855469 150.058594 L 452.273438 150.058594 C 458.214844 150.058594 463.050781 154.90625 463.050781 160.863281 L 463.050781 233.253906 C 463.050781 239.210938 458.214844 244.058594 452.273438 244.058594 " fill-opacity="1" fill-rule="nonzero"/><path fill="#01baef" d="M 367.558594 145.984375 C 366.113281 134.960938 357.34375 126.65625 346.230469 126.65625 C 334.394531 126.65625 324.796875 136.273438 324.796875 148.136719 C 324.796875 160 334.394531 169.617188 346.230469 169.617188 C 348.496094 169.617188 350.675781 169.261719 352.726562 168.609375 C 353.183594 171.398438 353.429688 174.257812 353.429688 177.171875 C 353.429688 183.402344 352.34375 189.378906 350.355469 194.917969 C 361.398438 185.292969 368.394531 171.117188 368.394531 155.296875 C 368.394531 152.117188 368.097656 149.007812 367.558594 145.984375 " fill-opacity="1" fill-rule="nonzero"/><path fill="#01baef" d="M 312.730469 145.984375 C 311.285156 134.960938 302.519531 126.65625 291.40625 126.65625 C 279.566406 126.65625 269.972656 136.273438 269.972656 148.136719 C 269.972656 160 279.566406 169.617188 291.40625 169.617188 C 293.671875 169.617188 295.851562 169.261719 297.902344 168.609375 C 298.355469 171.398438 298.605469 174.257812 298.605469 177.171875 C 298.605469 183.402344 297.515625 189.378906 295.53125 194.917969 C 306.574219 185.292969 313.566406 171.117188 313.566406 155.296875 C 313.566406 152.117188 313.277344 149.007812 312.730469 145.984375 " fill-opacity="1" fill-rule="nonzero"/><path fill="#1c1d42" d="M 444.855469 266.246094 L 485.101562 303.050781 C 485.226562 303.164062 485.296875 303.324219 485.296875 303.496094 L 485.296875 354.15625 C 485.296875 359.4375 489.585938 363.738281 494.859375 363.738281 L 664.703125 363.738281 C 669.976562 363.738281 674.265625 359.4375 674.265625 354.15625 L 674.265625 275.832031 C 674.265625 270.542969 669.976562 266.246094 664.703125 266.246094 Z M 664.703125 364.957031 L 494.859375 364.957031 C 488.917969 364.957031 484.082031 360.109375 484.082031 354.15625 L 484.082031 303.765625 L 442.878906 266.082031 C 442.691406 265.914062 442.628906 265.648438 442.722656 265.414062 C 442.8125 265.179688 443.035156 265.027344 443.289062 265.027344 L 664.703125 265.027344 C 670.648438 265.027344 675.480469 269.871094 675.480469 275.832031 L 675.480469 354.15625 C 675.480469 360.109375 670.648438 364.957031 664.703125 364.957031 " fill-opacity="1" fill-rule="nonzero"/><path fill="#1c1d42" d="M 520.707031 334.09375 C 520.371094 334.09375 520.097656 333.824219 520.097656 333.488281 L 520.097656 284.160156 C 520.097656 283.824219 520.371094 283.550781 520.707031 283.550781 C 521.042969 283.550781 521.316406 283.824219 521.316406 284.160156 L 521.316406 333.488281 C 521.316406 333.824219 521.042969 334.09375 520.707031 334.09375 " fill-opacity="1" fill-rule="nonzero"/><path fill="#1c1d42" d="M 520.707031 346.304688 C 520.371094 346.304688 520.097656 346.03125 520.097656 345.695312 L 520.097656 340.324219 C 520.097656 339.988281 520.371094 339.71875 520.707031 339.71875 C 521.042969 339.71875 521.316406 339.988281 521.316406 340.324219 L 521.316406 345.695312 C 521.316406 346.03125 521.042969 346.304688 520.707031 346.304688 " fill-opacity="1" fill-rule="nonzero"/><path fill="#1c1d42" d="M 541.9375 334.09375 C 541.597656 334.09375 541.328125 333.824219 541.328125 333.488281 L 541.328125 284.160156 C 541.328125 283.824219 541.597656 283.550781 541.9375 283.550781 C 542.273438 283.550781 542.542969 283.824219 542.542969 284.160156 L 542.542969 333.488281 C 542.542969 333.824219 542.273438 334.09375 541.9375 334.09375 " fill-opacity="1" fill-rule="nonzero"/><path fill="#1c1d42" d="M 541.9375 346.304688 C 541.597656 346.304688 541.328125 346.03125 541.328125 345.695312 L 541.328125 340.324219 C 541.328125 339.988281 541.597656 339.71875 541.9375 339.71875 C 542.273438 339.71875 542.542969 339.988281 542.542969 340.324219 L 542.542969 345.695312 C 542.542969 346.03125 542.273438 346.304688 541.9375 346.304688 " fill-opacity="1" fill-rule="nonzero"/><path fill="#f0f9ff" d="M 697.808594 216.589844 C 697.808594 222.195312 702.339844 226.738281 707.933594 226.738281 C 713.527344 226.738281 718.058594 222.195312 718.058594 216.589844 C 718.058594 210.980469 713.527344 206.4375 707.933594 206.4375 C 702.339844 206.4375 697.808594 210.980469 697.808594 216.589844 " fill-opacity="1" fill-rule="nonzero"/><path fill="#f0f9ff" d="M 668.265625 216.589844 C 668.265625 222.195312 672.796875 226.738281 678.386719 226.738281 C 683.980469 226.738281 688.511719 222.195312 688.511719 216.589844 C 688.511719 210.980469 683.980469 206.4375 678.386719 206.4375 C 672.796875 206.4375 668.265625 210.980469 668.265625 216.589844 " fill-opacity="1" fill-rule="nonzero"/><path fill="#f0f9ff" d="M 638.71875 216.589844 C 638.71875 222.195312 643.25 226.738281 648.84375 226.738281 C 654.433594 226.738281 658.964844 222.195312 658.964844 216.589844 C 658.964844 210.980469 654.433594 206.4375 648.84375 206.4375 C 643.25 206.4375 638.71875 210.980469 638.71875 216.589844 " fill-opacity="1" fill-rule="nonzero"/><path fill="#1c1d42" d="M 628.136719 217.199219 L 529.261719 217.199219 C 528.925781 217.199219 528.652344 216.921875 528.652344 216.589844 C 528.652344 216.25 528.925781 215.976562 529.261719 215.976562 L 628.136719 215.976562 C 628.472656 215.976562 628.746094 216.25 628.746094 216.589844 C 628.746094 216.921875 628.472656 217.199219 628.136719 217.199219 " fill-opacity="1" fill-rule="nonzero"/><path fill="#f0f9ff" d="M 218.371094 96.617188 C 218.371094 91.007812 213.839844 86.464844 208.246094 86.464844 C 202.652344 86.464844 198.121094 91.007812 198.121094 96.617188 C 198.121094 102.222656 202.652344 106.765625 208.246094 106.765625 C 213.839844 106.765625 218.371094 102.222656 218.371094 96.617188 " fill-opacity="1" fill-rule="nonzero"/><path fill="#f0f9ff" d="M 247.917969 96.617188 C 247.917969 91.007812 243.382812 86.464844 237.789062 86.464844 C 232.199219 86.464844 227.667969 91.007812 227.667969 96.617188 C 227.667969 102.222656 232.199219 106.765625 237.789062 106.765625 C 243.382812 106.765625 247.917969 102.222656 247.917969 96.617188 " fill-opacity="1" fill-rule="nonzero"/><path fill="#f0f9ff" d="M 277.460938 96.617188 C 277.460938 91.007812 272.929688 86.464844 267.335938 86.464844 C 261.746094 86.464844 257.214844 91.007812 257.214844 96.617188 C 257.214844 102.222656 261.746094 106.765625 267.335938 106.765625 C 272.929688 106.765625 277.460938 102.222656 277.460938 96.617188 " fill-opacity="1" fill-rule="nonzero"/><path fill="#1c1d42" d="M 386.921875 97.226562 L 288.042969 97.226562 C 287.707031 97.226562 287.433594 96.953125 287.433594 96.617188 C 287.433594 96.28125 287.707031 96.007812 288.042969 96.007812 L 386.921875 96.007812 C 387.257812 96.007812 387.527344 96.28125 387.527344 96.617188 C 387.527344 96.953125 387.257812 97.226562 386.921875 97.226562 " fill-opacity="1" fill-rule="nonzero"/><g clip-path="url(#3842f634b5)"><path fill="#ffffff" d="M 26.371094 512.1875 C 28.46875 507.335938 30.585938 502.722656 32.71875 498.398438 C 65.335938 432.273438 106.972656 412.121094 106.972656 412.121094 L 218.699219 433.53125 L 230.132812 514.410156 L 26.371094 512.1875 " fill-opacity="1" fill-rule="nonzero"/></g><g clip-path="url(#37bd820b85)"><path fill="#1c1d42" d="M 230.132812 515.019531 C 229.832031 515.019531 229.570312 514.800781 229.527344 514.496094 L 218.15625 434.050781 L 107.058594 412.757812 C 105.628906 413.488281 95.691406 418.78125 82.441406 430.957031 C 69.277344 443.054688 50.058594 464.621094 33.265625 498.664062 C 31.191406 502.867188 29.058594 507.496094 26.929688 512.429688 C 26.796875 512.738281 26.4375 512.878906 26.128906 512.746094 C 25.820312 512.613281 25.675781 512.257812 25.8125 511.945312 C 27.953125 506.996094 30.09375 502.347656 32.171875 498.125 C 49.0625 463.886719 68.410156 442.1875 81.664062 430.015625 C 96.050781 416.804688 106.601562 411.625 106.707031 411.574219 C 106.824219 411.515625 106.957031 411.5 107.085938 411.523438 L 218.816406 432.933594 C 219.070312 432.980469 219.265625 433.1875 219.304688 433.449219 L 230.734375 514.324219 C 230.78125 514.65625 230.546875 514.964844 230.21875 515.011719 C 230.1875 515.015625 230.160156 515.019531 230.132812 515.019531 " fill-opacity="1" fill-rule="nonzero"/></g><path fill="#01baef" d="M 81.648438 314.195312 C 83.632812 307.757812 99.652344 287.496094 103.660156 282.082031 C 112.882812 269.617188 149.632812 274.792969 165.03125 273.078125 C 184.375 270.921875 223.78125 264.132812 249.253906 279.5625 C 274.183594 294.664062 283.46875 325.617188 295.382812 342.074219 C 307.113281 333.875 316.550781 326.632812 328.8125 317.503906 L 369.851562 362.6875 C 367.648438 365.363281 325.039062 428.179688 286.363281 423.769531 C 263.84375 421.203125 257.117188 408.660156 242.652344 393.542969 C 242.652344 393.542969 242.335938 456.515625 222.210938 450.222656 C 139.214844 424.25 93.929688 467.320312 57.453125 454.726562 C 48.613281 451.671875 76.003906 332.496094 81.648438 314.195312 " fill-opacity="1" fill-rule="nonzero"/><path fill="#1c1d42" d="M 242.335938 393.523438 C 242.132812 393.523438 241.929688 393.421875 241.816406 393.230469 C 235.886719 383.433594 224.945312 362.738281 219.121094 345.882812 C 219.007812 345.566406 219.175781 345.21875 219.496094 345.109375 C 219.8125 344.996094 220.164062 345.167969 220.269531 345.484375 C 226.066406 362.246094 236.953125 382.847656 242.855469 392.597656 C 243.03125 392.886719 242.9375 393.261719 242.652344 393.4375 C 242.550781 393.496094 242.445312 393.523438 242.335938 393.523438 " fill-opacity="1" fill-rule="nonzero"/><path fill="#ffffff" d="M 369.117188 363.070312 C 375.984375 348.453125 403.039062 317.320312 415.875 311.75 C 437.449219 302.386719 422.710938 298.617188 422.710938 298.617188 C 422.710938 298.617188 432.378906 295.757812 431.234375 290.425781 C 429.882812 284.152344 411.445312 291.617188 405.453125 293.453125 C 403.839844 293.992188 402.824219 294.304688 402.824219 294.304688 C 402.824219 294.304688 403.84375 293.949219 405.453125 293.453125 C 412.046875 291.257812 429.28125 284.78125 429.6875 280.234375 C 430.203125 274.578125 422.433594 275.273438 422.433594 275.273438 C 422.433594 275.273438 427.058594 272.75 423.667969 268.515625 C 420.613281 264.703125 381.050781 268.25 353.535156 292.875 C 349.628906 296.367188 330.359375 316.433594 327.296875 319.445312 L 369.117188 363.070312 " fill-opacity="1" fill-rule="nonzero"/><path fill="#1c1d42" d="M 369.117188 363.679688 C 369.03125 363.679688 368.941406 363.664062 368.859375 363.621094 C 368.554688 363.480469 368.421875 363.117188 368.566406 362.8125 C 375.5625 347.921875 402.984375 316.675781 415.628906 311.1875 C 425.777344 306.785156 427.113281 303.910156 427.007812 302.589844 C 426.859375 300.710938 423.746094 299.507812 422.558594 299.207031 C 422.296875 299.140625 422.109375 298.902344 422.105469 298.628906 C 422.097656 298.355469 422.277344 298.109375 422.539062 298.03125 C 422.628906 298.007812 431.652344 295.269531 430.636719 290.554688 C 430.503906 289.9375 430.164062 289.480469 429.589844 289.15625 C 425.996094 287.121094 414.96875 290.882812 409.046875 292.90625 C 407.695312 293.363281 406.535156 293.761719 405.636719 294.039062 C 404.023438 294.574219 403.003906 294.886719 403.003906 294.886719 C 402.683594 294.984375 402.347656 294.8125 402.246094 294.496094 C 402.140625 294.179688 402.308594 293.839844 402.625 293.730469 C 402.632812 293.726562 403.671875 293.367188 405.277344 292.875 C 416.878906 289.003906 428.792969 283.398438 429.082031 280.179688 C 429.191406 278.984375 428.902344 278.058594 428.203125 277.359375 C 426.398438 275.550781 422.527344 275.875 422.484375 275.882812 C 422.203125 275.902344 421.933594 275.726562 421.847656 275.449219 C 421.765625 275.171875 421.886719 274.878906 422.140625 274.738281 C 422.15625 274.730469 423.917969 273.738281 424.246094 272.078125 C 424.445312 271.085938 424.089844 270.011719 423.191406 268.894531 C 423.054688 268.722656 422.390625 268.148438 419.570312 267.914062 C 407.695312 266.933594 376.242188 273.371094 353.941406 293.328125 C 351.378906 295.617188 342.0625 305.191406 335.257812 312.183594 C 331.632812 315.90625 328.773438 318.851562 327.722656 319.878906 C 327.480469 320.117188 327.097656 320.109375 326.863281 319.875 C 326.625 319.632812 326.628906 319.25 326.867188 319.011719 C 327.90625 317.992188 330.910156 314.90625 334.386719 311.335938 C 341.203125 304.328125 350.539062 294.738281 353.128906 292.421875 C 377.035156 271.03125 408.832031 265.800781 419.675781 266.699219 C 422.035156 266.898438 423.535156 267.378906 424.144531 268.132812 C 425.277344 269.550781 425.714844 270.960938 425.4375 272.324219 C 425.242188 273.308594 424.707031 274.09375 424.160156 274.671875 C 425.652344 274.773438 427.738281 275.171875 429.066406 276.5 C 430.023438 277.457031 430.4375 278.734375 430.296875 280.292969 C 430.070312 282.835938 425.503906 285.726562 420.316406 288.214844 C 424.394531 287.277344 428.125 286.925781 430.1875 288.09375 C 431.070312 288.59375 431.621094 289.335938 431.828125 290.300781 C 432.777344 294.710938 427.375 297.484375 424.53125 298.617188 C 426.046875 299.273438 428.066406 300.515625 428.222656 302.492188 C 428.457031 305.457031 424.5 308.667969 416.113281 312.308594 C 403.65625 317.714844 376.589844 348.597656 369.667969 363.332031 C 369.566406 363.550781 369.347656 363.679688 369.117188 363.679688 " fill-opacity="1" fill-rule="nonzero"/><path fill="#1c1d42" d="M 406.019531 305.226562 C 405.804688 305.226562 405.597656 305.113281 405.484375 304.910156 C 405.320312 304.617188 405.429688 304.246094 405.722656 304.085938 C 406.15625 303.84375 416.203125 298.328125 421.433594 298.328125 C 421.503906 298.328125 421.574219 298.328125 421.644531 298.328125 C 421.980469 298.339844 422.246094 298.621094 422.234375 298.957031 C 422.226562 299.292969 421.957031 299.5625 421.609375 299.546875 C 421.546875 299.546875 421.484375 299.542969 421.421875 299.542969 C 416.515625 299.542969 406.414062 305.09375 406.3125 305.148438 C 406.21875 305.199219 406.117188 305.226562 406.019531 305.226562 " fill-opacity="1" fill-rule="nonzero"/><path fill="#1c1d42" d="M 396.0625 284.539062 C 395.839844 284.539062 395.625 284.417969 395.519531 284.207031 C 395.363281 283.90625 395.484375 283.539062 395.785156 283.390625 C 402.066406 280.1875 411.128906 277.234375 420.648438 275.28125 C 420.980469 275.210938 421.300781 275.425781 421.367188 275.757812 C 421.433594 276.085938 421.222656 276.40625 420.894531 276.476562 C 411.472656 278.40625 402.527344 281.320312 396.339844 284.472656 C 396.25 284.515625 396.152344 284.539062 396.0625 284.539062 " fill-opacity="1" fill-rule="nonzero"/><path fill="#ffffff" d="M 224.488281 174.113281 C 224.488281 174.113281 251.296875 214.273438 235.324219 233.570312 C 219.347656 252.863281 182.242188 233.101562 182.242188 233.101562 C 182.242188 233.101562 201.296875 164.859375 224.488281 174.113281 " fill-opacity="1" fill-rule="nonzero"/><path fill="#1c1d42" d="M 182.964844 232.785156 C 187.164062 234.898438 220.300781 250.757812 234.855469 233.179688 C 249.859375 215.058594 225.886719 177.378906 224.085938 174.609375 C 221.023438 173.445312 217.851562 173.652344 214.664062 175.230469 C 197.695312 183.625 184.449219 227.6875 182.964844 232.785156 Z M 214.742188 242.617188 C 211.027344 242.617188 206.992188 242.136719 202.65625 241.164062 C 191.433594 238.644531 182.046875 233.6875 181.953125 233.636719 C 181.703125 233.5 181.578125 233.210938 181.65625 232.933594 C 182.21875 230.910156 195.710938 183.25 214.125 174.136719 C 217.699219 172.367188 221.261719 172.167969 224.714844 173.546875 C 224.828125 173.59375 224.925781 173.671875 224.996094 173.773438 C 225.0625 173.875 231.789062 184.015625 236.464844 196.390625 C 242.703125 212.902344 242.472656 225.890625 235.792969 233.957031 C 231.039062 239.699219 223.871094 242.617188 214.742188 242.617188 " fill-opacity="1" fill-rule="nonzero"/><path fill="#1c1d42" d="M 98.332031 388.589844 C 108.148438 395.105469 119.835938 398.597656 131.570312 399.089844 C 145.355469 399.671875 159.144531 396.152344 171.410156 389.957031 C 181.230469 384.996094 190.292969 378 196.457031 368.777344 C 199.40625 364.363281 201.597656 359.402344 202.632812 354.179688 C 203.914062 347.714844 203.289062 341.089844 201.847656 334.710938 C 200.351562 328.046875 197.910156 321.664062 196.132812 315.082031 C 194.546875 309.210938 193.445312 302.820312 194.992188 296.816406 C 197.902344 285.5 209.726562 280 214.804688 269.929688 C 220.113281 259.398438 217.511719 246.945312 213.667969 236.398438 C 211.527344 230.527344 208.445312 224.910156 207.050781 218.789062 C 205.777344 213.195312 206.765625 207.699219 210.542969 203.324219 C 213.621094 199.761719 217.742188 197.257812 221.6875 194.78125 C 225.699219 192.261719 229.78125 189.730469 233.125 186.332031 C 241.195312 178.121094 241.960938 165.40625 238.4375 154.925781 C 236.640625 149.578125 233.46875 144.6875 228.210938 142.261719 C 223.523438 140.101562 218.175781 140.203125 213.195312 141.132812 C 207.59375 142.183594 202.3125 144.3125 197.046875 146.429688 C 192.21875 148.378906 192.742188 148.511719 187.929688 150.507812 C 186.746094 150.324219 180.128906 148.773438 178.9375 148.648438 C 172.558594 147.988281 165.347656 147.925781 159.359375 150.316406 C 152.75 152.964844 148.703125 156.734375 144.285156 161.167969 C 135.582031 169.882812 129.554688 183.433594 125.59375 195 C 123.5625 200.929688 122.09375 207.042969 121.179688 213.25 C 120.269531 219.417969 120.082031 225.636719 119.886719 231.863281 C 119.691406 238.148438 119.46875 244.492188 118.164062 250.667969 C 116.902344 256.644531 114.515625 262.136719 110.917969 267.074219 C 107.339844 271.984375 102.921875 276.210938 98.621094 280.46875 C 94.378906 284.675781 90.289062 288.984375 86.761719 293.820312 C 79.804688 303.359375 74.863281 314.496094 72.898438 326.164062 C 68.921875 349.804688 78.046875 375.121094 98.332031 388.589844 " fill-opacity="1" fill-rule="nonzero"/></svg>