<svg xmlns="http://www.w3.org/2000/svg" xmlns:xlink="http://www.w3.org/1999/xlink" width="1080" zoomAndPan="magnify" viewBox="0 0 810 809.999993" height="1080" preserveAspectRatio="xMidYMid meet" version="1.0"><defs><clipPath id="c2da380568"><path d="M 65.203125 69 L 744 69 L 744 741.351562 L 65.203125 741.351562 Z M 65.203125 69 " clip-rule="nonzero"/></clipPath></defs><g clip-path="url(#c2da380568)"><path fill="#01baef" d="M 740.984375 693.757812 L 696.25 738.496094 C 694.371094 740.371094 691.910156 741.3125 689.449219 741.3125 C 686.988281 741.3125 684.527344 740.371094 682.652344 738.496094 C 678.894531 734.742188 678.894531 728.652344 682.652344 724.898438 L 710.972656 696.574219 L 547.765625 696.574219 C 542.457031 696.574219 538.152344 692.269531 538.152344 686.960938 C 538.152344 681.648438 542.457031 677.34375 547.765625 677.34375 L 710.972656 677.34375 L 682.652344 649.023438 C 678.894531 645.265625 678.894531 639.179688 682.652344 635.425781 C 686.40625 631.671875 692.496094 631.671875 696.25 635.425781 L 740.984375 680.160156 C 744.742188 683.917969 744.742188 690.003906 740.984375 693.757812 Z M 699.066406 402.027344 C 699.066406 323.355469 668.425781 249.386719 612.792969 193.753906 C 558.089844 139.046875 485.652344 108.53125 408.445312 107.53125 L 430.050781 85.925781 C 433.804688 82.171875 433.804688 76.082031 430.050781 72.328125 C 426.296875 68.574219 420.207031 68.574219 416.453125 72.328125 L 380.269531 108.507812 C 291.214844 115.824219 210.03125 163.132812 159.6875 238.238281 C 156.730469 242.648438 157.910156 248.625 162.320312 251.578125 C 166.730469 254.535156 172.707031 253.355469 175.660156 248.945312 C 222.550781 178.992188 298.054688 134.828125 380.9375 127.742188 L 416.453125 163.257812 C 418.332031 165.132812 420.789062 166.070312 423.25 166.070312 C 425.714844 166.070312 428.171875 165.132812 430.050781 163.257812 C 433.808594 159.503906 433.808594 153.414062 430.050781 149.660156 L 407.140625 126.746094 C 557.746094 128.160156 679.835938 251.097656 679.835938 402.027344 C 679.835938 553.839844 556.222656 677.34375 404.28125 677.34375 L 74.851562 677.34375 C 69.539062 677.34375 65.234375 681.648438 65.234375 686.960938 C 65.234375 692.269531 69.539062 696.574219 74.851562 696.574219 L 404.28125 696.574219 C 483.058594 696.574219 557.101562 665.9375 612.761719 610.308594 C 668.417969 554.6875 699.066406 480.71875 699.066406 402.027344 Z M 162.324219 552.480469 C 157.910156 555.4375 156.730469 561.40625 159.6875 565.820312 C 186.941406 606.476562 224.191406 640.003906 267.414062 662.78125 C 268.84375 663.535156 270.375 663.890625 271.886719 663.890625 C 275.339844 663.890625 278.679688 662.027344 280.402344 658.757812 C 282.878906 654.058594 281.078125 648.242188 276.378906 645.769531 C 235.96875 624.476562 201.144531 593.128906 175.660156 555.113281 C 172.707031 550.703125 166.734375 549.519531 162.324219 552.480469 Z M 296.199219 402.027344 C 296.199219 342.300781 344.789062 293.710938 404.519531 293.710938 C 464.246094 293.710938 512.835938 342.300781 512.835938 402.027344 C 512.835938 461.757812 464.246094 510.347656 404.519531 510.347656 C 344.789062 510.347656 296.199219 461.757812 296.199219 402.027344 Z M 315.429688 402.027344 C 315.429688 451.152344 355.394531 491.117188 404.519531 491.117188 C 453.640625 491.117188 493.605469 451.152344 493.605469 402.027344 C 493.605469 352.90625 453.644531 312.9375 404.519531 312.9375 C 355.394531 312.9375 315.429688 352.90625 315.429688 402.027344 Z M 245.675781 336.234375 C 250.109375 325.53125 250.402344 309.648438 237.9375 297.179688 C 228.925781 288.167969 228.925781 273.507812 237.9375 264.5 L 266.988281 235.445312 C 276 226.4375 290.660156 226.4375 299.671875 235.445312 C 312.140625 247.917969 328.023438 247.621094 338.726562 243.183594 C 349.429688 238.75 360.867188 227.730469 360.867188 210.097656 C 360.867188 197.355469 371.234375 186.988281 383.976562 186.988281 L 425.0625 186.988281 C 437.800781 186.988281 448.167969 197.355469 448.167969 210.097656 C 448.167969 227.730469 459.605469 238.75 470.3125 243.183594 C 481.019531 247.621094 496.898438 247.914062 509.367188 235.445312 C 518.378906 226.4375 533.039062 226.4375 542.050781 235.445312 L 571.101562 264.5 C 575.464844 268.863281 577.867188 274.664062 577.867188 280.839844 C 577.867188 287.011719 575.464844 292.816406 571.097656 297.179688 C 558.632812 309.644531 558.929688 325.527344 563.363281 336.234375 C 567.796875 346.9375 578.816406 358.375 596.449219 358.375 C 609.191406 358.375 619.558594 368.742188 619.558594 381.484375 L 619.558594 422.570312 C 619.558594 435.308594 609.191406 445.675781 596.449219 445.675781 C 578.816406 445.675781 567.796875 457.113281 563.363281 467.820312 C 558.929688 478.527344 558.632812 494.40625 571.101562 506.875 C 575.464844 511.238281 577.867188 517.042969 577.867188 523.214844 C 577.867188 529.390625 575.464844 535.191406 571.101562 539.558594 L 542.050781 568.605469 C 537.6875 572.972656 531.882812 575.375 525.710938 575.375 C 519.535156 575.375 513.734375 572.972656 509.371094 568.605469 C 496.898438 556.140625 481.019531 556.4375 470.3125 560.871094 C 459.609375 565.304688 448.171875 576.324219 448.171875 593.957031 C 448.171875 606.699219 437.804688 617.0625 425.0625 617.0625 L 383.980469 617.0625 C 371.238281 617.0625 360.871094 606.699219 360.871094 593.957031 C 360.871094 576.296875 349.4375 565.269531 338.738281 560.835938 C 328.042969 556.402344 312.160156 556.117188 299.671875 568.605469 C 295.308594 572.972656 289.503906 575.375 283.332031 575.375 C 277.160156 575.375 271.355469 572.972656 266.992188 568.605469 L 237.941406 539.554688 C 228.929688 530.542969 228.933594 515.882812 237.941406 506.875 C 250.410156 494.40625 250.113281 478.523438 245.679688 467.816406 C 241.246094 457.113281 230.222656 445.675781 212.59375 445.675781 C 199.851562 445.675781 189.484375 435.308594 189.484375 422.566406 L 189.484375 381.484375 C 189.484375 368.742188 199.851562 358.375 212.59375 358.375 C 230.21875 358.378906 241.242188 346.941406 245.675781 336.234375 Z M 263.441406 343.59375 C 254.75 364.574219 235.265625 377.609375 212.589844 377.609375 C 210.449219 377.609375 208.710938 379.351562 208.710938 381.488281 L 208.710938 422.570312 C 208.710938 424.710938 210.449219 426.449219 212.589844 426.449219 C 235.265625 426.449219 254.75 439.480469 263.441406 460.460938 C 272.132812 481.445312 267.570312 504.441406 251.535156 520.476562 C 250.023438 521.988281 250.023438 524.449219 251.535156 525.960938 L 280.585938 555.011719 C 281.574219 556 282.726562 556.148438 283.328125 556.148438 C 283.929688 556.148438 285.082031 556 286.070312 555.011719 C 296.746094 544.339844 310.488281 538.742188 324.667969 538.742188 C 331.8125 538.742188 339.070312 540.164062 346.097656 543.074219 C 367.070312 551.761719 380.101562 571.257812 380.101562 593.957031 C 380.101562 596.097656 381.839844 597.835938 383.976562 597.835938 L 425.0625 597.835938 C 427.199219 597.835938 428.9375 596.097656 428.9375 593.957031 C 428.9375 571.28125 441.972656 551.796875 462.953125 543.105469 C 483.933594 534.414062 506.929688 538.976562 522.964844 555.011719 C 524.480469 556.523438 526.9375 556.523438 528.453125 555.011719 L 557.503906 525.960938 C 558.488281 524.972656 558.636719 523.816406 558.636719 523.21875 C 558.636719 522.617188 558.492188 521.464844 557.503906 520.476562 C 541.46875 504.441406 536.90625 481.441406 545.597656 460.460938 C 554.289062 439.480469 573.773438 426.449219 596.449219 426.449219 C 598.589844 426.449219 600.328125 424.707031 600.328125 422.570312 L 600.328125 381.488281 C 600.328125 379.347656 598.589844 377.609375 596.449219 377.609375 C 573.773438 377.609375 554.289062 364.574219 545.597656 343.59375 C 536.90625 322.613281 541.46875 299.617188 557.503906 283.582031 C 558.492188 282.59375 558.640625 281.4375 558.640625 280.839844 C 558.640625 280.238281 558.492188 279.082031 557.503906 278.097656 L 528.453125 249.042969 C 526.941406 247.53125 524.480469 247.53125 522.964844 249.042969 C 506.929688 265.078125 483.933594 269.640625 462.953125 260.949219 C 441.972656 252.257812 428.9375 232.773438 428.9375 210.097656 C 428.9375 207.957031 427.199219 206.21875 425.0625 206.21875 L 383.976562 206.21875 C 381.839844 206.21875 380.101562 207.960938 380.101562 210.097656 C 380.101562 232.773438 367.066406 252.257812 346.085938 260.949219 C 325.105469 269.640625 302.109375 265.078125 286.074219 249.042969 C 284.5625 247.53125 282.097656 247.53125 280.585938 249.042969 L 251.535156 278.09375 C 250.546875 279.082031 250.398438 280.238281 250.398438 280.835938 C 250.398438 281.4375 250.546875 282.589844 251.535156 283.582031 C 267.570312 299.617188 272.132812 322.613281 263.441406 343.59375 Z M 127.644531 402.027344 C 127.644531 407.339844 131.949219 411.644531 137.261719 411.644531 L 169.613281 411.644531 C 174.925781 411.644531 179.230469 407.339844 179.230469 402.027344 C 179.230469 396.71875 174.925781 392.414062 169.613281 392.414062 L 137.261719 392.414062 C 131.949219 392.414062 127.644531 396.71875 127.644531 402.027344 Z M 74.851562 411.644531 L 107.203125 411.644531 C 112.515625 411.644531 116.820312 407.339844 116.820312 402.027344 C 116.820312 396.71875 112.515625 392.414062 107.203125 392.414062 L 74.851562 392.414062 C 69.539062 392.414062 65.234375 396.71875 65.234375 402.027344 C 65.234375 407.339844 69.539062 411.644531 74.851562 411.644531 Z M 116.0625 290.453125 L 148.414062 290.453125 C 153.726562 290.453125 158.03125 286.148438 158.03125 280.839844 C 158.03125 275.527344 153.726562 271.222656 148.414062 271.222656 L 116.0625 271.222656 C 110.75 271.222656 106.445312 275.527344 106.445312 280.839844 C 106.445312 286.148438 110.75 290.453125 116.0625 290.453125 Z M 210.824219 271.222656 L 178.46875 271.222656 C 173.160156 271.222656 168.855469 275.527344 168.855469 280.839844 C 168.855469 286.148438 173.160156 290.453125 178.46875 290.453125 L 210.824219 290.453125 C 216.132812 290.453125 220.4375 286.148438 220.4375 280.839844 C 220.4375 275.527344 216.132812 271.222656 210.824219 271.222656 Z M 210.824219 532.835938 C 216.132812 532.835938 220.4375 528.53125 220.4375 523.21875 C 220.4375 517.910156 216.132812 513.605469 210.824219 513.605469 L 178.46875 513.605469 C 173.160156 513.605469 168.855469 517.910156 168.855469 523.21875 C 168.855469 528.53125 173.160156 532.835938 178.46875 532.835938 Z M 116.0625 513.605469 C 110.75 513.605469 106.445312 517.910156 106.445312 523.21875 C 106.445312 528.53125 110.75 532.835938 116.0625 532.835938 L 148.414062 532.835938 C 153.726562 532.835938 158.03125 528.53125 158.03125 523.21875 C 158.03125 517.910156 153.726562 513.605469 148.414062 513.605469 Z M 116.0625 513.605469 " fill-opacity="1" fill-rule="nonzero"/></g></svg>