<svg xmlns="http://www.w3.org/2000/svg" xmlns:xlink="http://www.w3.org/1999/xlink" width="1080" zoomAndPan="magnify" viewBox="0 0 810 809.999993" height="1080" preserveAspectRatio="xMidYMid meet" version="1.0"><defs><clipPath id="25886e422d"><path d="M 128 73 L 706 73 L 706 737.125 L 128 737.125 Z M 128 73 " clip-rule="nonzero"/></clipPath></defs><g clip-path="url(#25886e422d)"><path fill="#01baef" d="M 248.949219 722.089844 L 502.660156 722.089844 C 498.621094 693.382812 503.117188 670.21875 515.960938 652.875 C 532.847656 630.144531 560.359375 622.972656 580.394531 620.886719 C 593.261719 619.691406 606.105469 620.28125 618.515625 622.820312 C 634.207031 625.820312 645.285156 624.015625 651.261719 617.433594 C 662.929688 604.417969 655.304688 574.667969 652.609375 565.84375 C 650.523438 558.671875 653.066406 550.894531 659.042969 546.546875 C 662.039062 544.308594 665.910156 540.722656 666.367188 536.835938 C 666.667969 534.292969 665.472656 531.445312 662.777344 528.316406 C 655 519.035156 655.757812 505.433594 664.429688 497.066406 L 679.078125 482.417969 C 679.96875 481.527344 680.121094 480.484375 680.121094 479.875 C 680.121094 479.269531 679.96875 478.226562 679.078125 477.332031 L 656.347656 454.601562 C 649.914062 448.171875 649.914062 438 656.195312 431.285156 C 656.195312 431.285156 656.195312 431.285156 656.347656 431.132812 C 656.800781 430.675781 657.085938 430.394531 657.542969 430.089844 L 657.695312 429.9375 C 657.996094 429.632812 658.433594 429.332031 658.738281 429.046875 L 684.902344 411.550781 C 691.03125 407.511719 692.679688 399.144531 688.488281 393.015625 L 687.75 391.972656 L 651.871094 346.664062 C 633.332031 322.890625 623.617188 293.441406 624.660156 263.386719 C 626.902344 166.207031 521.503906 121.808594 509.53125 117.027344 C 508.03125 116.421875 506.53125 115.832031 505.050781 115.09375 C 503.707031 114.484375 502.207031 113.898438 500.859375 113.289062 L 500.707031 113.289062 C 426.558594 81.886719 353.585938 80.390625 283.917969 108.945312 C 232.0625 130.175781 201.855469 160.835938 201.554688 161.121094 C 100.046875 268.472656 155.050781 397.796875 196.921875 465.378906 C 205.898438 479.589844 216.21875 493.195312 227.28125 505.605469 C 257.183594 539.984375 269.59375 590.074219 263.617188 650.484375 C 260.464844 682.324219 253.292969 708.335938 248.949219 722.089844 Z M 511.636719 737.195312 L 238.34375 737.195312 C 235.800781 737.195312 233.5625 736 232.0625 733.910156 C 230.5625 731.824219 230.261719 729.28125 231.171875 726.890625 C 231.625 725.542969 281.414062 591.742188 215.765625 516.230469 C 204.246094 503.214844 193.488281 489.019531 183.925781 473.917969 C 163.890625 441.472656 138.332031 390.796875 131.007812 333.535156 C 122.035156 263.558594 142.070312 202.253906 190.359375 150.988281 C 191.707031 149.492188 223.105469 117.652344 277.976562 95.226562 C 310.121094 82.078125 343.757812 74.886719 377.855469 73.996094 C 420.316406 72.800781 463.671875 81.472656 506.4375 99.550781 C 507.9375 100.160156 509.4375 100.746094 510.78125 101.355469 C 512.128906 101.960938 513.628906 102.550781 514.976562 103.15625 C 523.949219 106.742188 555.636719 120.347656 585.101562 146.664062 C 622.480469 180 640.863281 219.484375 639.820312 264.035156 C 639.082031 290.5 647.601562 316.664062 663.898438 337.59375 L 699.929688 383.035156 C 700.082031 383.1875 700.234375 383.339844 700.234375 383.492188 L 701.125 384.835938 C 709.949219 397.851562 706.359375 415.632812 693.34375 424.453125 L 667.636719 441.796875 C 667.484375 441.949219 667.332031 442.097656 667.179688 442.25 L 667.027344 442.402344 C 666.574219 443.011719 666.421875 443.902344 667.027344 444.339844 L 689.703125 467.03125 C 693.289062 470.617188 695.242188 475.246094 695.242188 480.179688 C 695.242188 485.113281 693.308594 489.894531 689.703125 493.328125 L 675.054688 507.976562 C 672.058594 510.972656 671.773438 515.449219 674.316406 518.582031 C 679.703125 524.863281 682.246094 531.730469 681.488281 538.617188 C 680.746094 545.941406 676.25 552.828125 668.1875 558.804688 C 667.445312 559.414062 666.992188 560.609375 667.292969 561.652344 C 672.378906 578.691406 678.660156 609.9375 662.664062 627.585938 C 652.949219 638.34375 637.109375 641.796875 615.726562 637.601562 C 604.664062 635.363281 593.449219 634.757812 582.085938 635.800781 C 565.046875 637.601562 541.859375 643.425781 528.257812 661.8125 C 516.742188 677.371094 513.761719 699.644531 519.28125 728.050781 C 519.738281 730.289062 519.132812 732.527344 517.632812 734.328125 C 516.132812 736.132812 513.894531 737.195312 511.636719 737.195312 Z M 511.636719 737.195312 " fill-opacity="1" fill-rule="evenodd"/></g><path fill="#01baef" d="M 338.957031 536.851562 L 450.046875 536.851562 C 451.699219 484.523438 469.628906 432.800781 501.03125 390.625 C 517.785156 368.046875 526.890625 340.230469 526.890625 312.132812 C 526.890625 240.070312 468.28125 180.722656 396.371094 179.808594 C 361.082031 179.355469 327.441406 192.957031 301.882812 218.230469 C 276.328125 243.503906 262.269531 276.6875 262.269531 311.980469 C 262.269531 340.535156 271.679688 368.632812 288.734375 391.363281 C 319.816406 433.238281 337.613281 484.65625 338.957031 536.851562 Z M 457.523438 552.089844 L 331.484375 552.089844 C 329.546875 552.089844 327.59375 551.347656 326.09375 549.851562 C 324.597656 548.351562 323.855469 546.414062 323.855469 544.460938 C 324.007812 493.023438 307.101562 441.738281 276.308594 400.492188 C 257.316406 375.21875 246.863281 343.835938 246.863281 311.980469 C 246.863281 272.667969 262.554688 235.574219 290.976562 207.472656 C 319.53125 179.375 356.90625 164.121094 396.371094 164.574219 C 435.402344 165.03125 472.019531 180.722656 499.378906 208.535156 C 526.738281 236.351562 541.84375 273.121094 541.84375 312.148438 C 541.84375 343.550781 531.519531 374.648438 512.984375 399.769531 C 482.039062 441.472656 465 492.910156 465 544.652344 C 465.152344 548.65625 461.699219 552.089844 457.523438 552.089844 Z M 457.523438 552.089844 " fill-opacity="1" fill-rule="evenodd"/><path fill="#01baef" d="M 394.417969 157.839844 C 390.226562 157.839844 386.792969 154.40625 386.792969 150.210938 L 386.792969 121.960938 C 386.792969 117.765625 390.226562 114.332031 394.417969 114.332031 C 398.613281 114.332031 402.046875 117.765625 402.046875 121.960938 L 402.046875 150.210938 C 402.046875 154.40625 398.613281 157.839844 394.417969 157.839844 Z M 394.417969 157.839844 " fill-opacity="1" fill-rule="evenodd"/><path fill="#01baef" d="M 299.34375 188.785156 C 296.953125 188.785156 294.710938 187.742188 293.214844 185.652344 L 276.460938 162.773438 C 274.070312 159.339844 274.65625 154.6875 278.109375 152.164062 C 281.546875 149.625 286.195312 150.363281 288.71875 153.816406 L 305.472656 176.699219 C 308.011719 180.132812 307.273438 184.78125 303.820312 187.304688 C 302.472656 188.328125 300.992188 188.785156 299.34375 188.785156 Z M 299.34375 188.785156 " fill-opacity="1" fill-rule="evenodd"/><path fill="#01baef" d="M 240.429688 269.667969 C 239.691406 269.667969 238.777344 269.515625 238.039062 269.214844 L 211.132812 260.410156 C 207.09375 259.0625 205.007812 254.871094 206.351562 250.847656 C 207.699219 246.824219 211.894531 244.71875 215.914062 245.914062 L 242.820312 254.738281 C 246.863281 256.082031 248.949219 260.277344 247.753906 264.300781 C 246.710938 267.582031 243.730469 269.667969 240.429688 269.667969 Z M 240.429688 269.667969 " fill-opacity="1" fill-rule="evenodd"/><path fill="#01baef" d="M 213.523438 378.367188 C 210.394531 378.367188 207.398438 376.28125 206.351562 373.132812 C 205.007812 369.089844 207.246094 364.914062 211.132812 363.570312 L 238.039062 354.746094 C 242.082031 353.398438 246.253906 355.636719 247.601562 359.679688 C 248.949219 363.71875 246.710938 367.894531 242.667969 369.242188 L 215.765625 378.0625 C 215.15625 378.214844 214.417969 378.367188 213.523438 378.367188 Z M 213.523438 378.367188 " fill-opacity="1" fill-rule="evenodd"/><path fill="#01baef" d="M 575.332031 378.367188 C 574.589844 378.367188 573.679688 378.214844 572.941406 377.914062 L 546.035156 369.089844 C 541.992188 367.742188 539.90625 363.550781 541.101562 359.527344 C 542.449219 355.484375 546.640625 353.398438 550.664062 354.59375 L 577.570312 363.417969 C 581.609375 364.765625 583.699219 368.957031 582.503906 372.980469 C 581.457031 376.414062 578.480469 378.367188 575.332031 378.367188 Z M 575.332031 378.367188 " fill-opacity="1" fill-rule="evenodd"/><path fill="#01baef" d="M 548.425781 269.667969 C 545.296875 269.667969 542.296875 267.582031 541.253906 264.433594 C 539.90625 260.390625 542.144531 256.214844 546.1875 254.871094 L 573.089844 246.046875 C 577.132812 244.699219 581.308594 246.9375 582.652344 250.980469 C 584 255.019531 581.761719 259.195312 577.722656 260.542969 L 550.816406 269.363281 C 549.925781 269.515625 549.167969 269.667969 548.425781 269.667969 Z M 548.425781 269.667969 " fill-opacity="1" fill-rule="evenodd"/><path fill="#01baef" d="M 489.511719 188.785156 C 488.015625 188.785156 486.382812 188.328125 485.035156 187.285156 C 481.601562 184.742188 480.84375 180.113281 483.386719 176.679688 L 500.136719 153.796875 C 502.679688 150.363281 507.3125 149.605469 510.746094 152.148438 C 514.179688 154.6875 514.9375 159.320312 512.394531 162.753906 L 495.640625 185.652344 C 494.144531 187.742188 491.753906 188.785156 489.511719 188.785156 Z M 489.511719 188.785156 " fill-opacity="1" fill-rule="evenodd"/><path fill="#01baef" d="M 457.371094 580.644531 L 331.484375 580.644531 C 327.289062 580.644531 323.855469 577.210938 323.855469 573.015625 C 323.855469 568.824219 327.289062 565.390625 331.484375 565.390625 L 457.371094 565.390625 C 461.566406 565.390625 465 568.824219 465 573.015625 C 465 577.363281 461.566406 580.644531 457.371094 580.644531 Z M 457.371094 580.644531 " fill-opacity="1" fill-rule="evenodd"/><path fill="#01baef" d="M 441.074219 609.351562 L 347.78125 609.351562 C 343.589844 609.351562 340.15625 605.917969 340.15625 601.722656 C 340.15625 597.53125 343.589844 594.097656 347.78125 594.097656 L 441.074219 594.097656 C 445.265625 594.097656 448.703125 597.53125 448.703125 601.722656 C 448.703125 605.917969 445.265625 609.351562 441.074219 609.351562 Z M 441.074219 609.351562 " fill-opacity="1" fill-rule="evenodd"/><path fill="#01baef" d="M 417.453125 552.242188 L 371.402344 552.242188 C 367.515625 552.242188 364.382812 549.394531 363.929688 545.65625 L 342.242188 372.828125 C 341.632812 368.632812 344.632812 364.898438 348.824219 364.308594 C 353.019531 363.703125 356.757812 366.699219 357.34375 370.890625 L 378.273438 537.003906 L 411.019531 537.003906 L 431.796875 370.890625 C 432.402344 366.699219 436.140625 363.71875 440.316406 364.308594 C 444.507812 364.765625 447.488281 368.652344 446.898438 372.828125 L 425.363281 545.65625 C 424.472656 549.394531 421.339844 552.242188 417.453125 552.242188 Z M 417.453125 552.242188 " fill-opacity="1" fill-rule="evenodd"/><path fill="#01baef" d="M 394.417969 650.921875 C 369.90625 650.921875 349.867188 630.886719 349.867188 606.371094 C 349.867188 604.4375 350.019531 602.632812 350.171875 600.984375 C 350.628906 596.789062 354.367188 593.8125 358.539062 594.246094 C 362.734375 594.703125 365.710938 598.441406 365.273438 602.613281 C 365.125 603.808594 364.972656 605.15625 364.972656 606.503906 C 364.972656 622.804688 378.121094 635.953125 394.417969 635.953125 C 410.714844 635.953125 423.863281 622.804688 423.863281 606.503906 C 423.863281 605.460938 423.714844 604.113281 423.5625 602.613281 C 423.257812 598.421875 426.253906 594.683594 430.429688 594.398438 C 434.625 593.945312 438.359375 597.09375 438.644531 601.269531 C 438.796875 603.070312 438.949219 604.703125 438.949219 606.503906 C 438.988281 631.039062 419.101562 650.921875 394.417969 650.921875 Z M 394.417969 650.921875 " fill-opacity="1" fill-rule="evenodd"/><path fill="#01baef" d="M 394.570312 396.90625 C 376.621094 396.90625 358.691406 390.320312 344.632812 377.324219 C 341.632812 374.476562 341.347656 369.695312 344.328125 366.566406 C 347.175781 363.4375 351.957031 363.285156 355.085938 366.109375 C 377.210938 386.734375 412.042969 386.734375 434.167969 366.109375 C 437.296875 363.265625 442.097656 363.417969 444.925781 366.566406 C 447.773438 369.695312 447.621094 374.496094 444.46875 377.324219 C 430.46875 390.320312 412.519531 396.90625 394.570312 396.90625 Z M 394.570312 396.90625 " fill-opacity="1" fill-rule="evenodd"/></svg>