<svg xmlns="http://www.w3.org/2000/svg" xmlns:xlink="http://www.w3.org/1999/xlink" width="1080" zoomAndPan="magnify" viewBox="0 0 810 809.999993" height="1080" preserveAspectRatio="xMidYMid meet" version="1.0"><defs><clipPath id="2b3cdce541"><path d="M 200 107.253906 L 749 107.253906 L 749 702.753906 L 200 702.753906 Z M 200 107.253906 " clip-rule="nonzero"/></clipPath><clipPath id="303eff55ae"><path d="M 60 378 L 192 378 L 192 702.753906 L 60 702.753906 Z M 60 378 " clip-rule="nonzero"/></clipPath><clipPath id="d115189a02"><path d="M 371 531 L 637 531 L 637 702.753906 L 371 702.753906 Z M 371 531 " clip-rule="nonzero"/></clipPath></defs><g clip-path="url(#2b3cdce541)"><path fill="#01baef" d="M 729.515625 517.128906 C 725.25 523.828125 716.3125 525.816406 709.621094 521.542969 L 588.765625 444.570312 C 594.3125 436.742188 599.335938 428.53125 603.804688 419.976562 L 725.105469 497.234375 C 728.347656 499.300781 730.59375 502.511719 731.429688 506.273438 C 732.261719 510.03125 731.582031 513.886719 729.515625 517.128906 Z M 414.03125 518.429688 C 305.265625 518.429688 216.78125 429.945312 216.78125 321.179688 C 216.78125 212.414062 305.265625 123.925781 414.03125 123.925781 C 522.804688 123.925781 611.289062 212.414062 611.289062 321.179688 C 611.289062 429.945312 522.804688 518.429688 414.03125 518.429688 Z M 734.089844 483.125 L 611.027344 404.738281 C 621.960938 379.050781 628.023438 350.8125 628.023438 321.179688 C 628.023438 203.179688 532.027344 107.195312 414.03125 107.195312 C 296.042969 107.195312 200.046875 203.179688 200.046875 321.179688 C 200.046875 413.449219 258.742188 492.25 340.757812 522.238281 L 340.375 524.835938 C 338.75 535.824219 335.160156 545.777344 329.710938 554.394531 C 321.746094 567.003906 311.367188 574.902344 298.867188 577.886719 C 298.785156 577.910156 298.714844 577.925781 298.640625 577.941406 C 297.847656 578.164062 219.722656 600.3125 230.1875 695.148438 C 230.652344 699.386719 234.230469 702.597656 238.496094 702.597656 L 298.433594 702.597656 C 300.664062 702.597656 302.804688 701.691406 304.375 700.117188 C 305.945312 698.53125 306.816406 696.375 306.800781 694.144531 C 306.792969 693.757812 306.808594 655.816406 334.523438 641.019531 C 336.15625 640.144531 338.101562 639.425781 340.152344 638.65625 L 340.808594 638.414062 C 352.785156 633.933594 393.066406 615.222656 408.507812 562.378906 C 409.796875 557.941406 407.257812 553.300781 402.820312 552 C 398.382812 550.710938 393.734375 553.25 392.445312 557.6875 C 378.847656 604.234375 342.164062 620.046875 334.949219 622.742188 L 334.320312 622.976562 C 331.835938 623.902344 329.269531 624.859375 326.648438 626.253906 C 298.917969 641.058594 292.191406 671.117188 290.574219 685.867188 L 246.183594 685.867188 C 241.886719 612.542969 299.40625 595.117188 302.90625 594.128906 C 319.492188 590.125 333.648438 579.480469 343.855469 563.34375 C 350.539062 552.761719 354.925781 540.675781 356.902344 527.410156 C 375.097656 532.457031 394.25 535.164062 414.03125 535.164062 C 480.089844 535.164062 539.242188 505.070312 578.527344 457.886719 L 700.625 535.660156 C 705.804688 538.953125 711.589844 540.53125 717.308594 540.53125 C 727.605469 540.53125 737.695312 535.433594 743.625 526.125 C 748.09375 519.109375 749.566406 510.765625 747.761719 502.644531 C 745.964844 494.523438 741.109375 487.59375 734.089844 483.125 " fill-opacity="1" fill-rule="nonzero"/></g><path fill="#01baef" d="M 566.695312 265.511719 C 565.109375 261.167969 560.3125 258.9375 555.96875 260.519531 C 551.628906 262.097656 549.398438 266.902344 550.976562 271.242188 C 556.800781 287.214844 559.757812 304.011719 559.757812 321.179688 C 559.757812 401.527344 494.386719 466.898438 414.03125 466.898438 C 333.683594 466.898438 268.3125 401.527344 268.3125 321.179688 C 268.3125 240.820312 333.683594 175.449219 414.03125 175.449219 C 442.628906 175.449219 470.300781 183.726562 494.078125 199.382812 C 497.941406 201.929688 503.121094 200.851562 505.664062 196.996094 C 508.203125 193.140625 507.140625 187.949219 503.285156 185.410156 C 476.769531 167.949219 445.910156 158.71875 414.03125 158.71875 C 324.457031 158.71875 251.578125 231.597656 251.578125 321.179688 C 251.578125 410.757812 324.457031 483.632812 414.03125 483.632812 C 503.613281 483.632812 576.492188 410.757812 576.492188 321.179688 C 576.492188 302.050781 573.191406 283.324219 566.695312 265.511719 " fill-opacity="1" fill-rule="nonzero"/><path fill="#01baef" d="M 527.78125 230.085938 C 529.4375 232.136719 531.855469 233.199219 534.308594 233.199219 C 536.144531 233.199219 538 232.601562 539.546875 231.351562 C 543.140625 228.460938 543.710938 223.191406 540.820312 219.59375 L 539.691406 218.199219 C 536.75 214.628906 531.480469 214.113281 527.910156 217.046875 C 524.339844 219.980469 523.824219 225.25 526.757812 228.820312 L 527.78125 230.085938 " fill-opacity="1" fill-rule="nonzero"/><g clip-path="url(#303eff55ae)"><path fill="#01baef" d="M 92.203125 401.851562 L 153.777344 446.683594 L 139.804688 451.898438 C 137.625 452.714844 135.875 454.40625 134.992188 456.570312 C 134.109375 458.726562 134.167969 461.164062 135.15625 463.277344 C 165.558594 528.257812 172.652344 652.269531 174.039062 685.867188 L 145.640625 685.867188 C 144.535156 584.625 115.824219 490.648438 108.546875 472.316406 C 106.863281 468.082031 102.109375 465.976562 97.84375 467.566406 L 79.898438 474.269531 Z M 63.886719 493.632812 C 66.191406 495.535156 69.34375 496.074219 72.144531 495.019531 L 95.765625 486.207031 C 105.757812 515.914062 129.347656 602.625 128.929688 694.191406 C 128.921875 696.414062 129.804688 698.554688 131.375 700.132812 C 132.941406 701.707031 135.074219 702.597656 137.296875 702.597656 L 182.707031 702.597656 C 184.957031 702.597656 187.113281 701.683594 188.691406 700.074219 C 190.265625 698.464844 191.125 696.292969 191.066406 694.035156 C 190.929688 687.785156 187.269531 544.894531 153.957031 464.472656 L 174.210938 456.914062 C 177.097656 455.835938 179.15625 453.261719 179.570312 450.207031 C 179.988281 447.160156 178.695312 444.128906 176.207031 442.3125 L 91.144531 380.382812 C 88.804688 378.683594 85.75 378.304688 83.0625 379.402344 C 80.382812 380.496094 78.453125 382.890625 77.972656 385.75 L 60.96875 485.78125 C 60.472656 488.730469 61.582031 491.726562 63.886719 493.632812 " fill-opacity="1" fill-rule="nonzero"/></g><g clip-path="url(#d115189a02)"><path fill="#01baef" d="M 554.980469 641.132812 L 554.128906 623.933594 C 554.015625 621.664062 552.984375 619.53125 551.269531 618.035156 C 549.554688 616.539062 547.296875 615.804688 545.027344 616.007812 C 542.265625 616.261719 478.234375 622.699219 436.621094 685.867188 L 392.992188 685.867188 C 405.507812 661.183594 446.089844 601.75 551.832031 585.050781 C 555.902344 584.414062 558.902344 580.910156 558.902344 576.789062 L 558.902344 556.480469 C 573.769531 567.796875 597.980469 586.855469 614.632812 603.269531 C 602.308594 610.59375 579.21875 624.652344 554.980469 641.132812 Z M 555.4375 533.023438 C 552.886719 531.175781 549.519531 530.921875 546.726562 532.351562 C 543.925781 533.78125 542.167969 536.65625 542.167969 539.804688 L 542.167969 569.714844 C 471.5 582.421875 429.546875 613.695312 406.59375 638.101562 C 380.582031 665.773438 372.605469 690.695312 372.289062 691.742188 C 371.496094 694.28125 371.953125 697.042969 373.53125 699.183594 C 375.105469 701.332031 377.613281 702.597656 380.269531 702.597656 L 441.207031 702.597656 C 444.097656 702.597656 446.785156 701.105469 448.3125 698.644531 C 476.910156 652.5625 519.722656 638.332031 537.886719 634.230469 L 539.003906 656.984375 C 539.152344 660.03125 540.949219 662.761719 543.695312 664.09375 C 546.433594 665.433594 549.683594 665.171875 552.183594 663.414062 C 591.320312 635.804688 631.773438 612.609375 632.171875 612.375 C 634.371094 611.113281 635.882812 608.925781 636.28125 606.425781 C 636.683594 603.925781 635.921875 601.375 634.222656 599.496094 C 609.671875 572.386719 557.640625 534.613281 555.4375 533.023438 " fill-opacity="1" fill-rule="nonzero"/></g><path fill="#01baef" d="M 437.21875 199.757812 C 434.367188 199.234375 431.457031 200.214844 429.503906 202.347656 L 300.699219 343.566406 C 298.679688 345.78125 298.003906 348.902344 298.910156 351.761719 C 299.824219 354.613281 302.195312 356.753906 305.125 357.382812 L 356.214844 368.347656 L 347.6875 426.078125 C 347.007812 430.652344 350.171875 434.902344 354.738281 435.582031 C 359.3125 436.257812 363.5625 433.097656 364.238281 428.53125 L 373.914062 363.035156 C 374.558594 358.671875 371.707031 354.5625 367.394531 353.632812 L 322.882812 344.082031 L 432.796875 223.574219 L 492.546875 376.363281 L 443.140625 369.921875 C 438.722656 369.34375 434.585938 372.375 433.820312 376.792969 L 422.976562 439.519531 C 422.191406 444.070312 425.242188 448.402344 429.800781 449.183594 C 430.273438 449.273438 430.753906 449.308594 431.230469 449.308594 C 435.226562 449.308594 438.761719 446.441406 439.464844 442.371094 L 448.941406 387.554688 L 504.402344 394.785156 C 507.328125 395.160156 510.253906 393.96875 512.074219 391.640625 C 513.898438 389.3125 514.355469 386.199219 513.277344 383.4375 L 443.484375 204.9375 C 442.429688 202.25 440.054688 200.289062 437.21875 199.757812 " fill-opacity="1" fill-rule="nonzero"/></svg>