<svg xmlns="http://www.w3.org/2000/svg" xmlns:xlink="http://www.w3.org/1999/xlink" width="1080" zoomAndPan="magnify" viewBox="0 0 810 809.999993" height="1080" preserveAspectRatio="xMidYMid meet" version="1.0"><defs><clipPath id="1513e04451"><path d="M 81 108.945312 L 503 108.945312 L 503 196 L 81 196 Z M 81 108.945312 " clip-rule="nonzero"/></clipPath><clipPath id="852c4e1a1d"><path d="M 81 108.945312 L 729 108.945312 L 729 700.695312 L 81 700.695312 Z M 81 108.945312 " clip-rule="nonzero"/></clipPath></defs><path fill="#01baef" d="M 404.808594 663.472656 C 404.050781 663.472656 403.292969 663.472656 402.53125 663.089844 C 183.53125 590.976562 245.398438 335.917969 246.15625 333.261719 C 246.917969 330.222656 249.953125 327.566406 253.367188 327.566406 C 337.25 327.1875 400.636719 291.128906 401.015625 290.75 C 403.671875 289.613281 406.328125 289.613281 408.605469 290.75 C 409.363281 291.128906 472.75 327.1875 556.632812 327.566406 C 560.046875 327.566406 563.082031 330.222656 563.84375 333.261719 C 564.601562 335.917969 626.46875 590.976562 407.46875 663.089844 C 406.707031 663.472656 405.570312 663.472656 404.808594 663.472656 Z M 259.441406 342.75 C 256.027344 359.449219 247.296875 411.449219 256.027344 468.382812 C 270.449219 558.714844 320.171875 619.441406 404.808594 647.910156 C 489.449219 619.441406 539.550781 558.714844 553.59375 468.382812 C 562.703125 411.449219 553.59375 359.449219 550.179688 342.75 C 476.167969 340.851562 419.992188 313.902344 404.808594 305.933594 C 390.007812 313.902344 333.453125 340.851562 259.441406 342.75 Z M 259.441406 342.75 " fill-opacity="1" fill-rule="evenodd"/><path fill="#01baef" d="M 404.808594 623.238281 C 404.050781 623.238281 402.914062 623.238281 402.152344 622.859375 C 332.316406 595.53125 290.566406 542.394531 278.417969 464.964844 C 273.863281 436.5 273.863281 401.199219 277.660156 370.457031 C 278.039062 367.039062 281.074219 364.382812 284.492188 364.003906 C 325.863281 359.828125 368.753906 348.441406 401.773438 333.261719 C 403.671875 332.121094 405.949219 332.121094 408.226562 333.261719 C 441.246094 348.441406 484.136719 359.828125 525.507812 364.003906 C 528.921875 364.382812 531.582031 367.039062 532.339844 370.457031 C 536.136719 401.199219 535.753906 436.5 531.582031 464.964844 C 519.433594 542.394531 477.683594 595.53125 407.847656 622.859375 C 406.707031 623.238281 405.949219 623.238281 404.808594 623.238281 Z M 292.082031 378.425781 C 289.046875 405.753906 289.425781 437.636719 293.601562 462.6875 C 304.609375 534.421875 341.046875 581.867188 404.808594 607.675781 C 468.574219 581.867188 505.390625 534.421875 516.398438 462.6875 C 520.195312 437.636719 520.953125 405.753906 517.917969 378.425781 C 478.0625 373.871094 437.453125 362.867188 404.808594 348.441406 C 372.546875 362.867188 331.9375 373.871094 292.082031 378.425781 Z M 292.082031 378.425781 " fill-opacity="1" fill-rule="evenodd"/><g clip-path="url(#1513e04451)"><path fill="#01baef" d="M 435.554688 195.863281 L 88.644531 195.863281 C 84.46875 195.863281 81.050781 192.445312 81.050781 188.269531 C 81.050781 184.097656 84.46875 180.679688 88.644531 180.679688 L 427.964844 180.679688 L 427.964844 176.886719 C 427.964844 139.6875 457.949219 109.324219 495.144531 108.945312 C 499.320312 108.945312 502.734375 112.359375 502.734375 116.535156 C 502.734375 120.710938 499.320312 124.128906 495.144531 124.128906 C 466.675781 124.507812 443.144531 148.039062 443.144531 176.886719 L 443.144531 188.269531 C 443.144531 192.445312 439.730469 195.863281 435.554688 195.863281 Z M 435.554688 195.863281 " fill-opacity="1" fill-rule="evenodd"/></g><path fill="#01baef" d="M 501.214844 219.015625 C 484.136719 219.015625 470.472656 204.972656 470.472656 188.269531 C 470.472656 171.191406 484.136719 157.527344 501.214844 157.527344 C 517.917969 157.527344 531.582031 171.191406 531.582031 188.269531 C 531.582031 204.972656 517.917969 219.015625 501.214844 219.015625 Z M 501.214844 172.710938 C 492.488281 172.710938 485.65625 179.542969 485.65625 188.269531 C 485.65625 196.621094 492.488281 203.832031 501.214844 203.832031 C 509.566406 203.832031 516.398438 196.621094 516.398438 188.269531 C 516.398438 179.542969 509.566406 172.710938 501.214844 172.710938 Z M 501.214844 172.710938 " fill-opacity="1" fill-rule="evenodd"/><path fill="#01baef" d="M 584.71875 219.015625 C 568.019531 219.015625 553.972656 204.972656 553.972656 188.269531 C 553.972656 171.191406 568.019531 157.527344 584.71875 157.527344 C 601.796875 157.527344 615.460938 171.191406 615.460938 188.269531 C 615.460938 204.972656 601.796875 219.015625 584.71875 219.015625 Z M 584.71875 172.710938 C 576.367188 172.710938 569.15625 179.542969 569.15625 188.269531 C 569.15625 196.621094 576.367188 203.832031 584.71875 203.832031 C 593.449219 203.832031 600.28125 196.621094 600.28125 188.269531 C 600.28125 179.542969 593.449219 172.710938 584.71875 172.710938 Z M 584.71875 172.710938 " fill-opacity="1" fill-rule="evenodd"/><path fill="#01baef" d="M 668.597656 219.015625 C 651.519531 219.015625 637.855469 204.972656 637.855469 188.269531 C 637.855469 171.191406 651.519531 157.527344 668.597656 157.527344 C 685.300781 157.527344 698.964844 171.191406 698.964844 188.269531 C 698.964844 204.972656 685.300781 219.015625 668.597656 219.015625 Z M 668.597656 172.710938 C 659.871094 172.710938 653.039062 179.542969 653.039062 188.269531 C 653.039062 196.621094 659.871094 203.832031 668.597656 203.832031 C 676.949219 203.832031 683.78125 196.621094 683.78125 188.269531 C 683.78125 179.542969 676.949219 172.710938 668.597656 172.710938 Z M 668.597656 172.710938 " fill-opacity="1" fill-rule="evenodd"/><g clip-path="url(#852c4e1a1d)"><path fill="#01baef" d="M 681.125 701.046875 L 128.496094 701.046875 C 102.308594 701.046875 81.050781 679.792969 81.050781 653.601562 L 81.050781 156.769531 C 81.050781 130.199219 102.308594 108.945312 128.496094 108.945312 L 681.125 108.945312 C 707.3125 108.945312 728.949219 130.199219 728.949219 156.769531 L 728.949219 653.601562 C 728.949219 679.792969 707.3125 701.046875 681.125 701.046875 Z M 128.496094 124.128906 C 110.65625 124.128906 96.234375 138.929688 96.234375 156.769531 L 96.234375 653.601562 C 96.234375 671.441406 110.65625 685.863281 128.496094 685.863281 L 681.125 685.863281 C 698.964844 685.863281 713.765625 671.441406 713.765625 653.601562 L 713.765625 156.769531 C 713.765625 138.929688 698.964844 124.128906 681.125 124.128906 Z M 128.496094 124.128906 " fill-opacity="1" fill-rule="evenodd"/></g><path fill="#01baef" d="M 721.355469 267.597656 L 88.644531 267.597656 C 84.46875 267.597656 81.050781 264.183594 81.050781 260.007812 C 81.050781 255.832031 84.46875 252.414062 88.644531 252.414062 L 721.355469 252.414062 C 725.53125 252.414062 728.949219 255.832031 728.949219 260.007812 C 728.949219 264.183594 725.53125 267.597656 721.355469 267.597656 Z M 721.355469 267.597656 " fill-opacity="1" fill-rule="evenodd"/><path fill="#01baef" d="M 378.621094 543.910156 C 372.929688 543.910156 367.234375 541.632812 363.4375 537.460938 L 327.003906 501.402344 C 323.207031 497.226562 320.929688 491.914062 320.929688 486.21875 C 320.929688 480.527344 323.207031 474.832031 327.003906 470.660156 C 331.175781 466.863281 336.871094 464.585938 342.5625 464.585938 C 348.257812 464.585938 353.949219 466.863281 357.746094 470.660156 L 378.621094 491.535156 L 451.875 418.28125 C 456.050781 414.105469 461.742188 411.828125 467.4375 411.828125 C 473.128906 411.828125 478.441406 414.105469 482.617188 418.28125 C 491.347656 426.628906 491.347656 440.292969 482.617188 449.023438 L 393.804688 537.460938 C 390.007812 541.632812 384.3125 543.910156 378.621094 543.910156 Z M 342.5625 479.769531 C 340.664062 479.769531 339.148438 480.148438 338.007812 481.664062 C 336.871094 482.804688 336.109375 484.320312 336.109375 486.21875 C 336.109375 487.738281 336.871094 489.636719 338.007812 490.773438 L 374.066406 526.832031 C 376.34375 529.488281 380.898438 529.488281 383.175781 526.832031 L 471.992188 438.015625 C 474.648438 435.738281 474.648438 431.5625 471.992188 428.90625 C 469.714844 426.628906 465.160156 426.628906 462.882812 428.90625 L 383.933594 507.855469 C 380.898438 510.511719 376.34375 510.511719 373.308594 507.855469 L 347.117188 481.664062 C 345.980469 480.148438 344.082031 479.769531 342.5625 479.769531 Z M 342.5625 479.769531 " fill-opacity="1" fill-rule="evenodd"/></svg>