<svg width="600" height="600" viewBox="0 0 600 600" fill="none" xmlns="http://www.w3.org/2000/svg">
<rect x="43.5" y="154.5" width="513" height="291" rx="24.5" fill="#EFF4FF"/>
<rect x="43.5" y="154.5" width="513" height="291" rx="24.5" stroke="#B2CCFF"/>
<g filter="url(#filter0_dd_773_7267)">
<rect x="96" y="110" width="184" height="64" rx="12" fill="white"/>
<rect x="111" y="122" width="40" height="40" rx="8" fill="#EFF4FF"/>
<path opacity="0.2" d="M140.75 145.375C140.75 146.824 139.407 148 137.75 148C136.093 148 134.75 146.824 134.75 145.375C134.75 143.926 136.093 142.75 137.75 142.75C139.407 142.75 140.75 143.926 140.75 145.375ZM122.264 144.25H130.736L126.5 135.25L122.264 144.25Z" fill="#004EEB"/>
<path d="M127.179 134.93C127.118 134.801 127.022 134.693 126.902 134.616C126.782 134.54 126.642 134.499 126.5 134.499C126.358 134.499 126.218 134.54 126.098 134.616C125.978 134.693 125.882 134.801 125.821 134.93L119.821 147.68C119.779 147.769 119.755 147.866 119.751 147.964C119.746 148.063 119.761 148.161 119.794 148.254C119.862 148.441 120.001 148.594 120.181 148.678C120.361 148.763 120.567 148.773 120.754 148.705C120.941 148.638 121.094 148.499 121.179 148.319L122.741 145H130.259L131.821 148.319C131.863 148.408 131.922 148.488 131.995 148.554C132.068 148.621 132.153 148.672 132.246 148.705C132.338 148.739 132.437 148.753 132.535 148.749C132.634 148.744 132.73 148.72 132.819 148.678C132.908 148.636 132.988 148.577 133.055 148.504C133.121 148.432 133.172 148.346 133.206 148.254C133.239 148.161 133.254 148.063 133.249 147.964C133.245 147.866 133.221 147.769 133.179 147.68L127.179 134.93ZM123.447 143.5L126.5 137.012L129.553 143.5H123.447ZM137.75 139C136.554 139 135.619 139.325 134.972 139.968C134.837 140.109 134.762 140.297 134.763 140.493C134.765 140.688 134.843 140.876 134.981 141.015C135.118 141.154 135.305 141.233 135.501 141.237C135.696 141.24 135.885 141.167 136.028 141.033C136.384 140.679 136.965 140.5 137.75 140.5C138.99 140.5 140 141.344 140 142.375V142.677C139.334 142.232 138.551 141.996 137.75 142C135.682 142 134 143.514 134 145.375C134 147.236 135.682 148.75 137.75 148.75C138.551 148.754 139.335 148.517 140 148.07C140.009 148.269 140.097 148.456 140.245 148.59C140.392 148.724 140.586 148.794 140.785 148.785C140.984 148.776 141.171 148.688 141.305 148.541C141.439 148.393 141.509 148.199 141.5 148V142.375C141.5 140.514 139.818 139 137.75 139ZM137.75 147.25C136.51 147.25 135.5 146.406 135.5 145.375C135.5 144.344 136.51 143.5 137.75 143.5C138.99 143.5 140 144.344 140 145.375C140 146.406 138.99 147.25 137.75 147.25Z" fill="#004EEB"/>
<rect x="161" y="122" width="103" height="6" rx="2" fill="#EAECF0"/>
<rect x="161" y="137" width="58" height="6" rx="2" fill="#EAECF0"/>
<rect x="161" y="152" width="103" height="6" rx="2" fill="#EAECF0"/>
<rect x="96.5" y="110.5" width="183" height="63" rx="11.5" stroke="#B2CCFF"/>
</g>
<g filter="url(#filter1_dd_773_7267)">
<rect x="96" y="190" width="184" height="64" rx="12" fill="white"/>
<rect x="111" y="202" width="40" height="40" rx="8" fill="#EFF4FF"/>
<path opacity="0.2" d="M140.75 222C140.75 223.173 139.079 224.058 138.624 225.158C138.185 226.22 138.757 228.031 137.894 228.894C137.032 229.758 135.22 229.185 134.158 229.624C133.063 230.079 132.172 231.75 131 231.75C129.828 231.75 128.937 230.079 127.842 229.624C126.78 229.185 124.968 229.757 124.106 228.894C123.243 228.032 123.815 226.22 123.376 225.158C122.921 224.063 121.25 223.172 121.25 222C121.25 220.828 122.921 219.937 123.376 218.842C123.815 217.781 123.243 215.968 124.106 215.106C124.968 214.243 126.781 214.815 127.842 214.376C128.942 213.921 129.828 212.25 131 212.25C132.172 212.25 133.063 213.921 134.158 214.376C135.22 214.815 137.032 214.243 137.894 215.106C138.757 215.968 138.185 217.78 138.624 218.842C139.079 219.942 140.75 220.828 140.75 222Z" fill="#004EEB"/>
<path d="M140.174 219.639C139.821 219.27 139.455 218.889 139.318 218.555C139.19 218.248 139.182 217.74 139.175 217.248C139.161 216.333 139.146 215.296 138.425 214.575C137.704 213.854 136.667 213.839 135.752 213.825C135.26 213.817 134.752 213.81 134.445 213.682C134.112 213.545 133.73 213.179 133.361 212.826C132.714 212.204 131.979 211.5 131 211.5C130.021 211.5 129.287 212.204 128.639 212.826C128.27 213.179 127.889 213.545 127.555 213.682C127.25 213.81 126.74 213.817 126.248 213.825C125.333 213.839 124.296 213.854 123.575 214.575C122.854 215.296 122.844 216.333 122.825 217.248C122.817 217.74 122.81 218.248 122.682 218.555C122.545 218.888 122.179 219.27 121.826 219.639C121.204 220.286 120.5 221.021 120.5 222C120.5 222.979 121.204 223.713 121.826 224.361C122.179 224.73 122.545 225.111 122.682 225.445C122.81 225.752 122.817 226.26 122.825 226.752C122.839 227.667 122.854 228.704 123.575 229.425C124.296 230.146 125.333 230.161 126.248 230.175C126.74 230.182 127.248 230.19 127.555 230.318C127.888 230.455 128.27 230.821 128.639 231.174C129.286 231.796 130.021 232.5 131 232.5C131.979 232.5 132.713 231.796 133.361 231.174C133.73 230.821 134.111 230.455 134.445 230.318C134.752 230.19 135.26 230.182 135.752 230.175C136.667 230.161 137.704 230.146 138.425 229.425C139.146 228.704 139.161 227.667 139.175 226.752C139.182 226.26 139.19 225.752 139.318 225.445C139.455 225.112 139.821 224.73 140.174 224.361C140.796 223.714 141.5 222.979 141.5 222C141.5 221.021 140.796 220.287 140.174 219.639ZM139.092 223.323C138.642 223.792 138.177 224.276 137.931 224.872C137.695 225.443 137.684 226.097 137.675 226.73C137.666 227.386 137.655 228.073 137.364 228.364C137.072 228.654 136.39 228.666 135.73 228.675C135.097 228.684 134.443 228.695 133.872 228.931C133.276 229.177 132.792 229.642 132.323 230.092C131.854 230.541 131.375 231 131 231C130.625 231 130.142 230.539 129.677 230.092C129.212 229.644 128.724 229.177 128.128 228.931C127.557 228.695 126.903 228.684 126.27 228.675C125.614 228.666 124.927 228.655 124.636 228.364C124.346 228.072 124.334 227.39 124.325 226.73C124.316 226.097 124.305 225.443 124.069 224.872C123.822 224.276 123.357 223.792 122.908 223.323C122.459 222.854 122 222.375 122 222C122 221.625 122.461 221.142 122.908 220.677C123.356 220.212 123.822 219.724 124.069 219.128C124.305 218.557 124.316 217.903 124.325 217.27C124.334 216.614 124.345 215.927 124.636 215.636C124.928 215.346 125.61 215.334 126.27 215.325C126.903 215.316 127.557 215.305 128.128 215.069C128.724 214.822 129.208 214.357 129.677 213.908C130.146 213.459 130.625 213 131 213C131.375 213 131.858 213.461 132.323 213.908C132.788 214.356 133.276 214.822 133.872 215.069C134.443 215.305 135.097 215.316 135.73 215.325C136.386 215.334 137.073 215.345 137.364 215.636C137.654 215.928 137.666 216.61 137.675 217.27C137.684 217.903 137.695 218.557 137.931 219.128C138.177 219.724 138.642 220.208 139.092 220.677C139.541 221.146 140 221.625 140 222C140 222.375 139.539 222.858 139.092 223.323ZM132.125 226.875C132.125 227.098 132.059 227.315 131.935 227.5C131.812 227.685 131.636 227.829 131.431 227.914C131.225 228 130.999 228.022 130.781 227.978C130.562 227.935 130.362 227.828 130.205 227.67C130.047 227.513 129.94 227.313 129.897 227.094C129.853 226.876 129.875 226.65 129.961 226.444C130.046 226.239 130.19 226.063 130.375 225.94C130.56 225.816 130.777 225.75 131 225.75C131.298 225.75 131.585 225.869 131.795 226.08C132.006 226.29 132.125 226.577 132.125 226.875ZM134.75 220.125C134.75 221.754 133.46 223.118 131.75 223.432V223.5C131.75 223.699 131.671 223.89 131.53 224.03C131.39 224.171 131.199 224.25 131 224.25C130.801 224.25 130.61 224.171 130.47 224.03C130.329 223.89 130.25 223.699 130.25 223.5V222.75C130.25 222.551 130.329 222.36 130.47 222.22C130.61 222.079 130.801 222 131 222C132.24 222 133.25 221.156 133.25 220.125C133.25 219.094 132.24 218.25 131 218.25C129.76 218.25 128.75 219.094 128.75 220.125V220.5C128.75 220.699 128.671 220.89 128.53 221.03C128.39 221.171 128.199 221.25 128 221.25C127.801 221.25 127.61 221.171 127.47 221.03C127.329 220.89 127.25 220.699 127.25 220.5V220.125C127.25 218.264 128.932 216.75 131 216.75C133.068 216.75 134.75 218.264 134.75 220.125Z" fill="#004EEB"/>
<rect x="161" y="202" width="103" height="6" rx="2" fill="#EAECF0"/>
<rect x="161" y="217" width="58" height="6" rx="2" fill="#EAECF0"/>
<rect x="161" y="232" width="103" height="6" rx="2" fill="#EAECF0"/>
<rect x="96.5" y="190.5" width="183" height="63" rx="11.5" stroke="#B2CCFF"/>
</g>
<g filter="url(#filter2_dd_773_7267)">
<rect x="96" y="270" width="184" height="64" rx="12" fill="white"/>
<rect x="111" y="282" width="40" height="40" rx="8" fill="#EFF4FF"/>
<path opacity="0.2" d="M138.5 298.25H133.25V293L138.5 298.25Z" fill="#004EEB"/>
<path d="M139.031 297.719L133.781 292.469C133.711 292.4 133.628 292.345 133.537 292.307C133.446 292.269 133.349 292.25 133.25 292.25H124.25C123.852 292.25 123.471 292.408 123.189 292.689C122.908 292.971 122.75 293.352 122.75 293.75V310.25C122.75 310.648 122.908 311.029 123.189 311.311C123.471 311.592 123.852 311.75 124.25 311.75H137.75C138.148 311.75 138.529 311.592 138.811 311.311C139.092 311.029 139.25 310.648 139.25 310.25V298.25C139.25 298.151 139.231 298.054 139.193 297.963C139.155 297.872 139.1 297.789 139.031 297.719ZM134 294.81L136.69 297.5H134V294.81ZM137.75 310.25H124.25V293.75H132.5V298.25C132.5 298.449 132.579 298.64 132.72 298.78C132.86 298.921 133.051 299 133.25 299H137.75V310.25ZM134.75 302.75C134.75 302.949 134.671 303.14 134.53 303.28C134.39 303.421 134.199 303.5 134 303.5H128C127.801 303.5 127.61 303.421 127.47 303.28C127.329 303.14 127.25 302.949 127.25 302.75C127.25 302.551 127.329 302.36 127.47 302.22C127.61 302.079 127.801 302 128 302H134C134.199 302 134.39 302.079 134.53 302.22C134.671 302.36 134.75 302.551 134.75 302.75ZM134.75 305.75C134.75 305.949 134.671 306.14 134.53 306.28C134.39 306.421 134.199 306.5 134 306.5H128C127.801 306.5 127.61 306.421 127.47 306.28C127.329 306.14 127.25 305.949 127.25 305.75C127.25 305.551 127.329 305.36 127.47 305.22C127.61 305.079 127.801 305 128 305H134C134.199 305 134.39 305.079 134.53 305.22C134.671 305.36 134.75 305.551 134.75 305.75Z" fill="#004EEB"/>
<rect x="161" y="282" width="103" height="6" rx="2" fill="#EAECF0"/>
<rect x="161" y="297" width="58" height="6" rx="2" fill="#EAECF0"/>
<rect x="161" y="312" width="103" height="6" rx="2" fill="#EAECF0"/>
<rect x="96.5" y="270.5" width="183" height="63" rx="11.5" stroke="#B2CCFF"/>
</g>
<g filter="url(#filter3_dd_773_7267)">
<rect x="96" y="350" width="184" height="64" rx="12" fill="white"/>
<rect x="111" y="362" width="40" height="40" rx="8" fill="#EFF4FF"/>
<path opacity="0.2" d="M138.682 380.682L136.057 383.307C135.384 383.982 134.513 384.425 133.571 384.571C133.425 385.513 132.982 386.384 132.307 387.057L129.682 389.682C128.836 390.514 127.695 390.979 126.508 390.974C125.321 390.969 124.183 390.495 123.344 389.656C122.505 388.817 122.031 387.68 122.026 386.492C122.021 385.305 122.486 384.164 123.318 383.318L125.943 380.693C126.616 380.018 127.487 379.575 128.429 379.429C128.575 378.487 129.018 377.616 129.693 376.943L132.318 374.318C133.164 373.486 134.305 373.021 135.492 373.026C136.68 373.031 137.817 373.505 138.656 374.344C139.496 375.183 139.969 376.32 139.974 377.508C139.979 378.695 139.514 379.836 138.682 380.682Z" fill="#004EEB"/>
<path d="M131.894 387.471C132.035 387.612 132.114 387.803 132.114 388.001C132.114 388.2 132.035 388.391 131.894 388.532L130.212 390.219C129.227 391.204 127.891 391.757 126.497 391.757C125.104 391.756 123.768 391.202 122.783 390.217C121.798 389.231 121.245 387.895 121.246 386.502C121.246 385.108 121.8 383.772 122.786 382.788L125.422 380.152C126.368 379.205 127.641 378.655 128.98 378.615C130.318 378.575 131.622 379.048 132.623 379.938C132.772 380.07 132.863 380.256 132.874 380.455C132.886 380.654 132.819 380.85 132.687 380.999C132.554 381.148 132.368 381.238 132.169 381.25C131.97 381.262 131.774 381.195 131.625 381.063C130.91 380.428 129.98 380.09 129.024 380.118C128.068 380.147 127.159 380.539 126.483 381.215L123.847 383.849C123.143 384.552 122.748 385.506 122.748 386.501C122.748 387.496 123.143 388.45 123.847 389.153C124.55 389.857 125.504 390.252 126.499 390.252C127.494 390.252 128.448 389.857 129.151 389.153L130.833 387.471C130.903 387.402 130.985 387.346 131.077 387.308C131.168 387.271 131.265 387.251 131.364 387.251C131.462 387.251 131.56 387.271 131.651 387.308C131.742 387.346 131.825 387.402 131.894 387.471ZM139.214 373.784C138.229 372.8 136.893 372.248 135.501 372.248C134.109 372.248 132.773 372.8 131.787 373.784L130.106 375.468C129.965 375.609 129.886 375.8 129.886 375.999C129.886 376.198 129.965 376.389 130.106 376.529C130.247 376.67 130.438 376.749 130.637 376.749C130.835 376.749 131.026 376.669 131.167 376.529L132.849 374.847C133.552 374.143 134.506 373.748 135.501 373.748C136.496 373.748 137.45 374.143 138.153 374.847C138.857 375.55 139.252 376.504 139.252 377.499C139.252 378.494 138.857 379.448 138.153 380.151L135.517 382.788C134.84 383.463 133.931 383.855 132.976 383.883C132.02 383.911 131.089 383.573 130.375 382.938C130.301 382.872 130.215 382.822 130.121 382.789C130.028 382.757 129.929 382.744 129.831 382.75C129.732 382.756 129.636 382.781 129.547 382.824C129.458 382.867 129.379 382.927 129.313 383.001C129.248 383.075 129.198 383.161 129.165 383.254C129.133 383.348 129.12 383.447 129.125 383.545C129.131 383.644 129.157 383.74 129.2 383.829C129.243 383.918 129.303 383.997 129.377 384.063C130.378 384.952 131.681 385.426 133.02 385.386C134.359 385.347 135.631 384.797 136.578 383.85L139.214 381.214C140.198 380.229 140.751 378.893 140.751 377.5C140.751 376.107 140.198 374.771 139.214 373.786V373.784Z" fill="#004EEB"/>
<rect x="161" y="362" width="103" height="6" rx="2" fill="#EAECF0"/>
<rect x="161" y="377" width="58" height="6" rx="2" fill="#EAECF0"/>
<rect x="161" y="392" width="103" height="6" rx="2" fill="#EAECF0"/>
<rect x="96.5" y="350.5" width="183" height="63" rx="11.5" stroke="#B2CCFF"/>
</g>
<g filter="url(#filter4_dd_773_7267)">
<rect x="96" y="430" width="184" height="64" rx="12" fill="white"/>
<rect x="111" y="442" width="40" height="40" rx="8" fill="#EFF4FF"/>
<path opacity="0.2" d="M121.25 465H127.25L124.168 470.138C124.061 470.073 123.973 469.983 123.911 469.875L121.348 465.389C121.281 465.271 121.247 465.136 121.25 465ZM134.75 465L137.833 470.138C137.939 470.072 138.028 469.981 138.089 469.872L140.651 465.389C140.719 465.271 140.753 465.136 140.75 465H134.75ZM128.415 453.75C128.289 453.751 128.166 453.783 128.055 453.844L131 458.75L133.945 453.844C133.834 453.783 133.71 453.751 133.584 453.75H128.415Z" fill="#004EEB"/>
<path d="M141.275 464.229L134.856 453.705C134.722 453.489 134.534 453.31 134.312 453.187C134.089 453.064 133.838 452.999 133.584 453H128.415C128.161 452.999 127.91 453.064 127.688 453.187C127.465 453.31 127.278 453.489 127.144 453.705L127.139 453.712L120.729 464.222C120.585 464.452 120.506 464.716 120.501 464.987C120.495 465.258 120.563 465.526 120.698 465.761L123.259 470.244C123.39 470.474 123.58 470.665 123.809 470.797C124.037 470.93 124.297 471 124.561 471H137.438C137.702 471 137.962 470.93 138.191 470.797C138.419 470.665 138.609 470.474 138.74 470.244L141.301 465.761C141.436 465.527 141.504 465.261 141.5 464.992C141.495 464.722 141.418 464.458 141.275 464.229ZM139.531 464.25H135.174L131.875 458.75L134.008 455.195L139.531 464.25ZM128.575 464.25L131 460.208L133.425 464.25H128.575ZM134.325 465.75L136.575 469.5H125.425L127.675 465.75H134.325ZM131 457.292L129.324 454.5L132.678 454.495L131 457.292ZM127.992 455.195L130.125 458.75L126.825 464.25H122.469L127.992 455.195ZM122.426 465.75H125.925L124.13 468.743L122.426 465.75ZM137.87 468.743L136.074 465.75H139.581L137.87 468.743Z" fill="#004EEB"/>
<rect x="161" y="442" width="103" height="6" rx="2" fill="#EAECF0"/>
<rect x="161" y="457" width="58" height="6" rx="2" fill="#EAECF0"/>
<rect x="161" y="472" width="103" height="6" rx="2" fill="#EAECF0"/>
<rect x="96.5" y="430.5" width="183" height="63" rx="11.5" stroke="#B2CCFF"/>
</g>
<g filter="url(#filter5_dd_773_7267)">
<rect x="366" y="230" width="140" height="140" rx="24" fill="white"/>
<mask id="mask0_773_7267" style="mask-type:luminance" maskUnits="userSpaceOnUse" x="400" y="264" width="72" height="72">
<path d="M472 264H400V336H472V264Z" fill="white"/>
</mask>
<g mask="url(#mask0_773_7267)">
<path d="M452.317 278.418H450.518V274.488C452.997 273.612 454.484 271.077 454.039 268.486C453.594 265.894 451.348 264 448.718 264C446.089 264 443.843 265.894 443.398 268.486C442.953 271.077 444.44 273.612 446.919 274.488V278.418H425.325V274.488C427.804 273.612 429.291 271.077 428.847 268.486C428.403 265.894 426.156 264 423.526 264C420.897 264 418.65 265.894 418.206 268.486C417.761 271.077 419.248 273.612 421.727 274.488V278.418H419.927C414.961 278.424 410.936 282.449 410.93 287.415V318.006C410.936 322.973 414.961 326.998 419.927 327.003H425.326V334.201C425.326 334.522 425.412 334.837 425.575 335.114C425.738 335.391 425.972 335.619 426.253 335.774C426.534 335.93 426.852 336.008 427.173 335.999C427.493 335.991 427.806 335.896 428.079 335.726L442.037 327.003H452.317C457.285 326.999 461.31 322.973 461.315 318.006V287.415C461.31 282.449 457.285 278.423 452.317 278.418ZM427.125 289.215C430.105 289.219 432.52 291.634 432.524 294.613C432.524 295.607 431.718 296.412 430.724 296.412C429.73 296.412 428.925 295.607 428.925 294.613C428.925 293.62 428.119 292.814 427.125 292.814C426.132 292.814 425.326 293.62 425.326 294.613C425.326 295.607 424.52 296.412 423.526 296.412C422.533 296.412 421.727 295.607 421.727 294.613C421.73 291.633 424.145 289.219 427.125 289.215ZM449.523 311.518C445.335 313.494 440.752 314.489 436.122 314.428C431.492 314.489 426.91 313.494 422.721 311.518C421.832 311.074 421.473 309.993 421.917 309.104C422.361 308.215 423.442 307.854 424.331 308.299C431.053 311.659 441.194 311.659 447.914 308.299C448.803 307.854 449.884 308.215 450.328 309.104C450.773 309.993 450.412 311.074 449.523 311.518ZM448.719 296.412C448.242 296.413 447.783 296.223 447.446 295.886C447.109 295.549 446.919 295.09 446.919 294.613C446.919 293.62 446.114 292.814 445.12 292.814C444.126 292.814 443.32 293.62 443.32 294.613C443.32 295.607 442.515 296.412 441.52 296.412C440.527 296.412 439.722 295.607 439.722 294.613C439.722 291.632 442.138 289.215 445.12 289.215C448.101 289.215 450.518 291.632 450.518 294.613C450.518 295.09 450.329 295.549 449.991 295.886C449.654 296.223 449.196 296.413 448.719 296.412ZM466.713 292.814H464.913V310.809H466.713C469.693 310.805 472.108 308.39 472.111 305.41V298.212C472.108 295.232 469.693 292.817 466.713 292.814ZM400.133 298.212V305.41C400.137 308.39 402.552 310.805 405.532 310.808H407.331V292.814H405.532C402.552 292.817 400.137 295.232 400.133 298.212Z" fill="#155EEF"/>
</g>
<rect x="366.5" y="230.5" width="139" height="139" rx="23.5" stroke="#155EEF"/>
</g>
<path d="M280 142H355V143H280V142Z" fill="url(#paint0_linear_773_7267)"/>
<path d="M355 142L355 463L354 463L354 142L355 142Z" fill="url(#paint1_linear_773_7267)"/>
<path d="M280 222H355V223H280V222Z" fill="url(#paint2_linear_773_7267)"/>
<path d="M280 302H374V303H280V302Z" fill="url(#paint3_linear_773_7267)"/>
<path d="M280 382H355V383H280V382Z" fill="url(#paint4_linear_773_7267)"/>
<path d="M280 462H355V463H280V462Z" fill="url(#paint5_linear_773_7267)"/>
<defs>
<filter id="filter0_dd_773_7267" x="90" y="108" width="196" height="76" filterUnits="userSpaceOnUse" color-interpolation-filters="sRGB">
<feFlood flood-opacity="0" result="BackgroundImageFix"/>
<feColorMatrix in="SourceAlpha" type="matrix" values="0 0 0 0 0 0 0 0 0 0 0 0 0 0 0 0 0 0 127 0" result="hardAlpha"/>
<feMorphology radius="2" operator="erode" in="SourceAlpha" result="effect1_dropShadow_773_7267"/>
<feOffset dy="2"/>
<feGaussianBlur stdDeviation="2"/>
<feColorMatrix type="matrix" values="0 0 0 0 0.0627451 0 0 0 0 0.0941176 0 0 0 0 0.156863 0 0 0 0.06 0"/>
<feBlend mode="normal" in2="BackgroundImageFix" result="effect1_dropShadow_773_7267"/>
<feColorMatrix in="SourceAlpha" type="matrix" values="0 0 0 0 0 0 0 0 0 0 0 0 0 0 0 0 0 0 127 0" result="hardAlpha"/>
<feMorphology radius="2" operator="erode" in="SourceAlpha" result="effect2_dropShadow_773_7267"/>
<feOffset dy="4"/>
<feGaussianBlur stdDeviation="4"/>
<feColorMatrix type="matrix" values="0 0 0 0 0.0627451 0 0 0 0 0.0941176 0 0 0 0 0.156863 0 0 0 0.1 0"/>
<feBlend mode="normal" in2="effect1_dropShadow_773_7267" result="effect2_dropShadow_773_7267"/>
<feBlend mode="normal" in="SourceGraphic" in2="effect2_dropShadow_773_7267" result="shape"/>
</filter>
<filter id="filter1_dd_773_7267" x="90" y="188" width="196" height="76" filterUnits="userSpaceOnUse" color-interpolation-filters="sRGB">
<feFlood flood-opacity="0" result="BackgroundImageFix"/>
<feColorMatrix in="SourceAlpha" type="matrix" values="0 0 0 0 0 0 0 0 0 0 0 0 0 0 0 0 0 0 127 0" result="hardAlpha"/>
<feMorphology radius="2" operator="erode" in="SourceAlpha" result="effect1_dropShadow_773_7267"/>
<feOffset dy="2"/>
<feGaussianBlur stdDeviation="2"/>
<feColorMatrix type="matrix" values="0 0 0 0 0.0627451 0 0 0 0 0.0941176 0 0 0 0 0.156863 0 0 0 0.06 0"/>
<feBlend mode="normal" in2="BackgroundImageFix" result="effect1_dropShadow_773_7267"/>
<feColorMatrix in="SourceAlpha" type="matrix" values="0 0 0 0 0 0 0 0 0 0 0 0 0 0 0 0 0 0 127 0" result="hardAlpha"/>
<feMorphology radius="2" operator="erode" in="SourceAlpha" result="effect2_dropShadow_773_7267"/>
<feOffset dy="4"/>
<feGaussianBlur stdDeviation="4"/>
<feColorMatrix type="matrix" values="0 0 0 0 0.0627451 0 0 0 0 0.0941176 0 0 0 0 0.156863 0 0 0 0.1 0"/>
<feBlend mode="normal" in2="effect1_dropShadow_773_7267" result="effect2_dropShadow_773_7267"/>
<feBlend mode="normal" in="SourceGraphic" in2="effect2_dropShadow_773_7267" result="shape"/>
</filter>
<filter id="filter2_dd_773_7267" x="90" y="268" width="196" height="76" filterUnits="userSpaceOnUse" color-interpolation-filters="sRGB">
<feFlood flood-opacity="0" result="BackgroundImageFix"/>
<feColorMatrix in="SourceAlpha" type="matrix" values="0 0 0 0 0 0 0 0 0 0 0 0 0 0 0 0 0 0 127 0" result="hardAlpha"/>
<feMorphology radius="2" operator="erode" in="SourceAlpha" result="effect1_dropShadow_773_7267"/>
<feOffset dy="2"/>
<feGaussianBlur stdDeviation="2"/>
<feColorMatrix type="matrix" values="0 0 0 0 0.0627451 0 0 0 0 0.0941176 0 0 0 0 0.156863 0 0 0 0.06 0"/>
<feBlend mode="normal" in2="BackgroundImageFix" result="effect1_dropShadow_773_7267"/>
<feColorMatrix in="SourceAlpha" type="matrix" values="0 0 0 0 0 0 0 0 0 0 0 0 0 0 0 0 0 0 127 0" result="hardAlpha"/>
<feMorphology radius="2" operator="erode" in="SourceAlpha" result="effect2_dropShadow_773_7267"/>
<feOffset dy="4"/>
<feGaussianBlur stdDeviation="4"/>
<feColorMatrix type="matrix" values="0 0 0 0 0.0627451 0 0 0 0 0.0941176 0 0 0 0 0.156863 0 0 0 0.1 0"/>
<feBlend mode="normal" in2="effect1_dropShadow_773_7267" result="effect2_dropShadow_773_7267"/>
<feBlend mode="normal" in="SourceGraphic" in2="effect2_dropShadow_773_7267" result="shape"/>
</filter>
<filter id="filter3_dd_773_7267" x="90" y="348" width="196" height="76" filterUnits="userSpaceOnUse" color-interpolation-filters="sRGB">
<feFlood flood-opacity="0" result="BackgroundImageFix"/>
<feColorMatrix in="SourceAlpha" type="matrix" values="0 0 0 0 0 0 0 0 0 0 0 0 0 0 0 0 0 0 127 0" result="hardAlpha"/>
<feMorphology radius="2" operator="erode" in="SourceAlpha" result="effect1_dropShadow_773_7267"/>
<feOffset dy="2"/>
<feGaussianBlur stdDeviation="2"/>
<feColorMatrix type="matrix" values="0 0 0 0 0.0627451 0 0 0 0 0.0941176 0 0 0 0 0.156863 0 0 0 0.06 0"/>
<feBlend mode="normal" in2="BackgroundImageFix" result="effect1_dropShadow_773_7267"/>
<feColorMatrix in="SourceAlpha" type="matrix" values="0 0 0 0 0 0 0 0 0 0 0 0 0 0 0 0 0 0 127 0" result="hardAlpha"/>
<feMorphology radius="2" operator="erode" in="SourceAlpha" result="effect2_dropShadow_773_7267"/>
<feOffset dy="4"/>
<feGaussianBlur stdDeviation="4"/>
<feColorMatrix type="matrix" values="0 0 0 0 0.0627451 0 0 0 0 0.0941176 0 0 0 0 0.156863 0 0 0 0.1 0"/>
<feBlend mode="normal" in2="effect1_dropShadow_773_7267" result="effect2_dropShadow_773_7267"/>
<feBlend mode="normal" in="SourceGraphic" in2="effect2_dropShadow_773_7267" result="shape"/>
</filter>
<filter id="filter4_dd_773_7267" x="90" y="428" width="196" height="76" filterUnits="userSpaceOnUse" color-interpolation-filters="sRGB">
<feFlood flood-opacity="0" result="BackgroundImageFix"/>
<feColorMatrix in="SourceAlpha" type="matrix" values="0 0 0 0 0 0 0 0 0 0 0 0 0 0 0 0 0 0 127 0" result="hardAlpha"/>
<feMorphology radius="2" operator="erode" in="SourceAlpha" result="effect1_dropShadow_773_7267"/>
<feOffset dy="2"/>
<feGaussianBlur stdDeviation="2"/>
<feColorMatrix type="matrix" values="0 0 0 0 0.0627451 0 0 0 0 0.0941176 0 0 0 0 0.156863 0 0 0 0.06 0"/>
<feBlend mode="normal" in2="BackgroundImageFix" result="effect1_dropShadow_773_7267"/>
<feColorMatrix in="SourceAlpha" type="matrix" values="0 0 0 0 0 0 0 0 0 0 0 0 0 0 0 0 0 0 127 0" result="hardAlpha"/>
<feMorphology radius="2" operator="erode" in="SourceAlpha" result="effect2_dropShadow_773_7267"/>
<feOffset dy="4"/>
<feGaussianBlur stdDeviation="4"/>
<feColorMatrix type="matrix" values="0 0 0 0 0.0627451 0 0 0 0 0.0941176 0 0 0 0 0.156863 0 0 0 0.1 0"/>
<feBlend mode="normal" in2="effect1_dropShadow_773_7267" result="effect2_dropShadow_773_7267"/>
<feBlend mode="normal" in="SourceGraphic" in2="effect2_dropShadow_773_7267" result="shape"/>
</filter>
<filter id="filter5_dd_773_7267" x="360" y="228" width="152" height="152" filterUnits="userSpaceOnUse" color-interpolation-filters="sRGB">
<feFlood flood-opacity="0" result="BackgroundImageFix"/>
<feColorMatrix in="SourceAlpha" type="matrix" values="0 0 0 0 0 0 0 0 0 0 0 0 0 0 0 0 0 0 127 0" result="hardAlpha"/>
<feMorphology radius="2" operator="erode" in="SourceAlpha" result="effect1_dropShadow_773_7267"/>
<feOffset dy="2"/>
<feGaussianBlur stdDeviation="2"/>
<feColorMatrix type="matrix" values="0 0 0 0 0.0627451 0 0 0 0 0.0941176 0 0 0 0 0.156863 0 0 0 0.06 0"/>
<feBlend mode="normal" in2="BackgroundImageFix" result="effect1_dropShadow_773_7267"/>
<feColorMatrix in="SourceAlpha" type="matrix" values="0 0 0 0 0 0 0 0 0 0 0 0 0 0 0 0 0 0 127 0" result="hardAlpha"/>
<feMorphology radius="2" operator="erode" in="SourceAlpha" result="effect2_dropShadow_773_7267"/>
<feOffset dy="4"/>
<feGaussianBlur stdDeviation="4"/>
<feColorMatrix type="matrix" values="0 0 0 0 0.0627451 0 0 0 0 0.0941176 0 0 0 0 0.156863 0 0 0 0.1 0"/>
<feBlend mode="normal" in2="effect1_dropShadow_773_7267" result="effect2_dropShadow_773_7267"/>
<feBlend mode="normal" in="SourceGraphic" in2="effect2_dropShadow_773_7267" result="shape"/>
</filter>
<linearGradient id="paint0_linear_773_7267" x1="279.601" y1="142.494" x2="355.798" y2="142.494" gradientUnits="userSpaceOnUse">
<stop stop-color="#B2CCFF"/>
<stop offset="1" stop-color="#155EEF"/>
</linearGradient>
<linearGradient id="paint1_linear_773_7267" x1="354.506" y1="140.293" x2="354.504" y2="466.415" gradientUnits="userSpaceOnUse">
<stop stop-color="#155EEF"/>
<stop offset="1" stop-color="#155EEF"/>
</linearGradient>
<linearGradient id="paint2_linear_773_7267" x1="279.601" y1="222.494" x2="355.798" y2="222.494" gradientUnits="userSpaceOnUse">
<stop stop-color="#B2CCFF"/>
<stop offset="1" stop-color="#155EEF"/>
</linearGradient>
<linearGradient id="paint3_linear_773_7267" x1="279.5" y1="302.494" x2="375" y2="302.494" gradientUnits="userSpaceOnUse">
<stop stop-color="#B2CCFF"/>
<stop offset="1" stop-color="#155EEF"/>
</linearGradient>
<linearGradient id="paint4_linear_773_7267" x1="279.601" y1="382.494" x2="355.798" y2="382.494" gradientUnits="userSpaceOnUse">
<stop stop-color="#B2CCFF"/>
<stop offset="1" stop-color="#155EEF"/>
</linearGradient>
<linearGradient id="paint5_linear_773_7267" x1="279.601" y1="462.494" x2="355.798" y2="462.494" gradientUnits="userSpaceOnUse">
<stop stop-color="#B2CCFF"/>
<stop offset="1" stop-color="#155EEF"/>
</linearGradient>
</defs>
</svg>
