<svg xmlns="http://www.w3.org/2000/svg" xmlns:xlink="http://www.w3.org/1999/xlink" width="1080" zoomAndPan="magnify" viewBox="0 0 810 809.999993" height="1080" preserveAspectRatio="xMidYMid meet" version="1.0"><defs><clipPath id="dec3816595"><path d="M 18 97 L 791.921875 97 L 791.921875 712 L 18 712 Z M 18 97 " clip-rule="nonzero"/></clipPath><clipPath id="29771585b6"><path d="M 638.507812 202 L 663 202 L 663 235 L 638.507812 235 Z M 638.507812 202 " clip-rule="nonzero"/></clipPath><clipPath id="666ee21574"><path d="M 651 193.238281 L 694 193.238281 L 694 250.988281 L 651 250.988281 Z M 651 193.238281 " clip-rule="nonzero"/></clipPath><clipPath id="1110bf49fa"><path d="M 677 193.238281 L 725 193.238281 L 725 250.988281 L 677 250.988281 Z M 677 193.238281 " clip-rule="nonzero"/></clipPath><clipPath id="30e1883115"><path d="M 272.933594 448.304688 L 288.261719 448.304688 L 288.261719 463.632812 L 272.933594 463.632812 Z M 272.933594 448.304688 " clip-rule="nonzero"/></clipPath><clipPath id="3963621b38"><path d="M 280.597656 448.304688 C 276.363281 448.304688 272.933594 451.738281 272.933594 455.96875 C 272.933594 460.203125 276.363281 463.632812 280.597656 463.632812 C 284.828125 463.632812 288.261719 460.203125 288.261719 455.96875 C 288.261719 451.738281 284.828125 448.304688 280.597656 448.304688 Z M 280.597656 448.304688 " clip-rule="nonzero"/></clipPath><clipPath id="aedd2c3b60"><path d="M 325.632812 237.113281 L 349.144531 237.113281 L 349.144531 260.625 L 325.632812 260.625 Z M 325.632812 237.113281 " clip-rule="nonzero"/></clipPath><clipPath id="8403c35333"><path d="M 337.386719 237.113281 C 330.894531 237.113281 325.632812 242.378906 325.632812 248.871094 C 325.632812 255.363281 330.894531 260.625 337.386719 260.625 C 343.882812 260.625 349.144531 255.363281 349.144531 248.871094 C 349.144531 242.378906 343.882812 237.113281 337.386719 237.113281 Z M 337.386719 237.113281 " clip-rule="nonzero"/></clipPath><clipPath id="18f9552c45"><path d="M 689.210938 385.019531 L 715.289062 385.019531 L 715.289062 411.097656 L 689.210938 411.097656 Z M 689.210938 385.019531 " clip-rule="nonzero"/></clipPath><clipPath id="8fdb8b5b23"><path d="M 702.25 385.019531 C 695.050781 385.019531 689.210938 390.855469 689.210938 398.058594 C 689.210938 405.261719 695.050781 411.097656 702.25 411.097656 C 709.453125 411.097656 715.289062 405.261719 715.289062 398.058594 C 715.289062 390.855469 709.453125 385.019531 702.25 385.019531 Z M 702.25 385.019531 " clip-rule="nonzero"/></clipPath></defs><path fill="#0f172a" d="M 419.78125 264.605469 C 419.78125 265.265625 420.316406 265.800781 420.976562 265.800781 C 421.636719 265.800781 422.171875 265.265625 422.171875 264.605469 L 422.171875 255.042969 C 422.171875 254.382812 421.636719 253.847656 420.976562 253.847656 C 420.316406 253.847656 419.78125 254.382812 419.78125 255.042969 Z M 419.78125 264.605469 " fill-opacity="1" fill-rule="nonzero"/><path fill="#0f172a" d="M 241.101562 196.46875 L 231.539062 196.46875 C 230.878906 196.46875 230.34375 197.003906 230.34375 197.664062 C 230.34375 198.324219 230.878906 198.859375 231.539062 198.859375 L 241.101562 198.859375 C 241.761719 198.859375 242.296875 198.324219 242.296875 197.664062 C 242.296875 197.003906 241.761719 196.46875 241.101562 196.46875 Z M 241.101562 196.46875 " fill-opacity="1" fill-rule="nonzero"/><path fill="#0f172a" d="M 260.226562 196.46875 L 250.664062 196.46875 C 250.003906 196.46875 249.46875 197.003906 249.46875 197.664062 C 249.46875 198.324219 250.003906 198.859375 250.664062 198.859375 L 260.226562 198.859375 C 260.890625 198.859375 261.421875 198.324219 261.421875 197.664062 C 261.421875 197.003906 260.890625 196.46875 260.226562 196.46875 Z M 260.226562 196.46875 " fill-opacity="1" fill-rule="nonzero"/><path fill="#0f172a" d="M 394.113281 196.46875 L 384.550781 196.46875 C 383.890625 196.46875 383.355469 197.003906 383.355469 197.664062 C 383.355469 198.324219 383.890625 198.859375 384.550781 198.859375 L 394.113281 198.859375 C 394.777344 198.859375 395.308594 198.324219 395.308594 197.664062 C 395.308594 197.003906 394.777344 196.46875 394.113281 196.46875 Z M 394.113281 196.46875 " fill-opacity="1" fill-rule="nonzero"/><path fill="#0f172a" d="M 298.480469 196.46875 L 288.917969 196.46875 C 288.257812 196.46875 287.722656 197.003906 287.722656 197.664062 C 287.722656 198.324219 288.257812 198.859375 288.917969 198.859375 L 298.480469 198.859375 C 299.140625 198.859375 299.675781 198.324219 299.675781 197.664062 C 299.675781 197.003906 299.140625 196.46875 298.480469 196.46875 Z M 298.480469 196.46875 " fill-opacity="1" fill-rule="nonzero"/><path fill="#0f172a" d="M 419.78125 321.984375 C 419.78125 322.648438 420.316406 323.179688 420.976562 323.179688 C 421.636719 323.179688 422.171875 322.648438 422.171875 321.984375 L 422.171875 312.421875 C 422.171875 311.761719 421.636719 311.226562 420.976562 311.226562 C 420.316406 311.226562 419.78125 311.761719 419.78125 312.421875 Z M 419.78125 321.984375 " fill-opacity="1" fill-rule="nonzero"/><path fill="#0f172a" d="M 268.25 368.894531 L 258.6875 368.894531 C 258.027344 368.894531 257.492188 369.429688 257.492188 370.089844 C 257.492188 370.75 258.027344 371.285156 258.6875 371.285156 L 268.25 371.285156 C 268.910156 371.285156 269.445312 370.75 269.445312 370.089844 C 269.445312 369.429688 268.910156 368.894531 268.25 368.894531 Z M 268.25 368.894531 " fill-opacity="1" fill-rule="nonzero"/><path fill="#0f172a" d="M 306.503906 368.894531 L 296.941406 368.894531 C 296.28125 368.894531 295.746094 369.429688 295.746094 370.089844 C 295.746094 370.75 296.28125 371.285156 296.941406 371.285156 L 306.503906 371.285156 C 307.164062 371.285156 307.699219 370.75 307.699219 370.089844 C 307.699219 369.429688 307.164062 368.894531 306.503906 368.894531 Z M 306.503906 368.894531 " fill-opacity="1" fill-rule="nonzero"/><path fill="#0f172a" d="M 287.378906 368.894531 L 277.8125 368.894531 C 277.152344 368.894531 276.617188 369.429688 276.617188 370.089844 C 276.617188 370.75 277.152344 371.285156 277.8125 371.285156 L 287.378906 371.285156 C 288.039062 371.285156 288.574219 370.75 288.574219 370.089844 C 288.574219 369.429688 288.039062 368.894531 287.378906 368.894531 Z M 287.378906 368.894531 " fill-opacity="1" fill-rule="nonzero"/><path fill="#0f172a" d="M 217.804688 211.425781 C 217.144531 211.425781 216.609375 211.957031 216.609375 212.621094 L 216.609375 222.183594 C 216.609375 222.84375 217.144531 223.378906 217.804688 223.378906 C 218.464844 223.378906 219 222.84375 219 222.183594 L 219 212.621094 C 219 211.957031 218.464844 211.425781 217.804688 211.425781 Z M 217.804688 211.425781 " fill-opacity="1" fill-rule="nonzero"/><path fill="#0f172a" d="M 217.804688 230.550781 C 217.144531 230.550781 216.609375 231.085938 216.609375 231.746094 L 216.609375 241.308594 C 216.609375 241.96875 217.144531 242.503906 217.804688 242.503906 C 218.464844 242.503906 219 241.96875 219 241.308594 L 219 231.746094 C 219 231.085938 218.464844 230.550781 217.804688 230.550781 Z M 217.804688 230.550781 " fill-opacity="1" fill-rule="nonzero"/><path fill="#0f172a" d="M 420.976562 227.546875 C 421.636719 227.546875 422.171875 227.011719 422.171875 226.351562 L 422.171875 216.789062 C 422.171875 216.128906 421.636719 215.59375 420.976562 215.59375 C 420.316406 215.59375 419.78125 216.128906 419.78125 216.789062 L 419.78125 226.351562 C 419.78125 227.011719 420.316406 227.546875 420.976562 227.546875 Z M 420.976562 227.546875 " fill-opacity="1" fill-rule="nonzero"/><path fill="#0f172a" d="M 374.988281 196.46875 L 365.425781 196.46875 C 364.765625 196.46875 364.230469 197.003906 364.230469 197.664062 C 364.230469 198.324219 364.765625 198.859375 365.425781 198.859375 L 374.988281 198.859375 C 375.648438 198.859375 376.183594 198.324219 376.183594 197.664062 C 376.183594 197.003906 375.648438 196.46875 374.988281 196.46875 Z M 374.988281 196.46875 " fill-opacity="1" fill-rule="nonzero"/><path fill="#0f172a" d="M 355.863281 196.46875 L 346.296875 196.46875 C 345.636719 196.46875 345.101562 197.003906 345.101562 197.664062 C 345.101562 198.324219 345.636719 198.859375 346.296875 198.859375 L 355.863281 198.859375 C 356.523438 198.859375 357.058594 198.324219 357.058594 197.664062 C 357.058594 197.003906 356.523438 196.46875 355.863281 196.46875 Z M 355.863281 196.46875 " fill-opacity="1" fill-rule="nonzero"/><path fill="#0f172a" d="M 217.804688 287.929688 C 217.144531 287.929688 216.609375 288.464844 216.609375 289.125 L 216.609375 298.691406 C 216.609375 299.351562 217.144531 299.886719 217.804688 299.886719 C 218.464844 299.886719 219 299.351562 219 298.691406 L 219 289.125 C 219 288.464844 218.464844 287.929688 217.804688 287.929688 Z M 217.804688 287.929688 " fill-opacity="1" fill-rule="nonzero"/><path fill="#0f172a" d="M 419.78125 302.859375 C 419.78125 303.519531 420.316406 304.054688 420.976562 304.054688 C 421.636719 304.054688 422.171875 303.519531 422.171875 302.859375 L 422.171875 293.296875 C 422.171875 292.636719 421.636719 292.101562 420.976562 292.101562 C 420.316406 292.101562 419.78125 292.636719 419.78125 293.296875 Z M 419.78125 302.859375 " fill-opacity="1" fill-rule="nonzero"/><path fill="#0f172a" d="M 217.804688 249.675781 C 217.144531 249.675781 216.609375 250.210938 216.609375 250.871094 L 216.609375 260.4375 C 216.609375 261.097656 217.144531 261.632812 217.804688 261.632812 C 218.464844 261.632812 219 261.097656 219 260.4375 L 219 250.871094 C 219 250.210938 218.464844 249.675781 217.804688 249.675781 Z M 217.804688 249.675781 " fill-opacity="1" fill-rule="nonzero"/><path fill="#0f172a" d="M 217.804688 268.804688 C 217.144531 268.804688 216.609375 269.339844 216.609375 270 L 216.609375 279.5625 C 216.609375 280.222656 217.144531 280.757812 217.804688 280.757812 C 218.464844 280.757812 219 280.222656 219 279.5625 L 219 270 C 219 269.339844 218.464844 268.804688 217.804688 268.804688 Z M 217.804688 268.804688 " fill-opacity="1" fill-rule="nonzero"/><path fill="#0f172a" d="M 217.804688 307.058594 C 217.144531 307.058594 216.609375 307.59375 216.609375 308.253906 L 216.609375 317.816406 C 216.609375 318.476562 217.144531 319.011719 217.804688 319.011719 C 218.464844 319.011719 219 318.476562 219 317.816406 L 219 308.253906 C 219 307.59375 218.464844 307.058594 217.804688 307.058594 Z M 217.804688 307.058594 " fill-opacity="1" fill-rule="nonzero"/><path fill="#0f172a" d="M 402.136719 368.894531 L 392.574219 368.894531 C 391.914062 368.894531 391.378906 369.429688 391.378906 370.089844 C 391.378906 370.75 391.914062 371.285156 392.574219 371.285156 L 402.136719 371.285156 C 402.796875 371.285156 403.332031 370.75 403.332031 370.089844 C 403.332031 369.429688 402.796875 368.894531 402.136719 368.894531 Z M 402.136719 368.894531 " fill-opacity="1" fill-rule="nonzero"/><path fill="#0f172a" d="M 336.734375 198.859375 C 337.394531 198.859375 337.929688 198.324219 337.929688 197.664062 C 337.929688 197.003906 337.394531 196.46875 336.734375 196.46875 L 327.171875 196.46875 C 326.511719 196.46875 325.976562 197.003906 325.976562 197.664062 C 325.976562 198.324219 326.511719 198.859375 327.171875 198.859375 Z M 336.734375 198.859375 " fill-opacity="1" fill-rule="nonzero"/><path fill="#0f172a" d="M 217.804688 326.183594 C 217.144531 326.183594 216.609375 326.71875 216.609375 327.378906 L 216.609375 336.941406 C 216.609375 337.605469 217.144531 338.136719 217.804688 338.136719 C 218.464844 338.136719 219 337.605469 219 336.941406 L 219 327.378906 C 219 326.71875 218.464844 326.183594 217.804688 326.183594 Z M 217.804688 326.183594 " fill-opacity="1" fill-rule="nonzero"/><path fill="#0f172a" d="M 419.78125 245.480469 C 419.78125 246.140625 420.316406 246.675781 420.976562 246.675781 C 421.636719 246.675781 422.171875 246.140625 422.171875 245.480469 L 422.171875 235.917969 C 422.171875 235.253906 421.636719 234.722656 420.976562 234.722656 C 420.316406 234.722656 419.78125 235.253906 419.78125 235.917969 Z M 419.78125 245.480469 " fill-opacity="1" fill-rule="nonzero"/><path fill="#0f172a" d="M 383.011719 368.894531 L 373.445312 368.894531 C 372.785156 368.894531 372.25 369.429688 372.25 370.089844 C 372.25 370.75 372.785156 371.285156 373.445312 371.285156 L 383.011719 371.285156 C 383.671875 371.285156 384.207031 370.75 384.207031 370.089844 C 384.207031 369.429688 383.671875 368.894531 383.011719 368.894531 Z M 383.011719 368.894531 " fill-opacity="1" fill-rule="nonzero"/><path fill="#0f172a" d="M 419.78125 341.113281 C 419.78125 341.773438 420.316406 342.308594 420.976562 342.308594 C 421.636719 342.308594 422.171875 341.773438 422.171875 341.113281 L 422.171875 331.550781 C 422.171875 330.890625 421.636719 330.355469 420.976562 330.355469 C 420.316406 330.355469 419.78125 330.890625 419.78125 331.550781 Z M 419.78125 341.113281 " fill-opacity="1" fill-rule="nonzero"/><path fill="#0f172a" d="M 419.78125 360.238281 C 419.78125 360.898438 420.316406 361.433594 420.976562 361.433594 C 421.636719 361.433594 422.171875 360.898438 422.171875 360.238281 L 422.171875 350.675781 C 422.171875 350.015625 421.636719 349.480469 420.976562 349.480469 C 420.316406 349.480469 419.78125 350.015625 419.78125 350.675781 Z M 419.78125 360.238281 " fill-opacity="1" fill-rule="nonzero"/><path fill="#0f172a" d="M 317.609375 196.46875 L 308.042969 196.46875 C 307.382812 196.46875 306.847656 197.003906 306.847656 197.664062 C 306.847656 198.324219 307.382812 198.859375 308.042969 198.859375 L 317.609375 198.859375 C 318.269531 198.859375 318.804688 198.324219 318.804688 197.664062 C 318.804688 197.003906 318.269531 196.46875 317.609375 196.46875 Z M 317.609375 196.46875 " fill-opacity="1" fill-rule="nonzero"/><path fill="#0f172a" d="M 325.628906 368.894531 L 316.066406 368.894531 C 315.40625 368.894531 314.871094 369.429688 314.871094 370.089844 C 314.871094 370.75 315.40625 371.285156 316.066406 371.285156 L 325.628906 371.285156 C 326.292969 371.285156 326.824219 370.75 326.824219 370.089844 C 326.824219 369.429688 326.292969 368.894531 325.628906 368.894531 Z M 325.628906 368.894531 " fill-opacity="1" fill-rule="nonzero"/><path fill="#0f172a" d="M 344.757812 368.894531 L 335.195312 368.894531 C 334.53125 368.894531 334 369.429688 334 370.089844 C 334 370.75 334.53125 371.285156 335.195312 371.285156 L 344.757812 371.285156 C 345.417969 371.285156 345.953125 370.75 345.953125 370.089844 C 345.953125 369.429688 345.417969 368.894531 344.757812 368.894531 Z M 344.757812 368.894531 " fill-opacity="1" fill-rule="nonzero"/><path fill="#0f172a" d="M 419.78125 283.734375 C 419.78125 284.394531 420.316406 284.929688 420.976562 284.929688 C 421.636719 284.929688 422.171875 284.394531 422.171875 283.734375 L 422.171875 274.167969 C 422.171875 273.507812 421.636719 272.972656 420.976562 272.972656 C 420.316406 272.972656 419.78125 273.507812 419.78125 274.167969 Z M 419.78125 283.734375 " fill-opacity="1" fill-rule="nonzero"/><path fill="#0f172a" d="M 363.882812 368.894531 L 354.320312 368.894531 C 353.660156 368.894531 353.125 369.429688 353.125 370.089844 C 353.125 370.75 353.660156 371.285156 354.320312 371.285156 L 363.882812 371.285156 C 364.542969 371.285156 365.078125 370.75 365.078125 370.089844 C 365.078125 369.429688 364.542969 368.894531 363.882812 368.894531 Z M 363.882812 368.894531 " fill-opacity="1" fill-rule="nonzero"/><path fill="#0f172a" d="M 279.355469 196.46875 L 269.792969 196.46875 C 269.128906 196.46875 268.597656 197.003906 268.597656 197.664062 C 268.597656 198.324219 269.128906 198.859375 269.792969 198.859375 L 279.355469 198.859375 C 280.015625 198.859375 280.550781 198.324219 280.550781 197.664062 C 280.550781 197.003906 280.015625 196.46875 279.355469 196.46875 Z M 279.355469 196.46875 " fill-opacity="1" fill-rule="nonzero"/><path fill="#0f172a" d="M 427.226562 362.914062 L 414.71875 362.914062 C 413.5 362.914062 412.507812 363.902344 412.507812 365.121094 L 412.507812 368.894531 L 411.699219 368.894531 C 411.039062 368.894531 410.503906 369.429688 410.503906 370.089844 C 410.503906 370.75 411.039062 371.285156 411.699219 371.285156 L 412.507812 371.285156 L 412.507812 375.050781 C 412.507812 376.269531 413.5 377.261719 414.71875 377.261719 L 427.226562 377.261719 C 428.445312 377.261719 429.433594 376.269531 429.433594 375.050781 L 429.433594 365.121094 C 429.433594 363.902344 428.445312 362.914062 427.226562 362.914062 Z M 427.226562 362.914062 " fill-opacity="1" fill-rule="nonzero"/><path fill="#0f172a" d="M 427.226562 190.5 L 414.71875 190.5 C 413.5 190.5 412.507812 191.492188 412.507812 192.710938 L 412.507812 196.46875 L 403.679688 196.46875 C 403.015625 196.46875 402.484375 197.003906 402.484375 197.664062 C 402.484375 198.324219 403.015625 198.859375 403.679688 198.859375 L 412.507812 198.859375 L 412.507812 202.636719 C 412.507812 203.855469 413.5 204.847656 414.71875 204.847656 L 419.78125 204.847656 L 419.78125 207.226562 C 419.78125 207.886719 420.316406 208.421875 420.976562 208.421875 C 421.636719 208.421875 422.171875 207.886719 422.171875 207.226562 L 422.171875 204.847656 L 427.226562 204.847656 C 428.445312 204.847656 429.433594 203.855469 429.433594 202.636719 L 429.433594 192.710938 C 429.433594 191.492188 428.445312 190.5 427.226562 190.5 Z M 427.226562 190.5 " fill-opacity="1" fill-rule="nonzero"/><path fill="#0f172a" d="M 224.042969 190.5 L 211.535156 190.5 C 210.316406 190.5 209.324219 191.492188 209.324219 192.710938 L 209.324219 202.636719 C 209.324219 203.855469 210.316406 204.847656 211.535156 204.847656 L 224.042969 204.847656 C 225.261719 204.847656 226.25 203.855469 226.25 202.636719 L 226.25 192.710938 C 226.25 191.492188 225.261719 190.5 224.042969 190.5 Z M 224.042969 190.5 " fill-opacity="1" fill-rule="nonzero"/><path fill="#0f172a" d="M 568.027344 135.433594 L 469.792969 135.433594 C 462.515625 135.433594 456.625 141.324219 456.625 148.574219 C 456.625 155.820312 462.535156 161.714844 469.792969 161.714844 L 568.027344 161.714844 C 575.285156 161.714844 581.191406 155.820312 581.191406 148.574219 C 581.191406 141.328125 575.285156 135.433594 568.027344 135.433594 Z M 568.027344 159.324219 L 469.792969 159.324219 C 463.851562 159.324219 459.019531 154.5 459.019531 148.574219 C 459.019531 142.726562 463.757812 137.824219 469.792969 137.824219 L 568.027344 137.824219 C 573.96875 137.824219 578.800781 142.644531 578.800781 148.574219 C 578.800781 154.5 573.96875 159.324219 568.027344 159.324219 Z M 568.027344 159.324219 " fill-opacity="1" fill-rule="nonzero"/><path fill="#0f172a" d="M 428.238281 148.378906 L 374.25 148.378906 C 373.585938 148.378906 373.050781 148.914062 373.050781 149.574219 C 373.050781 150.234375 373.585938 150.769531 374.25 150.769531 L 428.238281 150.769531 C 428.898438 150.769531 429.433594 150.234375 429.433594 149.574219 C 429.433594 148.914062 428.898438 148.378906 428.238281 148.378906 Z M 428.238281 148.378906 " fill-opacity="1" fill-rule="nonzero"/><path fill="#0f172a" d="M 292.386719 150.769531 L 346.375 150.769531 C 347.035156 150.769531 347.570312 150.234375 347.570312 149.574219 C 347.570312 148.914062 347.035156 148.378906 346.375 148.378906 L 292.386719 148.378906 C 291.722656 148.378906 291.191406 148.914062 291.191406 149.574219 C 291.191406 150.234375 291.722656 150.769531 292.386719 150.769531 Z M 292.386719 150.769531 " fill-opacity="1" fill-rule="nonzero"/><path fill="#0f172a" d="M 264.511719 148.378906 L 210.519531 148.378906 C 209.859375 148.378906 209.324219 148.914062 209.324219 149.574219 C 209.324219 150.234375 209.859375 150.769531 210.519531 150.769531 L 264.511719 150.769531 C 265.171875 150.769531 265.707031 150.234375 265.707031 149.574219 C 265.707031 148.914062 265.171875 148.378906 264.511719 148.378906 Z M 264.511719 148.378906 " fill-opacity="1" fill-rule="nonzero"/><path fill="#0f172a" d="M 336.78125 240.746094 C 331.195312 240.746094 326.859375 245.375 326.859375 250.960938 C 326.859375 256.546875 331.195312 260.878906 336.78125 260.878906 C 342.699219 260.878906 347.035156 256.546875 347.035156 250.960938 C 347.035156 245.375 342.699219 240.746094 336.78125 240.746094 Z M 336.78125 240.746094 " fill-opacity="1" fill-rule="nonzero"/><path fill="#0f172a" d="M 287.691406 457.363281 C 288.144531 453.746094 285.503906 450.75 281.851562 450.75 C 276.175781 450.75 272.507812 457.65625 276.1875 461.773438 C 279.761719 465.769531 287.03125 463.152344 287.691406 457.363281 Z M 287.691406 457.363281 " fill-opacity="1" fill-rule="nonzero"/><g clip-path="url(#dec3816595)"><path fill="#0f172a" d="M 18.058594 495.011719 L 18.058594 503.789062 C 18.058594 506.691406 20.421875 509.050781 23.320312 509.050781 L 40.074219 509.050781 L 40.074219 709.589844 L 28.347656 709.589844 C 27.6875 709.589844 27.152344 710.125 27.152344 710.785156 C 27.152344 711.445312 27.6875 711.980469 28.347656 711.980469 L 54.195312 711.980469 C 54.855469 711.980469 55.390625 711.445312 55.390625 710.785156 C 55.390625 710.125 54.855469 709.589844 54.195312 709.589844 L 42.464844 709.589844 L 42.464844 509.050781 L 55.210938 509.050781 L 63.324219 557.496094 C 63.910156 560.867188 66.816406 563.316406 70.242188 563.316406 L 101.550781 563.316406 L 101.550781 695.804688 L 82.421875 695.804688 C 81.761719 695.804688 81.226562 696.339844 81.226562 697 C 81.226562 697.660156 81.761719 698.195312 82.421875 698.195312 L 123.066406 698.195312 C 123.730469 698.195312 124.261719 697.660156 124.261719 697 C 124.261719 696.339844 123.730469 695.804688 123.066406 695.804688 L 103.941406 695.804688 L 103.941406 563.316406 L 154.90625 563.316406 C 159.414062 708.398438 157.914062 659.457031 158.214844 669.820312 C 158.300781 673.015625 158.449219 676.578125 162.761719 676.914062 C 162.734375 682.917969 162.492188 692.101562 161.898438 694.359375 C 161.71875 695.019531 161.945312 695.679688 162.515625 696.164062 C 166.375 699.4375 201.445312 698.128906 204.667969 696.664062 C 206.140625 696.003906 206.933594 694.859375 206.839844 693.523438 C 206.628906 690.472656 201.96875 687.546875 193.363281 685.058594 C 186.652344 683.144531 183.554688 679.851562 182.117188 676.976562 L 184.046875 676.976562 C 186.394531 676.976562 188.378906 675.289062 188.761719 672.984375 C 192.359375 653.175781 196.59375 623.476562 198.8125 605.007812 C 202.410156 573.964844 202.503906 565.742188 202.835938 561.367188 C 207.246094 583.800781 209.222656 634.527344 211.5 668.359375 C 211.875 671.730469 214.132812 674.828125 217.371094 676.195312 C 217.351562 681.871094 217.160156 691.949219 216.507812 694.359375 C 216.328125 695.015625 216.550781 695.675781 217.117188 696.160156 C 221.125 699.574219 256.378906 697.988281 259.320312 696.667969 C 259.320312 696.667969 259.324219 696.667969 259.328125 696.664062 C 260.78125 696.003906 261.5625 694.859375 261.464844 693.527344 C 261.242188 690.476562 256.578125 687.546875 247.96875 685.058594 C 241.253906 683.140625 238.15625 679.851562 236.726562 676.976562 L 237.265625 676.976562 C 238.441406 676.976562 239.460938 676.089844 239.644531 674.902344 C 242 658.410156 253.132812 554.707031 254.242188 524.867188 C 254.355469 521.738281 254.582031 514.757812 249.78125 509.050781 L 355.507812 509.050781 L 355.507812 709.589844 L 343.777344 709.589844 C 343.117188 709.589844 342.582031 710.125 342.582031 710.785156 C 342.582031 711.445312 343.117188 711.980469 343.777344 711.980469 L 369.625 711.980469 C 370.285156 711.980469 370.820312 711.445312 370.820312 710.785156 C 370.820312 710.125 370.285156 709.589844 369.625 709.589844 L 357.898438 709.589844 L 357.898438 509.050781 L 374.652344 509.050781 C 377.550781 509.050781 379.910156 506.691406 379.910156 503.789062 L 379.910156 495.011719 C 379.910156 492.113281 377.550781 489.75 374.652344 489.75 L 312.910156 489.75 C 314.847656 488.273438 316.332031 486.191406 317.074219 483.703125 L 333.324219 427.859375 C 334.175781 425.085938 332.082031 422.257812 329.171875 422.257812 L 246.351562 422.257812 C 243.449219 422.257812 240.890625 424.171875 240.136719 426.894531 L 224.082031 481.789062 L 223.140625 481.789062 C 221.898438 468.328125 199.976562 465.371094 186.699219 465.808594 C 186.304688 465.183594 185.261719 463.671875 184.496094 463.503906 L 175.78125 461.589844 L 170.765625 409.703125 C 174.929688 411.726562 185.164062 416.445312 189.730469 415.589844 C 194.9375 414.554688 201.550781 410.828125 209.359375 404.566406 L 537.078125 404.566406 L 537.078125 495.128906 C 537.078125 495.792969 537.613281 496.324219 538.273438 496.324219 L 688.847656 496.324219 L 688.847656 584.292969 C 682.652344 584.921875 677.773438 589.941406 677.4375 596.167969 L 633.933594 596.167969 L 633.933594 560.914062 C 633.933594 558.03125 631.585938 555.683594 628.703125 555.683594 L 473.792969 555.683594 C 470.90625 555.683594 468.558594 558.03125 468.558594 560.914062 L 468.558594 625.464844 C 468.558594 628.347656 470.90625 630.699219 473.792969 630.699219 L 628.703125 630.699219 C 631.585938 630.699219 633.933594 628.347656 633.933594 625.464844 L 633.933594 598.558594 L 677.539062 598.558594 C 678.402344 604.773438 683.671875 609.507812 690.089844 609.507812 C 697.046875 609.507812 702.710938 603.820312 702.710938 596.835938 C 702.710938 590.261719 697.675781 584.902344 691.238281 584.285156 L 691.238281 496.324219 L 791.21875 496.324219 C 791.878906 496.324219 792.414062 495.792969 792.414062 495.128906 C 792.414062 341.898438 792.414062 481.765625 792.414062 320.679688 C 792.414062 320.019531 791.878906 319.484375 791.21875 319.484375 L 605.121094 319.484375 C 605.117188 301.363281 605.125 391.796875 605.101562 105.324219 C 605.101562 101.03125 601.609375 97.539062 597.316406 97.539062 L 190.574219 97.539062 C 186.28125 97.539062 182.785156 101.03125 182.785156 105.324219 C 182.804688 447.011719 182.800781 366.601562 182.800781 379.101562 L 181.1875 380.152344 C 179.65625 379.414062 148.972656 364.621094 150.929688 365.566406 C 145.3125 362.683594 138.890625 361.304688 131.78125 361.484375 C 131.753906 361.484375 131.722656 361.488281 131.695312 361.488281 L 131.332031 356.398438 C 146.566406 354.128906 149.242188 345.0625 148.949219 328.273438 C 148.902344 325.957031 148.8125 323.828125 148.699219 321.808594 C 150.640625 318.898438 163.722656 298.441406 156.816406 286.367188 C 147.421875 269.953125 124.621094 278.265625 109.023438 288.757812 C 100.265625 281.242188 84.449219 286.292969 81.03125 296.679688 C 78.332031 304.878906 82.269531 316.3125 92.707031 330.648438 C 93.15625 335.113281 94.949219 338.457031 99.398438 338.683594 L 102.351562 364.300781 C 83.714844 367.746094 65.972656 375.285156 63.089844 393.964844 C 61.710938 403.085938 62.199219 416.230469 62.1875 417.136719 C 56.941406 417.519531 51.644531 418.460938 46.421875 420.058594 C 43.101562 421.050781 41.035156 424.421875 41.617188 427.90625 L 51.976562 489.75 L 23.320312 489.75 C 20.421875 489.75 18.058594 492.113281 18.058594 495.011719 Z M 631.542969 625.464844 C 631.542969 627.03125 630.269531 628.308594 628.703125 628.308594 L 473.792969 628.308594 C 472.222656 628.308594 470.949219 627.03125 470.949219 625.464844 L 470.949219 560.914062 C 470.949219 559.347656 472.222656 558.074219 473.792969 558.074219 L 628.703125 558.074219 C 630.269531 558.074219 631.542969 559.347656 631.542969 560.914062 Z M 700.320312 596.835938 C 700.320312 602.503906 695.730469 607.117188 690.089844 607.117188 C 684.558594 607.117188 680.019531 602.804688 679.761719 597.363281 L 679.761719 596.835938 C 679.761719 591.113281 684.28125 586.597656 690.089844 586.554688 C 695.730469 586.554688 700.320312 591.167969 700.320312 596.835938 Z M 173.605469 485.121094 C 172.214844 487.335938 172.578125 489.242188 172.519531 489.75 L 70.621094 489.75 C 69.527344 480.933594 68.378906 470.546875 67.363281 459.863281 C 67.363281 459.863281 67.359375 459.863281 67.359375 459.863281 C 72.335938 470.097656 82.007812 477.636719 93.746094 479.507812 C 103.890625 480.535156 118.960938 486.472656 173.605469 485.121094 Z M 70.242188 560.925781 C 68.019531 560.925781 66.058594 559.277344 65.683594 557.09375 L 57.632812 509.050781 L 71.308594 509.050781 C 75.613281 524.886719 86.941406 547.617188 116.519531 547.777344 L 154.4375 548.054688 L 154.832031 560.925781 C 124.894531 560.925781 107.339844 560.925781 70.242188 560.925781 Z M 186.402344 672.574219 C 186.210938 673.738281 185.21875 674.585938 184.046875 674.585938 C 183.253906 674.585938 163.277344 674.585938 163.960938 674.585938 L 163.390625 674.585938 C 160.183594 674.585938 160.835938 672.664062 160.519531 667.664062 C 158.167969 591.425781 158.214844 592.949219 156.789062 546.832031 C 156.769531 546.191406 156.246094 545.679688 155.601562 545.675781 C 111.113281 545.171875 114.765625 545.886719 107.167969 544.363281 C 89.058594 540.730469 78.421875 526.734375 73.640625 509.050781 L 190.28125 509.050781 C 195.449219 511.882812 198.484375 515.09375 199.230469 518.664062 C 205.886719 550.300781 192.109375 641.191406 186.402344 672.574219 Z M 251.851562 524.78125 C 250.695312 555.945312 238.988281 663.59375 237.265625 674.585938 C 235.449219 674.585938 220.660156 674.585938 221.152344 674.585938 C 217.898438 674.585938 214.300781 671.929688 213.878906 668.15625 L 209.375 594.527344 C 207.617188 581.339844 207.199219 566.855469 203.453125 553.597656 C 203.421875 553.417969 203.546875 553.5625 203.277344 552.753906 C 203.53125 545.199219 203.804688 523.050781 200.910156 516.105469 C 199.726562 513.257812 197.320312 510.839844 194.839844 509.050781 L 246.492188 509.050781 C 251.433594 513.570312 252.039062 519.75 251.851562 524.78125 Z M 224.976562 484.179688 C 225.507812 484.179688 225.976562 483.828125 226.125 483.320312 L 242.433594 427.550781 C 242.90625 425.84375 244.515625 424.648438 246.351562 424.648438 L 329.171875 424.648438 C 330.464844 424.648438 331.421875 425.917969 331.039062 427.164062 C 331.039062 427.167969 331.035156 427.175781 331.035156 427.183594 L 314.777344 483.027344 C 313.589844 487.011719 310.023438 489.6875 305.886719 489.75 L 174.914062 489.75 L 174.914062 488.820312 C 174.914062 483.839844 180.273438 484.28125 182.203125 484.179688 C 181.722656 484.347656 188.5 484.371094 224.976562 484.179688 Z M 220.789062 481.789062 L 217.96875 481.789062 C 216.957031 479.714844 213.945312 474.851562 207.714844 474.625 C 206.050781 474.664062 206.105469 476.957031 207.628906 477.015625 C 211.710938 477.164062 214.070312 479.898438 215.238281 481.789062 L 208.359375 481.789062 C 207.457031 480.035156 205.039062 476.441406 200.257812 476.265625 C 199.664062 476.28125 199.046875 476.761719 199.019531 477.421875 C 198.996094 478.078125 199.515625 478.636719 200.175781 478.660156 C 202.90625 478.757812 204.609375 480.421875 205.566406 481.789062 L 183.734375 481.789062 C 183.027344 477.765625 182.050781 471.65625 184.347656 468.304688 C 196.253906 467.484375 219.457031 469.804688 220.789062 481.789062 Z M 562.007812 342.398438 C 559.082031 342.398438 556.761719 339.957031 556.761719 337.152344 C 556.761719 334.222656 559.082031 331.90625 562.007812 331.90625 C 564.8125 331.90625 567.253906 334.222656 567.253906 337.152344 C 567.253906 339.957031 564.8125 342.398438 562.007812 342.398438 Z M 586.960938 321.890625 C 611.0625 321.890625 747.15625 321.890625 790.023438 321.890625 L 790.023438 352.425781 L 586.835938 352.425781 C 587.058594 351.671875 586.914062 336.378906 586.960938 321.890625 Z M 539.46875 493.933594 L 539.46875 354.816406 L 790.023438 354.816406 L 790.023438 493.933594 Z M 586.960938 319.484375 L 586.960938 319.1875 C 586.960938 318.527344 586.425781 317.992188 585.765625 317.992188 L 538.253906 317.992188 C 537.59375 317.992188 537.058594 318.527344 537.058594 319.1875 C 537.058594 362.066406 537.054688 341.933594 537.078125 402.175781 L 212.285156 402.175781 C 222.554688 393.5 233.945312 381.445312 242.6875 371.285156 L 249.125 371.285156 C 249.785156 371.285156 250.320312 370.75 250.320312 370.089844 C 250.320312 369.429688 249.785156 368.894531 249.125 368.894531 L 244.734375 368.894531 C 245.152344 368.035156 247.632812 367.171875 246.332031 362.101562 C 246.761719 361.675781 247.191406 361.242188 247.664062 360.796875 C 250.476562 359.710938 255.054688 356.804688 261.605469 351.96875 L 401.613281 351.96875 C 402.539062 351.96875 403.117188 350.949219 402.632812 350.148438 L 358.402344 277.898438 C 358.023438 277.28125 357.195312 277.144531 356.632812 277.585938 L 326.976562 301.296875 L 284.074219 257.222656 C 283.484375 256.617188 282.507812 256.800781 282.144531 257.523438 L 245.90625 330.503906 C 244.878906 326.945312 242.839844 323.710938 240.230469 322.976562 C 239.46875 322.785156 238.726562 322.933594 238.082031 323.398438 C 235.824219 325.03125 235.226562 330.5 234.679688 337.488281 C 234.433594 340.65625 234.570312 342.285156 231.351562 347.859375 C 229.488281 348.09375 229.78125 348.4375 223.894531 352.136719 C 223.417969 352.449219 218.519531 355.664062 219 355.347656 L 219 346.507812 C 219 345.84375 218.464844 345.3125 217.804688 345.3125 C 217.144531 345.3125 216.609375 345.84375 216.609375 346.507812 L 216.609375 356.070312 C 216.609375 356.332031 216.746094 356.539062 216.886719 356.738281 L 185.191406 377.535156 L 185.191406 113.9375 L 602.730469 113.9375 L 602.730469 319.484375 Z M 230.933594 353.160156 C 231.207031 352.683594 236.359375 345.238281 236.832031 340.464844 C 236.910156 339.660156 236.984375 338.707031 237.066406 337.671875 C 237.371094 333.75 237.941406 326.449219 239.621094 325.289062 C 241.707031 325.875 243.851562 330.097656 244.203125 334.332031 C 244.300781 335.46875 244.277344 336.410156 244.125 337.207031 C 244.125 337.210938 244.128906 337.21875 244.128906 337.222656 C 244.121094 337.25 244.09375 337.261719 244.089844 337.289062 C 243.902344 338.667969 243.082031 342.640625 241.558594 344.480469 C 241.140625 344.992188 241.210938 345.742188 241.71875 346.164062 C 242.214844 346.578125 242.972656 346.523438 243.402344 346.003906 C 245.316406 343.6875 246.152344 339.472656 246.382812 338.085938 C 247.980469 336.753906 256.660156 329.292969 258.417969 322.214844 C 258.613281 321.398438 259.121094 320.394531 259.511719 320.265625 C 259.597656 320.242188 259.820312 320.316406 260.058594 320.484375 C 260.429688 321.925781 259.695312 328.316406 258.5625 329.964844 C 258.195312 330.496094 258.320312 331.222656 258.839844 331.605469 C 259.363281 331.988281 260.09375 331.890625 260.488281 331.375 L 261.269531 330.402344 C 263.25 327.933594 265.234375 325.433594 265.96875 324.265625 C 266.304688 324.394531 266.765625 325.472656 266.117188 327.917969 C 265.484375 328.785156 263.195312 331.828125 260.5625 334.0625 C 260.058594 334.492188 259.996094 335.246094 260.425781 335.746094 C 260.851562 336.253906 261.609375 336.3125 262.109375 335.886719 C 264.945312 333.476562 267.328125 330.3125 268.039062 329.339844 C 269.066406 328.925781 269.359375 329.140625 269.390625 329.171875 C 269.726562 329.640625 269.019531 331.890625 268.390625 333.046875 C 267.847656 333.65625 264.691406 337.164062 262.449219 338.898438 C 261.554688 339.597656 262.046875 341.039062 263.183594 341.039062 C 263.441406 341.039062 263.699219 340.957031 263.917969 340.789062 C 266.359375 338.898438 269.617188 335.265625 270.183594 334.625 C 270.527344 334.382812 270.847656 334.324219 271.335938 334.792969 C 272.0625 335.503906 271.039062 338.960938 265.25 345.582031 C 263.75 347.277344 262.253906 348.523438 260.511719 349.8125 C 248.03125 359.058594 246.964844 358.183594 246.203125 358.886719 C 244.722656 360.273438 242.027344 362.980469 239.613281 365.792969 C 234.085938 362.109375 231.195312 353.640625 230.933594 353.160156 Z M 246.613281 334.464844 L 283.535156 260.097656 L 325.953125 303.675781 C 325.964844 303.691406 325.957031 303.714844 325.972656 303.726562 L 340.453125 319.855469 C 340.890625 320.347656 341.648438 320.390625 342.140625 319.949219 C 342.628906 319.507812 342.671875 318.75 342.230469 318.261719 L 328.589844 303.066406 L 357.070312 280.300781 L 399.476562 349.578125 L 264.625 349.578125 C 268.179688 346.4375 276.578125 336.582031 273 333.078125 C 272.503906 332.597656 271.949219 332.28125 271.378906 332.136719 C 271.890625 330.617188 272.222656 328.660156 271.125 327.523438 C 270.675781 327.046875 269.941406 326.605469 268.789062 326.699219 C 269.175781 323.253906 267.441406 322.269531 266.824219 322.035156 C 265.597656 321.5625 264.226562 322.09375 263.644531 323.269531 C 263.449219 323.65625 262.921875 324.40625 262.277344 325.257812 C 262.671875 322.394531 262.644531 319.519531 261.75 318.777344 C 260.5 317.726562 259.433594 317.773438 258.753906 318 C 256.890625 318.621094 256.207031 321.164062 256.09375 321.652344 C 254.886719 326.511719 249.613281 331.925781 246.625 334.679688 C 246.625 334.609375 246.617188 334.535156 246.613281 334.464844 Z M 244.308594 364.183594 C 244.308594 364.183594 244.3125 364.179688 244.3125 364.179688 C 244.3125 364.183594 244.3125 364.1875 244.3125 364.191406 Z M 242.695312 365.976562 L 243.210938 366.578125 C 243.101562 366.617188 243.019531 366.6875 242.902344 366.710938 C 242.613281 366.757812 242.320312 366.757812 242.023438 366.730469 C 242.242188 366.480469 242.460938 366.230469 242.695312 365.976562 Z M 149.667969 367.601562 C 149.738281 367.660156 149.832031 367.65625 149.914062 367.691406 C 153.378906 369.417969 172.566406 378.640625 180.753906 382.59375 C 181.125 382.78125 181.570312 382.75 181.921875 382.519531 C 180.335938 383.566406 205.3125 367.191406 228.398438 352.039062 C 228.6875 354.789062 228.714844 353.851562 228.824219 354.421875 C 230.09375 358.089844 232.527344 362.167969 235.507812 365.277344 C 236.925781 367.125 239.125 368.679688 241.476562 369.03125 C 231.976562 380.109375 219.628906 393.246094 208.207031 402.4375 C 208.207031 402.4375 208.207031 402.4375 208.207031 402.441406 C 206.453125 403.664062 197.050781 411.699219 189.277344 413.242188 C 185.910156 413.851562 177.394531 410.363281 170.460938 406.917969 L 169.882812 401.015625 C 169.820312 400.359375 169.234375 399.914062 168.574219 399.941406 C 167.917969 400.007812 167.4375 400.59375 167.5 401.25 L 168.320312 409.597656 C 168.324219 409.625 168.351562 409.640625 168.359375 409.671875 L 173.324219 461.050781 L 112.742188 447.734375 L 112.742188 435.070312 C 112.742188 434.410156 112.207031 433.875 111.546875 433.875 C 110.886719 433.875 110.351562 434.410156 110.351562 435.070312 L 110.351562 447.210938 L 105.070312 446.050781 C 103.515625 445.722656 103.019531 448.046875 104.558594 448.386719 L 182.25 465.460938 C 182.007812 465.941406 181.234375 467.234375 180.695312 469.003906 C 179.699219 472.269531 179.519531 476.695312 180.871094 481.789062 C 179.953125 481.820312 178.058594 481.582031 176.226562 482.660156 C 120.011719 484.269531 105.953125 478.339844 94.125 477.144531 C 79.71875 474.851562 67.523438 463.21875 66.191406 446.390625 C 65.324219 435.308594 64.347656 419.039062 64.527344 408.117188 C 64.785156 389.589844 67.140625 380.007812 83.871094 372.3125 C 88.53125 370.167969 94.355469 368.164062 103.175781 366.5625 C 103.5625 367.042969 123.015625 391.308594 122.632812 390.828125 C 123.199219 391.53125 124.460938 391.375 124.714844 390.375 L 131.523438 363.875 C 138.035156 363.875 143.609375 364.542969 149.667969 367.601562 Z M 100.386719 336.285156 C 96.542969 336.5625 95.402344 333.980469 95.070312 330.132812 C 95.890625 326.644531 97.101562 322.347656 101.484375 322.550781 C 103.855469 322.648438 105.660156 324.683594 106.566406 328.277344 C 106.792969 329.265625 106.285156 330.527344 107.445312 330.941406 C 107.90625 331.109375 108.4375 330.96875 108.761719 330.589844 C 109.007812 330.300781 114.796875 323.390625 114.128906 316.761719 C 113.976562 315.226562 113.492188 313.832031 112.6875 312.589844 C 129.28125 314.414062 139.488281 312.367188 143.734375 306.332031 C 145.976562 311.175781 146.445312 322.949219 146.558594 328.316406 C 146.84375 344.726562 144.515625 352.359375 129.992188 354.164062 L 118.511719 354.164062 C 117.851562 354.164062 117.316406 354.699219 117.316406 355.359375 C 117.316406 356.019531 117.851562 356.554688 118.511719 356.554688 L 128.945312 356.554688 L 129.378906 362.617188 L 122.996094 387.464844 L 104.816406 364.78125 L 101.652344 337.34375 C 101.574219 336.710938 100.984375 336.222656 100.386719 336.285156 Z M 43.972656 427.511719 C 43.597656 425.253906 44.972656 422.988281 47.113281 422.351562 C 52.132812 420.8125 57.21875 419.84375 62.242188 419.464844 C 62.976562 444.941406 67.339844 481.714844 68.171875 489.75 L 54.402344 489.75 Z M 43.972656 427.511719 " fill-opacity="1" fill-rule="nonzero"/></g><path fill="#0f172a" d="M 574.566406 200.558594 C 574.53125 200.46875 574.4375 200.441406 574.390625 200.367188 C 574.304688 200.230469 574.222656 200.128906 574.089844 200.035156 C 573.957031 199.945312 573.839844 199.902344 573.683594 199.871094 C 573.597656 199.847656 573.535156 199.769531 573.441406 199.769531 L 460.6875 199.769531 C 460.59375 199.769531 460.53125 199.847656 460.441406 199.871094 C 460.289062 199.90625 460.175781 199.945312 460.046875 200.035156 C 459.910156 200.128906 459.828125 200.230469 459.742188 200.367188 C 459.691406 200.441406 459.597656 200.46875 459.566406 200.558594 C 459.539062 200.628906 459.585938 200.695312 459.574219 200.765625 C 459.5625 200.839844 459.492188 200.886719 459.492188 200.964844 L 459.492188 241.777344 C 459.492188 241.855469 459.5625 241.902344 459.574219 241.972656 C 459.585938 242.046875 459.539062 242.113281 459.566406 242.183594 C 459.605469 242.296875 459.703125 242.359375 459.773438 242.453125 C 459.828125 242.527344 459.863281 242.597656 459.933594 242.660156 C 460.148438 242.84375 460.402344 242.972656 460.6875 242.972656 L 573.441406 242.972656 C 573.726562 242.972656 573.984375 242.84375 574.199219 242.660156 C 574.269531 242.597656 574.300781 242.527344 574.355469 242.453125 C 574.425781 242.359375 574.523438 242.296875 574.566406 242.183594 C 574.589844 242.113281 574.542969 242.046875 574.554688 241.972656 C 574.570312 241.902344 574.636719 241.855469 574.636719 241.777344 L 574.636719 200.964844 C 574.636719 200.886719 574.570312 200.839844 574.554688 200.765625 C 574.542969 200.695312 574.589844 200.628906 574.566406 200.558594 Z M 461.882812 202.667969 L 513.554688 221.371094 L 461.882812 240.074219 Z M 467.5 202.160156 L 566.628906 202.160156 L 517.066406 220.101562 Z M 517.066406 222.640625 L 566.628906 240.582031 L 467.5 240.582031 Z M 520.574219 221.371094 L 572.246094 202.667969 L 572.246094 240.074219 Z M 520.574219 221.371094 " fill-opacity="1" fill-rule="nonzero"/><path fill="#0f172a" d="M 573.425781 266.863281 L 460.6875 266.863281 C 460.027344 266.863281 459.492188 267.398438 459.492188 268.058594 C 459.492188 268.71875 460.027344 269.253906 460.6875 269.253906 L 573.425781 269.253906 C 574.085938 269.253906 574.621094 268.71875 574.621094 268.058594 C 574.621094 267.398438 574.085938 266.863281 573.425781 266.863281 Z M 573.425781 266.863281 " fill-opacity="1" fill-rule="nonzero"/><path fill="#0f172a" d="M 573.425781 296.484375 L 460.6875 296.484375 C 460.027344 296.484375 459.492188 297.019531 459.492188 297.679688 C 459.492188 298.339844 460.027344 298.875 460.6875 298.875 L 573.425781 298.875 C 574.085938 298.875 574.621094 298.339844 574.621094 297.679688 C 574.621094 297.019531 574.085938 296.484375 573.425781 296.484375 Z M 573.425781 296.484375 " fill-opacity="1" fill-rule="nonzero"/><path fill="#0f172a" d="M 517.054688 326.101562 L 460.6875 326.101562 C 460.027344 326.101562 459.492188 326.636719 459.492188 327.296875 C 459.492188 327.957031 460.027344 328.492188 460.6875 328.492188 L 517.054688 328.492188 C 517.71875 328.492188 518.25 327.957031 518.25 327.296875 C 518.25 326.636719 517.71875 326.101562 517.054688 326.101562 Z M 517.054688 326.101562 " fill-opacity="1" fill-rule="nonzero"/><path fill="#0f172a" d="M 517.054688 355.722656 L 460.6875 355.722656 C 460.027344 355.722656 459.492188 356.257812 459.492188 356.917969 C 459.492188 357.578125 460.027344 358.113281 460.6875 358.113281 L 517.054688 358.113281 C 517.71875 358.113281 518.25 357.578125 518.25 356.917969 C 518.25 356.257812 517.71875 355.722656 517.054688 355.722656 Z M 517.054688 355.722656 " fill-opacity="1" fill-rule="nonzero"/><path fill="#0f172a" d="M 747.785156 413.1875 C 739.722656 409.820312 733.519531 416.902344 726.953125 424.421875 C 720.984375 431.253906 714.816406 438.316406 706.53125 439.246094 C 686.015625 441.609375 676.15625 426.417969 671.457031 413.292969 C 662.019531 387.015625 638.90625 378.820312 622.007812 379.851562 C 589.886719 381.882812 571.144531 413.109375 569.226562 467.769531 C 569.214844 468.09375 569.335938 468.410156 569.5625 468.644531 C 569.789062 468.878906 570.097656 469.007812 570.421875 469.007812 L 758.914062 469.007812 C 759.566406 469.007812 760.097656 468.488281 760.109375 467.835938 C 760.578125 444.980469 759.597656 418.109375 747.785156 413.1875 Z M 757.742188 466.617188 L 571.664062 466.617188 C 573.765625 414.113281 591.671875 384.167969 622.152344 382.238281 C 638.277344 381.332031 660.214844 389.066406 669.207031 414.101562 C 676.265625 433.808594 689.628906 443.582031 706.804688 441.625 C 716.007812 440.585938 722.777344 432.835938 728.75 425.996094 C 734.992188 418.847656 740.382812 412.671875 746.863281 415.390625 C 758.316406 420.164062 757.992188 453.839844 757.742188 466.617188 Z M 757.742188 466.617188 " fill-opacity="1" fill-rule="nonzero"/><path fill="#0f172a" d="M 710.875 407.742188 C 715.519531 403.113281 715.566406 395.597656 710.949219 390.933594 C 706.390625 386.335938 699.042969 386.367188 694.535156 390.796875 C 689.859375 395.390625 689.730469 403.058594 694.382812 407.75 C 698.851562 412.265625 706.25 412.355469 710.875 407.742188 Z M 710.875 407.742188 " fill-opacity="1" fill-rule="nonzero"/><path fill="#0f172a" d="M 618.265625 169.722656 C 618.265625 170.382812 618.800781 170.917969 619.460938 170.917969 L 753.820312 170.917969 L 753.820312 266.863281 L 740.003906 266.863281 C 738 266.863281 736.371094 268.492188 736.371094 270.496094 L 736.371094 294.335938 C 736.371094 296.335938 738 297.964844 740.003906 297.964844 L 770.035156 297.964844 C 772.03125 297.964844 773.664062 296.335938 773.664062 294.335938 L 773.664062 270.496094 C 773.664062 268.492188 772.03125 266.863281 770.035156 266.863281 L 756.210938 266.863281 L 756.210938 169.722656 C 756.210938 169.0625 755.675781 168.527344 755.015625 168.527344 L 619.460938 168.527344 C 618.800781 168.527344 618.265625 169.0625 618.265625 169.722656 Z M 771.269531 270.496094 L 771.269531 294.335938 C 771.269531 295.019531 770.714844 295.574219 770.035156 295.574219 L 740.003906 295.574219 C 739.316406 295.574219 738.761719 295.019531 738.761719 294.335938 L 738.761719 270.496094 C 738.761719 269.808594 739.316406 269.253906 740.003906 269.253906 L 770.035156 269.253906 C 770.714844 269.253906 771.269531 269.808594 771.269531 270.496094 Z M 771.269531 270.496094 " fill-opacity="1" fill-rule="nonzero"/><path fill="#0f172a" d="M 748.746094 282.421875 C 748.746094 285.875 751.550781 288.679688 755.003906 288.679688 C 758.410156 288.679688 761.289062 285.816406 761.289062 282.421875 C 761.289062 278.972656 758.46875 276.164062 755.003906 276.164062 C 751.496094 276.164062 748.746094 278.914062 748.746094 282.421875 Z M 748.746094 282.421875 " fill-opacity="1" fill-rule="nonzero"/><path fill="#0f172a" d="M 78.339844 194.539062 L 106.023438 222.226562 C 106.492188 222.691406 107.246094 222.691406 107.714844 222.226562 L 135.355469 194.539062 C 135.820312 194.070312 135.820312 193.316406 135.355469 192.847656 L 121.132812 178.628906 L 135.355469 164.363281 C 135.820312 163.898438 135.820312 163.144531 135.355469 162.675781 L 121.136719 148.457031 L 135.355469 134.242188 C 135.820312 133.777344 135.820312 133.019531 135.355469 132.550781 L 107.714844 104.867188 C 107.246094 104.398438 106.492188 104.398438 106.023438 104.867188 L 78.339844 132.550781 C 77.867188 133.023438 77.875 133.785156 78.339844 134.246094 L 92.601562 148.460938 L 78.339844 162.726562 C 78.113281 162.949219 77.988281 163.253906 77.988281 163.570312 C 77.988281 163.886719 78.113281 164.195312 78.339844 164.417969 L 92.589844 178.621094 L 78.339844 192.847656 C 77.875 193.308594 77.867188 194.066406 78.339844 194.539062 Z M 80.875 163.566406 C 82.160156 162.285156 107.734375 136.710938 106.871094 137.574219 C 108.4375 139.140625 133.6875 164.394531 132.816406 163.523438 L 119.441406 176.9375 L 107.714844 165.210938 C 107.246094 164.746094 106.492188 164.746094 106.023438 165.210938 L 94.28125 176.933594 Z M 106.871094 167.746094 C 107.347656 168.226562 119.082031 179.957031 118.601562 179.476562 L 132.816406 193.695312 L 106.871094 219.6875 L 80.875 193.695312 C 82.621094 191.953125 108.382812 166.234375 106.871094 167.746094 Z M 106.871094 167.746094 " fill-opacity="1" fill-rule="nonzero"/><path fill="#0f172a" d="M 615.058594 588.753906 C 608.117188 581.886719 601.894531 580.925781 594.847656 588.945312 C 593.707031 590.25 592.542969 591.78125 591.3125 593.40625 C 580.441406 607.734375 577.519531 606.558594 567.09375 596.046875 C 563.324219 592.242188 559.765625 588.648438 556.109375 587.765625 C 548.148438 585.839844 541.152344 595.914062 536.167969 602.613281 C 532.332031 607.777344 527.789062 609.007812 521.867188 606.496094 C 517.804688 604.769531 516.203125 596.136719 507.761719 595.527344 C 499.445312 594.953125 488.292969 606.722656 487.820312 607.230469 C 487.8125 607.238281 487.816406 607.25 487.8125 607.257812 C 487.277344 606.96875 486.691406 606.769531 486.046875 606.726562 C 483.640625 606.570312 481.617188 608.34375 481.460938 610.75 C 481.304688 613.113281 483.078125 615.179688 485.484375 615.339844 C 487.847656 615.492188 489.917969 613.675781 490.070312 611.3125 C 490.128906 610.425781 489.851562 609.632812 489.441406 608.921875 C 489.480469 608.890625 489.535156 608.902344 489.570312 608.863281 C 492.554688 605.667969 501.625 597.484375 507.589844 597.914062 C 514.8125 598.433594 515.890625 606.558594 520.933594 608.695312 C 523.183594 609.652344 525.320312 610.128906 527.328125 610.128906 C 531.464844 610.128906 535.070312 608.09375 538.085938 604.035156 C 542.257812 598.425781 549.042969 588.511719 555.546875 590.089844 C 562.265625 591.714844 570.117188 605.886719 577.972656 606.402344 C 585.949219 606.863281 591.691406 596.15625 596.648438 590.523438 C 602.675781 583.65625 607.128906 584.410156 613.210938 590.289062 C 611.160156 593.289062 613.308594 596.804688 616.433594 597.007812 C 618.792969 597.164062 620.867188 595.347656 621.019531 592.984375 C 621.21875 589.929688 618.191406 587.453125 615.058594 588.753906 Z M 615.058594 588.753906 " fill-opacity="1" fill-rule="nonzero"/><path fill="#0f172a" d="M 422.164062 556.476562 L 422.164062 426.757812 C 422.164062 426.097656 421.628906 425.5625 420.96875 425.5625 C 420.308594 425.5625 419.773438 426.097656 419.773438 426.757812 L 419.773438 556.476562 C 419.773438 557.136719 420.308594 557.671875 420.96875 557.671875 C 421.628906 557.671875 422.164062 557.136719 422.164062 556.476562 Z M 422.164062 556.476562 " fill-opacity="1" fill-rule="nonzero"/><path fill="#0f172a" d="M 411.066406 573.230469 L 419.933594 588.667969 C 420.390625 589.46875 421.550781 589.46875 422.007812 588.667969 L 430.875 573.230469 C 431.332031 572.441406 430.761719 571.441406 429.839844 571.441406 L 412.101562 571.441406 C 411.179688 571.441406 410.609375 572.441406 411.066406 573.230469 Z M 427.773438 573.832031 L 420.972656 585.671875 L 414.167969 573.832031 Z M 427.773438 573.832031 " fill-opacity="1" fill-rule="nonzero"/><path fill="#0f172a" d="M 473.5625 495.855469 L 487.113281 495.855469 C 489.167969 495.855469 490.839844 494.183594 490.839844 492.128906 L 490.839844 478.582031 C 490.839844 476.523438 489.167969 474.851562 487.113281 474.851562 L 473.5625 474.851562 C 471.507812 474.851562 469.835938 476.523438 469.835938 478.582031 L 469.835938 492.128906 C 469.835938 494.183594 471.507812 495.855469 473.5625 495.855469 Z M 472.226562 478.582031 C 472.226562 477.84375 472.828125 477.242188 473.5625 477.242188 L 487.113281 477.242188 C 487.851562 477.242188 488.449219 477.84375 488.449219 478.582031 L 488.449219 492.128906 C 488.449219 492.867188 487.851562 493.464844 487.113281 493.464844 L 473.5625 493.464844 C 472.828125 493.464844 472.226562 492.867188 472.226562 492.128906 Z M 472.226562 478.582031 " fill-opacity="1" fill-rule="nonzero"/><g clip-path="url(#29771585b6)"><path fill="#01baef" d="M 649.703125 234.683594 L 662.59375 202.679688 L 638.585938 202.679688 Z M 649.703125 234.683594 " fill-opacity="1" fill-rule="evenodd"/></g><g clip-path="url(#666ee21574)"><path fill="#01baef" d="M 668.011719 250.988281 L 651.71875 250.988281 L 676.445312 193.238281 L 693.011719 193.238281 Z M 668.011719 250.988281 " fill-opacity="1" fill-rule="evenodd"/></g><g clip-path="url(#1110bf49fa)"><path fill="#01baef" d="M 705.449219 250.988281 L 677.875 250.988281 L 702.601562 193.238281 L 719.167969 193.238281 L 709.046875 216.617188 L 724.4375 216.730469 L 715.4375 228.582031 L 703.835938 228.648438 L 699.292969 239.148438 L 709.984375 239.09375 Z M 705.449219 250.988281 " fill-opacity="1" fill-rule="evenodd"/></g><g clip-path="url(#30e1883115)"><g clip-path="url(#3963621b38)"><path fill="#01baef" d="M 272.933594 448.304688 L 288.261719 448.304688 L 288.261719 463.632812 L 272.933594 463.632812 Z M 272.933594 448.304688 " fill-opacity="1" fill-rule="nonzero"/></g></g><g clip-path="url(#aedd2c3b60)"><g clip-path="url(#8403c35333)"><path fill="#01baef" d="M 325.632812 237.113281 L 349.144531 237.113281 L 349.144531 260.625 L 325.632812 260.625 Z M 325.632812 237.113281 " fill-opacity="1" fill-rule="nonzero"/></g></g><g clip-path="url(#18f9552c45)"><g clip-path="url(#8fdb8b5b23)"><path fill="#01baef" d="M 689.210938 385.019531 L 715.289062 385.019531 L 715.289062 411.097656 L 689.210938 411.097656 Z M 689.210938 385.019531 " fill-opacity="1" fill-rule="nonzero"/></g></g></svg>