<svg width="600" height="600" viewBox="0 0 600 600" fill="none" xmlns="http://www.w3.org/2000/svg">
<g filter="url(#filter0_dd_770_3741)">
<g clip-path="url(#clip0_770_3741)">
<rect x="140" y="59" width="360" height="519" rx="24" fill="white"/>
<rect width="360" height="67" transform="translate(140 59)" fill="#155EEF"/>
<path d="M270.406 90.5078C270.346 89.9496 270.094 89.5149 269.651 89.2038C269.212 88.8928 268.641 88.7372 267.938 88.7372C267.444 88.7372 267.02 88.8118 266.666 88.9609C266.313 89.1101 266.042 89.3125 265.854 89.5682C265.667 89.8239 265.571 90.1158 265.567 90.4439C265.567 90.7166 265.629 90.9531 265.752 91.1534C265.88 91.3537 266.053 91.5241 266.27 91.6648C266.487 91.8011 266.728 91.9162 266.992 92.0099C267.256 92.1037 267.523 92.1825 267.791 92.2464L269.018 92.5533C269.513 92.6683 269.988 92.8239 270.444 93.0199C270.904 93.2159 271.315 93.4631 271.678 93.7614C272.044 94.0597 272.334 94.4197 272.547 94.8416C272.76 95.2635 272.866 95.7578 272.866 96.3246C272.866 97.0916 272.67 97.767 272.278 98.3509C271.886 98.9304 271.32 99.3842 270.578 99.7124C269.841 100.036 268.948 100.198 267.9 100.198C266.881 100.198 265.997 100.04 265.247 99.7251C264.501 99.4098 263.918 98.9496 263.496 98.3445C263.078 97.7393 262.852 97.0021 262.818 96.1328H265.151C265.185 96.5888 265.326 96.968 265.573 97.2706C265.82 97.5732 266.142 97.799 266.538 97.9482C266.939 98.0973 267.386 98.1719 267.881 98.1719C268.396 98.1719 268.848 98.0952 269.236 97.9418C269.628 97.7841 269.935 97.5668 270.156 97.2898C270.378 97.0085 270.491 96.6804 270.495 96.3054C270.491 95.9645 270.391 95.6832 270.195 95.4616C269.999 95.2358 269.724 95.0483 269.37 94.8991C269.021 94.7457 268.612 94.6094 268.143 94.4901L266.653 94.1065C265.575 93.8295 264.723 93.4098 264.097 92.8473C263.474 92.2805 263.163 91.5284 263.163 90.5909C263.163 89.8196 263.372 89.1442 263.79 88.5646C264.212 87.9851 264.785 87.5355 265.509 87.2159C266.234 86.892 267.054 86.7301 267.97 86.7301C268.899 86.7301 269.713 86.892 270.412 87.2159C271.115 87.5355 271.667 87.9808 272.067 88.5518C272.468 89.1186 272.675 89.7706 272.688 90.5078H270.406ZM281.136 95.8707V90.1818H283.45V100H281.206V98.255H281.104C280.883 98.8047 280.518 99.2543 280.011 99.6037C279.508 99.9531 278.888 100.128 278.151 100.128C277.508 100.128 276.939 99.9851 276.444 99.6996C275.954 99.4098 275.571 98.9901 275.294 98.4403C275.017 97.8864 274.878 97.2173 274.878 96.4332V90.1818H277.192V96.0753C277.192 96.6974 277.363 97.1918 277.704 97.5582C278.045 97.9247 278.492 98.108 279.046 98.108C279.387 98.108 279.717 98.0249 280.037 97.8587C280.356 97.6925 280.618 97.4453 280.823 97.1172C281.032 96.7848 281.136 96.3693 281.136 95.8707ZM285.83 103.682V90.1818H288.105V91.8054H288.239C288.359 91.5668 288.527 91.3132 288.744 91.0447C288.962 90.772 289.256 90.5398 289.626 90.348C289.997 90.152 290.47 90.054 291.045 90.054C291.804 90.054 292.488 90.2479 293.097 90.6357C293.711 91.0192 294.197 91.5881 294.555 92.3423C294.917 93.0923 295.098 94.0128 295.098 95.1037C295.098 96.1818 294.921 97.098 294.567 97.8523C294.214 98.6065 293.732 99.1818 293.123 99.5781C292.513 99.9744 291.823 100.173 291.052 100.173C290.489 100.173 290.023 100.079 289.652 99.8913C289.281 99.7038 288.983 99.478 288.757 99.2138C288.536 98.9453 288.363 98.6918 288.239 98.4531H288.143V103.682H285.83ZM288.099 95.0909C288.099 95.7259 288.188 96.282 288.367 96.7592C288.55 97.2365 288.813 97.6094 289.153 97.8778C289.499 98.142 289.916 98.2741 290.406 98.2741C290.918 98.2741 291.346 98.1378 291.691 97.8651C292.036 97.5881 292.296 97.2109 292.471 96.7337C292.65 96.2521 292.739 95.7045 292.739 95.0909C292.739 94.4815 292.652 93.9403 292.477 93.4673C292.303 92.9943 292.043 92.6236 291.697 92.3551C291.352 92.0866 290.922 91.9524 290.406 91.9524C289.912 91.9524 289.492 92.0824 289.147 92.3423C288.802 92.6023 288.54 92.9666 288.361 93.4354C288.186 93.9041 288.099 94.456 288.099 95.0909ZM297.08 103.682V90.1818H299.355V91.8054H299.489C299.609 91.5668 299.777 91.3132 299.994 91.0447C300.212 90.772 300.506 90.5398 300.876 90.348C301.247 90.152 301.72 90.054 302.295 90.054C303.054 90.054 303.738 90.2479 304.347 90.6357C304.961 91.0192 305.447 91.5881 305.805 92.3423C306.167 93.0923 306.348 94.0128 306.348 95.1037C306.348 96.1818 306.171 97.098 305.817 97.8523C305.464 98.6065 304.982 99.1818 304.373 99.5781C303.763 99.9744 303.073 100.173 302.302 100.173C301.739 100.173 301.273 100.079 300.902 99.8913C300.531 99.7038 300.233 99.478 300.007 99.2138C299.786 98.9453 299.613 98.6918 299.489 98.4531H299.393V103.682H297.08ZM299.349 95.0909C299.349 95.7259 299.438 96.282 299.617 96.7592C299.8 97.2365 300.063 97.6094 300.403 97.8778C300.749 98.142 301.166 98.2741 301.656 98.2741C302.168 98.2741 302.596 98.1378 302.941 97.8651C303.286 97.5881 303.546 97.2109 303.721 96.7337C303.9 96.2521 303.989 95.7045 303.989 95.0909C303.989 94.4815 303.902 93.9403 303.727 93.4673C303.553 92.9943 303.293 92.6236 302.947 92.3551C302.602 92.0866 302.172 91.9524 301.656 91.9524C301.162 91.9524 300.742 92.0824 300.397 92.3423C300.052 92.6023 299.79 92.9666 299.611 93.4354C299.436 93.9041 299.349 94.456 299.349 95.0909ZM312.612 100.192C311.653 100.192 310.822 99.9808 310.119 99.5589C309.416 99.1371 308.871 98.5469 308.483 97.7884C308.099 97.0298 307.908 96.1435 307.908 95.1293C307.908 94.1151 308.099 93.2266 308.483 92.4638C308.871 91.701 309.416 91.1087 310.119 90.6868C310.822 90.2649 311.653 90.054 312.612 90.054C313.571 90.054 314.402 90.2649 315.105 90.6868C315.808 91.1087 316.352 91.701 316.735 92.4638C317.123 93.2266 317.317 94.1151 317.317 95.1293C317.317 96.1435 317.123 97.0298 316.735 97.7884C316.352 98.5469 315.808 99.1371 315.105 99.5589C314.402 99.9808 313.571 100.192 312.612 100.192ZM312.625 98.3381C313.145 98.3381 313.58 98.1953 313.929 97.9098C314.278 97.62 314.538 97.2322 314.709 96.7464C314.884 96.2607 314.971 95.7195 314.971 95.1229C314.971 94.522 314.884 93.9787 314.709 93.4929C314.538 93.0028 314.278 92.6129 313.929 92.3232C313.58 92.0334 313.145 91.8885 312.625 91.8885C312.092 91.8885 311.649 92.0334 311.295 92.3232C310.946 92.6129 310.684 93.0028 310.509 93.4929C310.339 93.9787 310.254 94.522 310.254 95.1229C310.254 95.7195 310.339 96.2607 310.509 96.7464C310.684 97.2322 310.946 97.62 311.295 97.9098C311.649 98.1953 312.092 98.3381 312.625 98.3381ZM319.281 100V90.1818H321.524V91.8182H321.627C321.806 91.2514 322.112 90.8146 322.547 90.5078C322.986 90.1967 323.487 90.0412 324.049 90.0412C324.177 90.0412 324.32 90.0476 324.477 90.0604C324.639 90.0689 324.774 90.0838 324.88 90.1051V92.2337C324.782 92.1996 324.627 92.1697 324.414 92.1442C324.205 92.1143 324.002 92.0994 323.806 92.0994C323.384 92.0994 323.005 92.1911 322.669 92.3743C322.336 92.5533 322.074 92.8026 321.882 93.1222C321.691 93.4418 321.595 93.8104 321.595 94.228V100H319.281ZM331.847 90.1818V91.9716H326.203V90.1818H331.847ZM327.597 87.8295H329.911V97.0469C329.911 97.358 329.958 97.5966 330.051 97.7628C330.149 97.9247 330.277 98.0355 330.435 98.0952C330.593 98.1548 330.767 98.1847 330.959 98.1847C331.104 98.1847 331.236 98.174 331.355 98.1527C331.479 98.1314 331.573 98.1122 331.637 98.0952L332.026 99.9041C331.903 99.9467 331.726 99.9936 331.496 100.045C331.27 100.096 330.993 100.126 330.665 100.134C330.085 100.151 329.563 100.064 329.099 99.8722C328.634 99.6761 328.266 99.3736 327.993 98.9645C327.725 98.5554 327.593 98.044 327.597 97.4304V87.8295ZM349.555 91.326H347.164C347.096 90.9339 346.971 90.5866 346.787 90.2841C346.604 89.9773 346.376 89.7173 346.103 89.5043C345.831 89.2912 345.52 89.1314 345.17 89.0249C344.825 88.9141 344.452 88.8587 344.051 88.8587C343.34 88.8587 342.709 89.0376 342.159 89.3956C341.61 89.7493 341.179 90.2692 340.868 90.9553C340.557 91.6371 340.402 92.4702 340.402 93.4545C340.402 94.456 340.557 95.2997 340.868 95.9858C341.184 96.6676 341.614 97.1832 342.159 97.5327C342.709 97.8778 343.338 98.0504 344.045 98.0504C344.437 98.0504 344.804 97.9993 345.145 97.897C345.49 97.7905 345.799 97.6349 346.071 97.4304C346.348 97.2259 346.581 96.9744 346.768 96.6761C346.96 96.3778 347.092 96.0369 347.164 95.6534L349.555 95.6662C349.466 96.2884 349.272 96.8722 348.973 97.4176C348.679 97.9631 348.294 98.4446 347.816 98.8622C347.339 99.2756 346.781 99.5994 346.142 99.8338C345.502 100.064 344.793 100.179 344.013 100.179C342.863 100.179 341.836 99.9126 340.932 99.38C340.029 98.8473 339.317 98.0781 338.797 97.0724C338.277 96.0668 338.017 94.8608 338.017 93.4545C338.017 92.044 338.279 90.8381 338.804 89.8366C339.328 88.831 340.042 88.0618 340.945 87.5291C341.848 86.9964 342.871 86.7301 344.013 86.7301C344.742 86.7301 345.419 86.8324 346.046 87.0369C346.672 87.2415 347.23 87.5419 347.721 87.9382C348.211 88.3303 348.613 88.8118 348.929 89.3828C349.248 89.9496 349.457 90.5973 349.555 91.326ZM353.938 94.2472V100H351.624V86.9091H353.887V91.8501H354.002C354.232 91.2962 354.588 90.8594 355.07 90.5398C355.556 90.2159 356.173 90.054 356.923 90.054C357.605 90.054 358.2 90.1967 358.707 90.4822C359.214 90.7678 359.606 91.1854 359.883 91.7351C360.164 92.2848 360.305 92.956 360.305 93.7486V100H357.991V94.1065C357.991 93.446 357.82 92.9325 357.48 92.5661C357.143 92.1953 356.67 92.0099 356.061 92.0099C355.651 92.0099 355.285 92.0994 354.961 92.2784C354.642 92.4531 354.39 92.7067 354.207 93.0391C354.028 93.3714 353.938 93.7741 353.938 94.2472ZM365.489 100.198C364.867 100.198 364.306 100.087 363.808 99.8658C363.313 99.6399 362.921 99.3075 362.632 98.8686C362.346 98.4297 362.203 97.8885 362.203 97.245C362.203 96.6911 362.306 96.233 362.51 95.8707C362.715 95.5085 362.994 95.2188 363.347 95.0014C363.701 94.7841 364.1 94.62 364.543 94.5092C364.99 94.3942 365.453 94.3111 365.93 94.2599C366.505 94.2003 366.972 94.147 367.33 94.1001C367.688 94.049 367.948 93.9723 368.11 93.87C368.276 93.7635 368.359 93.5994 368.359 93.3778V93.3395C368.359 92.858 368.216 92.4851 367.931 92.2209C367.645 91.9567 367.234 91.8246 366.697 91.8246C366.13 91.8246 365.681 91.9482 365.348 92.1953C365.02 92.4425 364.798 92.7344 364.683 93.071L362.523 92.7642C362.693 92.1676 362.975 91.669 363.367 91.2685C363.759 90.8636 364.238 90.5611 364.805 90.3608C365.372 90.1562 365.998 90.054 366.684 90.054C367.157 90.054 367.628 90.1094 368.097 90.2202C368.566 90.331 368.994 90.5142 369.382 90.7699C369.769 91.0213 370.08 91.3643 370.315 91.799C370.553 92.2337 370.673 92.777 370.673 93.429V100H368.448V98.6513H368.372C368.231 98.924 368.033 99.1797 367.777 99.4183C367.526 99.6527 367.208 99.8423 366.825 99.9872C366.445 100.128 366 100.198 365.489 100.198ZM366.09 98.4979C366.554 98.4979 366.957 98.4062 367.298 98.223C367.639 98.0355 367.901 97.7884 368.084 97.4815C368.271 97.1747 368.365 96.8402 368.365 96.478V95.321C368.293 95.3807 368.169 95.4361 367.994 95.4872C367.824 95.5384 367.632 95.5831 367.419 95.6214C367.206 95.6598 366.995 95.6939 366.786 95.7237C366.578 95.7536 366.396 95.7791 366.243 95.8004C365.898 95.8473 365.589 95.924 365.316 96.0305C365.044 96.1371 364.828 96.2862 364.671 96.478C364.513 96.6655 364.434 96.9084 364.434 97.2067C364.434 97.6328 364.59 97.9545 364.901 98.1719C365.212 98.3892 365.608 98.4979 366.09 98.4979ZM377.902 90.1818V91.9716H372.258V90.1818H377.902ZM373.651 87.8295H375.965V97.0469C375.965 97.358 376.012 97.5966 376.106 97.7628C376.204 97.9247 376.332 98.0355 376.49 98.0952C376.647 98.1548 376.822 98.1847 377.014 98.1847C377.159 98.1847 377.291 98.174 377.41 98.1527C377.534 98.1314 377.627 98.1122 377.691 98.0952L378.081 99.9041C377.958 99.9467 377.781 99.9936 377.551 100.045C377.325 100.096 377.048 100.126 376.72 100.134C376.14 100.151 375.618 100.064 375.154 99.8722C374.689 99.6761 374.32 99.3736 374.048 98.9645C373.779 98.5554 373.647 98.044 373.651 97.4304V87.8295Z" fill="white"/>
<g clip-path="url(#clip1_770_3741)">
<path d="M379 514V578H381V514H379ZM261 578V514H259V578H261Z" fill="#155EEF" mask="url(#path-6-inside-2_770_3741)"/>
</g>
<path d="M140 515H500V513H140V515Z" fill="#155EEF" mask="url(#path-4-inside-1_770_3741)"/>
<path d="M166.25 401.125C166.25 388.699 176.324 378.625 188.75 378.625H363.125C375.551 378.625 385.625 388.699 385.625 401.125V436.75C385.625 449.176 375.551 459.25 363.125 459.25H166.25V401.125Z" fill="#155EEF"/>
<rect x="190.625" y="399.25" width="155.625" height="7.5" rx="3.75" fill="#EAECF0"/>
<rect x="190.625" y="416.125" width="168.75" height="7.5" rx="3.75" fill="#EAECF0"/>
<rect x="190.625" y="433" width="110.625" height="7.5" rx="3.75" fill="#EAECF0"/>
<path d="M482.375 245.125C482.375 232.699 472.301 222.625 459.875 222.625H285.5C273.074 222.625 263 232.699 263 245.125V280.75C263 293.176 273.074 303.25 285.5 303.25H482.375V245.125Z" fill="#EAECF0"/>
<rect width="155.625" height="7.5" rx="3.75" transform="matrix(-1 0 0 1 445 243.25)" fill="white"/>
<rect width="168.75" height="7.5" rx="3.75" transform="matrix(-1 0 0 1 458 260.125)" fill="white"/>
<rect width="110.625" height="7.5" rx="3.75" transform="matrix(-1 0 0 1 400 277)" fill="white"/>
<rect x="166.25" y="313" width="52.5" height="52.5" rx="26.25" fill="#EFF4FF"/>
<mask id="mask0_770_3741" style="mask-type:luminance" maskUnits="userSpaceOnUse" x="181" y="327" width="24" height="24">
<path d="M205 327H181V351H205V327Z" fill="white"/>
</mask>
<g mask="url(#mask0_770_3741)">
<path d="M198.439 331.806H197.839V330.496C198.666 330.204 199.161 329.359 199.013 328.495C198.865 327.631 198.116 327 197.239 327C196.363 327 195.614 327.631 195.466 328.495C195.318 329.359 195.813 330.204 196.64 330.496V331.806H189.442V330.496C190.268 330.204 190.764 329.359 190.616 328.495C190.467 327.631 189.719 327 188.842 327C187.966 327 187.217 327.631 187.069 328.495C186.92 329.359 187.416 330.204 188.242 330.496V331.806H187.642C185.987 331.808 184.645 333.15 184.643 334.805V345.002C184.645 346.658 185.987 347.999 187.642 348.001H189.442V350.4C189.442 350.507 189.471 350.612 189.525 350.705C189.579 350.797 189.657 350.873 189.751 350.925C189.845 350.977 189.95 351.003 190.057 351C190.164 350.997 190.269 350.965 190.359 350.909L195.012 348.001H198.439C200.095 348 201.437 346.658 201.438 345.002V334.805C201.437 333.15 200.095 331.808 198.439 331.806ZM190.042 335.405C191.035 335.406 191.84 336.211 191.841 337.204C191.841 337.536 191.573 337.804 191.241 337.804C190.91 337.804 190.642 337.536 190.642 337.204C190.642 336.873 190.373 336.605 190.042 336.605C189.71 336.605 189.442 336.873 189.442 337.204C189.442 337.536 189.173 337.804 188.842 337.804C188.511 337.804 188.242 337.536 188.242 337.204C188.243 336.211 189.048 335.406 190.042 335.405ZM197.508 342.839C196.112 343.498 194.584 343.83 193.041 343.809C191.497 343.83 189.97 343.498 188.574 342.839C188.277 342.691 188.157 342.331 188.306 342.035C188.454 341.738 188.814 341.618 189.11 341.766C191.351 342.886 194.731 342.886 196.971 341.766C197.268 341.618 197.628 341.738 197.776 342.035C197.924 342.331 197.804 342.691 197.508 342.839ZM197.239 337.804C197.08 337.804 196.928 337.741 196.815 337.629C196.703 337.516 196.64 337.363 196.64 337.204C196.64 336.873 196.371 336.605 196.04 336.605C195.709 336.605 195.44 336.873 195.44 337.204C195.44 337.536 195.172 337.804 194.84 337.804C194.509 337.804 194.24 337.536 194.24 337.204C194.24 336.211 195.046 335.405 196.04 335.405C197.034 335.405 197.839 336.211 197.839 337.204C197.839 337.363 197.776 337.516 197.664 337.629C197.551 337.741 197.399 337.804 197.239 337.804ZM203.238 336.605H202.638V342.603H203.238C204.231 342.602 205.036 341.797 205.037 340.803V338.404C205.036 337.411 204.231 336.606 203.238 336.605ZM181.044 338.404V340.803C181.046 341.797 181.851 342.602 182.844 342.603H183.444V336.605H182.844C181.851 336.606 181.046 337.411 181.044 338.404Z" fill="#155EEF"/>
</g>
<rect width="52.5" height="52.5" rx="26.25" transform="matrix(-1 0 0 1 482.375 157)" fill="#F2F4F7"/>
<path opacity="0.2" d="M465 183C465 184.78 464.472 186.52 463.483 188C462.494 189.48 461.089 190.634 459.444 191.315C457.8 191.996 455.99 192.174 454.244 191.827C452.498 191.48 450.895 190.623 449.636 189.364C448.377 188.105 447.52 186.502 447.173 184.756C446.826 183.01 447.004 181.2 447.685 179.556C448.366 177.911 449.52 176.506 451 175.517C452.48 174.528 454.22 174 456 174C458.387 174 460.676 174.948 462.364 176.636C464.052 178.324 465 180.613 465 183Z" fill="#004EEB"/>
<path d="M456 173.25C454.072 173.25 452.187 173.822 450.583 174.893C448.98 175.965 447.73 177.487 446.992 179.269C446.254 181.05 446.061 183.011 446.437 184.902C446.814 186.793 447.742 188.531 449.106 189.894C450.469 191.258 452.207 192.186 454.098 192.563C455.989 192.939 457.95 192.746 459.731 192.008C461.513 191.27 463.035 190.02 464.107 188.417C465.178 186.813 465.75 184.928 465.75 183C465.747 180.415 464.719 177.937 462.891 176.109C461.063 174.281 458.585 173.253 456 173.25ZM456 191.25C454.368 191.25 452.773 190.766 451.417 189.86C450.06 188.953 449.002 187.665 448.378 186.157C447.754 184.65 447.59 182.991 447.909 181.391C448.227 179.79 449.013 178.32 450.166 177.166C451.32 176.013 452.79 175.227 454.391 174.909C455.991 174.59 457.65 174.754 459.157 175.378C460.665 176.002 461.953 177.06 462.86 178.417C463.766 179.773 464.25 181.368 464.25 183C464.248 185.187 463.378 187.284 461.831 188.831C460.284 190.378 458.187 191.248 456 191.25ZM451.5 181.125C451.5 180.902 451.566 180.685 451.69 180.5C451.813 180.315 451.989 180.171 452.194 180.086C452.4 180 452.626 179.978 452.844 180.022C453.063 180.065 453.263 180.172 453.42 180.33C453.578 180.487 453.685 180.687 453.728 180.906C453.772 181.124 453.75 181.35 453.664 181.556C453.579 181.761 453.435 181.937 453.25 182.06C453.065 182.184 452.848 182.25 452.625 182.25C452.327 182.25 452.04 182.131 451.83 181.92C451.619 181.71 451.5 181.423 451.5 181.125ZM460.5 181.125C460.5 181.348 460.434 181.565 460.31 181.75C460.187 181.935 460.011 182.079 459.806 182.164C459.6 182.25 459.374 182.272 459.156 182.228C458.937 182.185 458.737 182.078 458.58 181.92C458.422 181.763 458.315 181.563 458.272 181.344C458.228 181.126 458.25 180.9 458.336 180.694C458.421 180.489 458.565 180.313 458.75 180.19C458.935 180.066 459.153 180 459.375 180C459.673 180 459.96 180.119 460.17 180.33C460.381 180.54 460.5 180.827 460.5 181.125ZM460.399 185.625C459.434 187.293 457.831 188.25 456 188.25C454.169 188.25 452.566 187.294 451.601 185.625C451.547 185.54 451.511 185.444 451.494 185.344C451.478 185.245 451.482 185.142 451.506 185.044C451.53 184.946 451.573 184.854 451.634 184.773C451.695 184.692 451.771 184.624 451.859 184.573C451.946 184.523 452.043 184.49 452.144 184.478C452.244 184.466 452.346 184.474 452.443 184.502C452.54 184.531 452.631 184.578 452.709 184.642C452.787 184.706 452.852 184.785 452.899 184.875C453.599 186.085 454.7 186.75 456 186.75C457.3 186.75 458.401 186.084 459.101 184.875C459.148 184.785 459.213 184.706 459.291 184.642C459.369 184.578 459.46 184.531 459.557 184.502C459.654 184.474 459.756 184.466 459.856 184.478C459.957 184.49 460.054 184.523 460.141 184.573C460.229 184.624 460.305 184.692 460.366 184.773C460.427 184.854 460.47 184.946 460.494 185.044C460.518 185.142 460.522 185.245 460.506 185.344C460.489 185.444 460.453 185.54 460.399 185.625Z" fill="#004EEB"/>
</g>
<rect x="139.5" y="58.5" width="361" height="520" rx="24.5" stroke="#155EEF"/>
</g>
<g filter="url(#filter1_dd_770_3741)">
<rect x="40" y="181" width="184" height="64" rx="12" fill="white"/>
<rect x="55" y="193" width="40" height="40" rx="8" fill="#155EEF"/>
<path opacity="0.2" d="M84.75 213C84.75 214.173 83.0794 215.058 82.6238 216.158C82.185 217.22 82.7569 219.031 81.8944 219.894C81.0319 220.758 79.2197 220.185 78.1584 220.624C77.0625 221.079 76.1719 222.75 75 222.75C73.8281 222.75 72.9375 221.079 71.8416 220.624C70.7803 220.185 68.9681 220.757 68.1056 219.894C67.2431 219.032 67.815 217.22 67.3763 216.158C66.9206 215.063 65.25 214.172 65.25 213C65.25 211.828 66.9206 210.937 67.3763 209.842C67.815 208.781 67.2431 206.968 68.1056 206.106C68.9681 205.243 70.7812 205.815 71.8416 205.376C72.9422 204.921 73.8281 203.25 75 203.25C76.1719 203.25 77.0625 204.921 78.1584 205.376C79.2197 205.815 81.0319 205.243 81.8944 206.106C82.7569 206.968 82.185 208.78 82.6238 209.842C83.0794 210.942 84.75 211.828 84.75 213Z" fill="white"/>
<path d="M84.1744 210.639C83.8209 210.27 83.4553 209.889 83.3175 209.555C83.19 209.248 83.1825 208.74 83.175 208.248C83.1609 207.333 83.1459 206.296 82.425 205.575C81.7041 204.854 80.6672 204.839 79.7522 204.825C79.26 204.817 78.7519 204.81 78.4453 204.682C78.1116 204.545 77.73 204.179 77.3606 203.826C76.7137 203.204 75.9787 202.5 75 202.5C74.0213 202.5 73.2872 203.204 72.6394 203.826C72.27 204.179 71.8894 204.545 71.5547 204.682C71.25 204.81 70.74 204.817 70.2478 204.825C69.3328 204.839 68.2959 204.854 67.575 205.575C66.8541 206.296 66.8437 207.333 66.825 208.248C66.8175 208.74 66.81 209.248 66.6825 209.555C66.5447 209.888 66.1791 210.27 65.8256 210.639C65.2041 211.286 64.5 212.021 64.5 213C64.5 213.979 65.2041 214.713 65.8256 215.361C66.1791 215.73 66.5447 216.111 66.6825 216.445C66.81 216.752 66.8175 217.26 66.825 217.752C66.8391 218.667 66.8541 219.704 67.575 220.425C68.2959 221.146 69.3328 221.161 70.2478 221.175C70.74 221.182 71.2481 221.19 71.5547 221.318C71.8884 221.455 72.27 221.821 72.6394 222.174C73.2862 222.796 74.0213 223.5 75 223.5C75.9787 223.5 76.7128 222.796 77.3606 222.174C77.73 221.821 78.1106 221.455 78.4453 221.318C78.7519 221.19 79.26 221.182 79.7522 221.175C80.6672 221.161 81.7041 221.146 82.425 220.425C83.1459 219.704 83.1609 218.667 83.175 217.752C83.1825 217.26 83.19 216.752 83.3175 216.445C83.4553 216.112 83.8209 215.73 84.1744 215.361C84.7959 214.714 85.5 213.979 85.5 213C85.5 212.021 84.7959 211.287 84.1744 210.639ZM83.0916 214.323C82.6425 214.792 82.1775 215.276 81.9309 215.872C81.6947 216.443 81.6844 217.097 81.675 217.73C81.6656 218.386 81.6553 219.073 81.3638 219.364C81.0722 219.654 80.3897 219.666 79.7297 219.675C79.0969 219.684 78.4434 219.695 77.8716 219.931C77.2763 220.177 76.7916 220.642 76.3228 221.092C75.8541 221.541 75.375 222 75 222C74.625 222 74.1422 221.539 73.6772 221.092C73.2122 220.644 72.7238 220.177 72.1284 219.931C71.5566 219.695 70.9031 219.684 70.2703 219.675C69.6141 219.666 68.9269 219.655 68.6362 219.364C68.3456 219.072 68.3344 218.39 68.325 217.73C68.3156 217.097 68.3053 216.443 68.0691 215.872C67.8225 215.276 67.3575 214.792 66.9084 214.323C66.4594 213.854 66 213.375 66 213C66 212.625 66.4612 212.142 66.9084 211.677C67.3556 211.212 67.8225 210.724 68.0691 210.128C68.3053 209.557 68.3156 208.903 68.325 208.27C68.3344 207.614 68.3447 206.927 68.6362 206.636C68.9278 206.346 69.6103 206.334 70.2703 206.325C70.9031 206.316 71.5566 206.305 72.1284 206.069C72.7238 205.822 73.2084 205.357 73.6772 204.908C74.1459 204.459 74.625 204 75 204C75.375 204 75.8578 204.461 76.3228 204.908C76.7878 205.356 77.2763 205.822 77.8716 206.069C78.4434 206.305 79.0969 206.316 79.7297 206.325C80.3859 206.334 81.0731 206.345 81.3638 206.636C81.6544 206.928 81.6656 207.61 81.675 208.27C81.6844 208.903 81.6947 209.557 81.9309 210.128C82.1775 210.724 82.6425 211.208 83.0916 211.677C83.5406 212.146 84 212.625 84 213C84 213.375 83.5387 213.858 83.0916 214.323ZM76.125 217.875C76.125 218.098 76.059 218.315 75.9354 218.5C75.8118 218.685 75.6361 218.829 75.4305 218.914C75.225 219 74.9988 219.022 74.7805 218.978C74.5623 218.935 74.3618 218.828 74.2045 218.67C74.0472 218.513 73.94 218.313 73.8966 218.094C73.8532 217.876 73.8755 217.65 73.9606 217.444C74.0458 217.239 74.19 217.063 74.375 216.94C74.56 216.816 74.7775 216.75 75 216.75C75.2984 216.75 75.5845 216.869 75.7955 217.08C76.0065 217.29 76.125 217.577 76.125 217.875ZM78.75 211.125C78.75 212.754 77.46 214.118 75.75 214.432V214.5C75.75 214.699 75.671 214.89 75.5303 215.03C75.3897 215.171 75.1989 215.25 75 215.25C74.8011 215.25 74.6103 215.171 74.4697 215.03C74.329 214.89 74.25 214.699 74.25 214.5V213.75C74.25 213.551 74.329 213.36 74.4697 213.22C74.6103 213.079 74.8011 213 75 213C76.2403 213 77.25 212.156 77.25 211.125C77.25 210.094 76.2403 209.25 75 209.25C73.7597 209.25 72.75 210.094 72.75 211.125V211.5C72.75 211.699 72.671 211.89 72.5303 212.03C72.3897 212.171 72.1989 212.25 72 212.25C71.8011 212.25 71.6103 212.171 71.4697 212.03C71.329 211.89 71.25 211.699 71.25 211.5V211.125C71.25 209.264 72.9319 207.75 75 207.75C77.0681 207.75 78.75 209.264 78.75 211.125Z" fill="white"/>
<rect x="105" y="193" width="103" height="6" rx="2" fill="#EAECF0"/>
<rect x="105" y="208" width="58" height="6" rx="2" fill="#EAECF0"/>
<rect x="105" y="223" width="103" height="6" rx="2" fill="#EAECF0"/>
<rect x="40.5" y="181.5" width="183" height="63" rx="11.5" stroke="#155EEF"/>
</g>
<g filter="url(#filter2_dd_770_3741)">
<rect x="40" y="103" width="184" height="64" rx="12" fill="white"/>
<rect x="55" y="115" width="40" height="40" rx="8" fill="#EFF4FF"/>
<path opacity="0.2" d="M82.5 131.25H77.25V126L82.5 131.25Z" fill="#004EEB"/>
<path d="M83.0306 130.719L77.7806 125.469C77.7109 125.4 77.6282 125.345 77.5371 125.307C77.4461 125.269 77.3485 125.25 77.25 125.25H68.25C67.8522 125.25 67.4706 125.408 67.1893 125.689C66.908 125.971 66.75 126.352 66.75 126.75V143.25C66.75 143.648 66.908 144.029 67.1893 144.311C67.4706 144.592 67.8522 144.75 68.25 144.75H81.75C82.1478 144.75 82.5294 144.592 82.8107 144.311C83.092 144.029 83.25 143.648 83.25 143.25V131.25C83.2501 131.151 83.2307 131.054 83.1931 130.963C83.1555 130.872 83.1003 130.789 83.0306 130.719ZM78 127.81L80.6897 130.5H78V127.81ZM81.75 143.25H68.25V126.75H76.5V131.25C76.5 131.449 76.579 131.64 76.7197 131.78C76.8603 131.921 77.0511 132 77.25 132H81.75V143.25ZM78.75 135.75C78.75 135.949 78.671 136.14 78.5303 136.28C78.3897 136.421 78.1989 136.5 78 136.5H72C71.8011 136.5 71.6103 136.421 71.4697 136.28C71.329 136.14 71.25 135.949 71.25 135.75C71.25 135.551 71.329 135.36 71.4697 135.22C71.6103 135.079 71.8011 135 72 135H78C78.1989 135 78.3897 135.079 78.5303 135.22C78.671 135.36 78.75 135.551 78.75 135.75ZM78.75 138.75C78.75 138.949 78.671 139.14 78.5303 139.28C78.3897 139.421 78.1989 139.5 78 139.5H72C71.8011 139.5 71.6103 139.421 71.4697 139.28C71.329 139.14 71.25 138.949 71.25 138.75C71.25 138.551 71.329 138.36 71.4697 138.22C71.6103 138.079 71.8011 138 72 138H78C78.1989 138 78.3897 138.079 78.5303 138.22C78.671 138.36 78.75 138.551 78.75 138.75Z" fill="#004EEB"/>
<rect x="105" y="115" width="103" height="6" rx="2" fill="#EAECF0"/>
<rect x="105" y="130" width="58" height="6" rx="2" fill="#EAECF0"/>
<rect x="105" y="145" width="103" height="6" rx="2" fill="#EAECF0"/>
<rect x="40.5" y="103.5" width="183" height="63" rx="11.5" stroke="#B2CCFF"/>
</g>
<g filter="url(#filter3_dd_770_3741)">
<rect x="40" y="23" width="184" height="64" rx="12" fill="white"/>
<rect x="55" y="35" width="40" height="40" rx="8" fill="#EFF4FF"/>
<path opacity="0.2" d="M82.6818 53.6819L80.0568 56.3069C79.3838 56.9821 78.5127 57.4248 77.5706 57.5706C77.4248 58.5128 76.982 59.3838 76.3068 60.0569L73.6818 62.6819C72.8356 63.5144 71.6947 63.9789 70.5076 63.974C69.3204 63.9692 68.1833 63.4955 67.3439 62.6561C66.5045 61.8166 66.0308 60.6795 66.0259 59.4924C66.0211 58.3053 66.4855 57.1644 67.3181 56.3181L69.9431 53.6931C70.6162 53.0179 71.4872 52.5752 72.4293 52.4294C72.5752 51.4872 73.0179 50.6162 73.6931 49.9431L76.3181 47.3181C77.1643 46.4856 78.3053 46.0211 79.4924 46.0259C80.6795 46.0308 81.8166 46.5045 82.656 47.3439C83.4955 48.1834 83.9692 49.3205 83.974 50.5076C83.9788 51.6947 83.5144 52.8356 82.6818 53.6819Z" fill="#004EEB"/>
<path d="M75.8944 60.4712C76.035 60.6119 76.1139 60.8026 76.1139 61.0014C76.1139 61.2002 76.035 61.3909 75.8944 61.5316L74.2125 63.2191C73.2271 64.2039 71.8907 64.757 70.4974 64.7565C69.1042 64.7561 67.7682 64.2022 66.7833 63.2167C65.7985 62.2312 65.2454 60.8949 65.2458 59.5016C65.2463 58.1084 65.8002 56.7724 66.7857 55.7875L69.4219 53.1522C70.3684 52.2047 71.6411 51.6548 72.9797 51.6148C74.3184 51.5749 75.6216 52.0481 76.6229 52.9375C76.772 53.0698 76.8626 53.2559 76.8745 53.4549C76.8865 53.6539 76.8189 53.8496 76.6866 53.9987C76.5543 54.1479 76.3682 54.2385 76.1692 54.2504C75.9702 54.2624 75.7745 54.1948 75.6254 54.0625C74.9103 53.4275 73.9798 53.0897 73.0239 53.1181C72.0681 53.1465 71.1592 53.539 70.4832 54.2153L67.8469 56.8487C67.1435 57.5521 66.7483 58.5062 66.7483 59.5009C66.7483 60.4957 67.1435 61.4497 67.8469 62.1531C68.5503 62.8565 69.5043 63.2517 70.4991 63.2517C71.4939 63.2517 72.4479 62.8565 73.1513 62.1531L74.8332 60.4712C74.9028 60.4015 74.9855 60.3462 75.0766 60.3085C75.1676 60.2707 75.2652 60.2513 75.3638 60.2513C75.4624 60.2513 75.5599 60.2707 75.651 60.3085C75.742 60.3462 75.8248 60.4015 75.8944 60.4712ZM83.2144 46.7837C82.2288 45.8003 80.8933 45.248 79.501 45.248C78.1086 45.248 76.7732 45.8003 75.7875 46.7837L74.1057 48.4684C73.9651 48.6092 73.8861 48.8 73.8862 48.9989C73.8863 49.1979 73.9654 49.3886 74.1061 49.5292C74.2469 49.6698 74.4377 49.7488 74.6366 49.7487C74.8356 49.7486 75.0263 49.6695 75.1669 49.5287L76.8488 47.8469C77.5522 47.1435 78.5062 46.7483 79.501 46.7483C80.4957 46.7483 81.4498 47.1435 82.1532 47.8469C82.8566 48.5503 83.2517 49.5043 83.2517 50.4991C83.2517 51.4938 82.8566 52.4478 82.1532 53.1512L79.5169 55.7875C78.8405 56.4634 77.9314 56.8554 76.9756 56.8833C76.0198 56.9111 75.0894 56.5728 74.3747 55.9375C74.3009 55.872 74.2148 55.8217 74.1215 55.7895C74.0282 55.7572 73.9294 55.7437 73.8309 55.7496C73.7324 55.7555 73.6359 55.7808 73.5472 55.824C73.4584 55.8671 73.379 55.9274 73.3135 56.0012C73.248 56.0751 73.1977 56.1612 73.1654 56.2545C73.1332 56.3478 73.1196 56.4465 73.1256 56.5451C73.1315 56.6436 73.1568 56.74 73.1999 56.8288C73.2431 56.9176 73.3034 56.997 73.3772 57.0625C74.3782 57.9521 75.6813 58.4256 77.02 58.3861C78.3586 58.3465 79.6315 57.7969 80.5782 56.8497L83.2144 54.2144C84.1984 53.2287 84.7511 51.8928 84.7511 50.5C84.7511 49.1072 84.1984 47.7713 83.2144 46.7856V46.7837Z" fill="#004EEB"/>
<rect x="105" y="35" width="103" height="6" rx="2" fill="#EAECF0"/>
<rect x="105" y="50" width="58" height="6" rx="2" fill="#EAECF0"/>
<rect x="105" y="65" width="103" height="6" rx="2" fill="#EAECF0"/>
<rect x="40.5" y="23.5" width="183" height="63" rx="11.5" stroke="#B2CCFF"/>
</g>
<path d="M166 424H107V245" stroke="#155EEF"/>
<g opacity="0.5" filter="url(#filter4_dd_770_3741)">
<rect x="520" y="237" width="40" height="40" rx="12" fill="white"/>
<path opacity="0.2" d="M549 257C549 258.78 548.472 260.52 547.483 262C546.494 263.48 545.089 264.634 543.444 265.315C541.8 265.996 539.99 266.174 538.244 265.827C536.498 265.48 534.895 264.623 533.636 263.364C532.377 262.105 531.52 260.502 531.173 258.756C530.826 257.01 531.004 255.2 531.685 253.556C532.366 251.911 533.52 250.506 535 249.517C536.48 248.528 538.22 248 540 248C542.387 248 544.676 248.948 546.364 250.636C548.052 252.324 549 254.613 549 257Z" fill="#004EEB"/>
<path d="M544.281 254.219C544.35 254.289 544.406 254.372 544.443 254.463C544.481 254.554 544.501 254.651 544.501 254.75C544.501 254.849 544.481 254.946 544.443 255.037C544.406 255.128 544.35 255.211 544.281 255.281L539.031 260.531C538.961 260.6 538.878 260.656 538.787 260.693C538.696 260.731 538.599 260.751 538.5 260.751C538.401 260.751 538.304 260.731 538.213 260.693C538.122 260.656 538.039 260.6 537.969 260.531L535.719 258.281C535.579 258.14 535.5 257.949 535.5 257.75C535.5 257.551 535.579 257.36 535.719 257.219C535.86 257.079 536.051 257 536.25 257C536.449 257 536.64 257.079 536.781 257.219L538.5 258.94L543.219 254.219C543.289 254.15 543.372 254.094 543.463 254.057C543.554 254.019 543.651 253.999 543.75 253.999C543.849 253.999 543.946 254.019 544.037 254.057C544.128 254.094 544.211 254.15 544.281 254.219ZM549.75 257C549.75 258.928 549.178 260.813 548.107 262.417C547.035 264.02 545.513 265.27 543.731 266.008C541.95 266.746 539.989 266.939 538.098 266.563C536.207 266.186 534.469 265.258 533.106 263.894C531.742 262.531 530.814 260.793 530.437 258.902C530.061 257.011 530.254 255.05 530.992 253.269C531.73 251.487 532.98 249.965 534.583 248.893C536.187 247.822 538.072 247.25 540 247.25C542.585 247.253 545.063 248.281 546.891 250.109C548.719 251.937 549.747 254.415 549.75 257ZM548.25 257C548.25 255.368 547.766 253.773 546.86 252.417C545.953 251.06 544.665 250.002 543.157 249.378C541.65 248.754 539.991 248.59 538.391 248.909C536.79 249.227 535.32 250.013 534.166 251.166C533.013 252.32 532.227 253.79 531.909 255.391C531.59 256.991 531.754 258.65 532.378 260.157C533.002 261.665 534.06 262.953 535.417 263.86C536.773 264.766 538.368 265.25 540 265.25C542.187 265.248 544.284 264.378 545.831 262.831C547.378 261.284 548.248 259.187 548.25 257Z" fill="#004EEB"/>
<rect x="520.5" y="237.5" width="39" height="39" rx="11.5" stroke="#B2CCFF"/>
</g>
<g filter="url(#filter5_dd_770_3741)">
<rect x="520" y="293" width="40" height="40" rx="12" fill="white"/>
<path opacity="0.2" d="M549 313C549 314.78 548.472 316.52 547.483 318C546.494 319.48 545.089 320.634 543.444 321.315C541.8 321.996 539.99 322.174 538.244 321.827C536.498 321.48 534.895 320.623 533.636 319.364C532.377 318.105 531.52 316.502 531.173 314.756C530.826 313.01 531.004 311.2 531.685 309.556C532.366 307.911 533.52 306.506 535 305.517C536.48 304.528 538.22 304 540 304C542.387 304 544.676 304.948 546.364 306.636C548.052 308.324 549 310.613 549 313Z" fill="#004EEB"/>
<path d="M544.281 310.219C544.35 310.289 544.406 310.372 544.443 310.463C544.481 310.554 544.501 310.651 544.501 310.75C544.501 310.849 544.481 310.946 544.443 311.037C544.406 311.128 544.35 311.211 544.281 311.281L539.031 316.531C538.961 316.6 538.878 316.656 538.787 316.693C538.696 316.731 538.599 316.751 538.5 316.751C538.401 316.751 538.304 316.731 538.213 316.693C538.122 316.656 538.039 316.6 537.969 316.531L535.719 314.281C535.579 314.14 535.5 313.949 535.5 313.75C535.5 313.551 535.579 313.36 535.719 313.219C535.86 313.079 536.051 313 536.25 313C536.449 313 536.64 313.079 536.781 313.219L538.5 314.94L543.219 310.219C543.289 310.15 543.372 310.094 543.463 310.057C543.554 310.019 543.651 309.999 543.75 309.999C543.849 309.999 543.946 310.019 544.037 310.057C544.128 310.094 544.211 310.15 544.281 310.219ZM549.75 313C549.75 314.928 549.178 316.813 548.107 318.417C547.035 320.02 545.513 321.27 543.731 322.008C541.95 322.746 539.989 322.939 538.098 322.563C536.207 322.186 534.469 321.258 533.106 319.894C531.742 318.531 530.814 316.793 530.437 314.902C530.061 313.011 530.254 311.05 530.992 309.269C531.73 307.487 532.98 305.965 534.583 304.893C536.187 303.822 538.072 303.25 540 303.25C542.585 303.253 545.063 304.281 546.891 306.109C548.719 307.937 549.747 310.415 549.75 313ZM548.25 313C548.25 311.368 547.766 309.773 546.86 308.417C545.953 307.06 544.665 306.002 543.157 305.378C541.65 304.754 539.991 304.59 538.391 304.909C536.79 305.227 535.32 306.013 534.166 307.166C533.013 308.32 532.227 309.79 531.909 311.391C531.59 312.991 531.754 314.65 532.378 316.157C533.002 317.665 534.06 318.953 535.417 319.86C536.773 320.766 538.368 321.25 540 321.25C542.187 321.248 544.284 320.378 545.831 318.831C547.378 317.284 548.248 315.187 548.25 313Z" fill="#004EEB"/>
<rect x="520.5" y="293.5" width="39" height="39" rx="11.5" stroke="#155EEF"/>
</g>
<g opacity="0.5" filter="url(#filter6_dd_770_3741)">
<rect x="520" y="349" width="40" height="40" rx="12" fill="white"/>
<path opacity="0.2" d="M549 369C549 370.78 548.472 372.52 547.483 374C546.494 375.48 545.089 376.634 543.444 377.315C541.8 377.996 539.99 378.174 538.244 377.827C536.498 377.48 534.895 376.623 533.636 375.364C532.377 374.105 531.52 372.502 531.173 370.756C530.826 369.01 531.004 367.2 531.685 365.556C532.366 363.911 533.52 362.506 535 361.517C536.48 360.528 538.22 360 540 360C542.387 360 544.676 360.948 546.364 362.636C548.052 364.324 549 366.613 549 369Z" fill="#004EEB"/>
<path d="M544.281 366.219C544.35 366.289 544.406 366.372 544.443 366.463C544.481 366.554 544.501 366.651 544.501 366.75C544.501 366.849 544.481 366.946 544.443 367.037C544.406 367.128 544.35 367.211 544.281 367.281L539.031 372.531C538.961 372.6 538.878 372.656 538.787 372.693C538.696 372.731 538.599 372.751 538.5 372.751C538.401 372.751 538.304 372.731 538.213 372.693C538.122 372.656 538.039 372.6 537.969 372.531L535.719 370.281C535.579 370.14 535.5 369.949 535.5 369.75C535.5 369.551 535.579 369.36 535.719 369.219C535.86 369.079 536.051 369 536.25 369C536.449 369 536.64 369.079 536.781 369.219L538.5 370.94L543.219 366.219C543.289 366.15 543.372 366.094 543.463 366.057C543.554 366.019 543.651 365.999 543.75 365.999C543.849 365.999 543.946 366.019 544.037 366.057C544.128 366.094 544.211 366.15 544.281 366.219ZM549.75 369C549.75 370.928 549.178 372.813 548.107 374.417C547.035 376.02 545.513 377.27 543.731 378.008C541.95 378.746 539.989 378.939 538.098 378.563C536.207 378.186 534.469 377.258 533.106 375.894C531.742 374.531 530.814 372.793 530.437 370.902C530.061 369.011 530.254 367.05 530.992 365.269C531.73 363.487 532.98 361.965 534.583 360.893C536.187 359.822 538.072 359.25 540 359.25C542.585 359.253 545.063 360.281 546.891 362.109C548.719 363.937 549.747 366.415 549.75 369ZM548.25 369C548.25 367.368 547.766 365.773 546.86 364.417C545.953 363.06 544.665 362.002 543.157 361.378C541.65 360.754 539.991 360.59 538.391 360.909C536.79 361.227 535.32 362.013 534.166 363.166C533.013 364.32 532.227 365.79 531.909 367.391C531.59 368.991 531.754 370.65 532.378 372.157C533.002 373.665 534.06 374.953 535.417 375.86C536.773 376.766 538.368 377.25 540 377.25C542.187 377.248 544.284 376.378 545.831 374.831C547.378 373.284 548.248 371.187 548.25 369Z" fill="#004EEB"/>
<rect x="520.5" y="349.5" width="39" height="39" rx="11.5" stroke="#B2CCFF"/>
</g>
<g opacity="0.5" filter="url(#filter7_dd_770_3741)">
<rect x="520" y="405" width="40" height="40" rx="12" fill="white"/>
<path opacity="0.2" d="M549 425C549 426.78 548.472 428.52 547.483 430C546.494 431.48 545.089 432.634 543.444 433.315C541.8 433.996 539.99 434.174 538.244 433.827C536.498 433.48 534.895 432.623 533.636 431.364C532.377 430.105 531.52 428.502 531.173 426.756C530.826 425.01 531.004 423.2 531.685 421.556C532.366 419.911 533.52 418.506 535 417.517C536.48 416.528 538.22 416 540 416C542.387 416 544.676 416.948 546.364 418.636C548.052 420.324 549 422.613 549 425Z" fill="#004EEB"/>
<path d="M544.281 422.219C544.35 422.289 544.406 422.372 544.443 422.463C544.481 422.554 544.501 422.651 544.501 422.75C544.501 422.849 544.481 422.946 544.443 423.037C544.406 423.128 544.35 423.211 544.281 423.281L539.031 428.531C538.961 428.6 538.878 428.656 538.787 428.693C538.696 428.731 538.599 428.751 538.5 428.751C538.401 428.751 538.304 428.731 538.213 428.693C538.122 428.656 538.039 428.6 537.969 428.531L535.719 426.281C535.579 426.14 535.5 425.949 535.5 425.75C535.5 425.551 535.579 425.36 535.719 425.219C535.86 425.079 536.051 425 536.25 425C536.449 425 536.64 425.079 536.781 425.219L538.5 426.94L543.219 422.219C543.289 422.15 543.372 422.094 543.463 422.057C543.554 422.019 543.651 421.999 543.75 421.999C543.849 421.999 543.946 422.019 544.037 422.057C544.128 422.094 544.211 422.15 544.281 422.219ZM549.75 425C549.75 426.928 549.178 428.813 548.107 430.417C547.035 432.02 545.513 433.27 543.731 434.008C541.95 434.746 539.989 434.939 538.098 434.563C536.207 434.186 534.469 433.258 533.106 431.894C531.742 430.531 530.814 428.793 530.437 426.902C530.061 425.011 530.254 423.05 530.992 421.269C531.73 419.487 532.98 417.965 534.583 416.893C536.187 415.822 538.072 415.25 540 415.25C542.585 415.253 545.063 416.281 546.891 418.109C548.719 419.937 549.747 422.415 549.75 425ZM548.25 425C548.25 423.368 547.766 421.773 546.86 420.417C545.953 419.06 544.665 418.002 543.157 417.378C541.65 416.754 539.991 416.59 538.391 416.909C536.79 417.227 535.32 418.013 534.166 419.166C533.013 420.32 532.227 421.79 531.909 423.391C531.59 424.991 531.754 426.65 532.378 428.157C533.002 429.665 534.06 430.953 535.417 431.86C536.773 432.766 538.368 433.25 540 433.25C542.187 433.248 544.284 432.378 545.831 430.831C547.378 429.284 548.248 427.187 548.25 425Z" fill="#004EEB"/>
<rect x="520.5" y="405.5" width="39" height="39" rx="11.5" stroke="#B2CCFF"/>
</g>
<g opacity="0.5" filter="url(#filter8_dd_770_3741)">
<rect x="520" y="461" width="40" height="40" rx="12" fill="white"/>
<path opacity="0.2" d="M549 481C549 482.78 548.472 484.52 547.483 486C546.494 487.48 545.089 488.634 543.444 489.315C541.8 489.996 539.99 490.174 538.244 489.827C536.498 489.48 534.895 488.623 533.636 487.364C532.377 486.105 531.52 484.502 531.173 482.756C530.826 481.01 531.004 479.2 531.685 477.556C532.366 475.911 533.52 474.506 535 473.517C536.48 472.528 538.22 472 540 472C542.387 472 544.676 472.948 546.364 474.636C548.052 476.324 549 478.613 549 481Z" fill="#004EEB"/>
<path d="M544.281 478.219C544.35 478.289 544.406 478.372 544.443 478.463C544.481 478.554 544.501 478.651 544.501 478.75C544.501 478.849 544.481 478.946 544.443 479.037C544.406 479.128 544.35 479.211 544.281 479.281L539.031 484.531C538.961 484.6 538.878 484.656 538.787 484.693C538.696 484.731 538.599 484.751 538.5 484.751C538.401 484.751 538.304 484.731 538.213 484.693C538.122 484.656 538.039 484.6 537.969 484.531L535.719 482.281C535.579 482.14 535.5 481.949 535.5 481.75C535.5 481.551 535.579 481.36 535.719 481.219C535.86 481.079 536.051 481 536.25 481C536.449 481 536.64 481.079 536.781 481.219L538.5 482.94L543.219 478.219C543.289 478.15 543.372 478.094 543.463 478.057C543.554 478.019 543.651 477.999 543.75 477.999C543.849 477.999 543.946 478.019 544.037 478.057C544.128 478.094 544.211 478.15 544.281 478.219ZM549.75 481C549.75 482.928 549.178 484.813 548.107 486.417C547.035 488.02 545.513 489.27 543.731 490.008C541.95 490.746 539.989 490.939 538.098 490.563C536.207 490.186 534.469 489.258 533.106 487.894C531.742 486.531 530.814 484.793 530.437 482.902C530.061 481.011 530.254 479.05 530.992 477.269C531.73 475.487 532.98 473.965 534.583 472.893C536.187 471.822 538.072 471.25 540 471.25C542.585 471.253 545.063 472.281 546.891 474.109C548.719 475.937 549.747 478.415 549.75 481ZM548.25 481C548.25 479.368 547.766 477.773 546.86 476.417C545.953 475.06 544.665 474.002 543.157 473.378C541.65 472.754 539.991 472.59 538.391 472.909C536.79 473.227 535.32 474.013 534.166 475.166C533.013 476.32 532.227 477.79 531.909 479.391C531.59 480.991 531.754 482.65 532.378 484.157C533.002 485.665 534.06 486.953 535.417 487.86C536.773 488.766 538.368 489.25 540 489.25C542.187 489.248 544.284 488.378 545.831 486.831C547.378 485.284 548.248 483.187 548.25 481Z" fill="#004EEB"/>
<rect x="520.5" y="461.5" width="39" height="39" rx="11.5" stroke="#B2CCFF"/>
</g>
<defs>
<filter id="filter0_dd_770_3741" x="133" y="56" width="374" height="533" filterUnits="userSpaceOnUse" color-interpolation-filters="sRGB">
<feFlood flood-opacity="0" result="BackgroundImageFix"/>
<feColorMatrix in="SourceAlpha" type="matrix" values="0 0 0 0 0 0 0 0 0 0 0 0 0 0 0 0 0 0 127 0" result="hardAlpha"/>
<feMorphology radius="2" operator="erode" in="SourceAlpha" result="effect1_dropShadow_770_3741"/>
<feOffset dy="2"/>
<feGaussianBlur stdDeviation="2"/>
<feColorMatrix type="matrix" values="0 0 0 0 0.0627451 0 0 0 0 0.0941176 0 0 0 0 0.156863 0 0 0 0.06 0"/>
<feBlend mode="normal" in2="BackgroundImageFix" result="effect1_dropShadow_770_3741"/>
<feColorMatrix in="SourceAlpha" type="matrix" values="0 0 0 0 0 0 0 0 0 0 0 0 0 0 0 0 0 0 127 0" result="hardAlpha"/>
<feMorphology radius="2" operator="erode" in="SourceAlpha" result="effect2_dropShadow_770_3741"/>
<feOffset dy="4"/>
<feGaussianBlur stdDeviation="4"/>
<feColorMatrix type="matrix" values="0 0 0 0 0.0627451 0 0 0 0 0.0941176 0 0 0 0 0.156863 0 0 0 0.1 0"/>
<feBlend mode="normal" in2="effect1_dropShadow_770_3741" result="effect2_dropShadow_770_3741"/>
<feBlend mode="normal" in="SourceGraphic" in2="effect2_dropShadow_770_3741" result="shape"/>
</filter>
<filter id="filter1_dd_770_3741" x="34" y="179" width="196" height="76" filterUnits="userSpaceOnUse" color-interpolation-filters="sRGB">
<feFlood flood-opacity="0" result="BackgroundImageFix"/>
<feColorMatrix in="SourceAlpha" type="matrix" values="0 0 0 0 0 0 0 0 0 0 0 0 0 0 0 0 0 0 127 0" result="hardAlpha"/>
<feMorphology radius="2" operator="erode" in="SourceAlpha" result="effect1_dropShadow_770_3741"/>
<feOffset dy="2"/>
<feGaussianBlur stdDeviation="2"/>
<feColorMatrix type="matrix" values="0 0 0 0 0.0627451 0 0 0 0 0.0941176 0 0 0 0 0.156863 0 0 0 0.06 0"/>
<feBlend mode="normal" in2="BackgroundImageFix" result="effect1_dropShadow_770_3741"/>
<feColorMatrix in="SourceAlpha" type="matrix" values="0 0 0 0 0 0 0 0 0 0 0 0 0 0 0 0 0 0 127 0" result="hardAlpha"/>
<feMorphology radius="2" operator="erode" in="SourceAlpha" result="effect2_dropShadow_770_3741"/>
<feOffset dy="4"/>
<feGaussianBlur stdDeviation="4"/>
<feColorMatrix type="matrix" values="0 0 0 0 0.0627451 0 0 0 0 0.0941176 0 0 0 0 0.156863 0 0 0 0.1 0"/>
<feBlend mode="normal" in2="effect1_dropShadow_770_3741" result="effect2_dropShadow_770_3741"/>
<feBlend mode="normal" in="SourceGraphic" in2="effect2_dropShadow_770_3741" result="shape"/>
</filter>
<filter id="filter2_dd_770_3741" x="34" y="101" width="196" height="76" filterUnits="userSpaceOnUse" color-interpolation-filters="sRGB">
<feFlood flood-opacity="0" result="BackgroundImageFix"/>
<feColorMatrix in="SourceAlpha" type="matrix" values="0 0 0 0 0 0 0 0 0 0 0 0 0 0 0 0 0 0 127 0" result="hardAlpha"/>
<feMorphology radius="2" operator="erode" in="SourceAlpha" result="effect1_dropShadow_770_3741"/>
<feOffset dy="2"/>
<feGaussianBlur stdDeviation="2"/>
<feColorMatrix type="matrix" values="0 0 0 0 0.0627451 0 0 0 0 0.0941176 0 0 0 0 0.156863 0 0 0 0.06 0"/>
<feBlend mode="normal" in2="BackgroundImageFix" result="effect1_dropShadow_770_3741"/>
<feColorMatrix in="SourceAlpha" type="matrix" values="0 0 0 0 0 0 0 0 0 0 0 0 0 0 0 0 0 0 127 0" result="hardAlpha"/>
<feMorphology radius="2" operator="erode" in="SourceAlpha" result="effect2_dropShadow_770_3741"/>
<feOffset dy="4"/>
<feGaussianBlur stdDeviation="4"/>
<feColorMatrix type="matrix" values="0 0 0 0 0.0627451 0 0 0 0 0.0941176 0 0 0 0 0.156863 0 0 0 0.1 0"/>
<feBlend mode="normal" in2="effect1_dropShadow_770_3741" result="effect2_dropShadow_770_3741"/>
<feBlend mode="normal" in="SourceGraphic" in2="effect2_dropShadow_770_3741" result="shape"/>
</filter>
<filter id="filter3_dd_770_3741" x="34" y="21" width="196" height="76" filterUnits="userSpaceOnUse" color-interpolation-filters="sRGB">
<feFlood flood-opacity="0" result="BackgroundImageFix"/>
<feColorMatrix in="SourceAlpha" type="matrix" values="0 0 0 0 0 0 0 0 0 0 0 0 0 0 0 0 0 0 127 0" result="hardAlpha"/>
<feMorphology radius="2" operator="erode" in="SourceAlpha" result="effect1_dropShadow_770_3741"/>
<feOffset dy="2"/>
<feGaussianBlur stdDeviation="2"/>
<feColorMatrix type="matrix" values="0 0 0 0 0.0627451 0 0 0 0 0.0941176 0 0 0 0 0.156863 0 0 0 0.06 0"/>
<feBlend mode="normal" in2="BackgroundImageFix" result="effect1_dropShadow_770_3741"/>
<feColorMatrix in="SourceAlpha" type="matrix" values="0 0 0 0 0 0 0 0 0 0 0 0 0 0 0 0 0 0 127 0" result="hardAlpha"/>
<feMorphology radius="2" operator="erode" in="SourceAlpha" result="effect2_dropShadow_770_3741"/>
<feOffset dy="4"/>
<feGaussianBlur stdDeviation="4"/>
<feColorMatrix type="matrix" values="0 0 0 0 0.0627451 0 0 0 0 0.0941176 0 0 0 0 0.156863 0 0 0 0.1 0"/>
<feBlend mode="normal" in2="effect1_dropShadow_770_3741" result="effect2_dropShadow_770_3741"/>
<feBlend mode="normal" in="SourceGraphic" in2="effect2_dropShadow_770_3741" result="shape"/>
</filter>
<filter id="filter4_dd_770_3741" x="514" y="235" width="52" height="52" filterUnits="userSpaceOnUse" color-interpolation-filters="sRGB">
<feFlood flood-opacity="0" result="BackgroundImageFix"/>
<feColorMatrix in="SourceAlpha" type="matrix" values="0 0 0 0 0 0 0 0 0 0 0 0 0 0 0 0 0 0 127 0" result="hardAlpha"/>
<feMorphology radius="2" operator="erode" in="SourceAlpha" result="effect1_dropShadow_770_3741"/>
<feOffset dy="2"/>
<feGaussianBlur stdDeviation="2"/>
<feColorMatrix type="matrix" values="0 0 0 0 0.0627451 0 0 0 0 0.0941176 0 0 0 0 0.156863 0 0 0 0.06 0"/>
<feBlend mode="normal" in2="BackgroundImageFix" result="effect1_dropShadow_770_3741"/>
<feColorMatrix in="SourceAlpha" type="matrix" values="0 0 0 0 0 0 0 0 0 0 0 0 0 0 0 0 0 0 127 0" result="hardAlpha"/>
<feMorphology radius="2" operator="erode" in="SourceAlpha" result="effect2_dropShadow_770_3741"/>
<feOffset dy="4"/>
<feGaussianBlur stdDeviation="4"/>
<feColorMatrix type="matrix" values="0 0 0 0 0.0627451 0 0 0 0 0.0941176 0 0 0 0 0.156863 0 0 0 0.1 0"/>
<feBlend mode="normal" in2="effect1_dropShadow_770_3741" result="effect2_dropShadow_770_3741"/>
<feBlend mode="normal" in="SourceGraphic" in2="effect2_dropShadow_770_3741" result="shape"/>
</filter>
<filter id="filter5_dd_770_3741" x="514" y="291" width="52" height="52" filterUnits="userSpaceOnUse" color-interpolation-filters="sRGB">
<feFlood flood-opacity="0" result="BackgroundImageFix"/>
<feColorMatrix in="SourceAlpha" type="matrix" values="0 0 0 0 0 0 0 0 0 0 0 0 0 0 0 0 0 0 127 0" result="hardAlpha"/>
<feMorphology radius="2" operator="erode" in="SourceAlpha" result="effect1_dropShadow_770_3741"/>
<feOffset dy="2"/>
<feGaussianBlur stdDeviation="2"/>
<feColorMatrix type="matrix" values="0 0 0 0 0.0627451 0 0 0 0 0.0941176 0 0 0 0 0.156863 0 0 0 0.06 0"/>
<feBlend mode="normal" in2="BackgroundImageFix" result="effect1_dropShadow_770_3741"/>
<feColorMatrix in="SourceAlpha" type="matrix" values="0 0 0 0 0 0 0 0 0 0 0 0 0 0 0 0 0 0 127 0" result="hardAlpha"/>
<feMorphology radius="2" operator="erode" in="SourceAlpha" result="effect2_dropShadow_770_3741"/>
<feOffset dy="4"/>
<feGaussianBlur stdDeviation="4"/>
<feColorMatrix type="matrix" values="0 0 0 0 0.0627451 0 0 0 0 0.0941176 0 0 0 0 0.156863 0 0 0 0.1 0"/>
<feBlend mode="normal" in2="effect1_dropShadow_770_3741" result="effect2_dropShadow_770_3741"/>
<feBlend mode="normal" in="SourceGraphic" in2="effect2_dropShadow_770_3741" result="shape"/>
</filter>
<filter id="filter6_dd_770_3741" x="514" y="347" width="52" height="52" filterUnits="userSpaceOnUse" color-interpolation-filters="sRGB">
<feFlood flood-opacity="0" result="BackgroundImageFix"/>
<feColorMatrix in="SourceAlpha" type="matrix" values="0 0 0 0 0 0 0 0 0 0 0 0 0 0 0 0 0 0 127 0" result="hardAlpha"/>
<feMorphology radius="2" operator="erode" in="SourceAlpha" result="effect1_dropShadow_770_3741"/>
<feOffset dy="2"/>
<feGaussianBlur stdDeviation="2"/>
<feColorMatrix type="matrix" values="0 0 0 0 0.0627451 0 0 0 0 0.0941176 0 0 0 0 0.156863 0 0 0 0.06 0"/>
<feBlend mode="normal" in2="BackgroundImageFix" result="effect1_dropShadow_770_3741"/>
<feColorMatrix in="SourceAlpha" type="matrix" values="0 0 0 0 0 0 0 0 0 0 0 0 0 0 0 0 0 0 127 0" result="hardAlpha"/>
<feMorphology radius="2" operator="erode" in="SourceAlpha" result="effect2_dropShadow_770_3741"/>
<feOffset dy="4"/>
<feGaussianBlur stdDeviation="4"/>
<feColorMatrix type="matrix" values="0 0 0 0 0.0627451 0 0 0 0 0.0941176 0 0 0 0 0.156863 0 0 0 0.1 0"/>
<feBlend mode="normal" in2="effect1_dropShadow_770_3741" result="effect2_dropShadow_770_3741"/>
<feBlend mode="normal" in="SourceGraphic" in2="effect2_dropShadow_770_3741" result="shape"/>
</filter>
<filter id="filter7_dd_770_3741" x="514" y="403" width="52" height="52" filterUnits="userSpaceOnUse" color-interpolation-filters="sRGB">
<feFlood flood-opacity="0" result="BackgroundImageFix"/>
<feColorMatrix in="SourceAlpha" type="matrix" values="0 0 0 0 0 0 0 0 0 0 0 0 0 0 0 0 0 0 127 0" result="hardAlpha"/>
<feMorphology radius="2" operator="erode" in="SourceAlpha" result="effect1_dropShadow_770_3741"/>
<feOffset dy="2"/>
<feGaussianBlur stdDeviation="2"/>
<feColorMatrix type="matrix" values="0 0 0 0 0.0627451 0 0 0 0 0.0941176 0 0 0 0 0.156863 0 0 0 0.06 0"/>
<feBlend mode="normal" in2="BackgroundImageFix" result="effect1_dropShadow_770_3741"/>
<feColorMatrix in="SourceAlpha" type="matrix" values="0 0 0 0 0 0 0 0 0 0 0 0 0 0 0 0 0 0 127 0" result="hardAlpha"/>
<feMorphology radius="2" operator="erode" in="SourceAlpha" result="effect2_dropShadow_770_3741"/>
<feOffset dy="4"/>
<feGaussianBlur stdDeviation="4"/>
<feColorMatrix type="matrix" values="0 0 0 0 0.0627451 0 0 0 0 0.0941176 0 0 0 0 0.156863 0 0 0 0.1 0"/>
<feBlend mode="normal" in2="effect1_dropShadow_770_3741" result="effect2_dropShadow_770_3741"/>
<feBlend mode="normal" in="SourceGraphic" in2="effect2_dropShadow_770_3741" result="shape"/>
</filter>
<filter id="filter8_dd_770_3741" x="514" y="459" width="52" height="52" filterUnits="userSpaceOnUse" color-interpolation-filters="sRGB">
<feFlood flood-opacity="0" result="BackgroundImageFix"/>
<feColorMatrix in="SourceAlpha" type="matrix" values="0 0 0 0 0 0 0 0 0 0 0 0 0 0 0 0 0 0 127 0" result="hardAlpha"/>
<feMorphology radius="2" operator="erode" in="SourceAlpha" result="effect1_dropShadow_770_3741"/>
<feOffset dy="2"/>
<feGaussianBlur stdDeviation="2"/>
<feColorMatrix type="matrix" values="0 0 0 0 0.0627451 0 0 0 0 0.0941176 0 0 0 0 0.156863 0 0 0 0.06 0"/>
<feBlend mode="normal" in2="BackgroundImageFix" result="effect1_dropShadow_770_3741"/>
<feColorMatrix in="SourceAlpha" type="matrix" values="0 0 0 0 0 0 0 0 0 0 0 0 0 0 0 0 0 0 127 0" result="hardAlpha"/>
<feMorphology radius="2" operator="erode" in="SourceAlpha" result="effect2_dropShadow_770_3741"/>
<feOffset dy="4"/>
<feGaussianBlur stdDeviation="4"/>
<feColorMatrix type="matrix" values="0 0 0 0 0.0627451 0 0 0 0 0.0941176 0 0 0 0 0.156863 0 0 0 0.1 0"/>
<feBlend mode="normal" in2="effect1_dropShadow_770_3741" result="effect2_dropShadow_770_3741"/>
<feBlend mode="normal" in="SourceGraphic" in2="effect2_dropShadow_770_3741" result="shape"/>
</filter>
<clipPath id="clip0_770_3741">
<rect x="140" y="59" width="360" height="519" rx="24" fill="white"/>
</clipPath>
<clipPath id="clip1_770_3741">
<path d="M140 514H500V578H140V514Z" fill="white"/>
</clipPath>
</defs>
</svg>
