<svg xmlns="http://www.w3.org/2000/svg" xmlns:xlink="http://www.w3.org/1999/xlink" width="1080" zoomAndPan="magnify" viewBox="0 0 810 809.999993" height="1080" preserveAspectRatio="xMidYMid meet" version="1.0"><defs><clipPath id="0170b50189"><path d="M 137 632 L 380 632 L 380 758.421875 L 137 758.421875 Z M 137 632 " clip-rule="nonzero"/></clipPath><clipPath id="b249749624"><path d="M 692 165 L 746.953125 165 L 746.953125 332 L 692 332 Z M 692 165 " clip-rule="nonzero"/></clipPath><clipPath id="f919041a2e"><path d="M 689 162 L 746.953125 162 L 746.953125 335 L 689 335 Z M 689 162 " clip-rule="nonzero"/></clipPath></defs><g clip-path="url(#0170b50189)"><path fill="#1c1d42" d="M 376.175781 758.066406 C 376.097656 758.066406 376.019531 758.066406 375.941406 758.058594 C 362.96875 757.214844 349.929688 755.617188 337.191406 753.300781 C 335.273438 752.953125 334.003906 751.117188 334.351562 749.203125 C 334.699219 747.285156 336.535156 746.011719 338.453125 746.363281 C 350.925781 748.628906 363.691406 750.195312 376.398438 751.023438 C 378.34375 751.148438 379.816406 752.828125 379.6875 754.769531 C 379.566406 756.636719 378.015625 758.066406 376.175781 758.066406 Z M 300.277344 744.265625 C 299.9375 744.265625 299.59375 744.21875 299.25 744.113281 C 286.84375 740.335938 274.519531 735.789062 262.621094 730.601562 C 260.835938 729.820312 260.023438 727.742188 260.800781 725.957031 C 261.578125 724.171875 263.65625 723.355469 265.441406 724.136719 C 277.089844 729.214844 289.15625 733.667969 301.304688 737.367188 C 303.167969 737.933594 304.21875 739.902344 303.648438 741.765625 C 303.1875 743.289062 301.789062 744.265625 300.277344 744.265625 Z M 229.570312 713.429688 C 228.96875 713.429688 228.359375 713.273438 227.800781 712.953125 C 216.59375 706.433594 205.636719 699.191406 195.234375 691.417969 C 193.671875 690.253906 193.351562 688.042969 194.519531 686.484375 C 195.683594 684.925781 197.894531 684.605469 199.453125 685.769531 C 209.640625 693.378906 220.371094 700.472656 231.34375 706.855469 C 233.027344 707.832031 233.601562 709.992188 232.621094 711.675781 C 231.964844 712.800781 230.785156 713.429688 229.570312 713.429688 Z M 167.761719 667.265625 C 166.894531 667.265625 166.023438 666.945312 165.34375 666.304688 C 155.902344 657.402344 146.875 647.859375 138.511719 637.941406 C 137.257812 636.453125 137.445312 634.230469 138.933594 632.972656 C 140.425781 631.71875 142.648438 631.90625 143.90625 633.398438 C 152.09375 643.109375 160.933594 652.457031 170.179688 661.171875 C 171.597656 662.507812 171.664062 664.742188 170.328125 666.15625 C 169.632812 666.894531 168.699219 667.265625 167.761719 667.265625 Z M 167.761719 667.265625 " fill-opacity="1" fill-rule="nonzero"/></g><path fill="#1c1d42" d="M 120.894531 232.800781 C 120.207031 232.800781 119.511719 232.601562 118.902344 232.183594 C 117.296875 231.082031 116.886719 228.886719 117.988281 227.28125 C 125.320312 216.585938 133.359375 206.195312 141.875 196.398438 C 143.152344 194.929688 145.382812 194.773438 146.851562 196.050781 C 148.320312 197.328125 148.476562 199.554688 147.199219 201.023438 C 138.855469 210.621094 130.984375 220.796875 123.804688 231.269531 C 123.121094 232.265625 122.015625 232.800781 120.894531 232.800781 Z M 171.511719 174.574219 C 170.558594 174.574219 169.605469 174.1875 168.910156 173.425781 C 167.597656 171.988281 167.695312 169.757812 169.132812 168.445312 C 178.710938 159.683594 188.894531 151.386719 199.402344 143.785156 C 200.976562 142.644531 203.183594 142.996094 204.324219 144.574219 C 205.464844 146.152344 205.113281 148.355469 203.535156 149.5 C 193.246094 156.945312 183.273438 165.070312 173.894531 173.648438 C 173.214844 174.269531 172.363281 174.574219 171.511719 174.574219 Z M 234.019531 129.351562 C 232.785156 129.351562 231.589844 128.703125 230.941406 127.550781 C 229.988281 125.851562 230.59375 123.703125 232.289062 122.75 C 243.613281 116.394531 255.417969 110.636719 267.378906 105.632812 C 269.175781 104.882812 271.242188 105.730469 271.992188 107.527344 C 272.746094 109.324219 271.898438 111.390625 270.101562 112.140625 C 258.390625 117.039062 246.828125 122.675781 235.742188 128.898438 C 235.195312 129.207031 234.605469 129.351562 234.019531 129.351562 Z M 495.84375 100.898438 C 495.503906 100.898438 495.160156 100.851562 494.820312 100.746094 C 482.671875 97.066406 470.164062 94.058594 457.648438 91.804688 C 455.730469 91.460938 454.457031 89.628906 454.800781 87.710938 C 455.148438 85.792969 456.980469 84.519531 458.898438 84.863281 C 471.683594 87.167969 484.457031 90.238281 496.863281 93.996094 C 498.726562 94.5625 499.78125 96.53125 499.21875 98.394531 C 498.753906 99.917969 497.355469 100.898438 495.84375 100.898438 Z M 305.179688 99.601562 C 303.648438 99.601562 302.238281 98.59375 301.792969 97.046875 C 301.253906 95.175781 302.335938 93.222656 304.207031 92.683594 C 316.664062 89.101562 329.472656 86.203125 342.277344 84.078125 C 344.199219 83.761719 346.015625 85.058594 346.335938 86.980469 C 346.652344 88.902344 345.355469 90.71875 343.433594 91.035156 C 330.894531 93.117188 318.351562 95.953125 306.15625 99.460938 C 305.832031 99.554688 305.503906 99.601562 305.179688 99.601562 Z M 419.914062 87.214844 C 419.839844 87.214844 419.761719 87.210938 419.6875 87.207031 C 412.613281 86.757812 405.417969 86.53125 398.300781 86.53125 C 392.691406 86.53125 387.023438 86.671875 381.445312 86.949219 C 379.503906 87.046875 377.84375 85.550781 377.746094 83.605469 C 377.652344 81.660156 379.148438 80.003906 381.09375 79.90625 C 386.789062 79.621094 392.574219 79.476562 398.300781 79.476562 C 405.566406 79.476562 412.914062 79.710938 420.132812 80.167969 C 422.078125 80.289062 423.554688 81.964844 423.429688 83.910156 C 423.3125 85.777344 421.757812 87.214844 419.914062 87.214844 Z M 419.914062 87.214844 " fill-opacity="1" fill-rule="nonzero"/><path fill="#f0f9ff" d="M 645.089844 419.132812 C 645.089844 423.171875 644.992188 427.207031 644.792969 431.242188 C 644.59375 435.277344 644.296875 439.300781 643.902344 443.320312 C 643.503906 447.339844 643.011719 451.347656 642.417969 455.34375 C 641.824219 459.339844 641.136719 463.316406 640.347656 467.277344 C 639.558594 471.238281 638.675781 475.179688 637.695312 479.097656 C 636.710938 483.015625 635.636719 486.90625 634.460938 490.769531 C 633.289062 494.636719 632.023438 498.46875 630.664062 502.273438 C 629.300781 506.074219 627.847656 509.84375 626.304688 513.574219 C 624.757812 517.304688 623.121094 520.996094 621.394531 524.648438 C 619.667969 528.300781 617.851562 531.90625 615.949219 535.46875 C 614.046875 539.03125 612.054688 542.542969 609.976562 546.007812 C 607.902344 549.472656 605.742188 552.882812 603.496094 556.242188 C 601.253906 559.597656 598.929688 562.898438 596.523438 566.144531 C 594.117188 569.386719 591.632812 572.570312 589.070312 575.691406 C 586.507812 578.816406 583.871094 581.871094 581.160156 584.867188 C 578.445312 587.859375 575.664062 590.78125 572.808594 593.636719 C 569.949219 596.492188 567.027344 599.277344 564.035156 601.992188 C 561.042969 604.703125 557.984375 607.339844 554.863281 609.902344 C 551.738281 612.464844 548.558594 614.949219 545.3125 617.355469 C 542.070312 619.761719 538.765625 622.085938 535.410156 624.328125 C 532.050781 626.574219 528.640625 628.734375 525.175781 630.808594 C 521.710938 632.886719 518.199219 634.875 514.636719 636.78125 C 511.074219 638.683594 507.46875 640.5 503.816406 642.226562 C 500.164062 643.953125 496.472656 645.589844 492.742188 647.136719 C 489.011719 648.679688 485.246094 650.132812 481.441406 651.496094 C 477.640625 652.855469 473.804688 654.121094 469.941406 655.292969 C 466.074219 656.464844 462.183594 657.542969 458.265625 658.523438 C 454.347656 659.507812 450.410156 660.390625 446.445312 661.179688 C 442.484375 661.964844 438.507812 662.65625 434.511719 663.25 C 430.515625 663.84375 426.511719 664.335938 422.492188 664.730469 C 418.472656 665.128906 414.445312 665.425781 410.410156 665.625 C 406.375 665.820312 402.339844 665.921875 398.300781 665.921875 C 394.261719 665.921875 390.226562 665.820312 386.191406 665.625 C 382.15625 665.425781 378.132812 665.128906 374.113281 664.730469 C 370.09375 664.335938 366.085938 663.84375 362.089844 663.25 C 358.09375 662.65625 354.117188 661.964844 350.15625 661.179688 C 346.195312 660.390625 342.253906 659.507812 338.335938 658.523438 C 334.417969 657.542969 330.527344 656.464844 326.664062 655.292969 C 322.796875 654.121094 318.964844 652.855469 315.160156 651.496094 C 311.359375 650.132812 307.589844 648.679688 303.859375 647.136719 C 300.128906 645.589844 296.4375 643.953125 292.785156 642.226562 C 289.132812 640.5 285.527344 638.683594 281.964844 636.78125 C 278.402344 634.875 274.890625 632.886719 271.425781 630.808594 C 267.960938 628.734375 264.550781 626.574219 261.191406 624.328125 C 257.835938 622.085938 254.535156 619.761719 251.289062 617.355469 C 248.046875 614.949219 244.863281 612.464844 241.738281 609.902344 C 238.617188 607.339844 235.5625 604.703125 232.566406 601.992188 C 229.574219 599.277344 226.652344 596.492188 223.796875 593.636719 C 220.9375 590.78125 218.15625 587.859375 215.441406 584.867188 C 212.730469 581.871094 210.09375 578.816406 207.53125 575.691406 C 204.96875 572.570312 202.484375 569.386719 200.078125 566.144531 C 197.671875 562.898438 195.347656 559.597656 193.105469 556.242188 C 190.859375 552.882812 188.699219 549.472656 186.625 546.007812 C 184.546875 542.542969 182.558594 539.03125 180.652344 535.46875 C 178.75 531.90625 176.933594 528.300781 175.207031 524.648438 C 173.480469 520.996094 171.84375 517.304688 170.296875 513.574219 C 168.753906 509.84375 167.300781 506.074219 165.9375 502.273438 C 164.578125 498.46875 163.3125 494.636719 162.140625 490.769531 C 160.96875 486.90625 159.890625 483.015625 158.910156 479.097656 C 157.925781 475.179688 157.042969 471.238281 156.253906 467.277344 C 155.464844 463.316406 154.777344 459.339844 154.183594 455.34375 C 153.589844 451.347656 153.097656 447.339844 152.699219 443.320312 C 152.304688 439.300781 152.007812 435.277344 151.808594 431.242188 C 151.613281 427.207031 151.511719 423.171875 151.511719 419.132812 C 151.511719 415.09375 151.613281 411.058594 151.808594 407.023438 C 152.007812 402.988281 152.304688 398.960938 152.699219 394.941406 C 153.097656 390.921875 153.589844 386.917969 154.183594 382.921875 C 154.777344 378.925781 155.464844 374.949219 156.253906 370.984375 C 157.042969 367.023438 157.925781 363.085938 158.910156 359.167969 C 159.890625 355.25 160.96875 351.359375 162.140625 347.492188 C 163.3125 343.628906 164.578125 339.792969 165.9375 335.992188 C 167.300781 332.1875 168.753906 328.421875 170.296875 324.691406 C 171.84375 320.960938 173.480469 317.269531 175.207031 313.617188 C 176.933594 309.964844 178.75 306.359375 180.652344 302.796875 C 182.558594 299.234375 184.546875 295.722656 186.625 292.257812 C 188.699219 288.792969 190.859375 285.382812 193.105469 282.023438 C 195.347656 278.664062 197.671875 275.363281 200.078125 272.121094 C 202.484375 268.875 204.96875 265.695312 207.53125 262.570312 C 210.09375 259.449219 212.730469 256.390625 215.441406 253.398438 C 218.15625 250.40625 220.9375 247.484375 223.796875 244.625 C 226.652344 241.769531 229.574219 238.988281 232.566406 236.273438 C 235.5625 233.5625 238.617188 230.925781 241.738281 228.363281 C 244.863281 225.800781 248.046875 223.316406 251.289062 220.910156 C 254.535156 218.503906 257.835938 216.179688 261.191406 213.933594 C 264.550781 211.691406 267.960938 209.53125 271.425781 207.453125 C 274.890625 205.378906 278.402344 203.386719 281.964844 201.484375 C 285.527344 199.582031 289.132812 197.765625 292.785156 196.039062 C 296.4375 194.3125 300.128906 192.675781 303.859375 191.128906 C 307.589844 189.582031 311.359375 188.128906 315.160156 186.769531 C 318.964844 185.410156 322.796875 184.144531 326.664062 182.96875 C 330.527344 181.796875 334.417969 180.722656 338.335938 179.738281 C 342.253906 178.757812 346.195312 177.875 350.15625 177.085938 C 354.117188 176.296875 358.09375 175.609375 362.089844 175.015625 C 366.085938 174.421875 370.09375 173.929688 374.113281 173.53125 C 378.132812 173.136719 382.15625 172.839844 386.191406 172.640625 C 390.226562 172.441406 394.261719 172.34375 398.300781 172.34375 C 402.339844 172.34375 406.375 172.441406 410.410156 172.640625 C 414.445312 172.839844 418.472656 173.136719 422.492188 173.53125 C 426.511719 173.929688 430.515625 174.421875 434.511719 175.015625 C 438.507812 175.609375 442.484375 176.296875 446.445312 177.085938 C 450.410156 177.875 454.347656 178.757812 458.265625 179.738281 C 462.183594 180.722656 466.074219 181.796875 469.941406 182.96875 C 473.804688 184.144531 477.640625 185.410156 481.441406 186.769531 C 485.246094 188.128906 489.011719 189.582031 492.742188 191.128906 C 496.472656 192.675781 500.164062 194.3125 503.816406 196.039062 C 507.46875 197.765625 511.074219 199.582031 514.636719 201.484375 C 518.199219 203.386719 521.710938 205.378906 525.175781 207.453125 C 528.640625 209.53125 532.050781 211.691406 535.410156 213.933594 C 538.765625 216.179688 542.070312 218.503906 545.3125 220.910156 C 548.558594 223.316406 551.738281 225.800781 554.863281 228.363281 C 557.984375 230.925781 561.042969 233.5625 564.035156 236.273438 C 567.027344 238.988281 569.949219 241.769531 572.808594 244.625 C 575.664062 247.484375 578.445312 250.40625 581.160156 253.398438 C 583.871094 256.390625 586.507812 259.449219 589.070312 262.570312 C 591.632812 265.695312 594.117188 268.875 596.523438 272.121094 C 598.929688 275.363281 601.253906 278.664062 603.5 282.023438 C 605.742188 285.382812 607.902344 288.792969 609.976562 292.257812 C 612.054688 295.722656 614.046875 299.234375 615.949219 302.796875 C 617.851562 306.359375 619.667969 309.964844 621.394531 313.617188 C 623.121094 317.269531 624.757812 320.960938 626.304688 324.691406 C 627.847656 328.421875 629.300781 332.1875 630.664062 335.992188 C 632.023438 339.792969 633.289062 343.628906 634.460938 347.492188 C 635.636719 351.359375 636.710938 355.25 637.695312 359.167969 C 638.675781 363.085938 639.558594 367.023438 640.347656 370.984375 C 641.136719 374.949219 641.824219 378.925781 642.417969 382.921875 C 643.011719 386.917969 643.503906 390.921875 643.902344 394.941406 C 644.296875 398.960938 644.59375 402.988281 644.792969 407.023438 C 644.992188 411.058594 645.089844 415.09375 645.089844 419.132812 Z M 645.089844 419.132812 " fill-opacity="1" fill-rule="nonzero"/><path fill="#ffffff" d="M 457.226562 304.050781 C 458.589844 315.980469 468.691406 324.898438 480.980469 324.898438 C 492.011719 324.898438 501.230469 317.589844 504.007812 307.445312 L 505.828125 307.484375 C 508.582031 317.664062 517.808594 325.101562 528.859375 324.898438 C 539.21875 324.710938 547.824219 318.707031 551.132812 309.816406 L 567.617188 258.1875 C 567.617188 258.1875 546.898438 196.332031 508.164062 190.628906 C 469.429688 184.921875 434 239.871094 434 239.871094 L 457.117188 270.199219 Z M 457.226562 304.050781 " fill-opacity="1" fill-rule="nonzero"/><path fill="#1c1d42" d="M 528.429688 328.429688 C 518.496094 328.429688 509.570312 322.96875 504.886719 314.5 C 503.089844 317.699219 500.65625 320.53125 497.734375 322.773438 C 492.921875 326.472656 487.128906 328.425781 480.980469 328.425781 C 474.1875 328.425781 467.6875 326 462.675781 321.597656 C 457.664062 317.1875 454.480469 311.097656 453.722656 304.453125 C 453.707031 304.324219 453.699219 304.191406 453.699219 304.0625 L 453.597656 271.394531 L 431.195312 242.007812 C 430.292969 240.828125 430.230469 239.210938 431.035156 237.960938 C 431.40625 237.386719 440.28125 223.71875 454.125 210.554688 C 462.335938 202.75 470.59375 196.761719 478.667969 192.757812 C 489.019531 187.621094 499.117188 185.730469 508.675781 187.140625 C 518.207031 188.542969 527.449219 193.195312 536.144531 200.960938 C 542.933594 207.027344 549.414062 215.011719 555.414062 224.691406 C 565.53125 241.027344 570.742188 256.421875 570.960938 257.066406 C 571.195312 257.777344 571.203125 258.546875 570.976562 259.261719 L 554.492188 310.886719 C 554.472656 310.941406 554.457031 310.992188 554.4375 311.042969 C 550.589844 321.390625 540.574219 328.210938 528.925781 328.425781 C 528.757812 328.429688 528.59375 328.429688 528.429688 328.429688 Z M 504.003906 303.917969 C 504.03125 303.917969 504.058594 303.917969 504.085938 303.917969 L 505.90625 303.960938 C 507.46875 303.996094 508.820312 305.054688 509.230469 306.5625 C 511.636719 315.449219 519.683594 321.539062 528.796875 321.375 C 537.5 321.214844 544.949219 316.226562 547.796875 308.660156 L 563.894531 258.246094 C 562.546875 254.515625 557.582031 241.558594 549.347656 228.289062 C 540.609375 214.214844 526.28125 196.863281 507.648438 194.117188 C 475.675781 189.40625 445.109375 230.089844 438.34375 239.753906 L 459.921875 268.0625 C 460.390625 268.671875 460.644531 269.417969 460.644531 270.1875 L 460.753906 303.835938 C 461.992188 313.847656 470.65625 321.375 480.984375 321.375 C 490.140625 321.375 498.210938 315.261719 500.605469 306.511719 C 501.023438 304.976562 502.421875 303.917969 504.003906 303.917969 Z M 504.003906 303.917969 " fill-opacity="1" fill-rule="nonzero"/><path fill="#f0f9ff" d="M 605.066406 62.269531 C 596.835938 55.917969 584.824219 57.492188 578.378906 65.765625 L 417.265625 272.601562 C 416.535156 273.542969 415.898438 274.542969 415.382812 275.570312 L 390.101562 337.058594 C 389.515625 338.222656 390.164062 338.726562 391.152344 337.875 L 444.6875 298.382812 C 445.554688 297.632812 446.371094 296.769531 447.101562 295.832031 L 608.316406 88.863281 C 614.761719 80.585938 613.300781 68.621094 605.066406 62.269531 Z M 605.066406 62.269531 " fill-opacity="1" fill-rule="nonzero"/><path fill="#1c1d42" d="M 390.304688 341.832031 C 389.335938 341.832031 388.480469 341.480469 387.871094 341.003906 C 386.667969 340.066406 385.703125 338.105469 386.882812 335.617188 L 412.121094 274.230469 C 412.15625 274.148438 412.191406 274.066406 412.230469 273.988281 C 412.851562 272.753906 413.609375 271.558594 414.480469 270.4375 L 575.597656 63.597656 C 583.25 53.777344 597.433594 51.925781 607.21875 59.476562 C 611.925781 63.105469 614.929688 68.378906 615.683594 74.316406 C 616.445312 80.320312 614.816406 86.257812 611.097656 91.027344 L 449.882812 297.996094 C 449.007812 299.117188 448.035156 300.144531 446.992188 301.050781 C 446.921875 301.109375 446.851562 301.164062 446.777344 301.21875 L 393.335938 340.644531 C 392.292969 341.503906 391.246094 341.832031 390.304688 341.832031 Z M 390.101562 337.058594 L 390.105469 337.058594 Z M 418.589844 277.042969 L 397.222656 329.011719 L 442.476562 295.628906 C 443.132812 295.050781 443.753906 294.386719 444.316406 293.664062 L 605.535156 86.695312 C 608.089844 83.414062 609.210938 79.332031 608.6875 75.203125 C 608.171875 71.140625 606.121094 67.535156 602.914062 65.0625 C 596.191406 59.875 586.433594 61.164062 581.160156 67.933594 L 420.046875 274.769531 C 419.484375 275.492188 418.992188 276.257812 418.589844 277.042969 Z M 444.683594 298.382812 L 444.6875 298.382812 Z M 444.683594 298.382812 " fill-opacity="1" fill-rule="nonzero"/><path fill="#f0f9ff" d="M 605.066406 62.269531 C 596.835938 55.917969 584.824219 57.492188 578.378906 65.765625 L 559.757812 89.671875 C 559.8125 89.722656 559.890625 89.796875 559.890625 89.796875 L 589.148438 112.574219 L 589.710938 112.75 L 608.316406 88.863281 C 614.761719 80.585938 613.300781 68.621094 605.066406 62.269531 Z M 605.066406 62.269531 " fill-opacity="1" fill-rule="nonzero"/><path fill="#1c1d42" d="M 589.707031 116.273438 C 589.359375 116.273438 589.003906 116.222656 588.660156 116.113281 L 588.097656 115.941406 C 587.695312 115.8125 587.316406 115.617188 586.980469 115.355469 L 557.722656 92.578125 C 557.644531 92.515625 557.570312 92.453125 557.496094 92.382812 L 557.378906 92.277344 C 556.019531 91.035156 555.84375 88.957031 556.976562 87.507812 L 575.597656 63.597656 C 583.25 53.777344 597.433594 51.925781 607.222656 59.476562 C 611.925781 63.105469 614.929688 68.378906 615.683594 74.316406 C 616.445312 80.320312 614.816406 86.257812 611.097656 91.027344 L 592.492188 114.914062 C 591.8125 115.789062 590.777344 116.273438 589.707031 116.273438 Z M 564.695312 89.070312 L 588.964844 107.964844 L 605.535156 86.695312 C 608.089844 83.414062 609.210938 79.332031 608.6875 75.203125 C 608.171875 71.140625 606.121094 67.535156 602.914062 65.0625 C 596.191406 59.875 586.433594 61.164062 581.160156 67.933594 Z M 564.695312 89.070312 " fill-opacity="1" fill-rule="nonzero"/><path fill="#ffffff" d="M 446.304688 296.757812 L 416.46875 273.734375 C 416.070312 274.335938 415.695312 274.945312 415.382812 275.570312 L 390.101562 337.058594 C 389.515625 338.222656 390.164062 338.726562 391.152344 337.875 L 444.683594 298.382812 C 445.253906 297.890625 445.789062 297.335938 446.304688 296.757812 Z M 446.304688 296.757812 " fill-opacity="1" fill-rule="nonzero"/><path fill="#1c1d42" d="M 390.304688 341.832031 C 389.335938 341.832031 388.484375 341.480469 387.871094 341.003906 C 386.667969 340.070312 385.703125 338.105469 386.882812 335.617188 L 412.121094 274.230469 C 412.15625 274.148438 412.191406 274.066406 412.230469 273.988281 C 412.574219 273.300781 413 272.582031 413.53125 271.785156 C 414.070312 270.96875 414.925781 270.417969 415.890625 270.257812 C 416.859375 270.097656 417.847656 270.347656 418.621094 270.945312 L 448.457031 293.964844 C 449.234375 294.5625 449.722656 295.453125 449.816406 296.429688 C 449.90625 297.402344 449.589844 298.371094 448.9375 299.101562 C 448.238281 299.886719 447.621094 300.507812 446.992188 301.050781 C 446.921875 301.109375 446.851562 301.167969 446.777344 301.21875 L 393.335938 340.644531 C 392.292969 341.503906 391.246094 341.832031 390.304688 341.832031 Z M 388.84375 335.207031 Z M 417.722656 279.15625 L 397.222656 329.011719 L 440.734375 296.914062 Z M 417.722656 279.15625 " fill-opacity="1" fill-rule="nonzero"/><path fill="#ffffff" d="M 405.765625 261.140625 C 412.050781 265.308594 418.214844 265.730469 424.035156 263.910156 L 542.050781 112.40625 C 526.894531 112.722656 507.746094 126.015625 490.507812 139.558594 C 467.738281 157.449219 409.863281 211.230469 402.667969 225.050781 C 392.34375 240.367188 393.109375 252.75 405.765625 261.140625 Z M 405.765625 261.140625 " fill-opacity="1" fill-rule="nonzero"/><path fill="#1c1d42" d="M 417.574219 268.464844 C 412.828125 268.464844 408.222656 267 403.816406 264.078125 C 397.484375 259.878906 393.652344 254.636719 392.433594 248.492188 C 390.957031 241.070312 393.382812 232.574219 399.640625 223.238281 C 404.425781 214.324219 425.886719 193.15625 438.3125 181.28125 C 456.589844 163.8125 476.6875 145.933594 488.332031 136.785156 C 505.648438 123.179688 525.566406 109.222656 541.976562 108.878906 C 542 108.878906 542.027344 108.878906 542.050781 108.878906 C 543.382812 108.878906 544.601562 109.628906 545.203125 110.824219 C 545.8125 112.039062 545.667969 113.5 544.832031 114.570312 L 426.816406 266.078125 C 426.375 266.644531 425.773438 267.0625 425.085938 267.277344 C 422.550781 268.070312 420.042969 268.464844 417.574219 268.464844 Z M 407.714844 258.203125 C 412.308594 261.25 416.980469 262.113281 421.960938 260.835938 L 533.699219 117.390625 C 520.640625 121.3125 505.289062 132.429688 492.6875 142.332031 C 468.035156 161.699219 412.320312 214.15625 405.796875 226.679688 C 405.734375 226.796875 405.667969 226.910156 405.59375 227.019531 C 400.347656 234.804688 398.246094 241.566406 399.351562 247.117188 C 400.191406 251.351562 403.003906 255.078125 407.714844 258.203125 Z M 407.714844 258.203125 " fill-opacity="1" fill-rule="nonzero"/><path fill="#ffffff" d="M 682.277344 179.054688 C 653.589844 169.816406 637.769531 162.511719 590.800781 126.628906 C 588.527344 124.890625 585.796875 123.316406 582.605469 121.867188 L 508.863281 216.539062 C 538.820312 223.316406 545.171875 253.933594 545.066406 253.949219 L 544.953125 253.949219 L 472.621094 251.402344 C 469.839844 251.304688 467.066406 251.636719 464.285156 251.605469 C 444.347656 251.382812 436.3125 266.058594 435.925781 281.136719 C 435.59375 294.042969 446.9375 303.359375 465.925781 305.667969 L 466.863281 305.789062 L 546.871094 309.179688 C 549.6875 309.300781 552.453125 309.980469 554.984375 311.21875 C 568.644531 317.90625 619.722656 339.5625 677.785156 322.242188 L 677.839844 322.167969 L 704.492188 325.3125 L 710.410156 179.605469 C 710.410156 179.605469 692.039062 182.199219 682.277344 179.054688 Z M 682.277344 179.054688 " fill-opacity="1" fill-rule="nonzero"/><path fill="#1c1d42" d="M 632.207031 332.339844 C 593.996094 332.34375 563.921875 319.519531 553.433594 314.386719 C 551.355469 313.371094 549.097656 312.804688 546.722656 312.703125 L 466.714844 309.3125 C 466.613281 309.308594 466.511719 309.300781 466.410156 309.285156 L 465.472656 309.164062 C 444.703125 306.636719 432.019531 295.863281 432.398438 281.046875 C 432.558594 274.753906 434.019531 265.71875 440.050781 258.390625 C 445.699219 251.53125 454.089844 247.957031 464.324219 248.078125 C 465.492188 248.089844 466.675781 248.035156 467.925781 247.972656 C 469.480469 247.898438 471.089844 247.820312 472.742188 247.878906 L 540.347656 250.257812 C 539.316406 247.320312 537.550781 243.152344 534.703125 238.796875 C 528.191406 228.832031 519.234375 222.5 508.085938 219.976562 C 506.90625 219.710938 505.949219 218.859375 505.542969 217.722656 C 505.136719 216.585938 505.339844 215.324219 506.082031 214.371094 L 579.824219 119.699219 C 580.824219 118.414062 582.578125 117.980469 584.0625 118.65625 C 587.558594 120.242188 590.464844 121.933594 592.941406 123.824219 C 639.996094 159.773438 655.109375 166.601562 683.359375 175.699219 C 690.734375 178.074219 705.03125 176.804688 709.914062 176.113281 C 710.953125 175.96875 712 176.289062 712.773438 176.992188 C 713.550781 177.695312 713.972656 178.703125 713.929688 179.75 L 708.015625 325.457031 C 707.976562 326.4375 707.527344 327.355469 706.78125 327.996094 C 706.035156 328.632812 705.054688 328.929688 704.078125 328.8125 L 678.285156 325.769531 C 662.179688 330.515625 646.613281 332.339844 632.207031 332.339844 Z M 467.164062 302.273438 L 547.019531 305.660156 C 550.375 305.800781 553.574219 306.605469 556.53125 308.050781 C 570.394531 314.835938 619.894531 335.613281 676.253906 319.015625 C 676.863281 318.710938 677.554688 318.582031 678.25 318.664062 L 701.125 321.363281 L 706.71875 183.578125 C 700.484375 184.171875 688.726562 184.835938 681.195312 182.414062 C 652.71875 173.242188 636.375 165.882812 588.660156 129.429688 C 587.230469 128.339844 585.546875 127.285156 583.632812 126.289062 L 514.863281 214.574219 C 525.660156 218.269531 534.664062 225.503906 541.113281 235.730469 C 546.46875 244.21875 548.660156 252.710938 548.589844 254.121094 C 548.503906 255.832031 547.195312 257.238281 545.496094 257.449219 C 545.351562 257.464844 545.207031 257.476562 545.066406 257.476562 L 544.957031 257.476562 C 544.914062 257.476562 544.871094 257.472656 544.832031 257.472656 L 472.496094 254.925781 C 471.136719 254.878906 469.742188 254.945312 468.269531 255.019531 C 466.96875 255.082031 465.625 255.144531 464.25 255.132812 C 464.113281 255.128906 463.976562 255.128906 463.84375 255.128906 C 441.835938 255.128906 439.609375 275.082031 439.449219 281.226562 C 439.316406 286.511719 441.488281 291.023438 445.914062 294.648438 C 450.640625 298.515625 457.707031 301.117188 466.351562 302.167969 Z M 467.164062 302.273438 " fill-opacity="1" fill-rule="nonzero"/><g clip-path="url(#b249749624)"><path fill="#01baef" d="M 746.441406 169.789062 L 713.074219 165.695312 C 705.265625 165.734375 698.664062 172.246094 698.328125 180.234375 L 692.5625 316.910156 C 692.226562 324.898438 698.285156 331.339844 706.09375 331.300781 L 740.035156 330.957031 Z M 746.441406 169.789062 " fill-opacity="1" fill-rule="nonzero"/></g><g clip-path="url(#f919041a2e)"><path fill="#1c1d42" d="M 706.035156 334.828125 C 701.367188 334.828125 697.046875 333.003906 693.851562 329.683594 C 690.542969 326.253906 688.835938 321.664062 689.042969 316.761719 L 694.804688 180.085938 C 695.21875 170.257812 703.40625 162.21875 713.058594 162.167969 C 713.207031 162.167969 713.355469 162.175781 713.503906 162.195312 L 746.871094 166.289062 L 746.011719 173.289062 L 712.886719 169.222656 C 707.035156 169.371094 702.105469 174.332031 701.851562 180.382812 L 696.085938 317.058594 C 695.960938 320.015625 696.972656 322.761719 698.929688 324.789062 C 700.796875 326.730469 703.339844 327.792969 706.074219 327.773438 L 740 327.433594 L 740.070312 334.484375 L 706.128906 334.828125 C 706.097656 334.828125 706.066406 334.828125 706.035156 334.828125 Z M 706.035156 334.828125 " fill-opacity="1" fill-rule="nonzero"/></g><path fill="#ffffff" d="M 464.921875 305.539062 L 471.039062 305.964844 Z M 464.921875 305.539062 " fill-opacity="1" fill-rule="nonzero"/><path fill="#1c1d42" d="M 471.042969 309.492188 C 470.960938 309.492188 470.878906 309.488281 470.792969 309.484375 L 464.679688 309.058594 C 462.734375 308.921875 461.269531 307.234375 461.40625 305.292969 C 461.542969 303.351562 463.226562 301.882812 465.167969 302.019531 L 471.285156 302.449219 C 473.230469 302.585938 474.695312 304.269531 474.558594 306.210938 C 474.429688 308.070312 472.878906 309.492188 471.042969 309.492188 Z M 471.042969 309.492188 " fill-opacity="1" fill-rule="nonzero"/><path fill="#ffffff" d="M 340.347656 533.054688 L 340.347656 240.085938 C 340.347656 232.675781 334.339844 226.667969 326.929688 226.667969 L 160.082031 226.667969 L 66.894531 319.855469 L 66.894531 596.390625 C 66.894531 603.804688 72.902344 609.808594 80.3125 609.808594 L 311.152344 609.808594 Z M 340.347656 533.054688 " fill-opacity="1" fill-rule="nonzero"/><path fill="#1c1d42" d="M 311.152344 613.335938 L 80.3125 613.335938 C 70.96875 613.335938 63.367188 605.734375 63.367188 596.390625 L 63.367188 319.855469 C 63.367188 318.921875 63.738281 318.023438 64.402344 317.363281 L 157.589844 224.175781 C 158.25 223.515625 159.148438 223.140625 160.082031 223.140625 L 326.929688 223.140625 C 336.273438 223.140625 343.875 230.742188 343.875 240.085938 L 343.875 533.054688 C 343.875 535.003906 342.292969 536.582031 340.347656 536.582031 C 338.398438 536.582031 336.820312 535.003906 336.820312 533.054688 L 336.820312 240.085938 C 336.820312 234.632812 332.382812 230.195312 326.929688 230.195312 L 161.542969 230.195312 L 70.421875 321.316406 L 70.421875 596.390625 C 70.421875 601.847656 74.859375 606.285156 80.3125 606.285156 L 311.152344 606.285156 C 313.097656 606.285156 314.679688 607.863281 314.679688 609.8125 C 314.679688 611.757812 313.097656 613.335938 311.152344 613.335938 Z M 311.152344 613.335938 " fill-opacity="1" fill-rule="nonzero"/><path fill="#01baef" d="M 146.664062 319.855469 L 66.894531 319.855469 L 160.082031 226.667969 L 160.082031 306.4375 C 160.082031 313.847656 154.074219 319.855469 146.664062 319.855469 Z M 146.664062 319.855469 " fill-opacity="1" fill-rule="nonzero"/><path fill="#1c1d42" d="M 146.664062 323.382812 L 66.894531 323.382812 C 65.46875 323.382812 64.183594 322.523438 63.636719 321.207031 C 63.089844 319.886719 63.390625 318.371094 64.402344 317.363281 L 157.589844 224.175781 C 158.597656 223.167969 160.113281 222.863281 161.429688 223.410156 C 162.75 223.957031 163.609375 225.242188 163.609375 226.667969 L 163.609375 306.4375 C 163.609375 315.78125 156.007812 323.382812 146.664062 323.382812 Z M 75.40625 316.328125 L 146.664062 316.328125 C 152.117188 316.328125 156.554688 311.890625 156.554688 306.4375 L 156.554688 235.183594 Z M 75.40625 316.328125 " fill-opacity="1" fill-rule="nonzero"/><path fill="#f0f9ff" d="M 275.851562 493.949219 L 361.96875 580.066406 C 364.910156 583.007812 365.363281 587.324219 362.984375 589.707031 L 342.621094 610.070312 C 340.238281 612.449219 335.921875 611.996094 332.980469 609.054688 L 246.863281 522.9375 Z M 275.851562 493.949219 " fill-opacity="1" fill-rule="nonzero"/><path fill="#1c1d42" d="M 338.730469 615.105469 C 335.863281 615.105469 332.839844 613.898438 330.488281 611.546875 L 244.371094 525.429688 C 242.992188 524.054688 242.992188 521.820312 244.371094 520.445312 C 245.75 519.066406 247.980469 519.066406 249.359375 520.445312 L 335.476562 606.5625 C 337.144531 608.230469 339.265625 608.433594 340.125 607.574219 L 360.492188 587.210938 C 361.351562 586.351562 361.144531 584.230469 359.476562 582.5625 L 273.359375 496.445312 C 271.980469 495.066406 271.980469 492.835938 273.359375 491.457031 C 274.734375 490.078125 276.96875 490.078125 278.34375 491.457031 L 364.460938 577.574219 C 368.773438 581.886719 369.230469 588.445312 365.476562 592.199219 L 345.113281 612.5625 C 343.40625 614.269531 341.121094 615.105469 338.730469 615.105469 Z M 338.730469 615.105469 " fill-opacity="1" fill-rule="nonzero"/><path fill="#01baef" d="M 294.539062 450.707031 C 294.539062 452.195312 294.5 453.679688 294.429688 455.167969 C 294.355469 456.652344 294.246094 458.136719 294.101562 459.617188 C 293.953125 461.097656 293.773438 462.574219 293.554688 464.046875 C 293.335938 465.519531 293.082031 466.984375 292.789062 468.441406 C 292.5 469.902344 292.175781 471.351562 291.8125 472.796875 C 291.453125 474.238281 291.054688 475.671875 290.621094 477.097656 C 290.191406 478.519531 289.722656 479.933594 289.222656 481.335938 C 288.722656 482.734375 288.1875 484.125 287.617188 485.5 C 287.046875 486.871094 286.445312 488.234375 285.808594 489.578125 C 285.171875 490.921875 284.503906 492.25 283.800781 493.5625 C 283.101562 494.875 282.367188 496.171875 281.601562 497.445312 C 280.835938 498.722656 280.042969 499.980469 279.214844 501.214844 C 278.386719 502.453125 277.53125 503.667969 276.644531 504.863281 C 275.757812 506.058594 274.84375 507.234375 273.898438 508.382812 C 272.957031 509.53125 271.984375 510.660156 270.984375 511.761719 C 269.984375 512.863281 268.960938 513.941406 267.910156 514.992188 C 266.855469 516.046875 265.777344 517.070312 264.675781 518.070312 C 263.574219 519.070312 262.449219 520.042969 261.296875 520.984375 C 260.148438 521.929688 258.976562 522.84375 257.78125 523.730469 C 256.585938 524.617188 255.367188 525.472656 254.132812 526.300781 C 252.894531 527.128906 251.636719 527.921875 250.359375 528.6875 C 249.085938 529.453125 247.789062 530.1875 246.476562 530.886719 C 245.167969 531.589844 243.835938 532.257812 242.492188 532.894531 C 241.148438 533.53125 239.789062 534.132812 238.414062 534.703125 C 237.039062 535.269531 235.648438 535.808594 234.25 536.308594 C 232.847656 536.808594 231.4375 537.277344 230.011719 537.707031 C 228.589844 538.140625 227.15625 538.535156 225.710938 538.898438 C 224.269531 539.257812 222.816406 539.585938 221.355469 539.875 C 219.898438 540.164062 218.433594 540.421875 216.960938 540.636719 C 215.488281 540.855469 214.011719 541.039062 212.53125 541.183594 C 211.050781 541.332031 209.566406 541.441406 208.082031 541.511719 C 206.59375 541.585938 205.109375 541.621094 203.621094 541.621094 C 202.132812 541.621094 200.644531 541.585938 199.160156 541.511719 C 197.671875 541.441406 196.191406 541.332031 194.707031 541.183594 C 193.226562 541.039062 191.75 540.855469 190.28125 540.636719 C 188.808594 540.421875 187.34375 540.164062 185.882812 539.875 C 184.425781 539.585938 182.972656 539.257812 181.527344 538.898438 C 180.085938 538.535156 178.652344 538.140625 177.226562 537.707031 C 175.804688 537.277344 174.390625 536.808594 172.992188 536.308594 C 171.589844 535.808594 170.203125 535.269531 168.828125 534.703125 C 167.453125 534.132812 166.09375 533.53125 164.75 532.894531 C 163.402344 532.257812 162.074219 531.589844 160.761719 530.886719 C 159.449219 530.1875 158.15625 529.453125 156.878906 528.6875 C 155.601562 527.921875 154.347656 527.128906 153.109375 526.300781 C 151.871094 525.472656 150.65625 524.617188 149.460938 523.730469 C 148.265625 522.84375 147.09375 521.929688 145.941406 520.984375 C 144.792969 520.042969 143.667969 519.070312 142.5625 518.070312 C 141.460938 517.070312 140.382812 516.046875 139.332031 514.992188 C 138.28125 513.941406 137.253906 512.863281 136.253906 511.761719 C 135.257812 510.660156 134.285156 509.53125 133.339844 508.382812 C 132.398438 507.234375 131.480469 506.058594 130.59375 504.863281 C 129.707031 503.667969 128.851562 502.453125 128.027344 501.214844 C 127.199219 499.980469 126.402344 498.722656 125.636719 497.445312 C 124.875 496.171875 124.140625 494.875 123.4375 493.5625 C 122.738281 492.25 122.070312 490.921875 121.433594 489.578125 C 120.796875 488.234375 120.191406 486.871094 119.625 485.5 C 119.054688 484.125 118.519531 482.734375 118.019531 481.335938 C 117.515625 479.933594 117.050781 478.519531 116.617188 477.097656 C 116.1875 475.671875 115.789062 474.238281 115.429688 472.796875 C 115.066406 471.351562 114.742188 469.902344 114.449219 468.441406 C 114.160156 466.984375 113.90625 465.519531 113.6875 464.046875 C 113.46875 462.574219 113.285156 461.097656 113.140625 459.617188 C 112.996094 458.136719 112.886719 456.652344 112.8125 455.167969 C 112.738281 453.679688 112.703125 452.195312 112.703125 450.707031 C 112.703125 449.21875 112.738281 447.730469 112.8125 446.246094 C 112.886719 444.757812 112.996094 443.273438 113.140625 441.792969 C 113.285156 440.3125 113.46875 438.835938 113.6875 437.367188 C 113.90625 435.894531 114.160156 434.429688 114.449219 432.96875 C 114.742188 431.507812 115.066406 430.058594 115.429688 428.613281 C 115.789062 427.171875 116.1875 425.738281 116.617188 424.3125 C 117.050781 422.890625 117.515625 421.476562 118.019531 420.078125 C 118.519531 418.675781 119.054688 417.289062 119.625 415.914062 C 120.191406 414.539062 120.796875 413.179688 121.433594 411.832031 C 122.070312 410.488281 122.738281 409.160156 123.4375 407.847656 C 124.140625 406.535156 124.875 405.242188 125.636719 403.964844 C 126.402344 402.6875 127.199219 401.433594 128.027344 400.195312 C 128.851562 398.957031 129.707031 397.742188 130.59375 396.546875 C 131.480469 395.351562 132.398438 394.179688 133.339844 393.027344 C 134.285156 391.878906 135.257812 390.75 136.253906 389.648438 C 137.253906 388.546875 138.28125 387.46875 139.332031 386.417969 C 140.382812 385.367188 141.460938 384.339844 142.5625 383.339844 C 143.667969 382.339844 144.792969 381.371094 145.941406 380.425781 C 147.09375 379.480469 148.265625 378.566406 149.460938 377.679688 C 150.65625 376.792969 151.871094 375.9375 153.109375 375.109375 C 154.347656 374.285156 155.601562 373.488281 156.878906 372.722656 C 158.15625 371.957031 159.449219 371.226562 160.761719 370.523438 C 162.074219 369.824219 163.402344 369.152344 164.75 368.515625 C 166.09375 367.882812 167.453125 367.277344 168.828125 366.710938 C 170.203125 366.140625 171.589844 365.605469 172.992188 365.101562 C 174.390625 364.601562 175.804688 364.136719 177.230469 363.703125 C 178.652344 363.273438 180.085938 362.875 181.527344 362.511719 C 182.972656 362.152344 184.425781 361.824219 185.882812 361.535156 C 187.34375 361.246094 188.808594 360.992188 190.28125 360.773438 C 191.75 360.554688 193.226562 360.371094 194.707031 360.226562 C 196.191406 360.082031 197.671875 359.972656 199.160156 359.898438 C 200.644531 359.824219 202.132812 359.789062 203.621094 359.789062 C 205.109375 359.789062 206.59375 359.824219 208.082031 359.898438 C 209.566406 359.972656 211.050781 360.082031 212.53125 360.226562 C 214.011719 360.371094 215.488281 360.554688 216.960938 360.773438 C 218.433594 360.992188 219.898438 361.246094 221.355469 361.535156 C 222.816406 361.824219 224.269531 362.152344 225.710938 362.511719 C 227.15625 362.875 228.589844 363.273438 230.011719 363.703125 C 231.4375 364.136719 232.847656 364.601562 234.25 365.101562 C 235.648438 365.605469 237.039062 366.140625 238.414062 366.710938 C 239.789062 367.277344 241.148438 367.882812 242.492188 368.515625 C 243.835938 369.152344 245.167969 369.824219 246.476562 370.523438 C 247.789062 371.226562 249.085938 371.957031 250.359375 372.722656 C 251.636719 373.488281 252.894531 374.285156 254.132812 375.109375 C 255.367188 375.9375 256.585938 376.792969 257.78125 377.679688 C 258.976562 378.566406 260.148438 379.480469 261.296875 380.425781 C 262.449219 381.371094 263.574219 382.339844 264.675781 383.339844 C 265.777344 384.339844 266.855469 385.367188 267.910156 386.417969 C 268.960938 387.46875 269.984375 388.546875 270.984375 389.648438 C 271.984375 390.75 272.957031 391.878906 273.898438 393.027344 C 274.84375 394.179688 275.757812 395.351562 276.644531 396.546875 C 277.53125 397.742188 278.386719 398.957031 279.214844 400.195312 C 280.042969 401.433594 280.835938 402.6875 281.601562 403.964844 C 282.367188 405.242188 283.101562 406.535156 283.800781 407.847656 C 284.503906 409.160156 285.171875 410.488281 285.808594 411.832031 C 286.445312 413.179688 287.046875 414.539062 287.617188 415.914062 C 288.1875 417.289062 288.722656 418.675781 289.222656 420.078125 C 289.722656 421.476562 290.191406 422.890625 290.621094 424.3125 C 291.054688 425.738281 291.453125 427.171875 291.8125 428.613281 C 292.175781 430.058594 292.5 431.507812 292.789062 432.96875 C 293.082031 434.429688 293.335938 435.894531 293.554688 437.367188 C 293.773438 438.835938 293.953125 440.3125 294.101562 441.792969 C 294.246094 443.273438 294.355469 444.757812 294.429688 446.246094 C 294.5 447.730469 294.539062 449.21875 294.539062 450.707031 Z M 294.539062 450.707031 " fill-opacity="1" fill-rule="nonzero"/><path fill="#1c1d42" d="M 203.621094 545.148438 C 191.355469 545.148438 179.398438 542.824219 168.082031 538.234375 C 156.367188 533.480469 145.851562 526.5 136.839844 517.488281 C 127.824219 508.472656 120.84375 497.960938 116.09375 486.242188 C 111.503906 474.925781 109.175781 462.96875 109.175781 450.707031 C 109.175781 438.441406 111.503906 426.484375 116.09375 415.167969 C 120.84375 403.449219 127.824219 392.9375 136.839844 383.925781 C 145.855469 374.910156 156.367188 367.929688 168.082031 363.179688 C 179.398438 358.589844 191.355469 356.261719 203.621094 356.261719 C 215.886719 356.261719 227.839844 358.589844 239.15625 363.179688 C 250.875 367.929688 261.386719 374.910156 270.402344 383.925781 C 279.417969 392.9375 286.398438 403.449219 291.148438 415.167969 C 295.738281 426.484375 298.0625 438.441406 298.0625 450.707031 C 298.0625 462.96875 295.738281 474.925781 291.148438 486.242188 C 286.394531 497.960938 279.417969 508.472656 270.402344 517.488281 C 261.386719 526.5 250.875 533.480469 239.15625 538.234375 C 227.839844 542.820312 215.886719 545.148438 203.621094 545.148438 Z M 203.621094 363.355469 C 181.242188 363.355469 158.863281 371.875 141.824219 388.910156 C 107.753906 422.984375 107.753906 478.425781 141.824219 512.5 C 175.898438 546.574219 231.339844 546.574219 265.414062 512.5 C 299.488281 478.425781 299.488281 422.984375 265.414062 388.910156 C 248.378906 371.875 226 363.355469 203.621094 363.355469 Z M 203.621094 363.355469 " fill-opacity="1" fill-rule="nonzero"/><path fill="#1c1d42" d="M 264.214844 568.3125 L 98.542969 568.3125 C 96.597656 568.3125 95.019531 566.734375 95.019531 564.789062 C 95.019531 562.839844 96.597656 561.261719 98.542969 561.261719 L 264.214844 561.261719 C 266.160156 561.261719 267.742188 562.839844 267.742188 564.789062 C 267.742188 566.734375 266.160156 568.3125 264.214844 568.3125 Z M 264.214844 568.3125 " fill-opacity="1" fill-rule="nonzero"/><path fill="#1c1d42" d="M 307.046875 372.988281 L 274.253906 372.988281 C 272.308594 372.988281 270.726562 371.40625 270.726562 369.460938 C 270.726562 367.511719 272.308594 365.933594 274.253906 365.933594 L 307.046875 365.933594 C 308.992188 365.933594 310.570312 367.511719 310.570312 369.460938 C 310.570312 371.40625 308.992188 372.988281 307.046875 372.988281 Z M 307.046875 372.988281 " fill-opacity="1" fill-rule="nonzero"/><path fill="#1c1d42" d="M 131.820312 372.988281 L 98.542969 372.988281 C 96.597656 372.988281 95.019531 371.40625 95.019531 369.460938 C 95.019531 367.511719 96.597656 365.933594 98.542969 365.933594 L 131.820312 365.933594 C 133.765625 365.933594 135.34375 367.511719 135.34375 369.460938 C 135.34375 371.40625 133.765625 372.988281 131.820312 372.988281 Z M 131.820312 372.988281 " fill-opacity="1" fill-rule="nonzero"/><path fill="#1c1d42" d="M 220.421875 322.050781 L 172.515625 322.050781 C 170.566406 322.050781 168.988281 320.472656 168.988281 318.523438 C 168.988281 316.578125 170.566406 315 172.515625 315 L 220.421875 315 C 222.367188 315 223.949219 316.578125 223.949219 318.523438 C 223.949219 320.472656 222.367188 322.050781 220.421875 322.050781 Z M 220.421875 322.050781 " fill-opacity="1" fill-rule="nonzero"/><path fill="#1c1d42" d="M 117.574219 519.480469 L 98.542969 519.480469 C 96.597656 519.480469 95.019531 517.902344 95.019531 515.957031 C 95.019531 514.007812 96.597656 512.429688 98.542969 512.429688 L 117.574219 512.429688 C 119.523438 512.429688 121.101562 514.007812 121.101562 515.957031 C 121.101562 517.902344 119.523438 519.480469 117.574219 519.480469 Z M 117.574219 519.480469 " fill-opacity="1" fill-rule="nonzero"/><path fill="#1c1d42" d="M 220.421875 276.921875 L 174.816406 276.921875 C 172.871094 276.921875 171.289062 275.34375 171.289062 273.394531 C 171.289062 271.449219 172.871094 269.871094 174.816406 269.871094 L 220.421875 269.871094 C 222.367188 269.871094 223.949219 271.449219 223.949219 273.394531 C 223.949219 275.34375 222.367188 276.921875 220.421875 276.921875 Z M 220.421875 276.921875 " fill-opacity="1" fill-rule="nonzero"/><path fill="#f0f9ff" d="M 255.359375 336.902344 L 290.328125 336.902344 C 299.5625 336.902344 307.046875 329.417969 307.046875 320.1875 L 307.046875 275.519531 C 307.046875 266.285156 299.5625 258.800781 290.328125 258.800781 L 255.359375 258.800781 C 246.125 258.800781 238.640625 266.285156 238.640625 275.519531 L 238.640625 320.1875 C 238.640625 329.417969 246.125 336.902344 255.359375 336.902344 Z M 255.359375 336.902344 " fill-opacity="1" fill-rule="nonzero"/><path fill="#1c1d42" d="M 290.328125 340.429688 L 255.359375 340.429688 C 244.195312 340.429688 235.117188 331.347656 235.117188 320.1875 L 235.117188 275.519531 C 235.117188 264.355469 244.195312 255.273438 255.359375 255.273438 L 290.328125 255.273438 C 301.492188 255.273438 310.570312 264.355469 310.570312 275.519531 L 310.570312 320.1875 C 310.570312 331.347656 301.492188 340.429688 290.328125 340.429688 Z M 255.359375 262.328125 C 248.085938 262.328125 242.167969 268.246094 242.167969 275.519531 L 242.167969 320.1875 C 242.167969 327.460938 248.085938 333.375 255.359375 333.375 L 290.328125 333.375 C 297.601562 333.375 303.519531 327.460938 303.519531 320.1875 L 303.519531 275.519531 C 303.519531 268.246094 297.601562 262.328125 290.328125 262.328125 Z M 255.359375 262.328125 " fill-opacity="1" fill-rule="nonzero"/><path fill="#ffffff" d="M 203.621094 491.398438 C 229.847656 491.398438 252.078125 474.335938 259.847656 450.707031 C 252.078125 427.078125 229.847656 410.011719 203.621094 410.011719 C 177.394531 410.011719 155.164062 427.078125 147.394531 450.707031 C 155.164062 474.335938 177.394531 491.398438 203.621094 491.398438 Z M 203.621094 491.398438 " fill-opacity="1" fill-rule="nonzero"/><path fill="#1c1d42" d="M 203.621094 494.925781 C 190.148438 494.925781 177.3125 490.714844 166.496094 482.753906 C 155.898438 474.953125 148.136719 464.253906 144.042969 451.808594 C 143.808594 451.09375 143.808594 450.320312 144.042969 449.605469 C 148.136719 437.160156 155.898438 426.460938 166.496094 418.660156 C 177.3125 410.695312 190.148438 406.488281 203.621094 406.488281 C 217.089844 406.488281 229.929688 410.695312 240.746094 418.660156 C 251.339844 426.460938 259.105469 437.160156 263.195312 449.605469 C 263.433594 450.320312 263.433594 451.09375 263.195312 451.808594 C 259.105469 464.253906 251.339844 474.953125 240.746094 482.753906 C 229.929688 490.714844 217.089844 494.925781 203.621094 494.925781 Z M 151.117188 450.707031 C 158.953125 472.988281 179.90625 487.871094 203.621094 487.871094 C 227.332031 487.871094 248.285156 472.988281 256.121094 450.707031 C 248.285156 428.425781 227.332031 413.539062 203.621094 413.539062 C 179.90625 413.539062 158.957031 428.425781 151.117188 450.707031 Z M 151.117188 450.707031 " fill-opacity="1" fill-rule="nonzero"/><path fill="#01baef" d="M 227.375 450.707031 C 227.375 451.484375 227.335938 452.261719 227.261719 453.035156 C 227.183594 453.808594 227.070312 454.578125 226.917969 455.339844 C 226.765625 456.101562 226.578125 456.855469 226.351562 457.601562 C 226.125 458.347656 225.863281 459.078125 225.566406 459.796875 C 225.269531 460.515625 224.9375 461.21875 224.570312 461.902344 C 224.203125 462.589844 223.804688 463.257812 223.371094 463.902344 C 222.941406 464.550781 222.476562 465.175781 221.984375 465.777344 C 221.488281 466.375 220.96875 466.953125 220.417969 467.503906 C 219.867188 468.054688 219.292969 468.574219 218.691406 469.066406 C 218.089844 469.5625 217.464844 470.023438 216.816406 470.457031 C 216.171875 470.890625 215.503906 471.289062 214.816406 471.65625 C 214.132812 472.023438 213.429688 472.355469 212.710938 472.652344 C 211.992188 472.949219 211.261719 473.210938 210.515625 473.4375 C 209.773438 473.664062 209.019531 473.851562 208.253906 474.003906 C 207.492188 474.15625 206.722656 474.269531 205.949219 474.347656 C 205.175781 474.421875 204.398438 474.460938 203.621094 474.460938 C 202.84375 474.460938 202.066406 474.421875 201.292969 474.347656 C 200.519531 474.269531 199.75 474.15625 198.984375 474.003906 C 198.222656 473.851562 197.46875 473.664062 196.726562 473.4375 C 195.980469 473.210938 195.25 472.949219 194.53125 472.652344 C 193.8125 472.355469 193.109375 472.023438 192.421875 471.65625 C 191.734375 471.289062 191.070312 470.890625 190.421875 470.457031 C 189.777344 470.023438 189.152344 469.5625 188.550781 469.066406 C 187.949219 468.574219 187.375 468.054688 186.824219 467.503906 C 186.273438 466.953125 185.75 466.375 185.257812 465.777344 C 184.765625 465.175781 184.300781 464.550781 183.867188 463.902344 C 183.4375 463.257812 183.039062 462.589844 182.671875 461.902344 C 182.304688 461.21875 181.972656 460.515625 181.671875 459.796875 C 181.375 459.078125 181.113281 458.347656 180.886719 457.601562 C 180.664062 456.855469 180.472656 456.101562 180.320312 455.339844 C 180.171875 454.578125 180.054688 453.808594 179.980469 453.035156 C 179.902344 452.261719 179.867188 451.484375 179.867188 450.707031 C 179.867188 449.925781 179.902344 449.152344 179.980469 448.378906 C 180.054688 447.601562 180.171875 446.835938 180.320312 446.070312 C 180.472656 445.308594 180.664062 444.554688 180.886719 443.808594 C 181.113281 443.066406 181.375 442.332031 181.671875 441.613281 C 181.972656 440.894531 182.304688 440.195312 182.671875 439.507812 C 183.039062 438.820312 183.4375 438.15625 183.867188 437.507812 C 184.300781 436.859375 184.765625 436.238281 185.257812 435.636719 C 185.75 435.035156 186.273438 434.457031 186.824219 433.910156 C 187.375 433.359375 187.949219 432.835938 188.550781 432.34375 C 189.152344 431.847656 189.777344 431.386719 190.421875 430.953125 C 191.070312 430.523438 191.734375 430.121094 192.421875 429.753906 C 193.109375 429.390625 193.8125 429.058594 194.53125 428.757812 C 195.25 428.460938 195.980469 428.199219 196.726562 427.972656 C 197.46875 427.746094 198.222656 427.558594 198.984375 427.40625 C 199.75 427.253906 200.519531 427.140625 201.292969 427.066406 C 202.066406 426.988281 202.84375 426.949219 203.621094 426.949219 C 204.398438 426.949219 205.175781 426.988281 205.949219 427.066406 C 206.722656 427.140625 207.492188 427.253906 208.253906 427.40625 C 209.019531 427.558594 209.773438 427.746094 210.515625 427.972656 C 211.261719 428.199219 211.992188 428.460938 212.710938 428.757812 C 213.429688 429.058594 214.132812 429.390625 214.816406 429.753906 C 215.503906 430.121094 216.171875 430.523438 216.816406 430.953125 C 217.464844 431.386719 218.089844 431.847656 218.691406 432.34375 C 219.292969 432.835938 219.867188 433.359375 220.417969 433.910156 C 220.96875 434.457031 221.488281 435.035156 221.984375 435.636719 C 222.476562 436.238281 222.941406 436.859375 223.371094 437.507812 C 223.804688 438.15625 224.203125 438.820312 224.570312 439.507812 C 224.9375 440.195312 225.269531 440.894531 225.566406 441.613281 C 225.863281 442.332031 226.125 443.066406 226.351562 443.808594 C 226.578125 444.554688 226.765625 445.308594 226.917969 446.070312 C 227.070312 446.835938 227.183594 447.601562 227.261719 448.378906 C 227.335938 449.152344 227.375 449.925781 227.375 450.707031 Z M 227.375 450.707031 " fill-opacity="1" fill-rule="nonzero"/><path fill="#1c1d42" d="M 203.621094 477.988281 C 188.578125 477.988281 176.339844 465.75 176.339844 450.707031 C 176.339844 435.664062 188.578125 423.425781 203.621094 423.425781 C 218.664062 423.425781 230.902344 435.664062 230.902344 450.707031 C 230.902344 465.75 218.664062 477.988281 203.621094 477.988281 Z M 203.621094 430.476562 C 192.464844 430.476562 183.390625 439.550781 183.390625 450.707031 C 183.390625 461.859375 192.464844 470.933594 203.621094 470.933594 C 214.773438 470.933594 223.847656 461.859375 223.847656 450.707031 C 223.847656 439.550781 214.773438 430.476562 203.621094 430.476562 Z M 203.621094 430.476562 " fill-opacity="1" fill-rule="nonzero"/><path fill="#ffffff" d="M 420.144531 482.246094 L 420.144531 413.199219 C 420.144531 407.714844 424.589844 403.273438 430.070312 403.273438 L 710.753906 403.273438 C 716.238281 403.273438 720.683594 407.71875 720.683594 413.203125 L 720.683594 482.246094 Z M 420.144531 482.246094 " fill-opacity="1" fill-rule="nonzero"/><path fill="#1c1d42" d="M 720.683594 485.773438 C 718.734375 485.773438 717.15625 484.191406 717.15625 482.246094 L 717.15625 413.203125 C 717.15625 409.671875 714.28125 406.796875 710.753906 406.796875 L 430.070312 406.796875 C 426.542969 406.796875 423.671875 409.667969 423.671875 413.199219 L 423.671875 482.246094 C 423.671875 484.191406 422.09375 485.773438 420.144531 485.773438 C 418.195312 485.773438 416.617188 484.191406 416.617188 482.246094 L 416.617188 413.199219 C 416.617188 405.78125 422.652344 399.746094 430.070312 399.746094 L 710.753906 399.746094 C 718.171875 399.746094 724.207031 405.78125 724.207031 413.203125 L 724.207031 482.246094 C 724.207031 484.191406 722.628906 485.773438 720.683594 485.773438 Z M 720.683594 485.773438 " fill-opacity="1" fill-rule="nonzero"/><path fill="#ffffff" d="M 720.683594 482.246094 L 720.683594 733.851562 C 720.683594 739.332031 716.238281 743.777344 710.757812 743.777344 L 430.070312 743.777344 C 424.589844 743.777344 420.144531 739.332031 420.144531 733.851562 L 420.144531 482.246094 Z M 720.683594 482.246094 " fill-opacity="1" fill-rule="nonzero"/><path fill="#1c1d42" d="M 710.757812 747.300781 L 430.070312 747.300781 C 422.652344 747.300781 416.617188 741.269531 416.617188 733.851562 L 416.617188 482.246094 C 416.617188 480.296875 418.195312 478.71875 420.144531 478.71875 C 422.09375 478.71875 423.671875 480.296875 423.671875 482.246094 L 423.671875 733.851562 C 423.671875 737.378906 426.539062 740.25 430.070312 740.25 L 710.757812 740.25 C 714.285156 740.25 717.15625 737.378906 717.15625 733.851562 L 717.15625 482.246094 C 717.15625 480.296875 718.734375 478.71875 720.683594 478.71875 C 722.628906 478.71875 724.207031 480.296875 724.207031 482.246094 L 724.207031 733.851562 C 724.207031 741.269531 718.175781 747.300781 710.757812 747.300781 Z M 710.757812 747.300781 " fill-opacity="1" fill-rule="nonzero"/><path fill="#ffffff" d="M 651.082031 637.878906 L 489.222656 637.878906 C 481.949219 637.878906 476.054688 631.984375 476.054688 624.710938 L 476.054688 527.257812 C 476.054688 519.988281 481.949219 514.089844 489.222656 514.089844 L 651.082031 514.089844 C 658.355469 514.089844 664.25 519.984375 664.25 527.257812 L 664.25 624.710938 C 664.25 631.984375 658.355469 637.878906 651.082031 637.878906 Z M 651.082031 637.878906 " fill-opacity="1" fill-rule="nonzero"/><path fill="#1c1d42" d="M 651.082031 641.40625 L 489.222656 641.40625 C 480.019531 641.40625 472.53125 633.917969 472.53125 624.714844 L 472.53125 527.257812 C 472.53125 518.050781 480.019531 510.5625 489.222656 510.5625 L 651.082031 510.5625 C 660.289062 510.5625 667.777344 518.050781 667.777344 527.257812 L 667.777344 624.714844 C 667.777344 633.917969 660.289062 641.40625 651.082031 641.40625 Z M 489.222656 517.617188 C 483.90625 517.617188 479.582031 521.941406 479.582031 527.257812 L 479.582031 624.714844 C 479.582031 630.03125 483.90625 634.355469 489.222656 634.355469 L 651.082031 634.355469 C 656.398438 634.355469 660.726562 630.03125 660.726562 624.714844 L 660.726562 527.257812 C 660.726562 521.941406 656.398438 517.617188 651.082031 517.617188 Z M 489.222656 517.617188 " fill-opacity="1" fill-rule="nonzero"/><path fill="#1c1d42" d="M 720.683594 485.773438 L 420.144531 485.773438 C 418.195312 485.773438 416.617188 484.191406 416.617188 482.246094 C 416.617188 480.296875 418.195312 478.71875 420.144531 478.71875 L 720.683594 478.71875 C 722.628906 478.71875 724.207031 480.296875 724.207031 482.246094 C 724.207031 484.191406 722.628906 485.773438 720.683594 485.773438 Z M 720.683594 485.773438 " fill-opacity="1" fill-rule="nonzero"/><path fill="#f0f9ff" d="M 638.425781 559.078125 C 638.425781 570.0625 629.515625 578.96875 618.535156 578.96875 C 607.550781 578.96875 598.644531 570.0625 598.644531 559.078125 C 598.644531 548.09375 607.550781 539.1875 618.535156 539.1875 C 629.515625 539.1875 638.425781 548.09375 638.425781 559.078125 Z M 638.425781 559.078125 " fill-opacity="1" fill-rule="nonzero"/><path fill="#1c1d42" d="M 618.535156 582.492188 C 605.625 582.492188 595.117188 571.988281 595.117188 559.078125 C 595.117188 546.164062 605.625 535.660156 618.535156 535.660156 C 631.445312 535.660156 641.949219 546.164062 641.949219 559.078125 C 641.949219 571.988281 631.445312 582.492188 618.535156 582.492188 Z M 618.535156 542.714844 C 609.511719 542.714844 602.171875 550.054688 602.171875 559.074219 C 602.171875 568.097656 609.511719 575.441406 618.535156 575.441406 C 627.558594 575.441406 634.898438 568.097656 634.898438 559.074219 C 634.898438 550.054688 627.558594 542.714844 618.535156 542.714844 Z M 618.535156 542.714844 " fill-opacity="1" fill-rule="nonzero"/><path fill="#1c1d42" d="M 633.035156 641.410156 C 632.136719 641.410156 631.234375 641.070312 630.546875 640.382812 L 561.25 571.398438 C 557.191406 567.359375 550.59375 567.359375 546.535156 571.398438 L 533.34375 584.5625 C 531.964844 585.9375 529.730469 585.9375 528.355469 584.558594 C 526.980469 583.179688 526.984375 580.945312 528.363281 579.570312 L 541.558594 566.40625 C 548.359375 559.628906 559.425781 559.628906 566.226562 566.402344 L 635.523438 635.386719 C 636.902344 636.757812 636.90625 638.992188 635.535156 640.371094 C 634.84375 641.066406 633.941406 641.410156 633.035156 641.410156 Z M 633.035156 641.410156 " fill-opacity="1" fill-rule="nonzero"/><path fill="#1c1d42" d="M 586.367188 641.40625 C 585.464844 641.40625 584.5625 641.0625 583.875 640.375 L 473.5625 530.0625 C 472.183594 528.683594 472.183594 526.453125 473.5625 525.074219 C 474.9375 523.699219 477.171875 523.699219 478.550781 525.074219 L 588.859375 635.386719 C 590.238281 636.765625 590.238281 638.996094 588.859375 640.375 C 588.171875 641.0625 587.269531 641.40625 586.367188 641.40625 Z M 586.367188 641.40625 " fill-opacity="1" fill-rule="nonzero"/><path fill="#1c1d42" d="M 689.273438 694.128906 L 451.035156 694.128906 C 449.085938 694.128906 447.507812 692.550781 447.507812 690.601562 C 447.507812 688.65625 449.085938 687.074219 451.035156 687.074219 L 689.273438 687.074219 C 691.21875 687.074219 692.800781 688.65625 692.800781 690.601562 C 692.800781 692.550781 691.21875 694.128906 689.273438 694.128906 Z M 689.273438 694.128906 " fill-opacity="1" fill-rule="nonzero"/><path fill="#1c1d42" d="M 689.273438 669.519531 L 451.035156 669.519531 C 449.085938 669.519531 447.507812 667.941406 447.507812 665.996094 C 447.507812 664.046875 449.085938 662.46875 451.035156 662.46875 L 689.273438 662.46875 C 691.222656 662.46875 692.800781 664.046875 692.800781 665.996094 C 692.800781 667.941406 691.222656 669.519531 689.273438 669.519531 Z M 689.273438 669.519531 " fill-opacity="1" fill-rule="nonzero"/><path fill="#1c1d42" d="M 689.273438 718.738281 L 451.035156 718.738281 C 449.085938 718.738281 447.507812 717.160156 447.507812 715.210938 C 447.507812 713.261719 449.085938 711.683594 451.035156 711.683594 L 689.273438 711.683594 C 691.222656 711.683594 692.800781 713.261719 692.800781 715.210938 C 692.800781 717.160156 691.222656 718.738281 689.273438 718.738281 Z M 689.273438 718.738281 " fill-opacity="1" fill-rule="nonzero"/><path fill="#1c1d42" d="M 512.941406 469.992188 C 511.375 469.992188 509.992188 468.957031 509.554688 467.445312 L 500.71875 436.859375 L 491.886719 467.445312 C 491.445312 468.980469 490.011719 470.027344 488.417969 469.992188 C 486.820312 469.953125 485.445312 468.84375 485.070312 467.289062 L 474.917969 424.972656 C 474.464844 423.078125 475.632812 421.175781 477.523438 420.722656 C 479.421875 420.265625 481.324219 421.433594 481.777344 423.328125 L 488.816406 452.664062 L 497.332031 423.171875 C 497.765625 421.664062 499.148438 420.625 500.71875 420.625 C 502.289062 420.625 503.671875 421.664062 504.105469 423.171875 L 512.628906 452.664062 L 519.667969 423.328125 C 520.121094 421.433594 522.023438 420.265625 523.917969 420.722656 C 525.8125 421.175781 526.976562 423.078125 526.523438 424.972656 L 516.371094 467.289062 C 516 468.84375 514.625 469.953125 513.023438 469.992188 C 512.996094 469.992188 512.96875 469.992188 512.941406 469.992188 Z M 512.941406 469.992188 " fill-opacity="1" fill-rule="nonzero"/><path fill="#1c1d42" d="M 555.152344 469.992188 C 555.125 469.992188 555.097656 469.992188 555.070312 469.992188 C 553.46875 469.953125 552.097656 468.84375 551.722656 467.289062 L 541.574219 424.972656 C 541.121094 423.078125 542.289062 421.175781 544.179688 420.722656 C 546.074219 420.265625 547.976562 421.433594 548.433594 423.328125 L 555.46875 452.664062 L 563.988281 423.171875 C 564.421875 421.664062 565.804688 420.625 567.375 420.625 C 568.945312 420.625 570.328125 421.664062 570.761719 423.171875 L 579.28125 452.664062 L 586.316406 423.328125 C 586.773438 421.433594 588.675781 420.265625 590.570312 420.722656 C 592.464844 421.175781 593.628906 423.078125 593.175781 424.972656 L 583.023438 467.289062 C 582.652344 468.84375 581.277344 469.953125 579.675781 469.992188 C 578.089844 470.027344 576.652344 468.980469 576.207031 467.445312 L 567.375 436.859375 L 558.539062 467.445312 C 558.101562 468.957031 556.71875 469.992188 555.152344 469.992188 Z M 555.152344 469.992188 " fill-opacity="1" fill-rule="nonzero"/><path fill="#1c1d42" d="M 621.804688 469.992188 C 621.777344 469.992188 621.75 469.992188 621.722656 469.992188 C 620.125 469.953125 618.75 468.84375 618.375 467.289062 L 608.226562 424.972656 C 607.773438 423.078125 608.941406 421.175781 610.835938 420.722656 C 612.726562 420.265625 614.632812 421.433594 615.085938 423.328125 L 622.121094 452.664062 L 630.640625 423.171875 C 631.078125 421.664062 632.457031 420.625 634.027344 420.625 C 635.601562 420.625 636.980469 421.664062 637.417969 423.171875 L 645.933594 452.664062 L 652.972656 423.328125 C 653.425781 421.433594 655.332031 420.265625 657.222656 420.722656 C 659.117188 421.175781 660.285156 423.078125 659.828125 424.972656 L 649.675781 467.289062 C 649.304688 468.84375 647.929688 469.953125 646.328125 469.992188 C 646.300781 469.992188 646.273438 469.992188 646.246094 469.992188 C 644.679688 469.992188 643.296875 468.957031 642.859375 467.445312 L 634.027344 436.859375 L 625.191406 467.445312 C 624.757812 468.957031 623.371094 469.992188 621.804688 469.992188 Z M 621.804688 469.992188 " fill-opacity="1" fill-rule="nonzero"/><path fill="#1c1d42" d="M 672.917969 469.992188 C 672.804688 469.992188 672.683594 469.984375 672.570312 469.972656 C 672.457031 469.964844 672.34375 469.945312 672.230469 469.921875 C 672.003906 469.878906 671.78125 469.808594 671.566406 469.722656 C 671.355469 469.632812 671.152344 469.523438 670.960938 469.398438 C 670.863281 469.332031 670.769531 469.265625 670.683594 469.191406 C 670.589844 469.117188 670.507812 469.042969 670.425781 468.960938 C 670.339844 468.875 670.265625 468.792969 670.191406 468.703125 C 670.121094 468.613281 670.046875 468.519531 669.984375 468.425781 C 669.859375 468.230469 669.75 468.027344 669.660156 467.816406 C 669.574219 467.601562 669.503906 467.378906 669.460938 467.152344 C 669.4375 467.042969 669.421875 466.925781 669.410156 466.8125 C 669.398438 466.699219 669.390625 466.582031 669.390625 466.464844 C 669.390625 466.351562 669.398438 466.234375 669.410156 466.121094 C 669.421875 466.003906 669.4375 465.890625 669.460938 465.777344 C 669.503906 465.550781 669.574219 465.328125 669.660156 465.117188 C 669.75 464.902344 669.859375 464.699219 669.984375 464.507812 C 670.046875 464.414062 670.121094 464.320312 670.191406 464.230469 C 670.265625 464.140625 670.339844 464.054688 670.425781 463.972656 C 670.507812 463.890625 670.589844 463.8125 670.683594 463.738281 C 670.769531 463.667969 670.863281 463.597656 670.960938 463.535156 C 671.152344 463.40625 671.355469 463.296875 671.566406 463.210938 C 671.78125 463.121094 672.003906 463.054688 672.230469 463.007812 C 672.34375 462.984375 672.457031 462.96875 672.570312 462.957031 C 672.800781 462.933594 673.035156 462.933594 673.265625 462.957031 C 673.378906 462.96875 673.496094 462.984375 673.605469 463.007812 C 673.832031 463.054688 674.054688 463.121094 674.265625 463.210938 C 674.480469 463.296875 674.683594 463.40625 674.875 463.535156 C 674.972656 463.597656 675.0625 463.667969 675.152344 463.738281 C 675.242188 463.8125 675.328125 463.890625 675.410156 463.972656 C 675.492188 464.054688 675.570312 464.140625 675.644531 464.230469 C 675.71875 464.320312 675.785156 464.414062 675.847656 464.507812 C 675.976562 464.699219 676.085938 464.902344 676.171875 465.117188 C 676.261719 465.328125 676.328125 465.550781 676.371094 465.777344 C 676.398438 465.890625 676.414062 466.003906 676.425781 466.121094 C 676.4375 466.234375 676.445312 466.351562 676.445312 466.464844 C 676.445312 466.582031 676.4375 466.699219 676.425781 466.8125 C 676.414062 466.925781 676.398438 467.042969 676.371094 467.152344 C 676.328125 467.378906 676.261719 467.601562 676.171875 467.816406 C 676.085938 468.027344 675.976562 468.230469 675.847656 468.425781 C 675.785156 468.519531 675.71875 468.613281 675.644531 468.703125 C 675.570312 468.792969 675.492188 468.875 675.410156 468.960938 C 675.328125 469.042969 675.242188 469.117188 675.152344 469.191406 C 675.0625 469.265625 674.972656 469.332031 674.875 469.398438 C 674.683594 469.523438 674.480469 469.632812 674.265625 469.722656 C 674.054688 469.808594 673.832031 469.878906 673.605469 469.921875 C 673.496094 469.945312 673.378906 469.964844 673.265625 469.972656 C 673.148438 469.984375 673.035156 469.992188 672.917969 469.992188 Z M 672.917969 469.992188 " fill-opacity="1" fill-rule="nonzero"/></svg>