<svg xmlns="http://www.w3.org/2000/svg" xmlns:xlink="http://www.w3.org/1999/xlink" width="1080" zoomAndPan="magnify" viewBox="0 0 810 809.999993" height="1080" preserveAspectRatio="xMidYMid meet" version="1.0"><defs><clipPath id="17393c1f62"><path d="M 216 56.375 L 671 56.375 L 671 740 L 216 740 Z M 216 56.375 " clip-rule="nonzero"/></clipPath><clipPath id="ed8fbc049c"><path d="M 269 56.375 L 652 56.375 L 652 272 L 269 272 Z M 269 56.375 " clip-rule="nonzero"/></clipPath><clipPath id="d021c0c691"><path d="M 52.246094 321 L 265 321 L 265 552 L 52.246094 552 Z M 52.246094 321 " clip-rule="nonzero"/></clipPath><clipPath id="f887e10060"><path d="M 645 340 L 757.996094 340 L 757.996094 422 L 645 422 Z M 645 340 " clip-rule="nonzero"/></clipPath></defs><g clip-path="url(#17393c1f62)"><path fill="#1e293b" d="M 561.828125 739.515625 L 238.363281 739.515625 C 224.425781 739.515625 214.550781 728.25 216.308594 714.351562 L 295.957031 85.136719 C 297.71875 71.242188 310.441406 59.976562 324.378906 59.976562 L 631.609375 56.390625 C 666.878906 56.390625 671.664062 71.242188 669.902344 85.136719 L 590.257812 714.351562 C 588.496094 728.25 575.769531 739.515625 561.828125 739.515625 " fill-opacity="1" fill-rule="nonzero"/></g><path fill="#f0f9ff" d="M 542.371094 739.515625 L 218.898438 739.515625 C 204.960938 739.515625 195.085938 728.214844 196.84375 714.273438 L 276.492188 83.054688 C 278.253906 69.113281 290.980469 57.816406 304.917969 57.816406 L 628.386719 57.816406 C 642.320312 57.816406 652.199219 69.113281 650.4375 83.054688 L 570.789062 714.273438 C 569.03125 728.214844 556.304688 739.515625 542.371094 739.515625 " fill-opacity="1" fill-rule="nonzero"/><path fill="#1e293b" d="M 297.890625 107.476562 C 295.101562 107.476562 292.542969 109.746094 292.191406 112.539062 L 216.140625 715.253906 C 215.972656 716.566406 216.328125 717.792969 217.132812 718.707031 C 217.925781 719.605469 219.074219 720.101562 220.371094 720.101562 L 545.574219 720.101562 C 548.367188 720.101562 550.929688 717.828125 551.285156 715.03125 L 627.328125 112.320312 C 627.496094 111.007812 627.148438 109.78125 626.339844 108.871094 C 625.542969 107.96875 624.394531 107.476562 623.097656 107.476562 Z M 545.574219 721.839844 L 220.371094 721.839844 C 218.570312 721.839844 216.957031 721.132812 215.828125 719.855469 C 214.691406 718.5625 214.1875 716.851562 214.417969 715.03125 L 215.28125 715.144531 L 214.417969 715.03125 L 290.46875 112.320312 C 290.925781 108.695312 294.257812 105.738281 297.890625 105.738281 L 623.097656 105.738281 C 624.902344 105.738281 626.511719 106.441406 627.640625 107.722656 C 628.777344 109.011719 629.28125 110.726562 629.054688 112.539062 L 553.003906 715.253906 C 552.542969 718.882812 549.214844 721.839844 545.574219 721.839844 " fill-opacity="1" fill-rule="nonzero"/><path fill="#1e293b" d="M 464.988281 71.875 C 460.199219 71.875 455.804688 75.777344 455.203125 80.570312 C 454.910156 82.859375 455.527344 85.003906 456.941406 86.601562 C 458.332031 88.179688 460.34375 89.050781 462.597656 89.050781 C 467.394531 89.050781 471.785156 85.144531 472.386719 80.355469 C 472.675781 78.066406 472.058594 75.925781 470.648438 74.324219 C 469.253906 72.746094 467.242188 71.875 464.988281 71.875 Z M 462.597656 90.785156 C 459.839844 90.785156 457.363281 89.710938 455.640625 87.75 C 453.894531 85.769531 453.125 83.140625 453.476562 80.355469 C 454.191406 74.722656 459.347656 70.140625 464.988281 70.140625 C 467.75 70.140625 470.222656 71.21875 471.949219 73.171875 C 473.695312 75.152344 474.464844 77.78125 474.109375 80.570312 C 473.402344 86.199219 468.238281 90.785156 462.597656 90.785156 " fill-opacity="1" fill-rule="nonzero"/><path fill="#1e293b" d="M 542.367188 740.378906 L 218.898438 740.378906 C 211.941406 740.378906 205.726562 737.675781 201.394531 732.765625 C 197.019531 727.800781 195.097656 721.199219 195.984375 714.164062 L 197.007812 706.046875 C 197.066406 705.570312 197.507812 705.238281 197.976562 705.296875 C 198.453125 705.355469 198.792969 705.792969 198.730469 706.265625 L 197.707031 714.382812 C 196.882812 720.910156 198.65625 727.035156 202.699219 731.617188 C 206.695312 736.148438 212.449219 738.644531 218.898438 738.644531 L 542.367188 738.644531 C 555.867188 738.644531 568.226562 727.664062 569.929688 714.164062 L 579.503906 638.292969 C 579.5625 637.816406 580.007812 637.476562 580.472656 637.539062 C 580.945312 637.597656 581.285156 638.03125 581.230469 638.507812 L 571.648438 714.382812 C 569.84375 728.71875 556.703125 740.378906 542.367188 740.378906 " fill-opacity="1" fill-rule="nonzero"/><g clip-path="url(#ed8fbc049c)"><path fill="#1e293b" d="M 626.816406 271.113281 C 626.78125 271.113281 626.75 271.105469 626.707031 271.105469 C 626.234375 271.042969 625.898438 270.609375 625.957031 270.136719 L 649.574219 82.945312 C 650.398438 76.417969 648.628906 70.296875 644.585938 65.714844 C 640.589844 61.179688 634.832031 58.683594 628.378906 58.683594 L 304.914062 58.683594 C 291.421875 58.683594 279.058594 69.664062 277.355469 83.164062 L 270.894531 129.761719 C 270.828125 130.234375 270.386719 130.5625 269.914062 130.5 C 269.4375 130.433594 269.105469 129.992188 269.171875 129.519531 L 275.632812 82.933594 C 277.441406 68.609375 290.578125 56.949219 304.914062 56.949219 L 628.378906 56.949219 C 635.335938 56.949219 641.554688 59.65625 645.886719 64.566406 C 650.261719 69.527344 652.1875 76.132812 651.296875 83.164062 L 627.679688 270.351562 C 627.628906 270.789062 627.25 271.113281 626.816406 271.113281 " fill-opacity="1" fill-rule="nonzero"/></g><path fill="#1e293b" d="M 145.371094 709.558594 C 145.246094 709.558594 145.121094 709.53125 145.003906 709.476562 C 128.5625 701.773438 114.484375 692.9375 99.207031 674.832031 C 98.898438 674.46875 98.945312 673.914062 99.3125 673.609375 C 99.679688 673.296875 100.226562 673.34375 100.535156 673.710938 C 115.609375 691.574219 129.507812 700.296875 145.738281 707.902344 C 146.171875 708.105469 146.359375 708.621094 146.15625 709.054688 C 146.007812 709.371094 145.695312 709.558594 145.371094 709.558594 " fill-opacity="1" fill-rule="nonzero"/><path fill="#1e293b" d="M 123.238281 709.949219 C 123.09375 709.949219 122.949219 709.914062 122.816406 709.835938 C 114.800781 705.367188 87.734375 689.023438 75.953125 666.570312 C 75.730469 666.144531 75.894531 665.621094 76.316406 665.398438 C 76.742188 665.175781 77.265625 665.339844 77.492188 665.765625 C 89.050781 687.792969 115.753906 703.910156 123.660156 708.324219 C 124.082031 708.558594 124.230469 709.085938 123.996094 709.503906 C 123.835938 709.792969 123.542969 709.949219 123.238281 709.949219 " fill-opacity="1" fill-rule="nonzero"/><path fill="#1e293b" d="M 63.445312 639.535156 C 59.644531 639.535156 56.550781 642.628906 56.550781 646.429688 C 56.550781 650.234375 59.644531 653.324219 63.445312 653.324219 C 67.246094 653.324219 70.339844 650.234375 70.339844 646.429688 C 70.339844 642.628906 67.246094 639.535156 63.445312 639.535156 Z M 63.445312 655.0625 C 58.6875 655.0625 54.8125 651.191406 54.8125 646.429688 C 54.8125 641.671875 58.6875 637.800781 63.445312 637.800781 C 68.203125 637.800781 72.074219 641.671875 72.074219 646.429688 C 72.074219 651.191406 68.203125 655.0625 63.445312 655.0625 " fill-opacity="1" fill-rule="nonzero"/><path fill="#1e293b" d="M 112.128906 245.894531 C 111.648438 245.894531 111.257812 245.503906 111.257812 245.027344 L 111.257812 238.289062 C 111.257812 237.808594 111.648438 237.421875 112.128906 237.421875 C 112.605469 237.421875 112.996094 237.808594 112.996094 238.289062 L 112.996094 245.027344 C 112.996094 245.503906 112.605469 245.894531 112.128906 245.894531 " fill-opacity="1" fill-rule="nonzero"/><path fill="#1e293b" d="M 112.128906 261.578125 C 111.648438 261.578125 111.261719 261.191406 111.261719 260.710938 L 111.261719 253.976562 C 111.261719 253.5 111.648438 253.109375 112.128906 253.109375 C 112.605469 253.109375 112.996094 253.5 112.996094 253.976562 L 112.996094 260.710938 C 112.996094 261.191406 112.605469 261.578125 112.128906 261.578125 " fill-opacity="1" fill-rule="nonzero"/><path fill="#1e293b" d="M 107.652344 250.367188 L 100.917969 250.367188 C 100.4375 250.367188 100.046875 249.976562 100.046875 249.496094 C 100.046875 249.019531 100.4375 248.628906 100.917969 248.628906 L 107.652344 248.628906 C 108.128906 248.628906 108.519531 249.019531 108.519531 249.496094 C 108.519531 249.976562 108.128906 250.367188 107.652344 250.367188 " fill-opacity="1" fill-rule="nonzero"/><path fill="#1e293b" d="M 123.339844 250.367188 L 116.605469 250.367188 C 116.125 250.367188 115.738281 249.976562 115.738281 249.496094 C 115.738281 249.019531 116.125 248.628906 116.605469 248.628906 L 123.339844 248.628906 C 123.820312 248.628906 124.207031 249.019531 124.207031 249.496094 C 124.207031 249.976562 123.820312 250.367188 123.339844 250.367188 " fill-opacity="1" fill-rule="nonzero"/><path fill="#1e293b" d="M 696.015625 264.515625 C 695.535156 264.515625 695.144531 264.125 695.144531 263.644531 L 695.144531 256.910156 C 695.144531 256.433594 695.535156 256.042969 696.015625 256.042969 C 696.496094 256.042969 696.878906 256.433594 696.878906 256.910156 L 696.878906 263.644531 C 696.878906 264.125 696.496094 264.515625 696.015625 264.515625 " fill-opacity="1" fill-rule="nonzero"/><path fill="#1e293b" d="M 696.015625 280.203125 C 695.535156 280.203125 695.144531 279.816406 695.144531 279.332031 L 695.144531 272.597656 C 695.144531 272.121094 695.535156 271.734375 696.015625 271.734375 C 696.496094 271.734375 696.878906 272.121094 696.878906 272.597656 L 696.878906 279.332031 C 696.878906 279.816406 696.496094 280.203125 696.015625 280.203125 " fill-opacity="1" fill-rule="nonzero"/><path fill="#1e293b" d="M 691.539062 268.988281 L 684.800781 268.988281 C 684.324219 268.988281 683.933594 268.601562 683.933594 268.121094 C 683.933594 267.640625 684.324219 267.253906 684.800781 267.253906 L 691.539062 267.253906 C 692.019531 267.253906 692.40625 267.640625 692.40625 268.121094 C 692.40625 268.601562 692.019531 268.988281 691.539062 268.988281 " fill-opacity="1" fill-rule="nonzero"/><path fill="#1e293b" d="M 707.226562 268.988281 L 700.492188 268.988281 C 700.011719 268.988281 699.621094 268.605469 699.621094 268.121094 C 699.621094 267.644531 700.011719 267.253906 700.492188 267.253906 L 707.226562 267.253906 C 707.707031 267.253906 708.09375 267.644531 708.09375 268.121094 C 708.09375 268.605469 707.707031 268.988281 707.226562 268.988281 " fill-opacity="1" fill-rule="nonzero"/><path fill="#1e293b" d="M 121.21875 217.609375 C 121.089844 217.609375 120.960938 217.582031 120.839844 217.523438 C 120.40625 217.3125 120.226562 216.792969 120.4375 216.359375 C 132.929688 190.769531 155.515625 153.503906 207.21875 125.441406 C 207.640625 125.210938 208.167969 125.367188 208.394531 125.785156 C 208.625 126.207031 208.46875 126.738281 208.046875 126.964844 C 156.78125 154.796875 134.386719 191.746094 122 217.125 C 121.847656 217.429688 121.539062 217.609375 121.21875 217.609375 " fill-opacity="1" fill-rule="nonzero"/><path fill="#1e293b" d="M 102.929688 215.378906 C 102.800781 215.378906 102.667969 215.351562 102.542969 215.289062 C 102.113281 215.074219 101.941406 214.550781 102.152344 214.121094 C 102.257812 213.910156 113.003906 192.464844 133.859375 167.375 C 153.117188 144.210938 185.183594 113.089844 228.597656 96.378906 C 229.042969 96.210938 229.546875 96.4375 229.71875 96.878906 C 229.894531 97.328125 229.667969 97.832031 229.222656 98.003906 C 186.152344 114.574219 154.320312 145.476562 135.195312 168.484375 C 114.46875 193.421875 103.8125 214.6875 103.707031 214.894531 C 103.554688 215.199219 103.25 215.378906 102.929688 215.378906 " fill-opacity="1" fill-rule="nonzero"/><path fill="#f0f9ff" d="M 525.574219 139.398438 L 246.679688 137.851562 C 235.796875 137.789062 225.824219 146.359375 224.40625 156.988281 L 184.292969 457.550781 C 182.875 468.179688 190.546875 476.847656 201.429688 476.90625 L 480.320312 478.453125 C 491.203125 478.511719 501.175781 469.941406 502.597656 459.316406 L 542.710938 158.75 C 544.128906 148.121094 536.457031 139.453125 525.574219 139.398438 " fill-opacity="1" fill-rule="nonzero"/><path fill="#1e293b" d="M 532.796875 227.457031 C 532.761719 227.457031 532.71875 227.453125 532.671875 227.449219 C 532.199219 227.378906 531.871094 226.9375 531.941406 226.460938 L 541.851562 158.628906 C 542.496094 153.800781 541.195312 149.238281 538.191406 145.78125 C 535.113281 142.253906 530.632812 140.292969 525.570312 140.265625 L 409.609375 139.621094 C 409.128906 139.621094 408.742188 139.230469 408.742188 138.75 C 408.746094 138.269531 409.144531 137.890625 409.617188 137.886719 L 525.578125 138.53125 C 531.148438 138.5625 536.09375 140.734375 539.496094 144.640625 C 542.839844 148.476562 544.28125 153.53125 543.570312 158.867188 L 533.652344 226.710938 C 533.59375 227.144531 533.222656 227.457031 532.796875 227.457031 " fill-opacity="1" fill-rule="nonzero"/><path fill="#1e293b" d="M 525.65625 171.875 C 525.652344 171.875 525.652344 171.875 525.648438 171.875 L 238.417969 170.285156 C 237.9375 170.28125 237.550781 169.890625 237.554688 169.40625 C 237.554688 168.929688 237.945312 168.546875 238.421875 168.546875 C 238.425781 168.546875 238.425781 168.546875 238.425781 168.546875 L 525.65625 170.140625 C 526.136719 170.140625 526.523438 170.53125 526.519531 171.011719 C 526.519531 171.488281 526.128906 171.875 525.65625 171.875 " fill-opacity="1" fill-rule="nonzero"/><path fill="#1e293b" d="M 250.769531 152.6875 L 250.777344 152.6875 Z M 246.34375 148.59375 C 243.988281 148.59375 241.828125 150.449219 241.523438 152.746094 C 241.382812 153.796875 241.660156 154.789062 242.308594 155.53125 C 242.972656 156.292969 243.953125 156.71875 245.0625 156.722656 C 245.070312 156.722656 245.078125 156.722656 245.085938 156.722656 C 247.441406 156.722656 249.601562 154.867188 249.90625 152.570312 C 250.046875 151.519531 249.769531 150.527344 249.121094 149.785156 C 248.457031 149.023438 247.480469 148.597656 246.371094 148.59375 C 246.359375 148.59375 246.351562 148.59375 246.34375 148.59375 Z M 245.085938 158.460938 C 245.074219 158.460938 245.0625 158.460938 245.050781 158.460938 C 243.4375 158.453125 241.996094 157.816406 241 156.671875 C 240.019531 155.546875 239.59375 154.070312 239.804688 152.515625 C 240.222656 149.386719 243.152344 146.855469 246.34375 146.855469 C 246.355469 146.855469 246.367188 146.855469 246.378906 146.855469 C 247.996094 146.863281 249.433594 147.5 250.429688 148.644531 C 251.410156 149.769531 251.835938 151.246094 251.628906 152.796875 C 251.210938 155.929688 248.28125 158.460938 245.085938 158.460938 " fill-opacity="1" fill-rule="nonzero"/><path fill="#1e293b" d="M 270.976562 152.800781 L 270.984375 152.800781 Z M 266.554688 148.710938 C 264.199219 148.710938 262.039062 150.5625 261.734375 152.863281 C 261.59375 153.914062 261.871094 154.902344 262.515625 155.644531 C 263.179688 156.414062 264.160156 156.832031 265.269531 156.84375 C 265.277344 156.84375 265.285156 156.84375 265.292969 156.84375 C 267.648438 156.84375 269.808594 154.984375 270.117188 152.691406 C 270.257812 151.632812 269.976562 150.644531 269.328125 149.898438 C 268.664062 149.136719 267.6875 148.714844 266.578125 148.710938 C 266.570312 148.710938 266.5625 148.710938 266.554688 148.710938 Z M 265.292969 158.574219 C 265.28125 158.574219 265.273438 158.574219 265.261719 158.574219 C 263.644531 158.566406 262.207031 157.929688 261.207031 156.785156 C 260.226562 155.660156 259.804688 154.183594 260.011719 152.632812 C 260.429688 149.503906 263.359375 146.96875 266.554688 146.96875 C 266.566406 146.96875 266.578125 146.96875 266.585938 146.96875 C 268.203125 146.980469 269.644531 147.613281 270.640625 148.757812 C 271.617188 149.886719 272.046875 151.363281 271.835938 152.917969 C 271.417969 156.042969 268.488281 158.574219 265.292969 158.574219 " fill-opacity="1" fill-rule="nonzero"/><path fill="#1e293b" d="M 286.765625 148.816406 C 284.410156 148.816406 282.25 150.671875 281.941406 152.96875 C 281.804688 154.027344 282.082031 155.011719 282.730469 155.753906 C 283.394531 156.519531 284.371094 156.945312 285.480469 156.949219 C 285.488281 156.949219 285.496094 156.949219 285.503906 156.949219 C 287.859375 156.949219 290.019531 155.089844 290.328125 152.796875 C 290.46875 151.742188 290.1875 150.75 289.542969 150.007812 C 288.878906 149.246094 287.902344 148.820312 286.789062 148.816406 C 286.78125 148.816406 286.773438 148.816406 286.765625 148.816406 Z M 285.503906 158.6875 C 285.496094 158.6875 285.484375 158.6875 285.472656 158.6875 C 283.855469 158.679688 282.417969 158.042969 281.417969 156.898438 C 280.4375 155.773438 280.015625 154.296875 280.222656 152.742188 C 280.640625 149.613281 283.570312 147.078125 286.765625 147.078125 C 286.777344 147.078125 286.789062 147.078125 286.796875 147.078125 C 288.414062 147.089844 289.855469 147.722656 290.851562 148.867188 C 291.832031 149.996094 292.257812 151.46875 292.046875 153.027344 C 291.628906 156.152344 288.699219 158.6875 285.503906 158.6875 " fill-opacity="1" fill-rule="nonzero"/><path fill="#1e293b" d="M 527.894531 155.09375 C 527.890625 155.09375 527.890625 155.09375 527.886719 155.09375 L 499.425781 154.9375 C 498.949219 154.933594 498.558594 154.542969 498.5625 154.0625 C 498.5625 153.585938 498.953125 153.199219 499.429688 153.199219 C 499.433594 153.199219 499.433594 153.199219 499.433594 153.199219 L 527.898438 153.355469 C 528.378906 153.363281 528.765625 153.75 528.761719 154.226562 C 528.761719 154.710938 528.371094 155.09375 527.894531 155.09375 " fill-opacity="1" fill-rule="nonzero"/><path fill="#1e293b" d="M 486.632812 154.863281 L 486.628906 154.863281 L 368.738281 154.207031 C 368.257812 154.207031 367.871094 153.8125 367.878906 153.335938 C 367.878906 152.859375 368.3125 152.46875 368.746094 152.472656 L 486.640625 153.128906 C 487.117188 153.128906 487.5 153.519531 487.5 154 C 487.496094 154.476562 487.113281 154.863281 486.632812 154.863281 " fill-opacity="1" fill-rule="nonzero"/><path fill="#1e293b" d="M 337.753906 154.035156 C 337.75 154.035156 337.75 154.035156 337.75 154.035156 L 312.65625 153.894531 C 312.175781 153.894531 311.792969 153.5 311.792969 153.023438 C 311.792969 152.546875 312.183594 152.160156 312.660156 152.160156 C 312.664062 152.160156 312.664062 152.160156 312.664062 152.160156 L 337.757812 152.300781 C 338.238281 152.304688 338.625 152.695312 338.621094 153.171875 C 338.621094 153.648438 338.230469 154.035156 337.753906 154.035156 " fill-opacity="1" fill-rule="nonzero"/><path fill="#1e293b" d="M 204.460938 307.300781 C 204.421875 307.300781 204.386719 307.300781 204.347656 307.296875 C 203.871094 307.230469 203.535156 306.796875 203.601562 306.320312 L 223.546875 156.871094 C 225.019531 145.839844 235.398438 136.941406 246.683594 136.980469 L 360.90625 137.613281 C 361.390625 137.613281 361.773438 138.007812 361.769531 138.488281 C 361.769531 138.96875 361.363281 139.355469 360.898438 139.351562 L 246.675781 138.71875 C 246.636719 138.71875 246.601562 138.71875 246.566406 138.71875 C 236.164062 138.71875 226.625 146.9375 225.269531 157.101562 L 205.320312 306.550781 C 205.261719 306.984375 204.890625 307.300781 204.460938 307.300781 " fill-opacity="1" fill-rule="nonzero"/><path fill="#f0f9ff" d="M 308.34375 311.101562 C 317.636719 296.214844 334.300781 285.757812 353.285156 283.953125 L 357.257812 210.953125 C 302.910156 210.828125 253.863281 240.429688 230.417969 284.457031 L 308.34375 311.101562 " fill-opacity="1" fill-rule="nonzero"/><path fill="#1e293b" d="M 231.667969 283.96875 L 307.976562 310.0625 C 317.554688 295.128906 334.089844 285.132812 352.460938 283.164062 L 356.335938 211.824219 C 304.148438 212.035156 255.410156 240.246094 231.667969 283.96875 Z M 308.339844 311.972656 C 308.246094 311.972656 308.152344 311.960938 308.0625 311.925781 L 230.136719 285.28125 C 229.894531 285.199219 229.703125 285.015625 229.609375 284.78125 C 229.515625 284.542969 229.53125 284.28125 229.652344 284.050781 C 253.644531 239 303.746094 209.964844 357.253906 210.089844 C 357.496094 210.089844 357.722656 210.1875 357.886719 210.359375 C 358.046875 210.535156 358.132812 210.765625 358.121094 211 L 354.15625 284 C 354.128906 284.433594 353.796875 284.78125 353.367188 284.820312 C 335 286.566406 318.441406 296.566406 309.078125 311.566406 C 308.917969 311.820312 308.632812 311.972656 308.339844 311.972656 " fill-opacity="1" fill-rule="nonzero"/><path fill="#1e293b" d="M 307.554688 231.398438 C 307.207031 231.398438 306.878906 231.1875 306.746094 230.839844 C 306.574219 230.394531 306.800781 229.890625 307.242188 229.71875 C 319.644531 224.960938 332.636719 222.015625 345.859375 220.976562 C 346.339844 220.941406 346.753906 221.300781 346.792969 221.777344 C 346.832031 222.253906 346.472656 222.667969 345.996094 222.707031 C 332.941406 223.738281 320.113281 226.640625 307.867188 231.339844 C 307.761719 231.378906 307.660156 231.398438 307.554688 231.398438 " fill-opacity="1" fill-rule="nonzero"/><path fill="#1e293b" d="M 263.242188 259.308594 C 263.015625 259.308594 262.785156 259.222656 262.613281 259.039062 C 262.285156 258.699219 262.296875 258.144531 262.640625 257.8125 C 272.203125 248.675781 283.191406 240.992188 295.296875 234.96875 C 295.726562 234.753906 296.246094 234.925781 296.460938 235.355469 C 296.675781 235.785156 296.5 236.304688 296.070312 236.523438 C 284.117188 242.464844 273.273438 250.050781 263.839844 259.070312 C 263.671875 259.230469 263.457031 259.308594 263.242188 259.308594 " fill-opacity="1" fill-rule="nonzero"/><path fill="#f0f9ff" d="M 411.996094 344.039062 C 406.667969 368 383.582031 386.738281 356.109375 387.417969 C 347.921875 387.621094 340.152344 386.199219 333.15625 383.460938 L 287.972656 447.925781 C 307.5625 456.804688 329.898438 461.222656 353.46875 460.035156 C 422.027344 456.582031 477.644531 406.632812 485.820312 346.175781 L 411.996094 344.039062 " fill-opacity="1" fill-rule="nonzero"/><path fill="#1e293b" d="M 289.285156 447.5625 C 308.945312 456.28125 331.097656 460.296875 353.425781 459.167969 C 419.800781 455.820312 476.105469 407.679688 484.824219 347.011719 L 412.679688 344.929688 C 406.867188 369.425781 383.210938 387.613281 356.132812 388.285156 C 348.226562 388.480469 340.621094 387.210938 333.480469 384.515625 Z M 346.066406 461.089844 C 325.644531 461.089844 305.578125 456.855469 287.613281 448.71875 C 287.375 448.609375 287.199219 448.402344 287.132812 448.15625 C 287.0625 447.90625 287.113281 447.636719 287.257812 447.425781 L 332.445312 382.964844 C 332.675781 382.636719 333.101562 382.507812 333.472656 382.652344 C 340.578125 385.4375 348.1875 386.742188 356.089844 386.550781 C 382.636719 385.890625 405.792969 367.933594 411.148438 343.847656 C 411.234375 343.445312 411.601562 343.160156 412.019531 343.171875 L 485.84375 345.304688 C 486.09375 345.3125 486.320312 345.425781 486.480469 345.613281 C 486.640625 345.800781 486.714844 346.046875 486.679688 346.289062 C 478.308594 408.226562 421.058594 457.496094 353.515625 460.902344 C 351.03125 461.027344 348.542969 461.089844 346.066406 461.089844 " fill-opacity="1" fill-rule="nonzero"/><path fill="#1e293b" d="M 346.257812 450.625 C 346 450.625 345.75 450.621094 345.496094 450.621094 C 331.101562 450.542969 317.140625 448.242188 303.996094 443.785156 C 303.539062 443.632812 303.296875 443.140625 303.449219 442.6875 C 303.605469 442.230469 304.097656 441.984375 304.550781 442.144531 C 317.523438 446.539062 331.300781 448.808594 345.503906 448.886719 C 348.054688 448.898438 350.644531 448.84375 353.195312 448.710938 C 353.671875 448.691406 354.082031 449.054688 354.101562 449.535156 C 354.128906 450.015625 353.757812 450.421875 353.28125 450.449219 C 350.953125 450.5625 348.589844 450.625 346.257812 450.625 " fill-opacity="1" fill-rule="nonzero"/><path fill="#1e293b" d="M 380.441406 446.296875 C 380.054688 446.296875 379.703125 446.035156 379.601562 445.640625 C 379.480469 445.183594 379.761719 444.707031 380.226562 444.585938 C 425.769531 432.839844 461.871094 398.097656 472.207031 356.082031 C 472.320312 355.613281 472.789062 355.332031 473.257812 355.445312 C 473.722656 355.558594 474.003906 356.03125 473.890625 356.496094 C 463.40625 399.125 426.8125 434.363281 380.660156 446.269531 C 380.585938 446.289062 380.511719 446.296875 380.441406 446.296875 " fill-opacity="1" fill-rule="nonzero"/><path fill="#f0f9ff" d="M 274.8125 441.046875 L 320.398438 376.390625 C 307.804688 366.980469 300.023438 352.402344 300.625 335.914062 C 300.769531 331.929688 301.398438 328.050781 302.457031 324.320312 L 224.222656 297.988281 C 219.527344 310.128906 216.761719 323.058594 216.273438 336.457031 C 214.660156 380.847656 238.234375 419.207031 274.8125 441.046875 " fill-opacity="1" fill-rule="nonzero"/><path fill="#1e293b" d="M 224.734375 299.078125 C 220.160156 311.152344 217.605469 323.738281 217.140625 336.488281 C 215.609375 378.582031 237.066406 417.179688 274.566406 439.882812 L 319.203125 376.578125 C 306.257812 366.582031 299.179688 351.800781 299.757812 335.882812 C 299.890625 332.1875 300.445312 328.492188 301.402344 324.882812 Z M 274.808594 441.914062 C 274.660156 441.914062 274.503906 441.871094 274.363281 441.789062 C 235.882812 418.8125 213.84375 379.425781 215.40625 336.425781 C 215.886719 323.207031 218.582031 310.167969 223.414062 297.671875 C 223.578125 297.242188 224.058594 297.015625 224.496094 297.167969 L 302.734375 323.496094 C 303.171875 323.644531 303.417969 324.113281 303.292969 324.554688 C 302.238281 328.28125 301.632812 332.117188 301.492188 335.949219 C 300.925781 351.558594 308.003906 366.042969 320.917969 375.699219 C 321.292969 375.976562 321.378906 376.507812 321.105469 376.890625 L 275.519531 441.546875 C 275.351562 441.78125 275.085938 441.914062 274.808594 441.914062 " fill-opacity="1" fill-rule="nonzero"/><path fill="#f0f9ff" d="M 377.933594 281.328125 C 402.789062 285.097656 421.320312 304.097656 422.75 327.457031 L 543.457031 331.542969 C 543.457031 331.488281 543.460938 331.4375 543.460938 331.394531 C 546.605469 244.917969 478.671875 170.527344 384.492188 160.476562 L 377.933594 281.328125 " fill-opacity="1" fill-rule="nonzero"/><path fill="#1e293b" d="M 423.5625 326.617188 L 542.613281 330.644531 C 545.371094 244.277344 477.933594 171.746094 385.308594 161.441406 L 378.84375 280.597656 C 403.527344 284.667969 421.761719 303.429688 423.5625 326.617188 Z M 543.441406 332.410156 C 543.433594 332.410156 543.429688 332.410156 543.421875 332.410156 L 422.722656 328.324219 C 422.273438 328.3125 421.914062 327.957031 421.882812 327.511719 C 420.476562 304.546875 402.347656 285.90625 377.800781 282.191406 C 377.359375 282.121094 377.042969 281.730469 377.066406 281.285156 L 383.625 160.429688 C 383.636719 160.191406 383.746094 159.972656 383.929688 159.8125 C 384.109375 159.664062 384.347656 159.589844 384.582031 159.613281 C 430.183594 164.484375 471.5625 184.75 501.105469 216.6875 C 530.511719 248.476562 545.859375 289.226562 544.324219 331.425781 C 544.308594 331.894531 543.910156 332.410156 543.441406 332.410156 " fill-opacity="1" fill-rule="nonzero"/><path fill="#f0f9ff" d="M 251.335938 323.082031 L 96.164062 322.21875 C 88.515625 322.175781 81.507812 328.195312 80.511719 335.667969 L 53.632812 537.058594 C 52.636719 544.523438 58.027344 550.617188 65.671875 550.65625 L 220.847656 551.515625 C 228.496094 551.5625 235.5 545.539062 236.5 538.070312 L 263.375 336.679688 C 264.375 329.207031 258.984375 323.121094 251.335938 323.082031 " fill-opacity="1" fill-rule="nonzero"/><path fill="#1e293b" d="M 118.109375 515.628906 L 78.277344 515.410156 L 95.34375 387.546875 L 135.175781 387.765625 L 118.109375 515.628906 " fill-opacity="1" fill-rule="nonzero"/><path fill="#1e293b" d="M 167.886719 515.90625 L 128.054688 515.683594 L 149.828125 352.535156 L 189.664062 352.757812 L 167.886719 515.90625 " fill-opacity="1" fill-rule="nonzero"/><path fill="#1e293b" d="M 217.664062 516.183594 L 177.832031 515.960938 L 188.003906 439.730469 L 227.839844 439.953125 L 217.664062 516.183594 " fill-opacity="1" fill-rule="nonzero"/><path fill="#1e293b" d="M 149.160156 551.984375 C 149.160156 551.984375 149.160156 551.984375 149.15625 551.984375 L 133.433594 551.898438 C 132.957031 551.898438 132.566406 551.507812 132.570312 551.023438 C 132.574219 550.550781 132.960938 550.164062 133.441406 550.164062 C 133.441406 550.164062 133.441406 550.164062 133.445312 550.164062 L 149.167969 550.25 C 149.648438 550.253906 150.03125 550.644531 150.03125 551.125 C 150.027344 551.605469 149.640625 551.984375 149.160156 551.984375 " fill-opacity="1" fill-rule="nonzero"/><g clip-path="url(#d021c0c691)"><path fill="#1e293b" d="M 133.441406 551.898438 C 133.4375 551.898438 133.4375 551.898438 133.433594 551.898438 L 65.667969 551.527344 C 61.679688 551.5 58.136719 549.949219 55.695312 547.140625 C 53.300781 544.390625 52.261719 540.765625 52.773438 536.945312 L 79.648438 335.550781 C 80.703125 327.675781 88.121094 321.289062 96.167969 321.347656 L 251.339844 322.210938 C 255.332031 322.234375 258.875 323.789062 261.316406 326.59375 C 263.710938 329.347656 264.75 332.96875 264.238281 336.792969 L 245.929688 473.964844 C 245.867188 474.4375 245.429688 474.773438 244.957031 474.710938 C 244.480469 474.644531 244.144531 474.210938 244.210938 473.734375 L 262.515625 336.566406 C 262.960938 333.238281 262.070312 330.105469 260.003906 327.738281 C 257.894531 325.3125 254.816406 323.964844 251.332031 323.945312 L 96.15625 323.085938 C 88.960938 323.03125 82.3125 328.738281 81.371094 335.78125 L 54.492188 537.171875 C 54.050781 540.492188 54.941406 543.628906 57.003906 546 C 59.113281 548.421875 62.195312 549.769531 65.679688 549.789062 L 133.445312 550.164062 C 133.921875 550.167969 134.308594 550.558594 134.304688 551.039062 C 134.304688 551.515625 133.917969 551.898438 133.441406 551.898438 " fill-opacity="1" fill-rule="nonzero"/></g><path fill="#f0f9ff" d="M 520.128906 531.410156 C 527.167969 531.433594 532.128906 537.027344 531.214844 543.898438 L 519.785156 629.53125 C 518.867188 636.40625 512.414062 641.957031 505.378906 641.933594 L 190.238281 640.804688 C 183.199219 640.78125 178.238281 635.1875 179.15625 628.3125 L 190.585938 542.679688 C 191.503906 535.804688 197.953125 530.253906 204.992188 530.28125 L 520.128906 531.410156 " fill-opacity="1" fill-rule="nonzero"/><path fill="#1e293b" d="M 204.941406 531.148438 C 198.355469 531.148438 192.304688 536.363281 191.445312 542.796875 L 180.019531 628.429688 C 179.613281 631.46875 180.425781 634.328125 182.308594 636.488281 C 184.238281 638.703125 187.054688 639.925781 190.242188 639.9375 L 505.382812 641.0625 C 505.398438 641.0625 505.414062 641.0625 505.425781 641.0625 C 512.015625 641.0625 518.0625 635.847656 518.921875 629.417969 L 530.351562 543.785156 C 530.757812 540.746094 529.941406 537.882812 528.058594 535.722656 C 526.132812 533.511719 523.316406 532.285156 520.125 532.277344 L 204.988281 531.148438 C 204.972656 531.148438 204.957031 531.148438 204.941406 531.148438 Z M 505.425781 642.796875 C 505.410156 642.796875 505.394531 642.796875 505.375 642.796875 L 190.234375 641.671875 C 186.542969 641.660156 183.261719 640.226562 181.003906 637.632812 C 178.785156 635.089844 177.824219 631.738281 178.296875 628.199219 L 189.726562 542.5625 C 190.695312 535.300781 197.515625 529.414062 204.941406 529.414062 C 204.960938 529.414062 204.976562 529.414062 204.992188 529.414062 L 520.132812 530.539062 C 523.828125 530.550781 527.105469 531.988281 529.367188 534.582031 C 531.585938 537.125 532.542969 540.472656 532.070312 544.011719 L 520.644531 629.648438 C 519.675781 636.910156 512.851562 642.796875 505.425781 642.796875 " fill-opacity="1" fill-rule="nonzero"/><path fill="#1e293b" d="M 256.402344 556.804688 C 253.542969 556.804688 250.914062 559.066406 250.542969 561.851562 C 250.371094 563.140625 250.714844 564.351562 251.507812 565.261719 C 252.320312 566.195312 253.515625 566.710938 254.875 566.714844 L 483.914062 567.53125 C 483.921875 567.53125 483.929688 567.53125 483.9375 567.53125 C 486.796875 567.539062 489.417969 565.273438 489.792969 562.488281 C 489.964844 561.195312 489.621094 559.988281 488.828125 559.078125 C 488.019531 558.144531 486.820312 557.628906 485.460938 557.621094 L 256.421875 556.804688 C 256.414062 556.804688 256.40625 556.804688 256.402344 556.804688 Z M 483.9375 569.273438 C 483.921875 569.273438 483.914062 569.273438 483.910156 569.273438 L 254.867188 568.453125 C 253.003906 568.445312 251.34375 567.71875 250.199219 566.402344 C 249.074219 565.113281 248.582031 563.414062 248.820312 561.625 C 249.304688 557.996094 252.703125 555.019531 256.425781 555.070312 L 485.472656 555.886719 C 487.332031 555.894531 488.996094 556.621094 490.140625 557.9375 C 491.265625 559.226562 491.753906 560.925781 491.511719 562.714844 C 491.03125 566.335938 487.632812 569.273438 483.9375 569.273438 " fill-opacity="1" fill-rule="nonzero"/><path fill="#1e293b" d="M 232.835938 556.722656 C 229.972656 556.722656 227.347656 558.980469 226.976562 561.769531 C 226.804688 563.058594 227.148438 564.265625 227.941406 565.175781 C 228.753906 566.109375 229.949219 566.628906 231.304688 566.632812 C 231.3125 566.632812 231.320312 566.632812 231.324219 566.632812 C 234.1875 566.632812 236.8125 564.367188 237.183594 561.582031 C 237.355469 560.292969 237.011719 559.082031 236.222656 558.171875 C 235.40625 557.242188 234.210938 556.722656 232.855469 556.722656 C 232.847656 556.722656 232.839844 556.722656 232.835938 556.722656 Z M 231.324219 568.367188 C 231.316406 568.367188 231.308594 568.367188 231.300781 568.367188 C 229.4375 568.359375 227.777344 567.632812 226.632812 566.316406 C 225.507812 565.023438 225.015625 563.328125 225.253906 561.539062 C 225.738281 557.921875 229.136719 554.984375 232.835938 554.984375 C 232.84375 554.984375 232.851562 554.984375 232.859375 554.984375 C 234.726562 554.988281 236.382812 555.71875 237.527344 557.03125 C 238.65625 558.324219 239.144531 560.023438 238.90625 561.808594 C 238.421875 565.429688 235.023438 568.367188 231.324219 568.367188 " fill-opacity="1" fill-rule="nonzero"/><path fill="#1e293b" d="M 253.054688 581.890625 C 250.191406 581.890625 247.566406 584.152344 247.195312 586.941406 C 247.023438 588.226562 247.367188 589.441406 248.160156 590.347656 C 248.972656 591.28125 250.167969 591.796875 251.523438 591.800781 L 480.566406 592.621094 C 480.574219 592.621094 480.578125 592.621094 480.585938 592.621094 C 483.449219 592.625 486.074219 590.359375 486.445312 587.574219 C 486.617188 586.285156 486.273438 585.074219 485.484375 584.167969 C 484.667969 583.234375 483.472656 582.71875 482.113281 582.707031 L 253.074219 581.890625 C 253.066406 581.890625 253.0625 581.890625 253.054688 581.890625 Z M 480.585938 594.359375 C 480.578125 594.359375 480.570312 594.359375 480.5625 594.359375 L 251.519531 593.542969 C 249.65625 593.53125 247.996094 592.804688 246.851562 591.492188 C 245.722656 590.199219 245.234375 588.503906 245.476562 586.710938 C 245.957031 583.089844 249.355469 580.15625 253.054688 580.15625 C 253.0625 580.15625 253.070312 580.15625 253.078125 580.15625 L 482.121094 580.972656 C 483.984375 580.980469 485.644531 581.710938 486.789062 583.023438 C 487.914062 584.316406 488.402344 586.011719 488.167969 587.800781 C 487.683594 591.421875 484.285156 594.359375 480.585938 594.359375 " fill-opacity="1" fill-rule="nonzero"/><path fill="#1e293b" d="M 234.695312 586.78125 L 234.703125 586.78125 Z M 229.488281 581.808594 C 226.625 581.808594 224 584.066406 223.628906 586.859375 C 223.457031 588.144531 223.796875 589.355469 224.589844 590.261719 C 225.40625 591.199219 226.601562 591.714844 227.957031 591.71875 C 227.964844 591.71875 227.972656 591.71875 227.976562 591.71875 C 230.839844 591.71875 233.464844 589.460938 233.835938 586.667969 C 234.007812 585.382812 233.664062 584.167969 232.871094 583.261719 C 232.058594 582.328125 230.863281 581.8125 229.507812 581.808594 C 229.5 581.808594 229.492188 581.808594 229.488281 581.808594 Z M 227.976562 593.453125 C 227.96875 593.453125 227.960938 593.453125 227.953125 593.453125 C 226.085938 593.445312 224.429688 592.722656 223.285156 591.402344 C 222.15625 590.113281 221.667969 588.414062 221.90625 586.625 C 222.390625 583 225.824219 580.042969 229.511719 580.070312 C 231.375 580.078125 233.035156 580.804688 234.179688 582.117188 C 235.304688 583.410156 235.796875 585.109375 235.558594 586.898438 C 235.558594 586.902344 235.558594 586.902344 235.558594 586.902344 C 235.074219 590.515625 231.675781 593.453125 227.976562 593.453125 " fill-opacity="1" fill-rule="nonzero"/><path fill="#1e293b" d="M 477.222656 617.710938 C 477.226562 617.710938 477.234375 617.710938 477.238281 617.710938 C 480.097656 617.710938 482.722656 615.449219 483.097656 612.660156 C 483.273438 611.371094 482.925781 610.160156 482.132812 609.253906 C 481.320312 608.320312 480.125 607.804688 478.769531 607.796875 L 249.722656 606.976562 C 249.71875 606.976562 249.710938 606.976562 249.703125 606.976562 C 246.84375 606.976562 244.21875 609.242188 243.847656 612.027344 C 243.675781 613.316406 244.015625 614.527344 244.8125 615.4375 C 245.625 616.371094 246.820312 616.886719 248.175781 616.886719 Z M 477.238281 619.445312 C 477.230469 619.445312 477.222656 619.445312 477.214844 619.445312 L 248.171875 618.628906 C 246.304688 618.621094 244.648438 617.890625 243.503906 616.578125 C 242.375 615.289062 241.886719 613.589844 242.125 611.800781 C 242.609375 608.171875 246.03125 605.257812 249.730469 605.242188 L 478.773438 606.0625 C 480.636719 606.070312 482.296875 606.796875 483.441406 608.113281 C 484.566406 609.402344 485.058594 611.097656 484.820312 612.890625 C 484.335938 616.511719 480.9375 619.445312 477.238281 619.445312 " fill-opacity="1" fill-rule="nonzero"/><path fill="#1e293b" d="M 226.136719 606.894531 C 223.277344 606.894531 220.652344 609.15625 220.28125 611.945312 C 220.109375 613.230469 220.449219 614.441406 221.246094 615.351562 C 222.058594 616.285156 223.253906 616.800781 224.609375 616.804688 C 224.617188 616.804688 224.621094 616.804688 224.628906 616.804688 C 227.488281 616.804688 230.117188 614.546875 230.484375 611.757812 C 230.660156 610.46875 230.316406 609.257812 229.523438 608.347656 C 228.710938 607.414062 227.515625 606.898438 226.160156 606.894531 C 226.152344 606.894531 226.144531 606.894531 226.136719 606.894531 Z M 224.628906 618.542969 C 224.621094 618.542969 224.613281 618.542969 224.605469 618.542969 C 222.742188 618.535156 221.082031 617.808594 219.9375 616.492188 C 218.808594 615.199219 218.320312 613.503906 218.558594 611.710938 C 219.042969 608.09375 222.441406 605.160156 226.136719 605.160156 C 226.148438 605.160156 226.15625 605.160156 226.164062 605.160156 C 228.027344 605.164062 229.683594 605.890625 230.832031 607.207031 C 231.957031 608.5 232.449219 610.195312 232.207031 611.988281 C 231.726562 615.605469 228.328125 618.542969 224.628906 618.542969 " fill-opacity="1" fill-rule="nonzero"/><path fill="#1e293b" d="M 547.441406 446.753906 C 547.441406 446.753906 543.027344 461.890625 608.890625 465.574219 C 674.753906 469.257812 663.730469 450.546875 663.730469 450.546875 L 594.585938 430.402344 L 547.441406 446.753906 " fill-opacity="1" fill-rule="nonzero"/><path fill="#f0f9ff" d="M 622.496094 682.855469 C 620.726562 682.769531 628.515625 721.980469 628.515625 721.980469 L 611.835938 723.964844 L 602.769531 679.84375 L 622.496094 682.855469 " fill-opacity="1" fill-rule="nonzero"/><path fill="#1e293b" d="M 622.449219 683.71875 L 622.453125 683.71875 Z M 603.867188 680.890625 L 612.523438 723.007812 L 627.480469 721.226562 C 626.976562 718.628906 625.472656 710.925781 624.101562 703.171875 C 621.769531 689.996094 621.304688 685.347656 621.386719 683.5625 Z M 611.835938 724.832031 C 611.425781 724.832031 611.070312 724.546875 610.984375 724.140625 L 601.917969 680.019531 C 601.859375 679.742188 601.941406 679.453125 602.140625 679.242188 C 602.332031 679.039062 602.617188 678.941406 602.894531 678.984375 L 622.625 681.996094 C 623.082031 682.0625 623.402344 682.480469 623.355469 682.9375 C 623.335938 683.140625 623.246094 683.324219 623.113281 683.460938 C 622.679688 686.273438 626.683594 708.296875 629.367188 721.8125 C 629.414062 722.046875 629.355469 722.296875 629.21875 722.492188 C 629.074219 722.683594 628.859375 722.816406 628.617188 722.84375 L 611.9375 724.824219 C 611.902344 724.828125 611.867188 724.832031 611.835938 724.832031 " fill-opacity="1" fill-rule="nonzero"/><path fill="#f0f9ff" d="M 635.9375 735.8125 C 634.523438 727.371094 632.34375 716.035156 630.511719 713.730469 C 627.519531 709.972656 619.398438 718.167969 619.398438 718.167969 C 619.398438 718.167969 615.695312 706.046875 607.675781 707.648438 C 601.636719 708.855469 581.339844 723.585938 570.644531 735.3125 C 567.148438 739.144531 569.914062 745.316406 575.101562 745.316406 L 627.894531 745.316406 C 632.9375 745.316406 636.773438 740.785156 635.9375 735.8125 " fill-opacity="1" fill-rule="nonzero"/><path fill="#1e293b" d="M 609.09375 708.375 C 608.691406 708.375 608.277344 708.414062 607.847656 708.5 C 602.132812 709.640625 581.894531 724.265625 571.285156 735.898438 C 569.914062 737.402344 569.578125 739.503906 570.402344 741.375 C 571.242188 743.269531 573.039062 744.445312 575.105469 744.445312 L 627.894531 744.445312 C 630.046875 744.445312 632.074219 743.503906 633.460938 741.863281 C 634.851562 740.226562 635.441406 738.074219 635.082031 735.957031 C 635.082031 735.949219 635.082031 735.949219 635.082031 735.949219 C 633.046875 723.808594 631.132812 715.90625 629.832031 714.269531 C 629.503906 713.855469 629.089844 713.648438 628.53125 713.617188 C 628.488281 713.613281 628.4375 713.613281 628.382812 713.613281 C 625.730469 713.613281 621.46875 717.320312 620.019531 718.777344 C 619.804688 718.992188 619.492188 719.078125 619.191406 719.007812 C 618.902344 718.933594 618.664062 718.707031 618.570312 718.417969 C 618.542969 718.308594 615.414062 708.375 609.09375 708.375 Z M 627.894531 746.179688 L 575.105469 746.179688 C 572.34375 746.179688 569.9375 744.609375 568.8125 742.074219 C 567.707031 739.566406 568.164062 736.746094 570.003906 734.726562 C 580.234375 723.515625 600.914062 708.113281 607.507812 706.792969 C 614.632812 705.378906 618.507812 713.375 619.777344 716.613281 C 621.625 714.929688 625.558594 711.71875 628.628906 711.882812 C 629.671875 711.9375 630.554688 712.390625 631.191406 713.191406 C 632.734375 715.128906 634.621094 722.691406 636.800781 735.664062 C 637.242188 738.289062 636.503906 740.957031 634.789062 742.984375 C 633.074219 745.015625 630.554688 746.179688 627.894531 746.179688 " fill-opacity="1" fill-rule="nonzero"/><path fill="#1e293b" d="M 630.511719 737.085938 L 578.074219 737.085938 C 577.59375 737.085938 577.207031 736.695312 577.207031 736.21875 C 577.207031 735.734375 577.59375 735.347656 578.074219 735.347656 L 630.511719 735.347656 C 630.988281 735.347656 631.378906 735.734375 631.378906 736.21875 C 631.378906 736.695312 630.988281 737.085938 630.511719 737.085938 " fill-opacity="1" fill-rule="nonzero"/><path fill="#f0f9ff" d="M 692.097656 685.570312 L 711.175781 723.390625 L 721.847656 722.296875 L 712.359375 681.777344 L 692.097656 685.570312 " fill-opacity="1" fill-rule="nonzero"/><path fill="#1e293b" d="M 693.394531 686.210938 L 711.6875 722.464844 L 720.78125 721.53125 L 711.707031 682.78125 Z M 711.179688 724.257812 C 710.851562 724.257812 710.550781 724.074219 710.40625 723.777344 L 691.324219 685.960938 C 691.207031 685.71875 691.199219 685.433594 691.320312 685.1875 C 691.445312 684.941406 691.671875 684.765625 691.941406 684.71875 L 712.203125 680.921875 C 712.65625 680.839844 713.101562 681.125 713.207031 681.578125 L 722.699219 722.097656 C 722.753906 722.339844 722.703125 722.59375 722.554688 722.796875 C 722.414062 723.003906 722.1875 723.132812 721.9375 723.15625 L 711.269531 724.25 C 711.238281 724.253906 711.210938 724.257812 711.179688 724.257812 " fill-opacity="1" fill-rule="nonzero"/><path fill="#f0f9ff" d="M 712.691406 717.785156 C 712.691406 717.785156 718.113281 709.515625 726.984375 715.828125 C 726.984375 715.828125 739.984375 744.945312 742.617188 767.46875 C 743.359375 773.839844 736.164062 778.097656 730.90625 774.425781 C 718.601562 765.828125 699.925781 749.128906 692.316406 723.242188 C 692.316406 723.242188 697.878906 714.226562 704.703125 710.867188 L 712.691406 717.785156 " fill-opacity="1" fill-rule="nonzero"/><path fill="#1e293b" d="M 693.261719 723.378906 C 700.664062 748.117188 718.074219 764.398438 731.40625 773.714844 C 733.558594 775.21875 736.3125 775.316406 738.585938 773.957031 C 740.84375 772.609375 742.054688 770.160156 741.753906 767.570312 C 739.289062 746.453125 727.480469 719.117188 726.289062 716.398438 C 723.796875 714.679688 721.386719 714.023438 719.101562 714.445312 C 715.539062 715.109375 713.433594 718.230469 713.414062 718.261719 C 713.273438 718.46875 713.054688 718.613281 712.804688 718.640625 C 712.558594 718.675781 712.308594 718.605469 712.121094 718.441406 L 704.578125 711.910156 C 698.988281 714.929688 694.285156 721.808594 693.261719 723.378906 Z M 735.164062 776.652344 C 733.503906 776.652344 731.855469 776.144531 730.410156 775.140625 C 716.78125 765.617188 698.964844 748.925781 691.480469 723.488281 C 691.417969 723.25 691.445312 722.996094 691.574219 722.789062 C 691.808594 722.410156 697.351562 713.519531 704.320312 710.085938 C 704.628906 709.933594 705.007812 709.980469 705.265625 710.207031 L 712.558594 716.523438 C 713.53125 715.378906 715.660156 713.328125 718.765625 712.742188 C 721.585938 712.210938 724.523438 713.011719 727.492188 715.121094 C 727.617188 715.210938 727.71875 715.332031 727.78125 715.476562 C 727.914062 715.765625 740.859375 744.972656 743.476562 767.367188 C 743.859375 770.644531 742.332031 773.742188 739.476562 775.445312 C 738.125 776.253906 736.644531 776.652344 735.164062 776.652344 " fill-opacity="1" fill-rule="nonzero"/><path fill="#1e293b" d="M 737.898438 769.824219 C 737.886719 769.824219 737.875 769.824219 737.863281 769.824219 C 736.992188 769.789062 716.359375 768.5 695.875 725.203125 C 695.667969 724.773438 695.855469 724.253906 696.285156 724.046875 C 696.71875 723.84375 697.238281 724.027344 697.445312 724.460938 C 717.480469 766.816406 737.730469 768.082031 737.929688 768.089844 C 738.410156 768.109375 738.785156 768.511719 738.765625 768.992188 C 738.746094 769.457031 738.363281 769.824219 737.898438 769.824219 " fill-opacity="1" fill-rule="nonzero"/><path fill="#1e293b" d="M 688.636719 691.886719 L 720.648438 690.820312 L 676.988281 518.273438 C 669.996094 490.640625 658.652344 464.300781 643.386719 440.230469 L 576.492188 440.195312 C 576.492188 440.195312 551.8125 534.382812 597.054688 689.390625 L 630.503906 689.390625 C 630.503906 689.390625 617.484375 547.96875 618.558594 507.332031 C 618.558594 507.332031 650.007812 623.496094 688.636719 691.886719 " fill-opacity="1" fill-rule="nonzero"/><path fill="#f0f9ff" d="M 618.558594 506.464844 C 618.945312 506.464844 619.292969 506.726562 619.394531 507.105469 C 619.710938 508.265625 651.117188 623.425781 689.140625 691.003906 L 719.539062 689.984375 L 676.152344 518.484375 C 669.207031 491.050781 658.027344 465.015625 642.910156 441.097656 L 577.167969 441.058594 C 576.195312 445.140625 571.125 468.273438 570.671875 506.757812 C 570.210938 545.742188 574.535156 608.886719 597.699219 688.523438 L 629.558594 688.523438 C 628.421875 676.066406 616.671875 545.789062 617.691406 507.3125 C 617.703125 506.878906 618.023438 506.519531 618.453125 506.46875 C 618.492188 506.464844 618.523438 506.464844 618.558594 506.464844 Z M 688.636719 692.757812 C 688.324219 692.757812 688.035156 692.585938 687.878906 692.316406 C 654.597656 633.382812 626.335938 537.949219 619.363281 513.4375 C 619.507812 559.972656 631.25 687.960938 631.371094 689.308594 C 631.394531 689.554688 631.3125 689.792969 631.152344 689.976562 C 630.988281 690.15625 630.75 690.257812 630.503906 690.257812 L 597.050781 690.257812 C 596.664062 690.257812 596.328125 690 596.21875 689.632812 C 572.8125 609.457031 568.464844 545.875 568.9375 506.65625 C 569.449219 464.113281 575.582031 440.210938 575.644531 439.972656 C 575.75 439.589844 576.09375 439.324219 576.492188 439.324219 L 643.382812 439.363281 C 643.6875 439.363281 643.960938 439.515625 644.125 439.769531 C 659.464844 463.949219 670.804688 490.292969 677.828125 518.054688 L 721.484375 690.609375 C 721.554688 690.859375 721.5 691.132812 721.339844 691.339844 C 721.179688 691.550781 720.9375 691.679688 720.675781 691.6875 L 688.667969 692.757812 C 688.65625 692.757812 688.648438 692.757812 688.636719 692.757812 " fill-opacity="1" fill-rule="nonzero"/><path fill="#f0f9ff" d="M 622.226562 527.078125 C 621.84375 527.078125 621.496094 526.828125 621.386719 526.445312 L 609.714844 484.941406 L 601.125 482.320312 C 600.671875 482.179688 600.410156 481.695312 600.554688 481.234375 C 600.691406 480.777344 601.171875 480.519531 601.636719 480.660156 L 610.675781 483.417969 C 610.957031 483.507812 611.171875 483.730469 611.257812 484.015625 L 623.0625 525.972656 C 623.191406 526.4375 622.921875 526.917969 622.460938 527.046875 C 622.382812 527.070312 622.304688 527.078125 622.226562 527.078125 " fill-opacity="1" fill-rule="nonzero"/><path fill="#f0f9ff" d="M 450.273438 328.859375 L 474.996094 342.203125 C 474.996094 342.203125 490.148438 381.722656 511.835938 384.101562 C 533.527344 386.480469 554.988281 356.480469 554.988281 356.480469 L 569.386719 387.285156 C 569.386719 387.285156 548.242188 419.980469 514.714844 414.710938 C 481.183594 409.441406 472.046875 359.074219 472.046875 359.074219 C 472.0625 359.105469 464.113281 359.859375 461.117188 352.117188 C 458.566406 345.523438 459.632812 341.644531 459.632812 341.644531 C 459.632812 341.644531 447.71875 335.285156 450.273438 328.859375 " fill-opacity="1" fill-rule="nonzero"/><path fill="#1e293b" d="M 472.046875 358.207031 C 472.09375 358.207031 472.140625 358.210938 472.183594 358.21875 C 472.546875 358.28125 472.835938 358.558594 472.902344 358.917969 C 472.988281 359.417969 482.316406 408.738281 514.847656 413.855469 C 545.449219 418.664062 565.851562 390.871094 568.386719 387.207031 L 554.816406 358.171875 C 550.691406 363.578125 533.105469 385.105469 514.351562 385.113281 C 513.476562 385.113281 512.613281 385.0625 511.742188 384.96875 C 490.542969 382.640625 475.859375 346.78125 474.296875 342.820312 L 450.824219 330.144531 C 450.0625 335.476562 459.933594 340.828125 460.039062 340.882812 C 460.394531 341.074219 460.570312 341.484375 460.46875 341.878906 C 460.460938 341.914062 459.527344 345.613281 461.925781 351.804688 C 464.578125 358.664062 471.492188 358.253906 471.882812 358.222656 C 471.941406 358.210938 471.992188 358.207031 472.046875 358.207031 Z M 521.925781 416.148438 C 519.542969 416.148438 517.097656 415.964844 514.574219 415.570312 C 483.113281 410.621094 472.691406 366.378906 471.34375 359.992188 C 470.945312 359.992188 470.421875 359.957031 469.738281 359.867188 C 467.152344 359.519531 462.496094 358.085938 460.304688 352.429688 C 458.265625 347.164062 458.457031 343.539062 458.660156 342.097656 C 456.21875 340.6875 446.964844 334.824219 449.464844 328.539062 C 449.554688 328.308594 449.742188 328.128906 449.976562 328.050781 C 450.207031 327.960938 450.46875 327.980469 450.6875 328.101562 L 475.40625 341.441406 C 475.589844 341.542969 475.730469 341.703125 475.800781 341.894531 C 475.957031 342.28125 491.015625 380.949219 511.929688 383.242188 C 532.878906 385.542969 554.070312 356.273438 554.277344 355.976562 C 554.457031 355.726562 554.75 355.589844 555.066406 355.617188 C 555.371094 355.644531 555.636719 355.835938 555.773438 356.113281 L 570.171875 386.921875 C 570.296875 387.191406 570.269531 387.507812 570.109375 387.761719 C 569.914062 388.066406 551.386719 416.144531 521.925781 416.148438 " fill-opacity="1" fill-rule="nonzero"/><path fill="#1e293b" d="M 472.75 355.734375 C 472.667969 355.734375 472.582031 355.726562 472.496094 355.695312 C 472.285156 355.632812 467.347656 354.066406 466.746094 349.714844 C 466.488281 347.871094 465.390625 346.441406 464.511719 345.570312 C 463.226562 344.289062 462.519531 342.578125 462.519531 340.75 L 462.519531 339.792969 C 462.519531 339.503906 462.660156 339.234375 462.894531 339.070312 C 463.136719 338.910156 463.4375 338.878906 463.707031 338.984375 L 472.042969 342.308594 C 472.488281 342.488281 472.707031 342.992188 472.527344 343.4375 C 472.351562 343.886719 471.839844 344.097656 471.402344 343.921875 L 464.265625 341.074219 C 464.339844 342.316406 464.855469 343.464844 465.738281 344.339844 C 466.800781 345.402344 468.140625 347.15625 468.464844 349.472656 C 468.917969 352.746094 472.964844 354.027344 473.007812 354.039062 C 473.46875 354.179688 473.722656 354.664062 473.582031 355.121094 C 473.46875 355.496094 473.125 355.734375 472.75 355.734375 " fill-opacity="1" fill-rule="nonzero"/><path fill="#f0f9ff" d="M 639.574219 389.109375 C 639.574219 389.109375 654.8125 423.402344 679.671875 430.40625 C 704.527344 437.410156 721.84375 416.242188 721.734375 394.390625 L 713.277344 391.589844 C 713.277344 391.589844 704.613281 413.984375 685.269531 408.160156 C 665.929688 402.328125 656.957031 356.78125 656.957031 356.78125 L 639.574219 389.109375 " fill-opacity="1" fill-rule="nonzero"/><path fill="#1e293b" d="M 640.539062 389.144531 C 642.308594 392.90625 657.136719 423.15625 679.910156 429.570312 C 692.421875 433.097656 701.375 429.019531 706.675781 424.976562 C 715.339844 418.390625 720.738281 406.957031 720.859375 395.015625 L 713.761719 392.664062 C 712.199219 396.105469 705.054688 409.992188 691.496094 409.992188 C 689.480469 409.992188 687.324219 409.679688 685.015625 408.992188 C 667.730469 403.777344 658.738281 368.792969 656.597656 359.277344 Z M 689.214844 432.65625 C 686.226562 432.65625 682.964844 432.234375 679.433594 431.238281 C 654.472656 424.207031 639.402344 390.875 638.777344 389.464844 C 638.667969 389.222656 638.679688 388.9375 638.804688 388.699219 L 656.191406 356.371094 C 656.367188 356.050781 656.714844 355.871094 657.085938 355.925781 C 657.441406 355.976562 657.730469 356.253906 657.804688 356.613281 C 657.894531 357.066406 666.898438 401.714844 685.523438 407.324219 C 703.855469 412.851562 712.125 392.164062 712.46875 391.277344 C 712.636719 390.847656 713.117188 390.621094 713.550781 390.765625 L 722.003906 393.566406 C 722.355469 393.6875 722.597656 394.011719 722.597656 394.386719 C 722.664062 407.082031 716.960938 419.332031 707.730469 426.363281 C 703.613281 429.496094 697.425781 432.65625 689.214844 432.65625 " fill-opacity="1" fill-rule="nonzero"/><path fill="#f0f9ff" d="M 547.433594 356.023438 C 547.433594 356.023438 562.714844 336.074219 605.902344 339.800781 C 657.464844 344.253906 661.394531 354.4375 661.394531 354.4375 L 647.9375 381.714844 L 663.730469 450.546875 C 663.730469 450.546875 652.9375 459.484375 627.65625 454.46875 C 602.375 449.449219 558.925781 443.289062 547.441406 446.757812 L 563.457031 381.074219 L 547.433594 356.023438 " fill-opacity="1" fill-rule="nonzero"/><path fill="#1e293b" d="M 557.996094 444.882812 C 575.722656 444.882812 606.789062 449.441406 627.828125 453.617188 C 649.71875 457.960938 660.570312 451.675781 662.757812 450.183594 L 647.09375 381.90625 C 647.042969 381.710938 647.070312 381.503906 647.160156 381.324219 L 660.414062 354.480469 C 659.199219 352.875 650.839844 344.550781 605.828125 340.664062 C 567.34375 337.34375 551.148438 353.175781 548.515625 356.097656 L 564.1875 380.605469 C 564.316406 380.804688 564.355469 381.046875 564.300781 381.277344 L 548.625 445.570312 C 550.972656 445.097656 554.175781 444.882812 557.996094 444.882812 Z M 642.320312 456.878906 C 638.0625 456.878906 633.132812 456.4375 627.488281 455.320312 C 601.847656 450.226562 558.753906 444.246094 547.695312 447.585938 C 547.398438 447.675781 547.074219 447.601562 546.84375 447.382812 C 546.621094 447.171875 546.523438 446.855469 546.597656 446.550781 L 562.523438 381.226562 L 546.703125 356.484375 C 546.507812 356.179688 546.527344 355.777344 546.75 355.488281 C 547.386719 354.664062 562.824219 335.207031 605.980469 338.933594 C 657.492188 343.378906 662.039062 353.6875 662.210938 354.125 C 662.296875 354.355469 662.285156 354.605469 662.179688 354.820312 L 648.851562 381.816406 L 664.582031 450.351562 C 664.65625 450.671875 664.539062 451.007812 664.289062 451.214844 C 663.9375 451.507812 657.234375 456.875 642.320312 456.878906 " fill-opacity="1" fill-rule="nonzero"/><path fill="#1e293b" d="M 708.832031 418.027344 L 647.292969 420.515625 C 645.210938 420.515625 643.933594 418.234375 645.019531 416.457031 L 684.875 343.628906 C 685.636719 342.386719 686.992188 341.632812 688.445312 341.632812 L 750.660156 343.054688 L 708.832031 418.027344 " fill-opacity="1" fill-rule="nonzero"/><path fill="#f0f9ff" d="M 713.269531 420.515625 L 646.832031 420.515625 L 690.402344 341.632812 L 756.839844 341.632812 L 713.269531 420.515625 " fill-opacity="1" fill-rule="nonzero"/><g clip-path="url(#f887e10060)"><path fill="#1e293b" d="M 648.304688 419.644531 L 712.753906 419.644531 L 755.367188 342.496094 L 690.921875 342.496094 Z M 713.269531 421.382812 L 646.835938 421.382812 C 646.527344 421.382812 646.242188 421.21875 646.085938 420.957031 C 645.929688 420.691406 645.925781 420.359375 646.078125 420.09375 L 689.644531 341.210938 C 689.800781 340.9375 690.089844 340.761719 690.40625 340.761719 L 756.84375 340.761719 C 757.148438 340.761719 757.429688 340.921875 757.589844 341.183594 C 757.746094 341.453125 757.75 341.78125 757.597656 342.050781 L 714.027344 420.933594 C 713.875 421.210938 713.582031 421.382812 713.269531 421.382812 " fill-opacity="1" fill-rule="nonzero"/></g><path fill="#f0f9ff" d="M 714.792969 418.03125 C 714.792969 418.03125 713.542969 411.488281 714.792969 407.121094 C 716.042969 402.761719 723.78125 389.777344 725.996094 387.066406 C 728.207031 384.347656 730.078125 413.351562 714.792969 418.03125 " fill-opacity="1" fill-rule="nonzero"/><path fill="#1e293b" d="M 726.167969 388.273438 C 723.476562 391.988281 716.734375 403.496094 715.628906 407.363281 C 714.726562 410.492188 715.203125 414.910156 715.488281 416.867188 C 720.839844 414.738281 723.539062 409.289062 724.882812 404.964844 C 727.0625 397.933594 726.792969 390.613281 726.167969 388.273438 Z M 714.792969 418.898438 C 714.640625 418.898438 714.480469 418.855469 714.34375 418.773438 C 714.132812 418.644531 713.988281 418.433594 713.9375 418.191406 C 713.882812 417.914062 712.667969 411.398438 713.953125 406.886719 C 715.214844 402.484375 722.96875 389.398438 725.320312 386.515625 C 725.6875 386.066406 726.191406 385.90625 726.675781 386.085938 C 728.363281 386.714844 728.390625 392.125 728.324219 394.417969 C 728.027344 404.363281 724.378906 416 715.042969 418.859375 C 714.964844 418.882812 714.878906 418.898438 714.792969 418.898438 " fill-opacity="1" fill-rule="nonzero"/><path fill="#1e293b" d="M 481.660156 278.082031 C 473.277344 283.179688 471.960938 292.925781 471.867188 293.734375 C 470.554688 304.785156 478.417969 316.21875 487.007812 317.933594 C 494.351562 319.394531 496.894531 312.671875 506.117188 313.109375 C 516.40625 313.59375 517.421875 322.144531 527.226562 324.300781 C 541.6875 327.480469 547.585938 310.664062 564.191406 311.835938 C 576.976562 312.738281 578.652344 323.070312 592.578125 323.195312 C 594.160156 323.210938 606.632812 323.121094 614.953125 313.453125 C 623.292969 303.757812 623.488281 289.050781 617.304688 279.257812 C 616.671875 278.246094 609.871094 267.777344 600.875 268.035156 C 595.230469 268.195312 594.101562 272.421875 588.734375 272.324219 C 580.46875 272.1875 578.8125 262.101562 571.570312 261.679688 C 563.199219 261.1875 561.34375 274.414062 550.078125 276.285156 C 541.582031 277.703125 539.175781 270.742188 530.046875 272.347656 C 520.582031 274.011719 520.121094 282.015625 512.097656 282.273438 C 504.410156 282.519531 502.296875 275.257812 492.347656 275.195312 C 490.246094 275.183594 485.933594 275.484375 481.660156 278.082031 " fill-opacity="1" fill-rule="nonzero"/><path fill="#f0f9ff" d="M 633.324219 317.597656 C 633.898438 316.691406 631.175781 311.769531 631.082031 309.976562 C 630.984375 308.1875 632.382812 306.683594 632.972656 304.804688 C 633.558594 302.921875 632.902344 299.574219 632.902344 299.574219 C 632.105469 277.128906 607.652344 282.460938 607.652344 282.460938 C 602.039062 284.15625 598.730469 290.460938 597.652344 294.65625 C 595.554688 302.773438 599.414062 312.59375 599.414062 312.59375 C 599.253906 312.960938 595.246094 339.242188 595.070312 339.578125 C 592.527344 344.464844 609.550781 347.65625 614.90625 342.742188 C 616.71875 341.082031 614.402344 328.871094 614.90625 328.863281 C 616.910156 328.804688 619.371094 330.957031 621.898438 330.289062 C 625.625 329.296875 628.429688 319.96875 628.964844 319.277344 C 629.21875 318.945312 630.082031 318.753906 630.980469 318.546875 C 631.980469 318.320312 633.023438 318.074219 633.324219 317.597656 " fill-opacity="1" fill-rule="nonzero"/><path fill="#1e293b" d="M 632.53125 317.269531 Z M 600.246094 312.851562 C 600.109375 313.445312 599.109375 319.816406 598.226562 325.449219 C 595.988281 339.679688 595.953125 339.75 595.832031 339.984375 C 595.695312 340.25 595.324219 340.96875 596.613281 341.957031 C 599.996094 344.546875 610.570312 345.542969 614.320312 342.105469 C 615.195312 341.28125 614.488281 334.710938 614.226562 332.234375 C 613.890625 329.132812 613.863281 328.722656 614.226562 328.300781 C 614.386719 328.125 614.640625 328 614.882812 327.992188 C 615.898438 327.964844 616.882812 328.359375 617.929688 328.765625 C 619.179688 329.261719 620.46875 329.765625 621.671875 329.449219 C 624.167969 328.789062 626.5 322.949219 627.5 320.457031 C 627.933594 319.375 628.09375 318.984375 628.273438 318.75 C 628.707031 318.179688 629.59375 317.980469 630.714844 317.722656 C 631.261719 317.597656 632.222656 317.378906 632.535156 317.171875 C 632.503906 316.605469 631.875 315.023438 631.449219 313.953125 C 630.835938 312.421875 630.261719 310.96875 630.207031 310.027344 C 630.136719 308.683594 630.730469 307.53125 631.300781 306.425781 C 631.617188 305.820312 631.9375 305.191406 632.144531 304.546875 C 632.570312 303.175781 632.222656 300.613281 632.050781 299.742188 C 632.042969 299.695312 632.035156 299.652344 632.035156 299.605469 C 631.824219 293.671875 629.875 289.234375 626.246094 286.417969 C 619.167969 280.921875 607.949219 283.285156 607.835938 283.308594 C 602.402344 284.957031 599.402344 291.355469 598.488281 294.875 C 596.492188 302.617188 600.183594 312.183594 600.21875 312.28125 C 600.292969 312.460938 600.300781 312.664062 600.246094 312.851562 Z M 606.304688 346.042969 C 602.035156 346.042969 597.675781 344.953125 595.558594 343.335938 C 594.03125 342.167969 593.5625 340.691406 594.246094 339.277344 C 594.433594 338.390625 595.585938 331.085938 596.511719 325.183594 C 597.929688 316.136719 598.351562 313.511719 598.511719 312.671875 C 597.914062 311.054688 594.828125 302.117188 596.808594 294.441406 C 597.800781 290.574219 601.160156 283.511719 607.398438 281.628906 C 607.960938 281.503906 619.601562 279.058594 627.3125 285.042969 C 631.355469 288.179688 633.523438 293.035156 633.765625 299.476562 C 633.859375 300 634.398438 303.132812 633.796875 305.066406 C 633.554688 305.851562 633.191406 306.550781 632.84375 307.222656 C 632.335938 308.207031 631.898438 309.058594 631.941406 309.933594 C 631.976562 310.59375 632.554688 312.035156 633.0625 313.3125 C 634.078125 315.859375 634.585938 317.230469 634.054688 318.066406 C 633.589844 318.800781 632.570312 319.078125 631.175781 319.394531 C 630.617188 319.527344 629.875 319.691406 629.636719 319.835938 C 629.535156 320.039062 629.308594 320.601562 629.109375 321.101562 C 627.835938 324.296875 625.460938 330.246094 622.121094 331.128906 C 620.371094 331.59375 618.734375 330.953125 617.292969 330.386719 C 616.746094 330.167969 616.214844 329.957031 615.726562 329.835938 C 615.777344 330.429688 615.863281 331.273438 615.949219 332.046875 C 616.65625 338.640625 616.78125 342.203125 615.492188 343.382812 C 613.445312 345.265625 609.90625 346.042969 606.304688 346.042969 " fill-opacity="1" fill-rule="nonzero"/><path fill="#1e293b" d="M 643.125 283.925781 C 640.667969 281.441406 638.167969 283.925781 628.402344 282.554688 C 620.273438 281.414062 617.929688 279.121094 611.78125 280.140625 C 610.054688 280.421875 606.964844 280.933594 603.914062 283.160156 C 599.398438 286.46875 597.71875 291.105469 596.824219 294.566406 C 595.085938 301.316406 597.265625 309.191406 598.246094 312.171875 C 598.488281 312.90625 599.207031 313.371094 599.972656 313.304688 C 602.023438 313.132812 603.839844 312.859375 605.457031 312.511719 C 606.226562 312.351562 606.664062 311.542969 606.367188 310.8125 C 606.285156 310.613281 606.210938 310.410156 606.152344 310.199219 C 605.34375 307.347656 606.703125 304.464844 609.199219 303.75 C 611.691406 303.042969 614.371094 304.773438 615.183594 307.625 C 615.234375 307.824219 615.28125 308.019531 615.316406 308.214844 C 618.902344 305.5 620.746094 302.425781 624.066406 300.773438 C 624.464844 300.574219 626.207031 299.777344 628.863281 299.683594 C 634.625 299.480469 636.546875 302.894531 639.269531 302.238281 C 644.035156 301.078125 647.539062 288.40625 643.125 283.925781 " fill-opacity="1" fill-rule="nonzero"/><path fill="#f0f9ff" d="M 615.320312 309.085938 C 615.207031 309.085938 615.097656 309.066406 615 309.023438 C 614.71875 308.917969 614.515625 308.667969 614.460938 308.371094 C 614.433594 308.199219 614.394531 308.03125 614.34375 307.863281 C 614.21875 307.398438 614.480469 306.917969 614.941406 306.789062 C 615.175781 306.726562 615.414062 306.761719 615.613281 306.875 C 616.707031 305.964844 617.640625 305.027344 618.546875 304.117188 C 620.128906 302.523438 621.625 301.015625 623.675781 299.992188 C 624.179688 299.742188 626.039062 298.917969 628.835938 298.820312 C 632.226562 298.695312 634.445312 299.789062 636.058594 300.585938 C 637.273438 301.183594 638.148438 301.613281 639.066406 301.394531 C 640.789062 300.976562 642.605469 298.375 643.585938 294.921875 C 644.605469 291.339844 644.667969 286.734375 642.503906 284.539062 C 641.519531 283.542969 640.664062 283.550781 638.109375 283.71875 C 635.917969 283.867188 632.921875 284.066406 628.273438 283.414062 C 625.097656 282.96875 622.828125 282.363281 620.816406 281.820312 C 619.6875 281.519531 618.707031 281.253906 617.707031 281.0625 C 617.242188 280.972656 616.933594 280.515625 617.023438 280.046875 C 617.113281 279.570312 617.574219 279.265625 618.042969 279.355469 C 619.09375 279.5625 620.152344 279.847656 621.265625 280.144531 C 623.230469 280.667969 625.441406 281.265625 628.519531 281.695312 C 632.984375 282.324219 635.878906 282.132812 637.992188 281.988281 C 640.492188 281.820312 642.148438 281.707031 643.738281 283.320312 C 646.578125 286.195312 646.328125 291.625 645.257812 295.402344 C 644.324219 298.664062 642.324219 302.390625 639.476562 303.082031 C 637.945312 303.449219 636.660156 302.816406 635.292969 302.140625 C 633.679688 301.347656 631.839844 300.449219 628.894531 300.550781 C 626.386719 300.644531 624.75 301.398438 624.449219 301.550781 C 622.660156 302.441406 621.320312 303.785156 619.777344 305.339844 C 618.609375 306.515625 617.398438 307.730469 615.839844 308.90625 C 615.6875 309.023438 615.503906 309.085938 615.320312 309.085938 " fill-opacity="1" fill-rule="nonzero"/><path fill="#1e293b" d="M 615.492188 329.730469 C 615.40625 329.730469 615.320312 329.71875 615.226562 329.691406 C 606.417969 326.917969 605.070312 321.121094 605.015625 320.871094 C 604.917969 320.402344 605.214844 319.941406 605.683594 319.835938 C 606.148438 319.738281 606.613281 320.03125 606.710938 320.503906 C 606.757812 320.703125 607.960938 325.585938 615.75 328.035156 C 616.207031 328.179688 616.460938 328.664062 616.316406 329.125 C 616.199219 329.496094 615.859375 329.730469 615.492188 329.730469 " fill-opacity="1" fill-rule="nonzero"/></svg>