<svg xmlns="http://www.w3.org/2000/svg" xmlns:xlink="http://www.w3.org/1999/xlink" width="1080" zoomAndPan="magnify" viewBox="0 0 810 525.000007" height="700" preserveAspectRatio="xMidYMid meet" version="1.0"><path stroke-linecap="butt" transform="matrix(0.538969, 0, 0, 0.538969, 664.926957, 187.307154)" fill-opacity="1" fill="#01baef" fill-rule="nonzero" stroke-linejoin="miter" d="M -153.507058 -176.165556 C -153.507058 -176.165556 -104.600027 -102.732534 -104.600027 -102.732534 C -104.600027 -102.732534 -22.680026 132.873535 -22.680026 132.873535 C -22.680026 132.873535 -14.265524 176.16365 -14.265524 176.16365 C -14.265524 176.16365 69.401157 96.649863 69.401157 96.649863 C 69.401157 96.649863 141.660063 -34.554046 141.660063 -34.554046 C 141.660063 -34.554046 153.509943 -82.127512 153.509943 -82.127512 C 153.509943 -82.127512 97.768394 -125.736522 97.768394 -125.736522 C 97.768394 -125.736522 -73.833823 -170.497907 -73.833823 -170.497907 C -73.833823 -170.497907 -153.507058 -176.165556 -153.507058 -176.165556 Z M -153.507058 -176.165556 " stroke="#1c1d42" stroke-width="1" stroke-opacity="1" stroke-miterlimit="10"/><path stroke-linecap="butt" transform="matrix(0.538969, 0, 0, 0.538969, 283.404791, 313.034624)" fill-opacity="1" fill="#01baef" fill-rule="nonzero" stroke-linejoin="miter" d="M 105.702194 -44.571959 C 105.702194 -44.571959 33.80567 -56.718992 33.80567 -56.718992 C 33.80567 -56.718992 -35.394735 -41.571439 -35.394735 -41.571439 C -35.394735 -41.571439 -77.24257 2.99426 -77.24257 2.99426 C -77.24257 2.99426 -105.704027 49.922686 -105.704027 49.922686 C -105.704027 49.922686 -33.394388 56.720966 -33.394388 56.720966 C -33.394388 56.720966 33.80567 47.342529 33.80567 47.342529 C 33.80567 47.342529 80.66162 7.582012 80.66162 7.582012 C 80.66162 7.582012 105.702194 -44.571959 105.702194 -44.571959 Z M 105.702194 -44.571959 " stroke="#1c1d42" stroke-width="1" stroke-opacity="1" stroke-miterlimit="10"/><path stroke-linecap="butt" transform="matrix(0.538969, 0, 0, 0.538969, 326.741675, 418.463423)" fill-opacity="1" fill="#01baef" fill-rule="nonzero" stroke-linejoin="miter" d="M -32.968534 -71.799669 C -32.968534 -71.799669 -54.407034 4.481674 -54.407034 4.481674 C -54.407034 4.481674 -87.202575 71.797693 -87.202575 71.797693 C -87.202575 71.797693 -17.39337 58.773696 -17.39337 58.773696 C -17.39337 58.773696 40.638431 21.049764 40.638431 21.049764 C 40.638431 21.049764 79.087127 -29.785137 79.087127 -29.785137 C 79.087127 -29.785137 87.197229 -59.283006 87.197229 -59.283006 C 87.197229 -59.283006 -32.968534 -71.799669 -32.968534 -71.799669 Z M -32.968534 -71.799669 " stroke="#1c1d42" stroke-width="1" stroke-opacity="1" stroke-miterlimit="10"/><path stroke-linecap="butt" transform="matrix(0.538969, 0, 0, 0.538969, 240.988461, 218.217038)" fill-opacity="1" fill="#01baef" fill-rule="nonzero" stroke-linejoin="miter" d="M 109.583884 -32.872088 C 109.583884 -32.872088 41.18072 -57.956147 41.18072 -57.956147 C 41.18072 -57.956147 -26.997768 -54.223616 -26.997768 -54.223616 C -26.997768 -54.223616 -92.632337 -21.739723 -92.632337 -21.739723 C -92.632337 -21.739723 -109.584552 -8.143163 -109.584552 -8.143163 C -109.584552 -8.143163 -33.230733 16.810439 -33.230733 16.810439 C -33.230733 16.810439 26.917377 51.07725 26.917377 51.07725 C 26.917377 51.07725 34.628859 57.955255 34.628859 57.955255 C 34.628859 57.955255 109.583884 -32.872088 109.583884 -32.872088 Z M 109.583884 -32.872088 " stroke="#1c1d42" stroke-width="1" stroke-opacity="1" stroke-miterlimit="10"/><path fill="#1c1d42" d="M 231.609375 326.816406 C 229.421875 320.535156 227.46875 314.164062 225.945312 307.628906 C 225.570312 305.996094 225.222656 304.351562 224.917969 302.6875 C 224.613281 301.011719 224.359375 299.304688 224.203125 297.585938 C 223.878906 294.152344 223.890625 290.640625 224.390625 287.148438 C 224.652344 285.40625 224.992188 283.664062 225.539062 281.96875 C 226.027344 280.261719 226.691406 278.601562 227.441406 276.988281 C 228.964844 273.765625 231.007812 270.808594 233.359375 268.195312 C 238.070312 262.941406 243.914062 259.128906 249.449219 255.609375 C 249.449219 255.609375 251.503906 254.28125 251.503906 254.28125 C 251.882812 254.027344 252.394531 253.574219 252.894531 253.054688 C 253.90625 252.011719 254.925781 250.773438 255.925781 249.527344 C 257.925781 247.003906 259.90625 244.363281 261.90625 241.742188 C 265.902344 236.484375 269.988281 231.238281 274.238281 226.132812 C 282.722656 215.898438 291.816406 206.140625 301.484375 196.996094 C 320.765625 178.628906 342.246094 162.652344 364.976562 148.855469 C 376.355469 141.96875 388.050781 135.628906 399.972656 129.753906 C 399.972656 129.753906 404.457031 127.578125 404.457031 127.578125 C 405.953125 126.859375 407.4375 126.109375 408.957031 125.441406 C 408.957031 125.441406 418.035156 121.328125 418.035156 121.328125 C 419.539062 120.625 421.082031 120.007812 422.609375 119.355469 C 422.609375 119.355469 427.199219 117.414062 427.199219 117.414062 C 427.199219 117.414062 431.789062 115.476562 431.789062 115.476562 C 431.789062 115.476562 436.421875 113.65625 436.421875 113.65625 C 439.519531 112.453125 442.589844 111.210938 445.710938 110.042969 C 445.710938 110.042969 450.417969 108.335938 450.417969 108.335938 C 451.988281 107.769531 453.550781 107.183594 455.140625 106.679688 C 455.140625 106.679688 459.894531 105.105469 459.894531 105.105469 C 459.894531 105.105469 462.269531 104.320312 462.269531 104.320312 C 462.269531 104.320312 464.667969 103.597656 464.667969 103.597656 C 467.863281 102.640625 471.050781 101.640625 474.277344 100.796875 C 487.144531 97.25 500.210938 94.433594 513.378906 92.3125 C 516.671875 91.785156 519.980469 91.339844 523.28125 90.859375 C 526.589844 90.472656 529.898438 90.027344 533.214844 89.691406 C 533.214844 89.691406 538.191406 89.199219 538.191406 89.199219 C 538.191406 89.199219 540.683594 88.960938 540.683594 88.960938 C 540.683594 88.960938 543.175781 88.769531 543.175781 88.769531 C 543.175781 88.769531 548.160156 88.390625 548.160156 88.390625 C 549.824219 88.265625 551.488281 88.199219 553.152344 88.101562 C 566.464844 87.363281 579.8125 87.265625 593.132812 87.847656 C 606.453125 88.433594 619.746094 89.605469 632.964844 91.410156 C 646.179688 93.210938 659.324219 95.644531 672.304688 98.847656 C 685.285156 102.042969 698.136719 105.910156 710.667969 110.90625 C 710.667969 110.90625 715.363281 112.808594 715.363281 112.808594 C 716.917969 113.46875 718.457031 114.191406 720.003906 114.878906 C 720.003906 114.878906 722.324219 115.925781 722.324219 115.925781 C 723.09375 116.28125 723.851562 116.683594 724.617188 117.0625 C 726.136719 117.839844 727.671875 118.582031 729.183594 119.390625 C 735.203125 122.722656 741.171875 126.238281 746.597656 131.570312 C 747.945312 132.917969 749.257812 134.410156 750.4375 136.226562 C 750.738281 136.667969 751.011719 137.179688 751.292969 137.660156 C 751.566406 138.152344 751.808594 138.71875 752.054688 139.25 C 752.28125 139.828125 752.496094 140.417969 752.679688 141.042969 C 752.679688 141.042969 752.90625 142.027344 752.90625 142.027344 C 752.941406 142.191406 752.980469 142.351562 753.007812 142.523438 C 753.007812 142.523438 753.070312 143.054688 753.070312 143.054688 C 753.109375 143.410156 753.140625 143.765625 753.167969 144.121094 C 753.167969 144.121094 753.15625 144.882812 753.15625 144.882812 C 753.15625 144.882812 753.117188 146.394531 753.117188 146.394531 C 753.121094 147.425781 752.960938 148.335938 752.855469 149.289062 C 752.855469 149.289062 752.675781 150.707031 752.675781 150.707031 C 752.675781 150.707031 752.410156 152.058594 752.410156 152.058594 C 752.410156 152.058594 752.140625 153.40625 752.140625 153.40625 C 752.054688 153.859375 751.957031 154.304688 751.835938 154.730469 C 750.082031 161.6875 747.539062 168.050781 744.746094 174.226562 C 741.945312 180.398438 738.875 186.371094 735.667969 192.242188 C 732.453125 198.113281 729.097656 203.878906 725.628906 209.5625 C 718.679688 220.929688 711.390625 232.019531 703.675781 242.898438 C 701.734375 245.621094 699.785156 248.316406 697.699219 251.035156 C 697.441406 251.375 697.171875 251.71875 696.890625 252.070312 C 696.890625 252.070312 696.476562 252.589844 696.476562 252.589844 C 696.476562 252.589844 696.269531 252.851562 696.269531 252.851562 C 696.269531 252.851562 696.03125 253.136719 696.03125 253.136719 C 695.40625 253.898438 694.699219 254.652344 694.105469 255.265625 C 692.875 256.53125 691.675781 257.714844 690.460938 258.886719 C 685.613281 263.558594 680.671875 268.023438 675.648438 272.402344 C 665.609375 281.160156 655.25 289.507812 644.636719 297.53125 C 634.03125 305.558594 623.144531 313.21875 611.996094 320.492188 C 600.851562 327.765625 589.441406 334.652344 577.773438 341.097656 C 566.078125 347.492188 554.105469 353.410156 541.871094 358.773438 C 535.777344 361.5 529.546875 363.941406 523.324219 366.375 C 523.324219 366.375 513.878906 369.769531 513.878906 369.769531 C 513.878906 369.769531 512.699219 370.195312 512.699219 370.195312 C 512.699219 370.195312 511.507812 370.582031 511.507812 370.582031 C 511.507812 370.582031 509.125 371.359375 509.125 371.359375 C 509.125 371.359375 504.363281 372.917969 504.363281 372.917969 C 491.621094 376.9375 478.683594 380.339844 465.605469 383.046875 C 452.527344 385.757812 439.320312 387.808594 426.046875 389.222656 C 422.734375 389.613281 419.40625 389.863281 416.082031 390.164062 C 414.421875 390.328125 412.753906 390.410156 411.09375 390.53125 C 409.425781 390.640625 407.765625 390.769531 406.097656 390.859375 C 402.765625 391.011719 399.4375 391.21875 396.101562 391.28125 C 396.101562 391.28125 391.097656 391.417969 391.097656 391.417969 C 391.097656 391.417969 386.097656 391.46875 386.097656 391.46875 C 372.757812 391.566406 359.417969 390.988281 346.132812 389.757812 C 339.492188 389.144531 332.867188 388.355469 326.261719 387.390625 C 319.660156 386.425781 313.074219 385.296875 306.527344 383.933594 C 306.527344 383.933594 304.078125 383.417969 304.078125 383.417969 C 304.078125 383.417969 302.953125 383.183594 302.953125 383.183594 C 302.75 383.140625 302.511719 383.105469 302.242188 383.085938 C 301.175781 383 299.777344 383.109375 298.339844 383.324219 C 295.417969 383.769531 292.285156 384.546875 289.082031 385.328125 C 285.867188 386.101562 282.566406 386.90625 279.089844 387.476562 C 277.335938 387.742188 275.570312 387.992188 273.703125 388.074219 C 271.867188 388.199219 269.921875 388.128906 267.941406 387.890625 C 266.929688 387.703125 265.9375 387.578125 264.90625 387.234375 C 264.90625 387.234375 264.144531 387.007812 264.144531 387.007812 C 264.144531 387.007812 263.761719 386.890625 263.761719 386.890625 C 263.621094 386.835938 263.460938 386.761719 263.308594 386.695312 C 262.714844 386.425781 262.035156 386.136719 261.597656 385.820312 C 259.574219 384.558594 258.226562 383.171875 256.964844 381.789062 C 254.472656 379.011719 252.546875 376.125 250.757812 373.183594 C 247.214844 367.308594 244.386719 361.207031 241.882812 354.992188 C 241.882812 354.992188 241.734375 354.625 241.734375 354.625 C 241.605469 354.296875 241.554688 353.945312 241.574219 353.613281 C 241.574219 353.613281 241.574219 353.609375 241.574219 353.609375 C 241.574219 353.609375 241.886719 354.988281 241.886719 354.988281 C 241.167969 353.046875 240.464844 351.101562 239.789062 349.148438 C 239.113281 347.195312 238.441406 345.246094 237.828125 343.277344 C 237.46875 342.136719 238.105469 340.921875 239.246094 340.566406 C 240.222656 340.261719 241.253906 340.683594 241.753906 341.527344 C 241.753906 341.527344 241.808594 341.617188 241.808594 341.617188 C 242.847656 343.371094 243.832031 345.140625 244.808594 346.910156 C 245.789062 348.675781 246.738281 350.453125 247.675781 352.230469 C 247.847656 352.554688 247.941406 352.898438 247.964844 353.242188 C 247.964844 353.242188 247.988281 353.609375 247.988281 353.609375 C 247.988281 353.609375 247.988281 353.613281 247.988281 353.613281 C 247.988281 353.613281 247.679688 352.238281 247.679688 352.238281 C 249.277344 355.074219 250.878906 357.894531 252.539062 360.660156 C 254.1875 363.429688 255.890625 366.148438 257.664062 368.757812 C 259.4375 371.359375 261.308594 373.894531 263.273438 375.96875 C 263.757812 376.519531 264.25 376.945312 264.734375 377.40625 C 264.734375 377.40625 265.441406 377.96875 265.441406 377.96875 C 265.441406 377.96875 265.613281 378.109375 265.613281 378.109375 C 265.613281 378.109375 265.769531 378.203125 265.769531 378.203125 C 265.769531 378.203125 266.078125 378.398438 266.078125 378.398438 C 266.304688 378.574219 266.414062 378.550781 266.558594 378.644531 C 266.597656 378.664062 266.617188 378.683594 266.667969 378.703125 C 266.667969 378.703125 266.882812 378.757812 266.882812 378.757812 C 266.882812 378.757812 267.304688 378.875 267.304688 378.875 C 267.839844 379.070312 268.492188 379.125 269.097656 379.246094 C 271.660156 379.554688 274.621094 379.28125 277.625 378.769531 C 280.644531 378.246094 283.75 377.460938 286.929688 376.65625 C 290.117188 375.851562 293.375 374.984375 296.960938 374.390625 C 298.777344 374.109375 300.679688 373.878906 302.902344 374.019531 C 303.457031 374.054688 304.039062 374.125 304.644531 374.234375 C 304.644531 374.234375 305.941406 374.492188 305.941406 374.492188 C 305.941406 374.492188 308.328125 374.96875 308.328125 374.96875 C 314.699219 376.222656 321.121094 377.257812 327.566406 378.128906 C 334.011719 378.996094 340.480469 379.699219 346.96875 380.226562 C 359.941406 381.285156 372.96875 381.714844 385.984375 381.480469 C 412.011719 381.054688 437.984375 378.113281 463.40625 372.664062 C 476.121094 369.9375 488.683594 366.539062 501.042969 362.542969 C 501.042969 362.542969 505.664062 360.996094 505.664062 360.996094 C 505.664062 360.996094 507.976562 360.222656 507.976562 360.222656 C 507.976562 360.222656 509.132812 359.835938 509.132812 359.835938 C 509.132812 359.835938 510.273438 359.417969 510.273438 359.417969 C 510.273438 359.417969 519.40625 356.058594 519.40625 356.058594 C 525.441406 353.675781 531.480469 351.289062 537.40625 348.609375 C 549.289062 343.355469 560.949219 337.542969 572.355469 331.253906 C 583.753906 324.945312 594.914062 318.191406 605.832031 311.054688 C 616.746094 303.910156 627.421875 296.386719 637.855469 288.546875 C 648.28125 280.695312 658.472656 272.519531 668.3125 263.96875 C 673.230469 259.703125 678.082031 255.335938 682.730469 250.875 C 683.886719 249.761719 685.03125 248.632812 686.105469 247.535156 C 686.65625 246.96875 687.074219 246.519531 687.496094 246.007812 C 687.496094 246.007812 687.65625 245.820312 687.65625 245.820312 C 687.65625 245.820312 687.832031 245.597656 687.832031 245.597656 C 687.832031 245.597656 688.1875 245.152344 688.1875 245.152344 C 688.421875 244.859375 688.660156 244.554688 688.902344 244.238281 C 690.832031 241.734375 692.753906 239.097656 694.644531 236.457031 C 702.195312 225.851562 709.414062 214.925781 716.234375 203.820312 C 723.023438 192.703125 729.507812 181.375 734.875 169.738281 C 737.546875 163.933594 739.902344 158 741.394531 152.175781 C 741.5 151.8125 741.578125 151.453125 741.644531 151.09375 C 741.644531 151.09375 741.863281 150.023438 741.863281 150.023438 C 741.863281 150.023438 742.085938 148.949219 742.085938 148.949219 C 742.085938 148.949219 742.214844 147.917969 742.214844 147.917969 C 742.292969 147.234375 742.433594 146.515625 742.414062 145.898438 C 742.414062 145.898438 742.445312 144.9375 742.445312 144.9375 C 742.445312 144.9375 742.464844 144.464844 742.464844 144.464844 C 742.449219 144.410156 742.441406 144.355469 742.441406 144.300781 C 742.425781 143.863281 742.085938 142.96875 741.46875 142.023438 C 740.863281 141.070312 740.007812 140.054688 739.027344 139.074219 C 738.050781 138.09375 736.976562 137.125 735.804688 136.203125 C 734.652344 135.269531 733.417969 134.386719 732.15625 133.515625 C 730.878906 132.664062 729.59375 131.808594 728.230469 131.027344 C 728.230469 131.027344 724.148438 128.679688 724.148438 128.679688 C 722.757812 127.933594 721.328125 127.230469 719.917969 126.503906 C 719.210938 126.148438 718.515625 125.769531 717.792969 125.433594 C 717.792969 125.433594 715.609375 124.4375 715.609375 124.4375 C 714.152344 123.78125 712.710938 123.097656 711.238281 122.460938 C 711.238281 122.460938 706.777344 120.632812 706.777344 120.632812 C 694.847656 115.808594 682.417969 111.992188 669.828125 108.835938 C 666.667969 108.09375 663.511719 107.320312 660.347656 106.597656 C 660.347656 106.597656 650.800781 104.59375 650.800781 104.59375 C 650.800781 104.59375 641.203125 102.855469 641.203125 102.855469 C 638 102.300781 634.773438 101.855469 631.558594 101.351562 C 618.675781 99.503906 605.699219 98.269531 592.695312 97.605469 C 579.6875 96.949219 566.648438 96.953125 553.644531 97.582031 C 540.640625 98.21875 527.660156 99.449219 514.792969 101.414062 C 501.929688 103.367188 489.167969 105.996094 476.597656 109.339844 C 473.441406 110.132812 470.328125 111.078125 467.207031 111.984375 C 467.207031 111.984375 464.867188 112.664062 464.867188 112.664062 C 464.867188 112.664062 462.542969 113.410156 462.542969 113.410156 C 462.542969 113.410156 457.898438 114.898438 457.898438 114.898438 C 456.34375 115.378906 454.820312 115.9375 453.285156 116.472656 C 453.285156 116.472656 448.683594 118.089844 448.683594 118.089844 C 445.621094 119.207031 442.574219 120.410156 439.519531 121.566406 C 439.519531 121.566406 434.941406 123.316406 434.941406 123.316406 C 434.941406 123.316406 430.40625 125.183594 430.40625 125.183594 C 430.40625 125.183594 425.875 127.046875 425.875 127.046875 C 424.367188 127.679688 422.84375 128.269531 421.355469 128.949219 C 421.355469 128.949219 412.390625 132.910156 412.390625 132.910156 C 410.890625 133.554688 409.425781 134.28125 407.949219 134.972656 C 407.949219 134.972656 403.519531 137.066406 403.519531 137.066406 C 391.734375 142.707031 380.171875 148.804688 368.925781 155.441406 C 357.679688 162.078125 346.777344 169.28125 336.261719 177.011719 C 325.753906 184.75 315.675781 193.0625 306.082031 201.902344 C 296.476562 210.734375 287.433594 220.167969 278.953125 230.101562 C 274.699219 235.0625 270.613281 240.160156 266.5625 245.335938 C 264.527344 247.925781 262.519531 250.53125 260.386719 253.136719 C 259.308594 254.445312 258.222656 255.746094 256.917969 257.050781 C 256.261719 257.699219 255.554688 258.367188 254.554688 259.019531 C 254.554688 259.019531 252.4375 260.347656 252.4375 260.347656 C 249.628906 262.085938 246.902344 263.78125 244.335938 265.644531 C 241.773438 267.503906 239.382812 269.519531 237.296875 271.777344 C 235.207031 274.03125 233.4375 276.527344 232.105469 279.246094 C 231.449219 280.609375 230.863281 282.007812 230.421875 283.460938 C 229.921875 284.894531 229.609375 286.394531 229.347656 287.902344 C 228.863281 290.929688 228.789062 294.050781 229.023438 297.175781 C 229.140625 298.742188 229.34375 300.300781 229.597656 301.871094 C 229.859375 303.453125 230.164062 305.039062 230.5 306.621094 C 231.855469 312.949219 233.65625 319.230469 235.691406 325.429688 C 235.691406 325.429688 235.695312 325.433594 235.695312 325.433594 C 236.066406 326.5625 235.449219 327.78125 234.320312 328.15625 C 233.199219 328.523438 231.996094 327.921875 231.609375 326.816406 Z M 231.609375 326.816406 " fill-opacity="1" fill-rule="nonzero"/><path fill="#1c1d42" d="M 582.191406 90.203125 C 582.191406 90.203125 582.195312 90.203125 582.195312 90.203125 C 582.761719 90.160156 583.285156 90.382812 583.648438 90.761719 C 583.648438 90.761719 583.84375 90.96875 583.84375 90.96875 C 585.328125 92.535156 586.804688 94.121094 588.265625 95.71875 C 588.265625 95.71875 592.476562 100.664062 592.476562 100.664062 C 592.476562 100.664062 596.46875 105.785156 596.46875 105.785156 C 597.785156 107.503906 599.03125 109.269531 600.289062 111.03125 C 605.242188 118.128906 609.835938 125.480469 613.980469 133.0625 C 615.058594 134.941406 616.03125 136.867188 617.023438 138.785156 C 618.011719 140.703125 619.015625 142.617188 619.964844 144.554688 C 619.964844 144.554688 622.738281 150.40625 622.738281 150.40625 C 622.738281 150.40625 624.109375 153.335938 624.109375 153.335938 C 624.109375 153.335938 625.40625 156.300781 625.40625 156.300781 C 627.132812 160.25 628.84375 164.210938 630.394531 168.226562 C 630.394531 168.226562 632.753906 174.242188 632.753906 174.242188 C 633.511719 176.257812 634.226562 178.289062 634.960938 180.308594 C 634.960938 180.308594 637.140625 186.386719 637.140625 186.386719 C 637.140625 186.386719 639.15625 192.511719 639.15625 192.511719 C 639.15625 192.511719 641.140625 198.648438 641.140625 198.648438 C 641.140625 198.648438 642.972656 204.824219 642.972656 204.824219 C 642.972656 204.824219 644.800781 211.003906 644.800781 211.003906 C 645.113281 212.03125 645.382812 213.070312 645.664062 214.105469 C 645.664062 214.105469 646.496094 217.214844 646.496094 217.214844 C 646.496094 217.214844 648.125 223.441406 648.125 223.441406 C 648.394531 224.480469 648.679688 225.515625 648.929688 226.558594 C 648.929688 226.558594 649.675781 229.6875 649.675781 229.6875 C 650.671875 233.855469 651.660156 238.03125 652.578125 242.214844 C 653.476562 246.40625 654.367188 250.59375 655.15625 254.804688 C 656.761719 263.21875 658.195312 271.660156 659.351562 280.144531 C 659.515625 281.324219 658.691406 282.414062 657.507812 282.574219 C 656.410156 282.726562 655.390625 282.019531 655.121094 280.972656 C 650.898438 264.472656 646.699219 248.015625 641.90625 231.753906 C 641.90625 231.753906 641.042969 228.695312 641.042969 228.695312 C 640.753906 227.675781 640.425781 226.667969 640.121094 225.65625 C 640.121094 225.65625 638.257812 219.582031 638.257812 219.582031 C 637.625 217.5625 637.070312 215.519531 636.414062 213.507812 C 636.414062 213.507812 634.460938 207.46875 634.460938 207.46875 C 634.460938 207.46875 632.507812 201.4375 632.507812 201.4375 C 632.507812 201.4375 630.421875 195.449219 630.421875 195.449219 C 630.421875 195.449219 628.363281 189.457031 628.363281 189.457031 C 628.363281 189.457031 626.167969 183.519531 626.167969 183.519531 C 625.433594 181.539062 624.726562 179.550781 623.976562 177.578125 C 623.976562 177.578125 621.652344 171.699219 621.652344 171.699219 C 621.652344 171.699219 620.5 168.753906 620.5 168.753906 C 620.5 168.753906 619.921875 167.28125 619.921875 167.28125 C 619.921875 167.28125 619.308594 165.824219 619.308594 165.824219 C 619.308594 165.824219 616.867188 159.996094 616.867188 159.996094 C 616.867188 159.996094 615.648438 157.082031 615.648438 157.082031 C 615.648438 157.082031 614.355469 154.203125 614.355469 154.203125 C 614.355469 154.203125 611.800781 148.429688 611.800781 148.429688 C 611.800781 148.429688 609.109375 142.722656 609.109375 142.722656 C 609.109375 142.722656 607.765625 139.867188 607.765625 139.867188 C 607.332031 138.90625 606.824219 137.988281 606.363281 137.042969 C 598.910156 121.972656 590.488281 107.386719 580.550781 93.753906 C 580.550781 93.753906 582.195312 94.515625 582.195312 94.515625 C 582.195312 94.515625 582.191406 94.515625 582.191406 94.515625 C 581 94.425781 580.105469 93.390625 580.195312 92.199219 C 580.277344 91.117188 581.140625 90.28125 582.191406 90.203125 Z M 582.191406 90.203125 " fill-opacity="1" fill-rule="nonzero"/><path fill="#1c1d42" d="M 254.628906 256.902344 C 254.945312 260.335938 255.285156 263.761719 255.675781 267.175781 C 256.085938 270.59375 256.535156 274 257.042969 277.402344 C 257.566406 280.800781 258.121094 284.191406 258.734375 287.578125 C 259.335938 290.964844 259.972656 294.347656 260.605469 297.742188 C 260.605469 297.742188 260.609375 297.746094 260.609375 297.746094 C 260.828125 298.917969 260.054688 300.046875 258.882812 300.265625 C 257.789062 300.46875 256.734375 299.8125 256.421875 298.773438 C 255.390625 295.40625 254.519531 291.992188 253.78125 288.550781 C 253.050781 285.109375 252.429688 281.640625 251.941406 278.152344 C 251.4375 274.667969 251.042969 271.164062 250.78125 267.652344 C 250.5 264.144531 250.335938 260.625 250.324219 257.105469 C 250.320312 255.914062 251.28125 254.941406 252.472656 254.9375 C 253.597656 254.933594 254.523438 255.792969 254.628906 256.890625 C 254.628906 256.890625 254.628906 256.902344 254.628906 256.902344 Z M 254.628906 256.902344 " fill-opacity="1" fill-rule="nonzero"/><path fill="#1c1d42" d="M 277.085938 342.652344 C 277.085938 342.652344 282.335938 351.488281 282.335938 351.488281 C 282.335938 351.488281 284.972656 355.886719 284.972656 355.886719 C 284.972656 355.886719 287.644531 360.257812 287.644531 360.257812 C 287.644531 360.257812 293.074219 368.953125 293.074219 368.953125 C 294.871094 371.867188 296.703125 374.757812 298.425781 377.746094 C 298.425781 377.746094 298.425781 377.75 298.425781 377.75 C 299.023438 378.785156 298.667969 380.113281 297.632812 380.710938 C 296.730469 381.230469 295.613281 381.027344 294.941406 380.289062 C 292.585938 377.6875 290.453125 374.914062 288.402344 372.078125 C 286.386719 369.222656 284.453125 366.300781 282.667969 363.289062 C 281.761719 361.792969 280.882812 360.277344 280.039062 358.746094 C 279.183594 357.21875 278.367188 355.671875 277.574219 354.113281 C 275.992188 350.988281 274.507812 347.816406 273.21875 344.558594 C 273.21875 344.558594 273.214844 344.550781 273.214844 344.550781 C 272.777344 343.441406 273.320312 342.183594 274.429688 341.746094 C 275.433594 341.347656 276.550781 341.753906 277.085938 342.652344 Z M 277.085938 342.652344 " fill-opacity="1" fill-rule="nonzero"/><path fill="#1c1d42" d="M 299.671875 204.605469 C 295.238281 201.84375 290.597656 199.40625 285.808594 197.316406 C 281.007812 195.253906 276.066406 193.53125 271.019531 192.230469 C 260.925781 189.664062 250.414062 188.8125 240.082031 189.949219 C 234.917969 190.507812 229.804688 191.550781 224.804688 193.015625 C 219.804688 194.496094 214.949219 196.460938 210.238281 198.738281 C 210.238281 198.738281 208.476562 199.609375 208.476562 199.609375 C 207.890625 199.902344 207.296875 200.183594 206.730469 200.515625 C 206.730469 200.515625 203.292969 202.429688 203.292969 202.429688 C 202.148438 203.078125 201.054688 203.808594 199.929688 204.488281 C 199.929688 204.488281 198.253906 205.53125 198.253906 205.53125 C 198.253906 205.53125 196.625 206.648438 196.625 206.648438 C 196.625 206.648438 193.375 208.890625 193.375 208.890625 C 193.375 208.890625 190.214844 211.28125 190.214844 211.28125 C 189.691406 211.683594 189.160156 212.070312 188.644531 212.484375 C 188.644531 212.484375 187.117188 213.75 187.117188 213.75 C 187.117188 213.75 184.058594 216.277344 184.058594 216.277344 C 184.058594 216.277344 182.644531 210.660156 182.644531 210.660156 C 186.257812 211.558594 189.71875 212.539062 193.214844 213.578125 C 194.957031 214.101562 196.691406 214.644531 198.425781 215.1875 C 200.152344 215.757812 201.882812 216.308594 203.605469 216.894531 C 210.488281 219.230469 217.292969 221.804688 223.964844 224.734375 C 230.636719 227.660156 237.191406 230.898438 243.5 234.628906 C 243.5 234.628906 248.167969 237.546875 248.167969 237.546875 C 249.691406 238.574219 251.179688 239.667969 252.683594 240.726562 C 255.675781 242.871094 258.511719 245.285156 261.15625 247.910156 C 262 248.75 262.007812 250.113281 261.167969 250.960938 C 260.34375 251.792969 259.011719 251.808594 258.164062 251.011719 C 258.164062 251.011719 258.144531 250.996094 258.144531 250.996094 C 255.621094 248.621094 252.90625 246.410156 249.996094 244.441406 C 248.535156 243.46875 247.09375 242.464844 245.613281 241.519531 C 245.613281 241.519531 241.0625 238.828125 241.0625 238.828125 C 234.890625 235.390625 228.445312 232.402344 221.867188 229.714844 C 215.292969 227.023438 208.5625 224.671875 201.761719 222.554688 C 200.066406 222.023438 198.355469 221.527344 196.648438 221.011719 C 194.9375 220.523438 193.226562 220.03125 191.507812 219.566406 C 188.085938 218.636719 184.597656 217.75 181.207031 216.996094 C 181.207031 216.996094 181.164062 216.984375 181.164062 216.984375 C 179.429688 216.597656 178.335938 214.878906 178.722656 213.144531 C 178.882812 212.425781 179.269531 211.816406 179.792969 211.378906 C 179.792969 211.378906 182.96875 208.710938 182.96875 208.710938 C 182.96875 208.710938 184.558594 207.375 184.558594 207.375 C 185.09375 206.941406 185.652344 206.527344 186.199219 206.105469 C 186.199219 206.105469 189.496094 203.574219 189.496094 203.574219 C 189.496094 203.574219 192.902344 201.183594 192.902344 201.183594 C 192.902344 201.183594 194.613281 199.996094 194.613281 199.996094 C 194.613281 199.996094 196.375 198.882812 196.375 198.882812 C 197.558594 198.152344 198.710938 197.375 199.917969 196.679688 C 199.917969 196.679688 203.550781 194.621094 203.550781 194.621094 C 204.152344 194.265625 204.78125 193.960938 205.402344 193.644531 C 205.402344 193.644531 207.269531 192.703125 207.269531 192.703125 C 212.273438 190.238281 217.464844 188.097656 222.832031 186.46875 C 228.203125 184.847656 233.722656 183.683594 239.308594 183.039062 C 250.484375 181.726562 261.886719 182.574219 272.773438 185.261719 C 278.214844 186.625 283.535156 188.433594 288.6875 190.609375 C 293.832031 192.8125 298.808594 195.382812 303.578125 198.308594 C 305.324219 199.378906 305.871094 201.660156 304.800781 203.40625 C 303.730469 205.152344 301.449219 205.699219 299.703125 204.628906 C 299.703125 204.628906 299.683594 204.613281 299.683594 204.613281 C 299.683594 204.613281 299.671875 204.605469 299.671875 204.605469 Z M 299.671875 204.605469 " fill-opacity="1" fill-rule="nonzero"/><path fill="#1c1d42" d="M 311.601562 380.367188 C 311.601562 380.367188 308.894531 391.9375 308.894531 391.9375 C 308.894531 391.9375 308.980469 391.25 308.980469 391.25 C 308.980469 391.25 308.980469 391.257812 308.980469 391.257812 C 308.984375 391.476562 308.957031 391.691406 308.910156 391.898438 C 308.910156 391.898438 308.894531 391.945312 308.894531 391.945312 C 306.003906 403.566406 302.71875 415.109375 298.636719 426.449219 C 296.585938 432.117188 294.339844 437.734375 291.726562 443.238281 C 289.097656 448.730469 286.140625 454.136719 282.324219 459.175781 C 282.324219 459.175781 280.003906 453.898438 280.003906 453.898438 C 280.003906 453.898438 280.40625 453.921875 280.40625 453.921875 C 280.40625 453.921875 280.859375 453.945312 280.859375 453.945312 C 281.171875 453.957031 281.476562 453.972656 281.792969 453.976562 C 282.421875 453.992188 283.054688 453.992188 283.691406 453.988281 C 284.964844 453.976562 286.246094 453.929688 287.527344 453.855469 C 290.09375 453.691406 292.660156 453.425781 295.21875 453.046875 C 300.328125 452.292969 305.382812 451.09375 310.316406 449.519531 C 315.25 447.941406 320.050781 445.957031 324.667969 443.597656 C 324.667969 443.597656 326.390625 442.699219 326.390625 442.699219 C 326.96875 442.40625 327.539062 442.101562 328.09375 441.761719 C 329.210938 441.105469 330.335938 440.460938 331.449219 439.792969 C 331.449219 439.792969 334.707031 437.664062 334.707031 437.664062 C 335.257812 437.324219 335.773438 436.925781 336.300781 436.546875 C 336.300781 436.546875 337.875 435.402344 337.875 435.402344 C 338.394531 435.015625 338.933594 434.648438 339.441406 434.242188 C 339.441406 434.242188 340.953125 433.015625 340.953125 433.015625 C 340.953125 433.015625 342.46875 431.789062 342.46875 431.789062 C 342.71875 431.585938 342.976562 431.386719 343.222656 431.171875 C 343.222656 431.171875 343.945312 430.519531 343.945312 430.519531 C 343.945312 430.519531 346.847656 427.910156 346.847656 427.910156 C 347.785156 427.007812 348.6875 426.070312 349.613281 425.152344 C 350.070312 424.691406 350.539062 424.234375 350.988281 423.765625 C 350.988281 423.765625 352.289062 422.308594 352.289062 422.308594 C 353.152344 421.332031 354.042969 420.375 354.886719 419.382812 C 354.886719 419.382812 357.335938 416.324219 357.335938 416.324219 C 357.738281 415.8125 358.164062 415.316406 358.546875 414.789062 C 358.546875 414.789062 359.6875 413.195312 359.6875 413.195312 C 365.828125 404.726562 370.859375 395.429688 374.863281 385.6875 C 374.863281 385.6875 374.863281 385.683594 374.863281 385.683594 C 375.316406 384.582031 376.578125 384.054688 377.679688 384.507812 C 378.769531 384.957031 379.292969 386.195312 378.867188 387.289062 C 374.925781 397.371094 369.902344 407.085938 363.652344 416.023438 C 363.652344 416.023438 362.492188 417.707031 362.492188 417.707031 C 362.101562 418.265625 361.664062 418.792969 361.253906 419.335938 C 361.253906 419.335938 358.746094 422.574219 358.746094 422.574219 C 357.882812 423.632812 356.96875 424.648438 356.082031 425.691406 C 356.082031 425.691406 354.742188 427.242188 354.742188 427.242188 C 354.277344 427.742188 353.796875 428.230469 353.324219 428.722656 C 352.371094 429.707031 351.4375 430.707031 350.464844 431.671875 C 350.464844 431.671875 347.460938 434.472656 347.460938 434.472656 C 347.460938 434.472656 346.710938 435.175781 346.710938 435.175781 C 346.457031 435.402344 346.1875 435.621094 345.925781 435.839844 C 345.925781 435.839844 344.351562 437.164062 344.351562 437.164062 C 344.351562 437.164062 342.777344 438.484375 342.777344 438.484375 C 342.25 438.921875 341.6875 439.316406 341.144531 439.738281 C 341.144531 439.738281 339.5 440.976562 339.5 440.976562 C 338.949219 441.386719 338.414062 441.816406 337.835938 442.1875 C 337.835938 442.1875 334.425781 444.5 334.425781 444.5 C 333.265625 445.230469 332.082031 445.933594 330.914062 446.648438 C 330.332031 447.015625 329.730469 447.347656 329.125 447.675781 C 329.125 447.675781 327.3125 448.660156 327.3125 448.660156 C 322.464844 451.246094 317.402344 453.441406 312.191406 455.210938 C 306.980469 456.972656 301.632812 458.339844 296.191406 459.242188 C 293.472656 459.695312 290.730469 460.027344 287.96875 460.25 C 286.585938 460.355469 285.199219 460.433594 283.804688 460.46875 C 283.105469 460.484375 282.40625 460.496094 281.695312 460.492188 C 281.347656 460.492188 280.984375 460.480469 280.625 460.476562 C 280.625 460.476562 280.078125 460.457031 280.078125 460.457031 C 280.078125 460.457031 279.484375 460.425781 279.484375 460.425781 C 277.683594 460.289062 276.335938 458.71875 276.472656 456.921875 C 276.523438 456.253906 276.769531 455.648438 277.152344 455.15625 C 277.152344 455.15625 277.164062 455.144531 277.164062 455.144531 C 280.601562 450.734375 283.480469 445.691406 286.054688 440.488281 C 288.621094 435.273438 290.878906 429.855469 292.953125 424.355469 C 297.089844 413.347656 300.492188 402.007812 303.507812 390.570312 C 303.507812 390.570312 303.421875 391.257812 303.421875 391.257812 C 303.421875 391.257812 303.421875 391.25 303.421875 391.25 C 303.421875 391.25 303.421875 391.246094 303.421875 391.246094 C 303.421875 391.015625 303.453125 390.78125 303.507812 390.566406 C 303.507812 390.566406 306.339844 379.167969 306.339844 379.167969 C 306.339844 379.167969 306.355469 379.101562 306.355469 379.101562 C 306.71875 377.652344 308.179688 376.773438 309.625 377.132812 C 311.058594 377.488281 311.9375 378.933594 311.601562 380.367188 Z M 311.601562 380.367188 " fill-opacity="1" fill-rule="nonzero"/><path fill="#1c1d42" d="M 343.871094 286.964844 C 344.152344 287.492188 344.363281 288.1875 344.390625 288.871094 C 344.410156 289.214844 344.386719 289.550781 344.335938 289.855469 C 344.335938 289.855469 344.304688 290.035156 344.304688 290.035156 C 344.304688 290.035156 344.238281 290.34375 344.238281 290.34375 C 344.195312 290.554688 344.148438 290.757812 344.101562 290.949219 C 344.007812 291.339844 343.917969 291.738281 343.8125 292.117188 C 343.617188 292.882812 343.398438 293.636719 343.167969 294.382812 C 342.714844 295.875 342.203125 297.335938 341.65625 298.78125 C 340.550781 301.667969 339.253906 304.464844 337.832031 307.195312 C 334.910156 312.609375 331.371094 317.695312 327.226562 322.246094 C 323.082031 326.792969 318.320312 330.769531 313.167969 334.085938 C 308 337.386719 302.417969 339.96875 296.675781 341.921875 C 293.824219 342.980469 290.867188 343.648438 287.949219 344.429688 C 287.949219 344.429688 283.503906 345.285156 283.503906 345.285156 C 282.765625 345.410156 282.027344 345.59375 281.28125 345.679688 C 281.28125 345.679688 279.046875 345.957031 279.046875 345.957031 C 277.554688 346.128906 276.066406 346.359375 274.574219 346.476562 C 274.574219 346.476562 270.089844 346.75 270.089844 346.75 C 269.34375 346.789062 268.597656 346.851562 267.847656 346.875 C 267.847656 346.875 265.609375 346.875 265.609375 346.875 C 265.609375 346.875 261.136719 346.875 261.136719 346.875 C 260.386719 346.894531 259.648438 346.8125 258.90625 346.78125 C 258.90625 346.78125 256.675781 346.65625 256.675781 346.65625 C 255.191406 346.5625 253.703125 346.503906 252.226562 346.378906 C 252.226562 346.378906 247.800781 345.886719 247.800781 345.886719 C 247.800781 345.886719 245.589844 345.640625 245.589844 345.640625 C 244.851562 345.558594 244.113281 345.488281 243.386719 345.351562 C 243.386719 345.351562 239.003906 344.636719 239.003906 344.636719 C 239.003906 344.636719 236.816406 344.28125 236.816406 344.28125 C 236.085938 344.15625 235.351562 344.058594 234.632812 343.890625 C 234.632812 343.890625 225.96875 342.046875 225.96875 342.046875 C 225.96875 342.046875 225.953125 342.046875 225.953125 342.046875 C 224.804688 341.800781 224.070312 340.667969 224.316406 339.519531 C 224.339844 339.398438 224.382812 339.269531 224.425781 339.160156 C 224.425781 339.160156 224.425781 339.15625 224.425781 339.15625 C 225 337.683594 225.589844 336.363281 226.222656 335.003906 C 226.851562 333.65625 227.511719 332.328125 228.195312 331.011719 C 229.566406 328.382812 231.035156 325.808594 232.605469 323.296875 C 235.738281 318.265625 239.25 313.457031 243.152344 308.960938 C 247.054688 304.464844 251.347656 300.277344 256.042969 296.539062 C 260.738281 292.808594 265.835938 289.535156 271.253906 286.859375 C 276.683594 284.21875 282.425781 282.140625 288.34375 280.816406 C 289.820312 280.460938 291.316406 280.207031 292.804688 279.925781 C 294.304688 279.707031 295.800781 279.453125 297.3125 279.316406 C 298.816406 279.128906 300.328125 279.039062 301.84375 278.933594 C 302.597656 278.886719 303.355469 278.878906 304.113281 278.847656 C 304.867188 278.820312 305.625 278.796875 306.382812 278.8125 C 306.382812 278.8125 308.652344 278.828125 308.652344 278.828125 C 308.652344 278.828125 310.917969 278.921875 310.917969 278.921875 C 310.917969 278.921875 312.050781 278.96875 312.050781 278.96875 C 312.050781 278.96875 313.179688 279.058594 313.179688 279.058594 C 313.179688 279.058594 315.4375 279.238281 315.4375 279.238281 C 318.4375 279.566406 321.433594 279.953125 324.382812 280.535156 C 325.125 280.679688 325.867188 280.808594 326.601562 280.964844 C 326.601562 280.964844 328.800781 281.460938 328.800781 281.460938 C 330.273438 281.765625 331.714844 282.183594 333.171875 282.550781 C 334.621094 282.929688 336.050781 283.386719 337.488281 283.804688 C 337.488281 283.804688 337.761719 283.882812 337.761719 283.882812 C 337.761719 283.882812 338.167969 284.019531 338.167969 284.019531 C 338.457031 284.121094 338.746094 284.226562 339.035156 284.339844 C 339.609375 284.566406 340.1875 284.820312 340.75 285.101562 C 341.878906 285.660156 342.933594 286.316406 343.871094 286.964844 Z M 336.878906 291.0625 C 336.445312 291.234375 336.125 291.417969 335.882812 291.503906 C 335.761719 291.546875 335.652344 291.566406 335.542969 291.554688 C 335.488281 291.546875 335.433594 291.535156 335.378906 291.515625 C 335.378906 291.515625 335.273438 291.480469 335.273438 291.480469 C 335.273438 291.480469 335.023438 291.398438 335.023438 291.398438 C 333.6875 290.972656 332.359375 290.503906 331.011719 290.117188 C 329.664062 289.738281 328.324219 289.304688 326.960938 288.984375 C 326.960938 288.984375 324.925781 288.46875 324.925781 288.46875 C 324.246094 288.300781 323.558594 288.167969 322.878906 288.015625 C 320.148438 287.394531 317.390625 286.964844 314.625 286.585938 C 314.625 286.585938 312.550781 286.363281 312.550781 286.363281 C 312.550781 286.363281 311.511719 286.253906 311.511719 286.253906 C 311.511719 286.253906 310.46875 286.179688 310.46875 286.179688 C 310.46875 286.179688 308.386719 286.035156 308.386719 286.035156 C 308.386719 286.035156 306.304688 285.96875 306.304688 285.96875 C 305.609375 285.933594 304.914062 285.933594 304.21875 285.941406 C 303.523438 285.953125 302.828125 285.9375 302.136719 285.964844 C 300.75 286.023438 299.359375 286.066406 297.980469 286.199219 C 296.59375 286.289062 295.222656 286.488281 293.84375 286.644531 C 292.472656 286.867188 291.097656 287.058594 289.742188 287.351562 C 284.292969 288.410156 278.992188 290.171875 273.917969 292.464844 C 268.859375 294.796875 264.042969 297.699219 259.550781 301.070312 C 255.066406 304.449219 250.902344 308.289062 247.078125 312.460938 C 243.253906 316.628906 239.769531 321.136719 236.632812 325.878906 C 235.0625 328.25 233.585938 330.683594 232.203125 333.167969 C 231.511719 334.410156 230.847656 335.664062 230.210938 336.929688 C 229.585938 338.183594 228.957031 339.503906 228.445312 340.722656 C 228.445312 340.722656 228.445312 340.726562 228.445312 340.726562 C 228.445312 340.726562 226.902344 337.839844 226.902344 337.839844 C 226.902344 337.839844 235.429688 339.410156 235.429688 339.410156 C 236.136719 339.558594 236.855469 339.632812 237.566406 339.734375 C 237.566406 339.734375 239.710938 340.023438 239.710938 340.023438 C 239.710938 340.023438 243.996094 340.605469 243.996094 340.605469 C 244.710938 340.71875 245.425781 340.769531 246.144531 340.828125 C 246.144531 340.828125 248.292969 341.007812 248.292969 341.007812 C 248.292969 341.007812 252.59375 341.371094 252.59375 341.371094 C 254.027344 341.453125 255.460938 341.46875 256.894531 341.519531 C 256.894531 341.519531 259.042969 341.582031 259.042969 341.582031 C 259.761719 341.59375 260.476562 341.65625 261.191406 341.617188 C 261.191406 341.617188 265.480469 341.5 265.480469 341.5 C 265.480469 341.5 267.621094 341.441406 267.621094 341.441406 C 268.335938 341.398438 269.042969 341.320312 269.753906 341.265625 C 269.753906 341.265625 274.011719 340.890625 274.011719 340.890625 C 275.421875 340.738281 276.820312 340.480469 278.226562 340.28125 C 278.226562 340.28125 280.332031 339.964844 280.332031 339.964844 C 281.035156 339.867188 281.714844 339.675781 282.410156 339.535156 C 282.410156 339.535156 286.550781 338.625 286.550781 338.625 C 289.253906 337.816406 291.992188 337.128906 294.59375 336.074219 C 299.855469 334.125 304.886719 331.625 309.492188 328.507812 C 314.082031 325.371094 318.269531 321.675781 321.882812 317.484375 C 325.5 313.292969 328.554688 308.632812 331.050781 303.699219 C 332.261719 301.210938 333.355469 298.671875 334.273438 296.074219 C 334.722656 294.773438 335.140625 293.464844 335.503906 292.152344 C 335.683594 291.496094 335.855469 290.839844 336.003906 290.191406 C 336.085938 289.859375 336.144531 289.542969 336.214844 289.222656 C 336.25 289.058594 336.28125 288.90625 336.308594 288.757812 C 336.308594 288.757812 336.347656 288.53125 336.347656 288.53125 C 336.347656 288.53125 336.355469 288.5 336.355469 288.5 C 336.347656 288.535156 336.375 288.378906 336.339844 288.574219 C 336.300781 288.835938 336.285156 289.125 336.3125 289.421875 C 336.359375 290.019531 336.582031 290.621094 336.878906 291.0625 Z M 336.878906 291.0625 " fill-opacity="1" fill-rule="nonzero"/><path fill="#1c1d42" d="M 528.160156 175.976562 C 531.03125 175.621094 533.886719 175.566406 536.707031 175.753906 C 539.53125 175.929688 542.328125 176.320312 545.085938 176.898438 C 550.597656 178.0625 555.976562 179.964844 560.96875 182.742188 C 565.941406 185.515625 570.546875 189.246094 573.976562 194.023438 C 575.6875 196.40625 577.085938 199.035156 578.09375 201.804688 C 578.351562 202.492188 578.550781 203.203125 578.777344 203.902344 C 578.988281 204.605469 579.15625 205.335938 579.320312 206.054688 C 579.609375 207.492188 579.84375 208.933594 579.964844 210.375 C 580.484375 216.128906 579.933594 221.859375 578.574219 227.398438 C 577.203125 232.929688 574.984375 238.304688 571.753906 243.105469 C 570.144531 245.507812 568.300781 247.765625 566.226562 249.8125 C 564.160156 251.863281 561.816406 253.644531 559.339844 255.179688 C 558.113281 255.976562 556.804688 256.621094 555.503906 257.28125 C 555.503906 257.28125 553.503906 258.15625 553.503906 258.15625 C 552.839844 258.460938 552.144531 258.664062 551.464844 258.921875 C 551.464844 258.921875 550.4375 259.285156 550.4375 259.285156 C 550.089844 259.394531 549.742188 259.484375 549.394531 259.585938 C 548.695312 259.78125 548 259.992188 547.300781 260.164062 C 545.886719 260.457031 544.480469 260.804688 543.054688 260.96875 C 542.34375 261.0625 541.621094 261.191406 540.925781 261.253906 C 540.925781 261.253906 538.835938 261.453125 538.835938 261.453125 C 538.140625 261.53125 537.433594 261.550781 536.734375 261.597656 C 536.03125 261.636719 535.335938 261.695312 534.625 261.699219 C 531.8125 261.808594 528.964844 261.703125 526.121094 261.425781 C 520.449219 260.859375 514.664062 259.347656 509.523438 256.304688 C 506.953125 254.8125 504.617188 252.882812 502.566406 250.722656 C 500.539062 248.53125 498.828125 246.082031 497.441406 243.503906 C 496.054688 240.925781 494.972656 238.234375 494.09375 235.546875 C 493.875 234.898438 493.65625 234.144531 493.464844 233.425781 C 493.285156 232.707031 493.113281 231.988281 492.980469 231.277344 C 492.824219 230.558594 492.730469 229.847656 492.609375 229.136719 C 492.519531 228.421875 492.410156 227.710938 492.34375 226.996094 C 491.757812 221.300781 492.007812 215.5625 493.15625 209.941406 C 493.734375 207.136719 494.527344 204.363281 495.597656 201.679688 C 496.675781 199 498.027344 196.417969 499.632812 194 C 502.8125 189.136719 507.140625 185.027344 512.066406 182.039062 C 514.542969 180.578125 517.117188 179.28125 519.796875 178.332031 C 521.121094 177.796875 522.484375 177.417969 523.839844 177.007812 C 524.515625 176.785156 525.207031 176.65625 525.894531 176.488281 C 525.894531 176.488281 527.953125 176.015625 527.953125 176.015625 C 529.113281 175.746094 530.269531 176.46875 530.535156 177.628906 C 530.800781 178.769531 530.105469 179.90625 528.984375 180.199219 C 528.984375 180.199219 528.894531 180.222656 528.894531 180.222656 C 523.84375 181.539062 518.964844 183.429688 514.703125 186.230469 C 514.703125 186.230469 513.132812 187.308594 513.132812 187.308594 C 512.621094 187.683594 512.136719 188.089844 511.632812 188.476562 C 511.386719 188.675781 511.128906 188.859375 510.894531 189.070312 C 510.894531 189.070312 510.191406 189.707031 510.191406 189.707031 C 509.730469 190.140625 509.234375 190.53125 508.816406 191.003906 C 507.011719 192.769531 505.472656 194.785156 504.117188 196.90625 C 501.40625 201.164062 499.648438 206.019531 498.675781 211.042969 C 498.191406 213.554688 497.90625 216.117188 497.808594 218.6875 C 497.703125 221.257812 497.785156 223.839844 498.058594 226.386719 C 498.121094 227.023438 498.21875 227.652344 498.300781 228.285156 C 498.414062 228.90625 498.496094 229.542969 498.632812 230.148438 C 498.75 230.769531 498.898438 231.371094 499.046875 231.96875 C 499.210938 232.558594 499.367188 233.105469 499.582031 233.746094 C 500.386719 236.210938 501.335938 238.574219 502.515625 240.78125 C 503.691406 242.984375 505.113281 245.015625 506.765625 246.816406 C 508.441406 248.585938 510.328125 250.160156 512.445312 251.398438 C 516.660156 253.914062 521.613281 255.269531 526.707031 255.792969 C 529.257812 256.046875 531.851562 256.15625 534.457031 256.058594 C 535.109375 256.058594 535.761719 256.003906 536.414062 255.972656 C 537.066406 255.929688 537.71875 255.914062 538.371094 255.84375 C 538.371094 255.84375 540.332031 255.660156 540.332031 255.660156 C 540.988281 255.605469 541.601562 255.492188 542.238281 255.410156 C 543.511719 255.269531 544.742188 254.960938 545.988281 254.714844 C 546.601562 254.5625 547.207031 254.378906 547.816406 254.214844 C 548.121094 254.125 548.429688 254.050781 548.726562 253.953125 C 548.726562 253.953125 549.617188 253.636719 549.617188 253.636719 C 550.207031 253.414062 550.820312 253.246094 551.390625 252.980469 C 551.390625 252.980469 553.121094 252.230469 553.121094 252.230469 C 554.238281 251.660156 555.371094 251.117188 556.421875 250.433594 C 560.714844 247.835938 564.359375 244.234375 567.210938 240.046875 C 570.082031 235.863281 572.121094 231.074219 573.402344 226.09375 C 574.671875 221.117188 575.207031 215.898438 574.792969 210.839844 C 574.699219 209.574219 574.503906 208.332031 574.273438 207.109375 C 574.132812 206.507812 574.007812 205.910156 573.832031 205.3125 C 573.640625 204.722656 573.484375 204.121094 573.273438 203.539062 C 572.445312 201.203125 571.289062 198.984375 569.855469 196.949219 C 566.996094 192.859375 563.035156 189.507812 558.585938 186.941406 C 554.128906 184.375 549.191406 182.539062 544.105469 181.390625 C 539.03125 180.277344 533.742188 179.722656 528.6875 180.257812 C 528.6875 180.257812 528.652344 180.261719 528.652344 180.261719 C 527.46875 180.386719 526.40625 179.527344 526.28125 178.34375 C 526.15625 177.175781 526.996094 176.121094 528.160156 175.976562 Z M 528.160156 175.976562 " fill-opacity="1" fill-rule="nonzero"/><path fill="#1c1d42" d="M 517.140625 152.09375 C 521.800781 150.8125 526.449219 150.503906 530.988281 150.667969 C 535.53125 150.859375 539.976562 151.550781 544.320312 152.570312 C 548.660156 153.597656 552.902344 154.960938 557.007812 156.628906 C 561.113281 158.3125 565.085938 160.300781 568.890625 162.5625 C 572.695312 164.824219 576.335938 167.367188 579.757812 170.1875 C 583.175781 173.011719 586.332031 176.15625 589.21875 179.527344 C 592.089844 182.910156 594.699219 186.535156 596.859375 190.429688 C 599.019531 194.324219 600.78125 198.429688 602.113281 202.667969 C 602.113281 202.667969 603.03125 205.871094 603.03125 205.871094 C 603.03125 205.871094 603.746094 209.121094 603.746094 209.121094 C 604.222656 211.292969 604.496094 213.542969 604.675781 215.769531 C 605 220.242188 604.65625 224.730469 603.84375 229.105469 C 602.21875 237.871094 598.523438 246.132812 593.488281 253.382812 C 583.394531 267.894531 567.871094 278.425781 550.671875 282.625 C 542.101562 284.753906 533.128906 285.410156 524.28125 284.367188 C 515.441406 283.332031 506.78125 280.523438 498.976562 276.144531 C 491.164062 271.769531 484.234375 265.800781 478.699219 258.726562 C 473.171875 251.640625 469.039062 243.480469 466.546875 234.84375 C 464.023438 226.1875 463.234375 216.953125 464.460938 207.929688 C 465.070312 203.421875 466.171875 198.972656 467.746094 194.691406 C 468.140625 193.621094 468.589844 192.574219 469.011719 191.515625 C 469.476562 190.476562 469.96875 189.445312 470.449219 188.410156 C 470.984375 187.40625 471.515625 186.398438 472.070312 185.402344 C 472.664062 184.429688 473.238281 183.445312 473.851562 182.484375 C 478.789062 174.816406 485.402344 168.324219 492.859375 163.273438 C 500.34375 158.230469 508.628906 154.605469 517.140625 152.09375 Z M 519.226562 159.046875 C 511.386719 161.523438 503.890625 164.996094 497.253906 169.65625 C 490.628906 174.308594 484.867188 180.097656 480.472656 186.789062 C 478.289062 190.136719 476.441406 193.703125 474.996094 197.429688 C 473.558594 201.15625 472.523438 205.042969 471.921875 209 C 470.710938 216.921875 471.253906 225.113281 473.386719 232.917969 C 475.53125 240.746094 479.070312 248.210938 483.914062 254.746094 C 488.769531 261.269531 494.917969 266.835938 501.941406 270.996094 C 508.953125 275.167969 516.835938 277.890625 524.96875 279.027344 C 533.101562 280.164062 541.488281 279.738281 549.554688 277.910156 C 557.613281 276.070312 565.328125 272.730469 572.226562 268.140625 C 579.113281 263.539062 585.164062 257.667969 589.925781 250.898438 C 590.523438 250.050781 591.074219 249.175781 591.648438 248.316406 C 592.191406 247.4375 592.710938 246.542969 593.238281 245.65625 C 593.71875 244.738281 594.214844 243.832031 594.675781 242.910156 C 595.105469 241.972656 595.574219 241.050781 595.96875 240.097656 C 597.59375 236.308594 598.8125 232.351562 599.550781 228.316406 C 600.277344 224.28125 600.523438 220.164062 600.1875 216.101562 C 599.996094 214.070312 599.734375 212.0625 599.269531 210.058594 C 599.269531 210.058594 598.546875 207.058594 598.546875 207.058594 C 598.546875 207.058594 597.628906 204.113281 597.628906 204.113281 C 596.304688 200.21875 594.59375 196.46875 592.523438 192.921875 C 590.449219 189.375 587.957031 186.082031 585.230469 183.007812 C 582.488281 179.9375 579.460938 177.121094 576.210938 174.582031 C 572.957031 172.054688 569.496094 169.78125 565.890625 167.777344 C 558.675781 163.773438 550.875 160.785156 542.859375 159.082031 C 538.855469 158.238281 534.796875 157.707031 530.78125 157.628906 C 526.78125 157.570312 522.804688 157.976562 519.226562 159.046875 Z M 519.226562 159.046875 " fill-opacity="1" fill-rule="nonzero"/><path fill="#1c1d42" d="M 230.90625 322.714844 C 228.804688 321.75 226.769531 320.734375 224.769531 319.6875 C 222.699219 318.769531 220.6875 317.785156 218.667969 316.851562 C 218.667969 316.851562 215.589844 315.574219 215.589844 315.574219 C 214.570312 315.152344 213.582031 314.652344 212.53125 314.320312 C 212.53125 314.320312 209.449219 313.1875 209.449219 313.1875 C 208.929688 313.007812 208.429688 312.785156 207.910156 312.625 C 207.910156 312.625 206.351562 312.148438 206.351562 312.148438 C 205.3125 311.835938 204.28125 311.507812 203.253906 311.175781 C 202.214844 310.894531 201.160156 310.671875 200.121094 310.394531 C 200.121094 310.394531 198.5625 309.992188 198.5625 309.992188 C 198.046875 309.84375 197.515625 309.792969 196.992188 309.6875 C 195.9375 309.5 194.894531 309.285156 193.847656 309.085938 C 192.796875 308.910156 191.738281 308.835938 190.6875 308.683594 C 190.6875 308.683594 189.109375 308.480469 189.109375 308.480469 C 188.582031 308.429688 188.050781 308.421875 187.523438 308.390625 C 186.46875 308.347656 185.410156 308.269531 184.355469 308.242188 C 184.355469 308.242188 181.1875 308.320312 181.1875 308.320312 C 180.128906 308.304688 179.085938 308.476562 178.035156 308.5625 C 176.984375 308.667969 175.929688 308.738281 174.894531 308.957031 C 173.855469 309.144531 172.8125 309.296875 171.777344 309.507812 C 171.777344 309.507812 168.695312 310.261719 168.695312 310.261719 C 164.617188 311.390625 160.636719 312.917969 156.808594 314.8125 C 149.171875 318.65625 142.121094 323.859375 135.96875 330.027344 C 132.894531 333.109375 130.046875 336.429688 127.417969 339.890625 C 126.746094 340.746094 126.148438 341.648438 125.507812 342.523438 C 124.886719 343.410156 124.316406 344.320312 123.710938 345.21875 C 122.597656 347.042969 121.484375 348.890625 120.601562 350.75 C 120.601562 350.75 119.011719 353.902344 119.011719 353.902344 C 119.011719 353.902344 118.171875 355.546875 118.171875 355.546875 C 118.171875 355.546875 117.753906 356.371094 117.753906 356.371094 C 117.753906 356.371094 117.300781 357.148438 117.300781 357.148438 C 116.082031 359.214844 114.925781 361.347656 113.609375 363.308594 C 113.609375 363.308594 111.6875 366.296875 111.6875 366.296875 C 111.039062 367.289062 110.359375 368.242188 109.699219 369.21875 C 109.699219 369.21875 107.699219 372.125 107.699219 372.125 C 107.699219 372.125 105.648438 374.972656 105.648438 374.972656 C 100.183594 382.578125 94.386719 389.855469 88.488281 397.03125 C 82.558594 404.1875 76.511719 411.183594 70.195312 418.039062 C 70.195312 418.039062 66.777344 412.296875 66.777344 412.296875 C 66.777344 412.296875 66.78125 412.296875 66.78125 412.296875 C 71.535156 411.3125 76.28125 411.039062 80.933594 411.097656 C 85.589844 411.164062 90.171875 411.566406 94.703125 412.105469 C 103.757812 413.207031 112.621094 414.839844 121.445312 416.398438 C 130.269531 417.96875 139.058594 419.488281 147.875 420.671875 C 156.6875 421.847656 165.527344 422.699219 174.371094 422.960938 C 178.789062 423.089844 183.214844 423.101562 187.625 422.90625 C 189.832031 422.847656 192.03125 422.671875 194.230469 422.527344 C 195.324219 422.445312 196.355469 422.296875 197.421875 422.1875 C 198.472656 422.042969 199.511719 421.832031 200.5625 421.660156 C 208.871094 419.941406 216.621094 415.867188 222.867188 409.984375 C 226.011719 407.070312 228.847656 403.789062 231.339844 400.234375 C 233.832031 396.683594 236.0625 392.917969 237.992188 388.984375 C 241.871094 381.125 244.75 372.734375 246.894531 364.164062 C 246.894531 364.164062 246.835938 364.710938 246.835938 364.710938 C 246.835938 364.710938 246.835938 364.707031 246.835938 364.707031 C 246.820312 363.515625 247.773438 362.539062 248.964844 362.523438 C 250.144531 362.507812 251.117188 363.449219 251.148438 364.625 C 251.148438 364.625 251.148438 364.628906 251.148438 364.628906 C 251.152344 364.808594 251.132812 364.980469 251.09375 365.144531 C 251.09375 365.144531 251.085938 365.179688 251.085938 365.179688 C 248.988281 374.027344 246.132812 382.738281 242.175781 391.023438 C 240.207031 395.167969 237.90625 399.175781 235.292969 402.996094 C 232.6875 406.816406 229.675781 410.402344 226.285156 413.628906 C 219.558594 420.136719 210.917969 424.859375 201.671875 426.878906 C 200.511719 427.089844 199.351562 427.332031 198.1875 427.511719 C 197.023438 427.652344 195.835938 427.828125 194.695312 427.925781 C 192.421875 428.105469 190.152344 428.316406 187.878906 428.40625 C 183.332031 428.667969 178.777344 428.710938 174.234375 428.636719 C 165.144531 428.480469 156.09375 427.722656 147.113281 426.640625 C 138.136719 425.550781 129.226562 424.125 120.375 422.664062 C 111.523438 421.214844 102.710938 419.714844 93.945312 418.765625 C 89.566406 418.296875 85.195312 417.972656 80.882812 417.96875 C 76.578125 417.964844 72.320312 418.285156 68.292969 419.171875 C 68.292969 419.171875 68.289062 419.171875 68.289062 419.171875 C 66.398438 419.601562 64.519531 418.414062 64.089844 416.519531 C 63.847656 415.445312 64.125 414.375 64.757812 413.574219 C 64.757812 413.574219 64.871094 413.429688 64.871094 413.429688 C 70.566406 406.277344 76.230469 399.011719 81.734375 391.691406 C 87.261719 384.382812 92.632812 376.964844 97.757812 369.457031 C 97.757812 369.457031 99.667969 366.632812 99.667969 366.632812 C 99.667969 366.632812 101.503906 363.78125 101.503906 363.78125 C 102.109375 362.832031 102.742188 361.886719 103.328125 360.929688 C 103.328125 360.929688 105.0625 358.046875 105.0625 358.046875 C 106.261719 356.136719 107.28125 354.199219 108.371094 352.269531 C 108.371094 352.269531 108.773438 351.546875 108.773438 351.546875 C 108.773438 351.546875 109.128906 350.820312 109.128906 350.820312 C 109.128906 350.820312 109.832031 349.371094 109.832031 349.371094 C 109.832031 349.371094 110.539062 347.921875 110.539062 347.921875 C 110.539062 347.921875 110.898438 347.179688 110.898438 347.179688 C 110.898438 347.179688 111.304688 346.320312 111.304688 346.320312 C 113.464844 341.722656 116.070312 337.578125 118.9375 333.625 C 121.796875 329.671875 124.980469 325.980469 128.394531 322.507812 C 131.804688 319.027344 135.507812 315.824219 139.441406 312.898438 C 143.382812 309.988281 147.554688 307.339844 151.988281 305.128906 C 156.441406 302.957031 161.117188 301.191406 165.9375 299.894531 C 165.9375 299.894531 169.582031 299.027344 169.582031 299.027344 C 170.808594 298.785156 172.046875 298.601562 173.277344 298.390625 C 174.507812 298.15625 175.757812 298.0625 177.003906 297.945312 C 178.25 297.847656 179.492188 297.671875 180.746094 297.6875 C 180.746094 297.6875 184.496094 297.621094 184.496094 297.621094 C 185.742188 297.660156 186.988281 297.75 188.234375 297.816406 C 188.859375 297.859375 189.484375 297.875 190.101562 297.9375 C 190.101562 297.9375 191.953125 298.179688 191.953125 298.179688 C 193.1875 298.351562 194.425781 298.496094 195.644531 298.726562 C 198.0625 299.269531 200.515625 299.714844 202.847656 300.523438 C 204.023438 300.886719 205.199219 301.261719 206.363281 301.664062 C 207.5 302.117188 208.636719 302.578125 209.765625 303.058594 C 209.765625 303.058594 211.457031 303.765625 211.457031 303.765625 C 212.019531 304.003906 212.550781 304.300781 213.09375 304.574219 C 213.09375 304.574219 216.332031 306.25 216.332031 306.25 C 216.871094 306.53125 217.40625 306.816406 217.914062 307.148438 C 217.914062 307.148438 219.453125 308.101562 219.453125 308.101562 C 219.453125 308.101562 222.5 310.042969 222.5 310.042969 C 224.457031 311.445312 226.359375 312.90625 228.230469 314.382812 C 230.019531 315.964844 231.773438 317.578125 233.460938 319.242188 C 234.320312 320.085938 234.328125 321.464844 233.484375 322.320312 C 232.824219 322.988281 231.839844 323.140625 231.03125 322.773438 C 231.03125 322.773438 230.90625 322.714844 230.90625 322.714844 Z M 230.90625 322.714844 " fill-opacity="1" fill-rule="nonzero"/></svg>