<svg xmlns="http://www.w3.org/2000/svg" xmlns:xlink="http://www.w3.org/1999/xlink" width="1080" zoomAndPan="magnify" viewBox="0 0 810 809.999993" height="1080" preserveAspectRatio="xMidYMid meet" version="1.0"><path fill="#01baef" d="M 340.390625 591.582031 C 334.75 584.914062 325.394531 583.25 317.957031 586.964844 L 308.34375 566.328125 C 302.703125 554.277344 292.578125 544.535156 280.65625 539.535156 L 200.664062 504.796875 C 189.894531 500.054688 177.589844 501.847656 170.027344 510.179688 L 130.671875 392.5 C 125.929688 376.734375 106.316406 366.09375 92.085938 373.015625 C 82.472656 377.375 77.34375 387.503906 79.011719 398.78125 L 100.546875 546.457031 C 102.472656 559.277344 109.265625 571.582031 119.390625 580.429688 L 164.515625 620.167969 L 222.585938 668.109375 C 218.355469 674.777344 218.609375 683.75 223.996094 690.160156 L 249.375 720.027344 C 255.65625 727.847656 268.21875 728.871094 275.785156 722.207031 C 275.785156 722.207031 363.59375 647.726562 363.59375 647.726562 C 367.4375 644.523438 369.746094 640.035156 370.132812 635.035156 C 370.515625 630.039062 368.976562 625.167969 365.773438 621.449219 Z M 173.359375 609.785156 L 128.367188 570.171875 C 120.675781 563.378906 115.417969 554.019531 114.007812 544.40625 L 92.472656 396.859375 C 91.703125 391.730469 93.753906 387.375 97.726562 385.578125 C 104.648438 382.117188 115.289062 388.785156 117.597656 396.988281 C 117.597656 396.988281 163.105469 533.636719 163.105469 533.636719 C 163.234375 534.023438 163.488281 534.40625 163.617188 534.921875 C 165.925781 545.046875 173.746094 554.40625 183.359375 558.507812 L 230.789062 579.402344 C 238.863281 582.992188 244.503906 570.558594 236.300781 566.839844 C 236.300781 566.839844 188.742188 545.816406 188.742188 545.816406 C 185.921875 544.535156 183.359375 542.613281 181.308594 540.175781 C 171.308594 529.023438 178.488281 510.308594 194.769531 517.230469 C 211.816406 524.664062 258.351562 545.046875 274.886719 551.96875 C 292.0625 557.867188 299.242188 580.554688 306.421875 595.296875 L 232.070312 658.367188 Z M 354.621094 637.34375 L 266.808594 711.824219 C 265.785156 712.71875 264.503906 713.105469 263.09375 712.976562 C 261.8125 712.847656 260.527344 712.207031 259.632812 711.179688 L 234.507812 681.3125 C 232.839844 679.261719 232.96875 676.3125 234.890625 674.519531 C 235.789062 674.261719 236.8125 673.878906 237.582031 673.238281 L 319.882812 602.859375 C 320.394531 602.347656 320.90625 601.835938 321.164062 601.324219 C 323.46875 598.757812 327.316406 597.476562 329.878906 600.425781 L 355.132812 630.292969 C 357.054688 632.34375 356.800781 635.550781 354.621094 637.34375 Z M 717.910156 373.015625 C 703.679688 366.09375 684.070312 376.734375 679.324219 392.5 C 679.324219 392.5 640.097656 510.179688 640.097656 510.179688 C 632.40625 501.847656 620.230469 500.054688 609.460938 504.796875 L 554.726562 528.640625 L 529.472656 539.535156 C 517.550781 544.535156 507.421875 554.277344 501.78125 566.457031 L 492.167969 586.964844 C 484.605469 583.25 475.375 584.914062 469.734375 591.582031 L 444.480469 621.449219 C 437.816406 629.011719 438.839844 641.445312 446.660156 647.855469 C 446.660156 647.855469 534.472656 722.335938 534.472656 722.335938 C 542.289062 729 554.082031 728.101562 560.878906 720.15625 L 586.132812 690.285156 C 591.386719 684.261719 592.027344 674.902344 587.667969 668.238281 L 645.867188 620.167969 L 690.734375 580.554688 C 700.859375 571.710938 707.65625 559.277344 709.578125 546.585938 L 731.242188 398.910156 C 732.652344 387.503906 727.523438 377.375 717.910156 373.015625 Z M 575.492188 681.3125 L 550.238281 711.179688 C 548.445312 713.234375 545.238281 713.617188 543.1875 711.824219 L 455.378906 637.34375 C 454.351562 636.445312 453.710938 635.292969 453.582031 633.882812 C 453.453125 632.601562 453.839844 631.191406 454.738281 630.292969 L 479.988281 600.425781 C 483.324219 596.578125 487.679688 599.65625 490.117188 602.859375 C 490.117188 602.859375 572.414062 673.238281 572.414062 673.238281 C 573.183594 673.878906 574.210938 674.261719 575.105469 674.519531 C 577.03125 676.3125 577.285156 679.390625 575.492188 681.3125 Z M 717.527344 396.859375 L 695.863281 544.40625 C 694.453125 554.019531 689.195312 563.378906 681.503906 570.171875 C 657.019531 592.605469 603.566406 637.472656 577.542969 658.625 L 503.191406 595.554688 C 510.5 580.683594 517.421875 558.121094 534.726562 552.226562 C 534.726562 552.226562 614.847656 517.488281 614.847656 517.488281 C 637.152344 509.28125 638.175781 539.40625 620.871094 545.945312 C 620.871094 545.945312 573.441406 566.839844 573.441406 566.839844 C 565.238281 570.429688 570.75 582.992188 578.953125 579.402344 C 578.953125 579.402344 626.382812 558.507812 626.382812 558.507812 C 636.765625 554.277344 643.945312 544.023438 646.765625 533.511719 C 646.765625 533.511719 692.273438 396.988281 692.273438 396.988281 C 696.117188 383.015625 719.191406 378.527344 717.527344 396.859375 Z M 465.890625 546.203125 C 486.269531 544.148438 495.117188 517.101562 479.863281 503.515625 C 496.140625 488.773438 484.734375 459.800781 462.554688 460.570312 C 460.761719 433.265625 470.121094 406.21875 491.785156 388.144531 C 551.390625 339.046875 554.726562 242.648438 498.320312 189.960938 C 413.460938 106.382812 269.117188 171.503906 271.167969 289.308594 C 272.066406 327.253906 289.117188 363.019531 317.828125 387.628906 C 340.390625 406.601562 349.492188 433.265625 347.570312 460.570312 C 325.265625 459.800781 313.855469 488.773438 330.136719 503.515625 C 314.882812 517.101562 323.726562 544.148438 344.109375 546.203125 C 345.648438 574.402344 368.976562 596.964844 397.691406 596.964844 L 412.304688 596.964844 C 440.890625 596.964844 464.351562 574.402344 465.890625 546.203125 Z M 326.804688 377.246094 C 301.035156 355.199219 285.652344 323.023438 284.886719 288.925781 C 283.347656 224.1875 336.800781 167.785156 401.539062 165.863281 C 467.425781 162.527344 526.652344 220.085938 525.242188 286.105469 C 525.242188 321.355469 509.859375 354.683594 482.9375 377.757812 C 458.324219 398.398438 446.917969 429.421875 448.839844 460.570312 L 361.285156 460.570312 C 363.335938 429.292969 352.183594 398.78125 326.804688 377.246094 Z M 336.03125 521.589844 C 336.03125 515.4375 341.03125 510.308594 347.183594 510.308594 L 382.308594 510.308594 C 391.28125 510.308594 391.28125 496.71875 382.308594 496.589844 C 382.308594 496.589844 347.183594 496.589844 347.183594 496.589844 C 332.445312 496.335938 332.445312 474.414062 347.183594 474.160156 C 347.183594 474.160156 462.683594 474.160156 462.683594 474.160156 C 468.835938 474.160156 473.964844 479.15625 473.964844 485.4375 C 473.964844 491.71875 468.964844 496.71875 462.683594 496.71875 L 441.53125 496.71875 C 432.558594 496.71875 432.558594 510.308594 441.53125 510.4375 C 441.53125 510.4375 462.683594 510.4375 462.683594 510.4375 C 468.835938 510.4375 473.964844 515.4375 473.964844 521.71875 C 473.964844 527.871094 468.964844 532.996094 462.683594 532.996094 L 347.3125 532.996094 C 341.03125 532.742188 336.03125 527.742188 336.03125 521.589844 Z M 412.304688 583.25 L 397.691406 583.25 C 376.667969 583.25 359.492188 566.96875 357.824219 546.457031 L 452.171875 546.457031 C 450.507812 566.96875 433.328125 583.25 412.304688 583.25 Z M 499.601562 301.101562 C 501.269531 298.792969 501.269531 295.589844 499.601562 293.28125 C 477.9375 262.261719 442.558594 243.800781 405 243.800781 C 367.3125 243.800781 331.929688 262.261719 310.394531 293.28125 C 308.726562 295.589844 308.726562 298.792969 310.394531 301.101562 C 354.875 366.605469 455.121094 366.605469 499.601562 301.101562 Z M 449.480469 267.902344 C 463.453125 274.695312 475.761719 284.695312 485.503906 297.257812 C 475.761719 309.820312 463.453125 319.816406 449.480469 326.613281 C 461.144531 310.074219 461.144531 284.4375 449.480469 267.902344 Z M 360.515625 326.613281 C 346.542969 319.816406 334.238281 309.820312 324.496094 297.257812 C 334.238281 284.695312 346.542969 274.695312 360.515625 267.902344 C 348.851562 284.4375 348.851562 310.074219 360.515625 326.613281 Z M 365.261719 297.257812 C 366.925781 244.828125 442.941406 244.828125 444.609375 297.257812 C 442.941406 349.6875 367.054688 349.6875 365.261719 297.257812 Z M 385.769531 297.257812 C 386.410156 322.636719 423.585938 322.636719 424.226562 297.257812 C 423.585938 271.875 386.410156 271.875 385.769531 297.257812 Z M 399.488281 297.257812 C 399.488281 289.949219 410.511719 289.949219 410.511719 297.257812 C 410.511719 304.433594 399.488281 304.433594 399.488281 297.257812 Z M 253.605469 439.035156 L 272.964844 419.679688 C 275.65625 416.984375 280.015625 416.984375 282.578125 419.679688 C 285.269531 422.371094 285.269531 426.726562 282.578125 429.292969 L 263.222656 448.648438 C 260.527344 451.339844 256.171875 451.339844 253.605469 448.648438 C 250.914062 445.957031 250.914062 441.597656 253.605469 439.035156 Z M 527.421875 174.835938 C 524.726562 172.144531 524.726562 167.785156 527.421875 165.222656 L 546.777344 145.863281 C 549.46875 143.171875 553.828125 143.171875 556.390625 145.863281 C 558.957031 148.554688 559.082031 152.914062 556.390625 155.476562 L 537.035156 174.835938 C 534.34375 177.527344 530.113281 177.527344 527.421875 174.835938 Z M 197.714844 290.335938 C 197.714844 290.335938 225.019531 290.335938 225.019531 290.335938 C 233.992188 290.335938 233.992188 303.921875 225.019531 304.050781 C 225.019531 304.050781 197.714844 304.050781 197.714844 304.050781 C 188.742188 304.050781 188.742188 290.460938 197.714844 290.335938 Z M 584.976562 290.335938 C 584.976562 290.335938 612.28125 290.335938 612.28125 290.335938 C 621.253906 290.335938 621.253906 303.921875 612.28125 304.050781 C 612.28125 304.050781 584.976562 304.050781 584.976562 304.050781 C 576.003906 304.050781 576.003906 290.460938 584.976562 290.335938 Z M 253.605469 155.476562 C 247.324219 149.070312 256.941406 139.453125 263.222656 145.863281 C 263.222656 145.863281 282.578125 165.222656 282.578125 165.222656 C 288.859375 171.628906 279.246094 181.246094 272.964844 174.964844 C 272.964844 174.835938 253.605469 155.476562 253.605469 155.476562 Z M 556.390625 439.035156 C 562.671875 445.445312 553.058594 455.058594 546.777344 448.777344 C 546.777344 448.777344 527.421875 429.421875 527.421875 429.421875 C 521.140625 423.011719 530.753906 413.394531 537.035156 419.804688 C 537.035156 419.679688 556.390625 439.035156 556.390625 439.035156 Z M 398.203125 117.277344 C 398.203125 117.277344 398.203125 89.972656 398.203125 89.972656 C 398.203125 81 411.921875 81 411.921875 89.972656 L 411.921875 117.277344 C 411.792969 126.25 398.203125 126.25 398.203125 117.277344 Z M 398.203125 117.277344 " fill-opacity="1" fill-rule="nonzero"/></svg>