<svg xmlns="http://www.w3.org/2000/svg" xmlns:xlink="http://www.w3.org/1999/xlink" width="1080" zoomAndPan="magnify" viewBox="0 0 810 809.999993" height="1080" preserveAspectRatio="xMidYMid meet" version="1.0"><path fill="#01baef" d="M 685.703125 431.710938 C 684.828125 431.710938 683.953125 431.667969 683.082031 431.582031 C 682.214844 431.496094 681.347656 431.367188 680.492188 431.199219 C 679.632812 431.027344 678.785156 430.816406 677.949219 430.5625 C 677.109375 430.308594 676.289062 430.015625 675.480469 429.679688 C 674.671875 429.34375 673.878906 428.972656 673.109375 428.558594 C 672.335938 428.148438 671.589844 427.699219 670.859375 427.210938 C 670.132812 426.726562 669.429688 426.207031 668.753906 425.652344 C 668.078125 425.097656 667.429688 424.507812 666.8125 423.890625 C 666.191406 423.273438 665.605469 422.625 665.050781 421.949219 C 664.496094 421.273438 663.976562 420.570312 663.488281 419.84375 C 663.003906 419.117188 662.554688 418.367188 662.140625 417.597656 C 661.726562 416.824219 661.355469 416.035156 661.019531 415.226562 C 660.683594 414.417969 660.390625 413.597656 660.136719 412.757812 C 659.882812 411.921875 659.667969 411.074219 659.5 410.214844 C 659.328125 409.359375 659.199219 408.492188 659.113281 407.621094 C 659.027344 406.753906 658.984375 405.878906 658.984375 405.003906 C 658.984375 404.128906 659.027344 403.257812 659.113281 402.386719 C 659.199219 401.515625 659.324219 400.652344 659.496094 399.792969 C 659.667969 398.933594 659.878906 398.085938 660.132812 397.25 C 660.386719 396.414062 660.679688 395.589844 661.015625 394.78125 C 661.351562 393.972656 661.722656 393.183594 662.136719 392.414062 C 662.546875 391.640625 662.996094 390.890625 663.484375 390.164062 C 663.96875 389.4375 664.488281 388.734375 665.042969 388.058594 C 665.601562 387.382812 666.1875 386.734375 666.804688 386.117188 C 667.421875 385.496094 668.070312 384.910156 668.746094 384.355469 C 669.421875 383.800781 670.125 383.277344 670.851562 382.792969 C 671.578125 382.308594 672.328125 381.859375 673.101562 381.445312 C 673.871094 381.03125 674.660156 380.660156 675.46875 380.324219 C 676.277344 379.988281 677.101562 379.695312 677.9375 379.441406 C 678.773438 379.1875 679.621094 378.972656 680.480469 378.804688 C 681.339844 378.632812 682.203125 378.503906 683.074219 378.417969 C 683.945312 378.332031 684.816406 378.289062 685.691406 378.289062 C 686.566406 378.289062 687.441406 378.332031 688.308594 378.417969 C 689.179688 378.503906 690.046875 378.632812 690.902344 378.800781 C 691.761719 378.972656 692.609375 379.183594 693.445312 379.4375 C 694.285156 379.691406 695.105469 379.988281 695.914062 380.324219 C 696.722656 380.65625 697.511719 381.03125 698.285156 381.441406 C 699.054688 381.855469 699.804688 382.304688 700.53125 382.789062 C 701.261719 383.277344 701.960938 383.796875 702.636719 384.351562 C 703.316406 384.90625 703.960938 385.492188 704.582031 386.113281 C 705.199219 386.730469 705.785156 387.378906 706.339844 388.054688 C 706.894531 388.730469 707.417969 389.433594 707.902344 390.160156 C 708.390625 390.886719 708.839844 391.636719 709.25 392.410156 C 709.664062 393.179688 710.035156 393.96875 710.371094 394.777344 C 710.707031 395.585938 711 396.410156 711.253906 397.246094 C 711.507812 398.082031 711.722656 398.929688 711.890625 399.789062 C 712.0625 400.648438 712.191406 401.511719 712.277344 402.382812 C 712.363281 403.253906 712.40625 404.125 712.40625 405 C 712.402344 405.875 712.359375 406.746094 712.273438 407.617188 C 712.1875 408.488281 712.058594 409.351562 711.886719 410.207031 C 711.71875 411.066406 711.503906 411.914062 711.25 412.75 C 710.996094 413.585938 710.703125 414.410156 710.367188 415.214844 C 710.03125 416.023438 709.65625 416.8125 709.246094 417.585938 C 708.832031 418.355469 708.382812 419.105469 707.898438 419.832031 C 707.414062 420.558594 706.890625 421.261719 706.335938 421.9375 C 705.78125 422.613281 705.195312 423.261719 704.578125 423.878906 C 703.960938 424.496094 703.3125 425.082031 702.636719 425.636719 C 701.960938 426.191406 701.257812 426.714844 700.53125 427.199219 C 699.804688 427.6875 699.058594 428.136719 698.285156 428.546875 C 697.515625 428.960938 696.726562 429.335938 695.917969 429.667969 C 695.109375 430.003906 694.289062 430.300781 693.453125 430.554688 C 692.613281 430.808594 691.769531 431.019531 690.910156 431.191406 C 690.050781 431.363281 689.1875 431.492188 688.320312 431.578125 C 687.449219 431.664062 686.578125 431.710938 685.703125 431.710938 Z M 486.625 480.984375 C 478.914062 474.414062 470.53125 468.851562 461.480469 464.296875 C 466.074219 447.359375 468.585938 430.117188 469.015625 412.570312 L 516.136719 412.570312 C 515.710938 418.902344 514.753906 425.152344 513.261719 431.320312 C 511.773438 437.484375 509.769531 443.484375 507.257812 449.308594 C 504.746094 455.132812 501.757812 460.707031 498.296875 466.023438 C 494.832031 471.339844 490.945312 476.324219 486.632812 480.976562 Z M 292.433594 412.578125 L 339.546875 412.578125 C 339.972656 430.125 342.484375 447.367188 347.082031 464.304688 C 338.03125 468.859375 329.652344 474.421875 321.9375 480.992188 C 317.625 476.339844 313.738281 471.355469 310.273438 466.035156 C 306.8125 460.71875 303.824219 455.148438 301.3125 449.324219 C 298.800781 443.496094 296.796875 437.5 295.308594 431.332031 C 293.816406 425.164062 292.859375 418.917969 292.433594 412.585938 Z M 321.9375 329.007812 C 329.652344 335.582031 338.03125 341.148438 347.082031 345.710938 C 342.484375 362.648438 339.972656 379.890625 339.546875 397.433594 L 292.433594 397.433594 C 292.859375 391.105469 293.816406 384.855469 295.308594 378.6875 C 296.796875 372.519531 298.800781 366.523438 301.3125 360.695312 C 303.824219 354.867188 306.8125 349.296875 310.277344 343.980469 C 313.738281 338.664062 317.625 333.675781 321.9375 329.023438 Z M 411.855469 397.421875 L 411.855469 359.023438 C 424.046875 358.308594 435.890625 355.882812 447.386719 351.75 C 451.261719 366.730469 453.414062 381.953125 453.851562 397.421875 Z M 411.855469 450.984375 L 411.855469 412.578125 L 453.851562 412.578125 C 453.417969 428.042969 451.261719 443.265625 447.386719 458.242188 C 435.882812 454.113281 424.03125 451.695312 411.832031 450.984375 Z M 456.675781 478.886719 C 452.257812 491.152344 445.808594 502.234375 437.328125 512.136719 C 444.308594 509.976562 451.015625 507.160156 457.445312 503.683594 C 463.875 500.210938 469.90625 496.144531 475.539062 491.488281 C 469.683594 486.648438 463.398438 482.449219 456.6875 478.886719 Z M 437.996094 483.917969 C 430.617188 498.902344 421.386719 508.808594 411.867188 512.316406 L 411.867188 466.1875 C 422.488281 466.894531 432.800781 469.070312 442.800781 472.714844 C 441.367188 476.625 439.734375 480.382812 437.996094 483.917969 Z M 371.234375 512.136719 C 362.753906 502.234375 356.304688 491.152344 351.882812 478.886719 C 345.167969 482.449219 338.882812 486.652344 333.023438 491.488281 C 338.65625 496.144531 344.691406 500.207031 351.121094 503.679688 C 357.550781 507.15625 364.253906 509.972656 371.234375 512.136719 Z M 396.695312 466.15625 L 396.695312 512.285156 C 387.183594 508.789062 377.953125 498.875 370.566406 483.886719 C 368.835938 480.351562 367.242188 476.597656 365.761719 472.6875 C 375.761719 469.042969 386.074219 466.867188 396.695312 466.15625 Z M 396.695312 412.550781 L 396.695312 450.976562 C 384.496094 451.6875 372.648438 454.105469 361.148438 458.234375 C 357.265625 443.257812 355.109375 428.039062 354.683594 412.570312 Z M 396.695312 358.984375 L 396.695312 397.390625 L 354.710938 397.390625 C 355.140625 381.925781 357.296875 366.703125 361.175781 351.722656 C 372.667969 355.867188 384.507812 358.300781 396.703125 359.023438 Z M 351.882812 331.082031 C 356.304688 318.828125 362.753906 307.757812 371.234375 297.863281 C 364.253906 300.023438 357.546875 302.839844 351.117188 306.316406 C 344.6875 309.789062 338.65625 313.855469 333.023438 318.511719 C 338.882812 323.347656 345.167969 327.550781 351.882812 331.113281 Z M 370.558594 326.054688 C 377.945312 311.0625 387.175781 301.148438 396.6875 297.648438 L 396.6875 343.769531 C 386.066406 343.070312 375.753906 340.894531 365.753906 337.246094 C 367.234375 333.332031 368.828125 329.589844 370.558594 326.054688 Z M 437.300781 297.828125 C 444.28125 299.984375 450.988281 302.800781 457.417969 306.277344 C 463.847656 309.75 469.878906 313.816406 475.511719 318.476562 C 469.65625 323.316406 463.371094 327.515625 456.660156 331.078125 C 452.246094 318.824219 445.800781 307.753906 437.328125 297.863281 Z M 411.839844 297.648438 L 411.839844 343.769531 C 422.460938 343.070312 432.773438 340.894531 442.773438 337.246094 C 441.335938 333.332031 439.707031 329.589844 437.96875 326.054688 C 430.589844 311.0625 421.359375 301.148438 411.839844 297.648438 Z M 516.128906 397.421875 C 515.703125 391.089844 514.746094 384.839844 513.253906 378.671875 C 511.765625 372.503906 509.761719 366.507812 507.25 360.679688 C 504.738281 354.855469 501.75 349.28125 498.289062 343.964844 C 494.824219 338.648438 490.9375 333.660156 486.625 329.007812 C 478.910156 335.578125 470.53125 341.148438 461.480469 345.710938 C 466.074219 362.648438 468.589844 379.890625 469.015625 397.433594 Z M 640.558594 604.257812 C 640.558594 605.132812 640.515625 606.003906 640.429688 606.875 C 640.34375 607.746094 640.214844 608.609375 640.042969 609.46875 C 639.875 610.324219 639.660156 611.171875 639.40625 612.011719 C 639.152344 612.847656 638.859375 613.667969 638.523438 614.476562 C 638.1875 615.285156 637.816406 616.074219 637.402344 616.847656 C 636.992188 617.617188 636.542969 618.367188 636.054688 619.097656 C 635.570312 619.824219 635.050781 620.523438 634.496094 621.203125 C 633.9375 621.878906 633.351562 622.523438 632.734375 623.144531 C 632.117188 623.761719 631.46875 624.347656 630.792969 624.902344 C 630.117188 625.457031 629.414062 625.980469 628.6875 626.464844 C 627.960938 626.949219 627.210938 627.398438 626.4375 627.8125 C 625.667969 628.226562 624.875 628.597656 624.070312 628.933594 C 623.261719 629.269531 622.4375 629.5625 621.601562 629.816406 C 620.761719 630.070312 619.914062 630.28125 619.058594 630.453125 C 618.199219 630.625 617.335938 630.753906 616.464844 630.839844 C 615.59375 630.921875 614.722656 630.964844 613.847656 630.964844 C 612.972656 630.964844 612.101562 630.921875 611.230469 630.839844 C 610.359375 630.753906 609.496094 630.625 608.636719 630.453125 C 607.777344 630.28125 606.929688 630.070312 606.09375 629.816406 C 605.257812 629.5625 604.433594 629.269531 603.625 628.933594 C 602.816406 628.597656 602.027344 628.226562 601.257812 627.8125 C 600.484375 627.398438 599.734375 626.949219 599.007812 626.464844 C 598.28125 625.980469 597.578125 625.457031 596.902344 624.902344 C 596.226562 624.347656 595.578125 623.761719 594.960938 623.144531 C 594.339844 622.523438 593.753906 621.878906 593.199219 621.203125 C 592.644531 620.523438 592.125 619.824219 591.636719 619.097656 C 591.152344 618.367188 590.703125 617.617188 590.289062 616.847656 C 589.878906 616.074219 589.503906 615.285156 589.171875 614.476562 C 588.835938 613.667969 588.539062 612.847656 588.285156 612.011719 C 588.03125 611.171875 587.820312 610.324219 587.648438 609.46875 C 587.480469 608.609375 587.351562 607.746094 587.265625 606.875 C 587.179688 606.003906 587.136719 605.132812 587.136719 604.257812 C 587.136719 603.382812 587.179688 602.507812 587.265625 601.636719 C 587.351562 600.769531 587.480469 599.902344 587.648438 599.046875 C 587.820312 598.1875 588.03125 597.339844 588.285156 596.503906 C 588.539062 595.664062 588.835938 594.84375 589.171875 594.035156 C 589.503906 593.226562 589.878906 592.4375 590.289062 591.664062 C 590.703125 590.894531 591.152344 590.144531 591.636719 589.417969 C 592.125 588.691406 592.644531 587.988281 593.199219 587.3125 C 593.753906 586.636719 594.339844 585.988281 594.960938 585.371094 C 595.578125 584.75 596.226562 584.164062 596.902344 583.609375 C 597.578125 583.054688 598.28125 582.535156 599.007812 582.046875 C 599.734375 581.5625 600.484375 581.113281 601.257812 580.699219 C 602.027344 580.289062 602.816406 579.914062 603.625 579.578125 C 604.433594 579.246094 605.257812 578.949219 606.09375 578.695312 C 606.929688 578.441406 607.777344 578.230469 608.636719 578.058594 C 609.496094 577.890625 610.359375 577.761719 611.230469 577.675781 C 612.101562 577.589844 612.972656 577.546875 613.847656 577.546875 C 614.722656 577.546875 615.59375 577.589844 616.464844 577.675781 C 617.335938 577.761719 618.199219 577.890625 619.054688 578.0625 C 619.914062 578.234375 620.761719 578.445312 621.597656 578.699219 C 622.433594 578.957031 623.257812 579.25 624.066406 579.585938 C 624.875 579.921875 625.664062 580.292969 626.433594 580.707031 C 627.207031 581.117188 627.953125 581.566406 628.679688 582.054688 C 629.410156 582.539062 630.109375 583.0625 630.785156 583.617188 C 631.460938 584.171875 632.109375 584.757812 632.726562 585.375 C 633.347656 585.992188 633.933594 586.640625 634.488281 587.316406 C 635.042969 587.992188 635.5625 588.695312 636.050781 589.421875 C 636.535156 590.148438 636.984375 590.898438 637.398438 591.667969 C 637.808594 592.441406 638.183594 593.230469 638.519531 594.039062 C 638.851562 594.847656 639.148438 595.667969 639.402344 596.503906 C 639.65625 597.34375 639.871094 598.1875 640.039062 599.046875 C 640.210938 599.90625 640.339844 600.769531 640.425781 601.640625 C 640.511719 602.507812 640.554688 603.382812 640.558594 604.257812 Z M 547.726562 658.386719 C 547.726562 659.261719 547.683594 660.136719 547.597656 661.007812 C 547.511719 661.878906 547.382812 662.742188 547.214844 663.601562 C 547.042969 664.457031 546.832031 665.308594 546.578125 666.144531 C 546.324219 666.980469 546.027344 667.804688 545.695312 668.613281 C 545.359375 669.421875 544.984375 670.210938 544.574219 670.984375 C 544.160156 671.753906 543.710938 672.503906 543.226562 673.234375 C 542.742188 673.960938 542.21875 674.664062 541.664062 675.339844 C 541.109375 676.015625 540.523438 676.664062 539.90625 677.28125 C 539.285156 677.902344 538.640625 678.488281 537.960938 679.042969 C 537.285156 679.597656 536.585938 680.121094 535.855469 680.605469 C 535.128906 681.09375 534.378906 681.542969 533.609375 681.953125 C 532.835938 682.367188 532.046875 682.742188 531.238281 683.078125 C 530.429688 683.410156 529.609375 683.707031 528.769531 683.960938 C 527.933594 684.214844 527.085938 684.425781 526.226562 684.597656 C 525.367188 684.769531 524.503906 684.898438 523.632812 684.984375 C 522.761719 685.070312 521.890625 685.113281 521.015625 685.113281 C 520.140625 685.113281 519.265625 685.070312 518.394531 684.984375 C 517.523438 684.898438 516.660156 684.769531 515.800781 684.601562 C 514.945312 684.429688 514.097656 684.21875 513.257812 683.964844 C 512.421875 683.710938 511.597656 683.417969 510.789062 683.082031 C 509.980469 682.746094 509.191406 682.375 508.417969 681.960938 C 507.648438 681.550781 506.898438 681.101562 506.171875 680.613281 C 505.441406 680.128906 504.742188 679.609375 504.0625 679.050781 C 503.386719 678.496094 502.738281 677.910156 502.121094 677.292969 C 501.5 676.675781 500.914062 676.027344 500.359375 675.351562 C 499.804688 674.675781 499.285156 673.972656 498.796875 673.246094 C 498.3125 672.515625 497.859375 671.769531 497.449219 670.996094 C 497.035156 670.222656 496.660156 669.433594 496.328125 668.625 C 495.992188 667.816406 495.695312 666.996094 495.441406 666.15625 C 495.1875 665.320312 494.976562 664.472656 494.804688 663.613281 C 494.632812 662.757812 494.503906 661.890625 494.417969 661.019531 C 494.332031 660.152344 494.289062 659.277344 494.289062 658.402344 C 494.289062 657.527344 494.332031 656.65625 494.417969 655.785156 C 494.503906 654.914062 494.632812 654.046875 494.800781 653.191406 C 494.972656 652.332031 495.183594 651.484375 495.4375 650.644531 C 495.691406 649.808594 495.988281 648.984375 496.320312 648.175781 C 496.65625 647.367188 497.03125 646.578125 497.441406 645.808594 C 497.855469 645.035156 498.304688 644.285156 498.789062 643.558594 C 499.273438 642.832031 499.796875 642.128906 500.351562 641.453125 C 500.90625 640.773438 501.492188 640.128906 502.109375 639.507812 C 502.730469 638.890625 503.375 638.300781 504.054688 637.746094 C 504.730469 637.191406 505.429688 636.671875 506.160156 636.183594 C 506.886719 635.699219 507.636719 635.25 508.40625 634.835938 C 509.179688 634.421875 509.96875 634.050781 510.777344 633.714844 C 511.585938 633.378906 512.40625 633.085938 513.246094 632.832031 C 514.082031 632.578125 514.929688 632.363281 515.789062 632.191406 C 516.648438 632.023438 517.511719 631.894531 518.382812 631.808594 C 519.253906 631.722656 520.125 631.679688 521 631.679688 C 521.875 631.679688 522.75 631.722656 523.617188 631.808594 C 524.488281 631.894531 525.351562 632.023438 526.210938 632.195312 C 527.070312 632.367188 527.917969 632.578125 528.753906 632.832031 C 529.589844 633.085938 530.414062 633.382812 531.222656 633.714844 C 532.027344 634.050781 532.820312 634.425781 533.589844 634.835938 C 534.363281 635.25 535.109375 635.699219 535.839844 636.183594 C 536.566406 636.671875 537.269531 637.191406 537.945312 637.746094 C 538.621094 638.300781 539.269531 638.886719 539.886719 639.507812 C 540.503906 640.125 541.09375 640.773438 541.648438 641.449219 C 542.203125 642.125 542.722656 642.824219 543.210938 643.550781 C 543.695312 644.28125 544.144531 645.027344 544.558594 645.800781 C 544.972656 646.570312 545.34375 647.359375 545.679688 648.167969 C 546.015625 648.976562 546.3125 649.800781 546.566406 650.636719 C 546.820312 651.472656 547.035156 652.320312 547.207031 653.179688 C 547.378906 654.035156 547.507812 654.898438 547.59375 655.769531 C 547.679688 656.640625 547.722656 657.511719 547.726562 658.386719 Z M 494.289062 151.613281 C 494.289062 150.738281 494.332031 149.863281 494.417969 148.992188 C 494.503906 148.121094 494.632812 147.257812 494.800781 146.398438 C 494.972656 145.539062 495.183594 144.691406 495.4375 143.855469 C 495.691406 143.015625 495.988281 142.195312 496.320312 141.386719 C 496.65625 140.578125 497.03125 139.785156 497.441406 139.015625 C 497.855469 138.242188 498.304688 137.492188 498.789062 136.765625 C 499.277344 136.039062 499.796875 135.335938 500.351562 134.660156 C 500.90625 133.984375 501.492188 133.335938 502.113281 132.714844 C 502.730469 132.097656 503.378906 131.511719 504.054688 130.953125 C 504.730469 130.398438 505.433594 129.878906 506.160156 129.390625 C 506.886719 128.90625 507.636719 128.457031 508.410156 128.042969 C 509.183594 127.632812 509.972656 127.257812 510.78125 126.921875 C 511.589844 126.585938 512.410156 126.292969 513.25 126.039062 C 514.085938 125.785156 514.933594 125.570312 515.792969 125.402344 C 516.652344 125.230469 517.515625 125.101562 518.386719 125.015625 C 519.257812 124.929688 520.128906 124.886719 521.003906 124.886719 C 521.878906 124.886719 522.753906 124.929688 523.625 125.015625 C 524.496094 125.101562 525.359375 125.230469 526.21875 125.398438 C 527.078125 125.570312 527.925781 125.785156 528.761719 126.039062 C 529.597656 126.292969 530.421875 126.585938 531.230469 126.921875 C 532.039062 127.253906 532.828125 127.628906 533.601562 128.042969 C 534.375 128.453125 535.125 128.902344 535.851562 129.390625 C 536.578125 129.875 537.28125 130.398438 537.957031 130.953125 C 538.632812 131.507812 539.28125 132.09375 539.898438 132.710938 C 540.519531 133.332031 541.105469 133.980469 541.660156 134.65625 C 542.214844 135.332031 542.738281 136.035156 543.222656 136.761719 C 543.710938 137.488281 544.160156 138.238281 544.570312 139.011719 C 544.984375 139.78125 545.355469 140.574219 545.691406 141.382812 C 546.027344 142.191406 546.320312 143.011719 546.574219 143.851562 C 546.828125 144.6875 547.042969 145.535156 547.210938 146.394531 C 547.382812 147.253906 547.511719 148.117188 547.597656 148.988281 C 547.683594 149.859375 547.726562 150.730469 547.726562 151.605469 C 547.726562 152.480469 547.683594 153.355469 547.597656 154.226562 C 547.511719 155.097656 547.382812 155.960938 547.210938 156.820312 C 547.039062 157.679688 546.828125 158.527344 546.574219 159.363281 C 546.320312 160.199219 546.023438 161.023438 545.691406 161.832031 C 545.355469 162.640625 544.980469 163.429688 544.570312 164.203125 C 544.15625 164.972656 543.707031 165.722656 543.21875 166.453125 C 542.734375 167.179688 542.214844 167.882812 541.65625 168.558594 C 541.101562 169.234375 540.515625 169.882812 539.898438 170.5 C 539.277344 171.117188 538.628906 171.707031 537.953125 172.261719 C 537.277344 172.816406 536.574219 173.335938 535.847656 173.824219 C 535.117188 174.308594 534.371094 174.757812 533.597656 175.171875 C 532.824219 175.582031 532.035156 175.957031 531.226562 176.289062 C 530.417969 176.625 529.59375 176.917969 528.757812 177.171875 C 527.917969 177.425781 527.070312 177.640625 526.214844 177.808594 C 525.355469 177.980469 524.492188 178.109375 523.621094 178.195312 C 522.75 178.28125 521.875 178.324219 521 178.320312 C 520.125 178.320312 519.253906 178.277344 518.382812 178.191406 C 517.511719 178.105469 516.648438 177.972656 515.792969 177.804688 C 514.933594 177.632812 514.085938 177.417969 513.25 177.164062 C 512.414062 176.910156 511.59375 176.613281 510.785156 176.28125 C 509.976562 175.945312 509.1875 175.570312 508.417969 175.15625 C 507.644531 174.746094 506.898438 174.296875 506.167969 173.808594 C 505.441406 173.324219 504.742188 172.804688 504.066406 172.25 C 503.390625 171.691406 502.742188 171.105469 502.125 170.488281 C 501.503906 169.871094 500.917969 169.222656 500.363281 168.546875 C 499.808594 167.871094 499.289062 167.167969 498.804688 166.441406 C 498.316406 165.714844 497.867188 164.96875 497.453125 164.195312 C 497.042969 163.425781 496.667969 162.636719 496.332031 161.828125 C 495.996094 161.019531 495.703125 160.199219 495.449219 159.363281 C 495.195312 158.523438 494.980469 157.679688 494.808594 156.820312 C 494.636719 155.960938 494.507812 155.097656 494.421875 154.230469 C 494.335938 153.359375 494.292969 152.488281 494.289062 151.613281 Z M 587.136719 205.742188 C 587.136719 204.867188 587.179688 203.996094 587.265625 203.125 C 587.351562 202.253906 587.476562 201.390625 587.648438 200.53125 C 587.820312 199.675781 588.03125 198.828125 588.285156 197.988281 C 588.539062 197.152344 588.832031 196.328125 589.167969 195.519531 C 589.503906 194.710938 589.875 193.921875 590.289062 193.152344 C 590.699219 192.378906 591.148438 191.628906 591.636719 190.902344 C 592.121094 190.175781 592.640625 189.472656 593.195312 188.796875 C 593.75 188.121094 594.335938 187.472656 594.957031 186.855469 C 595.574219 186.234375 596.222656 185.648438 596.898438 185.09375 C 597.574219 184.539062 598.277344 184.015625 599.003906 183.53125 C 599.730469 183.042969 600.480469 182.59375 601.25 182.183594 C 602.023438 181.769531 602.8125 181.394531 603.621094 181.0625 C 604.429688 180.726562 605.25 180.433594 606.089844 180.179688 C 606.925781 179.921875 607.773438 179.710938 608.632812 179.539062 C 609.488281 179.371094 610.355469 179.242188 611.222656 179.15625 C 612.09375 179.070312 612.96875 179.027344 613.84375 179.027344 C 614.71875 179.027344 615.589844 179.070312 616.460938 179.15625 C 617.332031 179.238281 618.195312 179.367188 619.054688 179.539062 C 619.910156 179.710938 620.757812 179.921875 621.597656 180.175781 C 622.433594 180.429688 623.257812 180.722656 624.066406 181.058594 C 624.875 181.390625 625.664062 181.765625 626.433594 182.179688 C 627.207031 182.589844 627.957031 183.039062 628.683594 183.527344 C 629.410156 184.011719 630.113281 184.53125 630.789062 185.085938 C 631.464844 185.640625 632.113281 186.226562 632.730469 186.847656 C 633.351562 187.464844 633.9375 188.113281 634.492188 188.789062 C 635.046875 189.464844 635.566406 190.167969 636.054688 190.894531 C 636.539062 191.621094 636.988281 192.371094 637.402344 193.140625 C 637.816406 193.914062 638.1875 194.703125 638.523438 195.511719 C 638.859375 196.320312 639.152344 197.144531 639.40625 197.980469 C 639.660156 198.816406 639.871094 199.664062 640.042969 200.523438 C 640.214844 201.382812 640.34375 202.246094 640.429688 203.117188 C 640.515625 203.988281 640.558594 204.859375 640.558594 205.734375 C 640.558594 206.609375 640.515625 207.480469 640.429688 208.351562 C 640.34375 209.222656 640.214844 210.085938 640.042969 210.945312 C 639.875 211.804688 639.660156 212.652344 639.40625 213.488281 C 639.152344 214.324219 638.859375 215.148438 638.523438 215.957031 C 638.191406 216.765625 637.816406 217.554688 637.40625 218.324219 C 636.992188 219.097656 636.542969 219.847656 636.058594 220.574219 C 635.570312 221.300781 635.050781 222.003906 634.496094 222.679688 C 633.941406 223.355469 633.355469 224.003906 632.734375 224.621094 C 632.117188 225.242188 631.46875 225.828125 630.792969 226.382812 C 630.117188 226.9375 629.414062 227.457031 628.6875 227.945312 C 627.960938 228.429688 627.210938 228.878906 626.4375 229.292969 C 625.667969 229.703125 624.878906 230.078125 624.070312 230.414062 C 623.261719 230.746094 622.4375 231.042969 621.601562 231.296875 C 620.765625 231.550781 619.917969 231.761719 619.058594 231.933594 C 618.199219 232.105469 617.335938 232.230469 616.464844 232.316406 C 615.59375 232.402344 614.722656 232.445312 613.847656 232.445312 C 612.972656 232.445312 612.101562 232.402344 611.230469 232.316406 C 610.359375 232.226562 609.496094 232.097656 608.640625 231.925781 C 607.78125 231.757812 606.933594 231.542969 606.097656 231.289062 C 605.261719 231.035156 604.441406 230.738281 603.632812 230.40625 C 602.824219 230.070312 602.035156 229.695312 601.265625 229.285156 C 600.496094 228.871094 599.746094 228.421875 599.019531 227.9375 C 598.292969 227.449219 597.589844 226.929688 596.914062 226.375 C 596.238281 225.820312 595.589844 225.234375 594.972656 224.617188 C 594.355469 223.996094 593.769531 223.351562 593.214844 222.675781 C 592.660156 222 592.136719 221.296875 591.652344 220.570312 C 591.164062 219.84375 590.714844 219.09375 590.304688 218.324219 C 589.890625 217.554688 589.515625 216.765625 589.183594 215.957031 C 588.847656 215.148438 588.550781 214.328125 588.296875 213.492188 C 588.042969 212.65625 587.828125 211.808594 587.65625 210.949219 C 587.484375 210.09375 587.355469 209.230469 587.269531 208.359375 C 587.183594 207.488281 587.136719 206.617188 587.136719 205.742188 Z M 685.703125 363.136719 C 684.492188 363.140625 683.28125 363.195312 682.074219 363.300781 C 680.867188 363.40625 679.667969 363.566406 678.472656 363.777344 C 677.28125 363.988281 676.097656 364.25 674.929688 364.5625 C 673.757812 364.875 672.605469 365.238281 671.464844 365.648438 C 670.324219 366.0625 669.207031 366.523438 668.109375 367.035156 C 667.007812 367.542969 665.933594 368.101562 664.882812 368.703125 C 663.832031 369.308594 662.808594 369.953125 661.816406 370.648438 C 660.820312 371.339844 659.859375 372.070312 658.925781 372.847656 C 657.996094 373.621094 657.101562 374.4375 656.238281 375.289062 C 655.378906 376.140625 654.558594 377.03125 653.773438 377.953125 C 652.992188 378.878906 652.25 379.835938 651.546875 380.824219 C 650.847656 381.8125 650.191406 382.828125 649.578125 383.875 C 648.964844 384.917969 648.398438 385.988281 647.878906 387.082031 C 647.359375 388.179688 646.890625 389.292969 646.464844 390.429688 C 646.042969 391.5625 645.667969 392.714844 645.347656 393.882812 C 645.023438 395.050781 644.75 396.230469 644.53125 397.421875 L 531.308594 397.421875 C 530.515625 383.96875 527.640625 370.980469 522.6875 358.449219 L 605.664062 358.449219 C 606.699219 358.445312 607.722656 358.339844 608.734375 358.136719 C 609.75 357.933594 610.734375 357.632812 611.6875 357.238281 C 612.644531 356.839844 613.550781 356.355469 614.410156 355.78125 C 615.269531 355.203125 616.0625 354.550781 616.792969 353.820312 C 617.527344 353.089844 618.179688 352.296875 618.753906 351.4375 C 619.328125 350.578125 619.816406 349.671875 620.214844 348.714844 C 620.609375 347.761719 620.910156 346.777344 621.113281 345.765625 C 621.320312 344.75 621.421875 343.726562 621.425781 342.691406 L 621.425781 246.902344 C 622.273438 246.746094 623.113281 246.5625 623.949219 246.355469 C 624.785156 246.148438 625.613281 245.914062 626.433594 245.65625 C 627.253906 245.398438 628.066406 245.113281 628.871094 244.804688 C 629.671875 244.496094 630.464844 244.164062 631.25 243.804688 C 632.03125 243.445312 632.804688 243.066406 633.5625 242.660156 C 634.324219 242.253906 635.070312 241.828125 635.800781 241.375 C 636.535156 240.921875 637.253906 240.449219 637.957031 239.953125 C 638.660156 239.457031 639.347656 238.941406 640.019531 238.402344 C 640.691406 237.867188 641.347656 237.308594 641.984375 236.730469 C 642.621094 236.148438 643.242188 235.554688 643.839844 234.9375 C 644.441406 234.320312 645.023438 233.683594 645.582031 233.03125 C 646.144531 232.378906 646.6875 231.710938 647.207031 231.023438 C 647.726562 230.339844 648.226562 229.636719 648.703125 228.921875 C 649.179688 228.203125 649.632812 227.472656 650.066406 226.730469 C 650.496094 225.984375 650.90625 225.226562 651.289062 224.457031 C 651.675781 223.6875 652.035156 222.90625 652.375 222.113281 C 652.710938 221.324219 653.023438 220.519531 653.3125 219.710938 C 653.597656 218.898438 653.859375 218.078125 654.097656 217.25 C 654.335938 216.425781 654.546875 215.589844 654.730469 214.75 C 654.917969 213.910156 655.078125 213.0625 655.210938 212.214844 C 655.34375 211.363281 655.449219 210.507812 655.53125 209.652344 C 655.613281 208.796875 655.664062 207.9375 655.695312 207.078125 C 655.722656 206.214844 655.722656 205.355469 655.699219 204.496094 C 655.671875 203.636719 655.621094 202.777344 655.542969 201.917969 C 655.464844 201.0625 655.359375 200.207031 655.230469 199.355469 C 655.097656 198.507812 654.941406 197.660156 654.757812 196.820312 C 654.574219 195.976562 654.367188 195.144531 654.132812 194.316406 C 653.898438 193.488281 653.636719 192.667969 653.351562 191.855469 C 653.066406 191.042969 652.757812 190.238281 652.421875 189.445312 C 652.085938 188.652344 651.726562 187.871094 651.34375 187.101562 C 650.960938 186.328125 650.554688 185.570312 650.125 184.824219 C 649.695312 184.078125 649.246094 183.347656 648.769531 182.628906 C 648.296875 181.910156 647.796875 181.210938 647.28125 180.523438 C 646.761719 179.835938 646.222656 179.164062 645.664062 178.507812 C 645.105469 177.855469 644.527344 177.21875 643.925781 176.601562 C 643.328125 175.980469 642.710938 175.382812 642.074219 174.800781 C 641.4375 174.222656 640.785156 173.660156 640.117188 173.121094 C 639.445312 172.582031 638.757812 172.0625 638.058594 171.566406 C 637.355469 171.066406 636.636719 170.589844 635.90625 170.136719 C 635.175781 169.683594 634.429688 169.253906 633.671875 168.847656 C 632.914062 168.4375 632.144531 168.054688 631.363281 167.695312 C 630.578125 167.335938 629.789062 167 628.984375 166.6875 C 628.183594 166.375 627.371094 166.089844 626.550781 165.828125 C 625.730469 165.566406 624.902344 165.332031 624.070312 165.121094 C 623.234375 164.914062 622.394531 164.726562 621.546875 164.570312 C 620.703125 164.410156 619.851562 164.28125 618.996094 164.171875 C 618.144531 164.066406 617.285156 163.988281 616.425781 163.933594 C 615.566406 163.882812 614.707031 163.855469 613.847656 163.855469 C 612.984375 163.855469 612.125 163.882812 611.265625 163.933594 C 610.40625 163.988281 609.550781 164.066406 608.695312 164.171875 C 607.84375 164.28125 606.992188 164.410156 606.148438 164.570312 C 605.300781 164.726562 604.460938 164.914062 603.625 165.121094 C 602.789062 165.332031 601.964844 165.566406 601.144531 165.828125 C 600.324219 166.089844 599.511719 166.375 598.707031 166.6875 C 597.90625 167 597.113281 167.335938 596.332031 167.695312 C 595.550781 168.054688 594.78125 168.4375 594.023438 168.847656 C 593.265625 169.253906 592.519531 169.683594 591.789062 170.136719 C 591.054688 170.589844 590.339844 171.066406 589.636719 171.566406 C 588.933594 172.0625 588.25 172.582031 587.578125 173.121094 C 586.90625 173.660156 586.253906 174.222656 585.617188 174.800781 C 584.984375 175.382812 584.367188 175.980469 583.765625 176.601562 C 583.167969 177.21875 582.589844 177.855469 582.03125 178.507812 C 581.46875 179.164062 580.929688 179.835938 580.414062 180.523438 C 579.894531 181.210938 579.398438 181.910156 578.925781 182.628906 C 578.449219 183.347656 577.996094 184.078125 577.566406 184.824219 C 577.136719 185.570312 576.730469 186.328125 576.347656 187.101562 C 575.964844 187.871094 575.605469 188.652344 575.273438 189.445312 C 574.9375 190.238281 574.628906 191.042969 574.34375 191.855469 C 574.058594 192.667969 573.796875 193.488281 573.5625 194.316406 C 573.328125 195.144531 573.121094 195.976562 572.9375 196.820312 C 572.753906 197.660156 572.597656 198.507812 572.464844 199.355469 C 572.335938 200.207031 572.230469 201.0625 572.152344 201.917969 C 572.074219 202.777344 572.023438 203.636719 571.996094 204.496094 C 571.972656 205.355469 571.972656 206.214844 572 207.078125 C 572.027344 207.9375 572.082031 208.796875 572.164062 209.652344 C 572.242188 210.507812 572.351562 211.363281 572.484375 212.214844 C 572.617188 213.0625 572.777344 213.910156 572.964844 214.75 C 573.148438 215.589844 573.359375 216.425781 573.597656 217.25 C 573.832031 218.078125 574.097656 218.898438 574.382812 219.710938 C 574.671875 220.519531 574.984375 221.324219 575.320312 222.113281 C 575.65625 222.90625 576.019531 223.6875 576.402344 224.457031 C 576.789062 225.226562 577.195312 225.984375 577.628906 226.730469 C 578.0625 227.472656 578.515625 228.203125 578.992188 228.921875 C 579.46875 229.636719 579.96875 230.339844 580.488281 231.023438 C 581.007812 231.710938 581.546875 232.378906 582.109375 233.03125 C 582.671875 233.683594 583.253906 234.320312 583.851562 234.9375 C 584.453125 235.554688 585.074219 236.148438 585.710938 236.730469 C 586.347656 237.308594 587.003906 237.867188 587.675781 238.402344 C 588.347656 238.941406 589.035156 239.457031 589.738281 239.953125 C 590.441406 240.449219 591.160156 240.921875 591.890625 241.375 C 592.625 241.828125 593.371094 242.253906 594.132812 242.660156 C 594.890625 243.066406 595.660156 243.445312 596.445312 243.804688 C 597.226562 244.164062 598.019531 244.496094 598.824219 244.804688 C 599.628906 245.113281 600.441406 245.398438 601.261719 245.65625 C 602.082031 245.914062 602.910156 246.148438 603.746094 246.355469 C 604.582031 246.5625 605.421875 246.746094 606.269531 246.902344 L 606.269531 342.691406 C 606.261719 342.855469 606.203125 342.996094 606.085938 343.113281 C 605.96875 343.230469 605.828125 343.289062 605.664062 343.296875 L 515.546875 343.296875 C 511.332031 335.734375 506.402344 328.671875 500.757812 322.109375 C 495.113281 315.546875 488.867188 309.613281 482.019531 304.316406 L 512.832031 304.316406 C 513.867188 304.3125 514.890625 304.210938 515.902344 304.007812 C 516.914062 303.804688 517.898438 303.503906 518.851562 303.105469 C 519.804688 302.710938 520.714844 302.222656 521.570312 301.648438 C 522.429688 301.074219 523.222656 300.421875 523.953125 299.691406 C 524.683594 298.957031 525.335938 298.164062 525.910156 297.304688 C 526.484375 296.445312 526.96875 295.539062 527.363281 294.582031 C 527.761719 293.628906 528.058594 292.644531 528.261719 291.632812 C 528.464844 290.617188 528.566406 289.59375 528.566406 288.5625 L 528.566406 192.777344 C 529.410156 192.621094 530.253906 192.4375 531.089844 192.230469 C 531.921875 192.023438 532.75 191.789062 533.574219 191.53125 C 534.394531 191.273438 535.207031 190.988281 536.011719 190.679688 C 536.8125 190.371094 537.605469 190.039062 538.390625 189.679688 C 539.171875 189.324219 539.945312 188.941406 540.703125 188.535156 C 541.460938 188.132812 542.207031 187.703125 542.941406 187.25 C 543.675781 186.800781 544.394531 186.328125 545.097656 185.832031 C 545.800781 185.335938 546.488281 184.820312 547.160156 184.28125 C 547.832031 183.742188 548.488281 183.183594 549.125 182.605469 C 549.761719 182.027344 550.382812 181.429688 550.980469 180.8125 C 551.582031 180.195312 552.164062 179.5625 552.726562 178.910156 C 553.285156 178.257812 553.828125 177.585938 554.347656 176.902344 C 554.867188 176.214844 555.367188 175.515625 555.84375 174.796875 C 556.320312 174.082031 556.773438 173.351562 557.207031 172.605469 C 557.636719 171.863281 558.046875 171.105469 558.433594 170.335938 C 558.816406 169.566406 559.179688 168.785156 559.515625 167.992188 C 559.851562 167.199219 560.164062 166.398438 560.453125 165.585938 C 560.738281 164.777344 561.003906 163.957031 561.238281 163.128906 C 561.476562 162.300781 561.6875 161.46875 561.875 160.625 C 562.058594 159.785156 562.21875 158.941406 562.351562 158.089844 C 562.484375 157.238281 562.59375 156.386719 562.671875 155.527344 C 562.753906 154.671875 562.808594 153.8125 562.835938 152.953125 C 562.863281 152.09375 562.867188 151.230469 562.839844 150.371094 C 562.816406 149.511719 562.761719 148.652344 562.683594 147.796875 C 562.605469 146.9375 562.503906 146.085938 562.371094 145.234375 C 562.242188 144.382812 562.082031 143.535156 561.902344 142.695312 C 561.71875 141.855469 561.507812 141.019531 561.273438 140.191406 C 561.039062 139.363281 560.78125 138.542969 560.496094 137.730469 C 560.210938 136.917969 559.898438 136.117188 559.566406 135.324219 C 559.230469 134.53125 558.871094 133.746094 558.488281 132.976562 C 558.105469 132.207031 557.699219 131.449219 557.269531 130.703125 C 556.839844 129.957031 556.386719 129.222656 555.914062 128.503906 C 555.4375 127.789062 554.941406 127.085938 554.425781 126.398438 C 553.90625 125.710938 553.367188 125.039062 552.808594 124.386719 C 552.25 123.730469 551.667969 123.09375 551.070312 122.476562 C 550.472656 121.859375 549.855469 121.257812 549.21875 120.679688 C 548.582031 120.097656 547.929688 119.539062 547.257812 118.996094 C 546.589844 118.457031 545.902344 117.9375 545.199219 117.441406 C 544.5 116.941406 543.78125 116.46875 543.050781 116.011719 C 542.316406 115.558594 541.574219 115.128906 540.816406 114.722656 C 540.058594 114.3125 539.285156 113.929688 538.503906 113.570312 C 537.722656 113.210938 536.929688 112.875 536.128906 112.5625 C 535.324219 112.25 534.515625 111.964844 533.695312 111.703125 C 532.875 111.441406 532.046875 111.207031 531.210938 110.996094 C 530.378906 110.789062 529.535156 110.601562 528.691406 110.445312 C 527.84375 110.285156 526.996094 110.152344 526.140625 110.046875 C 525.285156 109.941406 524.429688 109.863281 523.570312 109.808594 C 522.710938 109.757812 521.851562 109.730469 520.988281 109.730469 C 520.128906 109.730469 519.269531 109.757812 518.410156 109.808594 C 517.550781 109.863281 516.695312 109.941406 515.839844 110.046875 C 514.984375 110.152344 514.136719 110.285156 513.289062 110.445312 C 512.441406 110.601562 511.601562 110.789062 510.769531 110.996094 C 509.933594 111.207031 509.105469 111.441406 508.285156 111.703125 C 507.464844 111.964844 506.652344 112.25 505.851562 112.5625 C 505.046875 112.875 504.257812 113.210938 503.472656 113.570312 C 502.691406 113.929688 501.921875 114.3125 501.164062 114.722656 C 500.40625 115.128906 499.660156 115.558594 498.929688 116.011719 C 498.199219 116.46875 497.480469 116.941406 496.777344 117.441406 C 496.078125 117.9375 495.390625 118.457031 494.71875 118.996094 C 494.050781 119.539062 493.398438 120.097656 492.761719 120.679688 C 492.125 121.257812 491.507812 121.859375 490.910156 122.476562 C 490.3125 123.09375 489.730469 123.730469 489.171875 124.386719 C 488.613281 125.039062 488.074219 125.710938 487.554688 126.398438 C 487.039062 127.085938 486.539062 127.789062 486.066406 128.503906 C 485.589844 129.222656 485.140625 129.957031 484.710938 130.703125 C 484.28125 131.449219 483.875 132.207031 483.492188 132.976562 C 483.109375 133.746094 482.75 134.53125 482.414062 135.324219 C 482.078125 136.117188 481.769531 136.917969 481.484375 137.730469 C 481.199219 138.542969 480.941406 139.363281 480.707031 140.191406 C 480.472656 141.019531 480.261719 141.855469 480.078125 142.695312 C 479.894531 143.535156 479.738281 144.382812 479.609375 145.234375 C 479.476562 146.085938 479.371094 146.9375 479.292969 147.796875 C 479.214844 148.652344 479.164062 149.511719 479.140625 150.371094 C 479.113281 151.230469 479.117188 152.09375 479.144531 152.953125 C 479.171875 153.8125 479.226562 154.671875 479.304688 155.527344 C 479.386719 156.386719 479.492188 157.238281 479.628906 158.089844 C 479.761719 158.941406 479.921875 159.785156 480.105469 160.625 C 480.292969 161.46875 480.503906 162.300781 480.738281 163.128906 C 480.976562 163.957031 481.238281 164.777344 481.527344 165.585938 C 481.816406 166.398438 482.128906 167.199219 482.464844 167.992188 C 482.800781 168.785156 483.164062 169.566406 483.546875 170.335938 C 483.933594 171.105469 484.339844 171.863281 484.773438 172.605469 C 485.203125 173.351562 485.660156 174.082031 486.136719 174.796875 C 486.613281 175.515625 487.113281 176.214844 487.632812 176.902344 C 488.152344 177.585938 488.691406 178.257812 489.253906 178.910156 C 489.816406 179.5625 490.398438 180.195312 490.996094 180.8125 C 491.597656 181.429688 492.21875 182.027344 492.855469 182.605469 C 493.492188 183.183594 494.148438 183.742188 494.820312 184.28125 C 495.492188 184.820312 496.179688 185.335938 496.882812 185.832031 C 497.585938 186.328125 498.304688 186.800781 499.039062 187.25 C 499.769531 187.703125 500.515625 188.132812 501.277344 188.535156 C 502.035156 188.941406 502.808594 189.324219 503.589844 189.679688 C 504.375 190.039062 505.167969 190.371094 505.96875 190.679688 C 506.773438 190.988281 507.585938 191.273438 508.40625 191.53125 C 509.226562 191.789062 510.054688 192.023438 510.890625 192.230469 C 511.726562 192.4375 512.566406 192.621094 513.414062 192.777344 L 513.414062 288.5625 C 513.410156 288.726562 513.351562 288.863281 513.234375 288.980469 C 513.121094 289.097656 512.980469 289.160156 512.816406 289.164062 L 456.96875 289.164062 C 454.558594 288.066406 452.113281 287.046875 449.640625 286.101562 C 447.164062 285.15625 444.660156 284.289062 442.132812 283.5 C 439.601562 282.714844 437.050781 282.003906 434.476562 281.375 C 431.90625 280.746094 429.3125 280.199219 426.707031 279.730469 C 424.097656 279.261719 421.476562 278.878906 418.847656 278.574219 C 416.214844 278.269531 413.574219 278.046875 410.929688 277.910156 C 408.285156 277.769531 405.636719 277.714844 402.988281 277.742188 C 400.339844 277.769531 397.691406 277.875 395.050781 278.066406 C 392.40625 278.261719 389.773438 278.535156 387.148438 278.890625 C 384.523438 279.246094 381.910156 279.683594 379.3125 280.203125 C 376.714844 280.722656 374.136719 281.320312 371.574219 282.003906 C 369.015625 282.683594 366.476562 283.441406 363.964844 284.28125 C 361.453125 285.121094 358.96875 286.035156 356.511719 287.03125 C 354.054688 288.023438 351.632812 289.09375 349.246094 290.238281 C 346.855469 291.382812 344.503906 292.601562 342.191406 293.894531 C 339.878906 295.1875 337.609375 296.550781 335.378906 297.984375 C 333.152344 299.417969 330.972656 300.917969 328.835938 302.488281 C 326.703125 304.058594 324.621094 305.695312 322.589844 307.394531 C 320.558594 309.09375 318.578125 310.855469 316.65625 312.679688 C 314.734375 314.503906 312.871094 316.386719 311.070312 318.324219 C 309.265625 320.265625 307.523438 322.261719 305.84375 324.308594 C 304.164062 326.359375 302.546875 328.457031 301 330.605469 C 299.449219 332.757812 297.972656 334.953125 296.558594 337.195312 C 295.148438 339.4375 293.808594 341.71875 292.539062 344.046875 C 291.269531 346.371094 290.074219 348.734375 288.953125 351.136719 C 287.832031 353.535156 286.785156 355.96875 285.816406 358.433594 C 284.847656 360.898438 283.957031 363.394531 283.140625 365.914062 C 282.328125 368.4375 281.59375 370.980469 280.941406 373.546875 C 280.285156 376.113281 279.710938 378.699219 279.21875 381.300781 C 278.722656 383.90625 278.3125 386.523438 277.984375 389.148438 C 277.652344 391.777344 277.40625 394.414062 277.238281 397.058594 C 277.074219 399.703125 276.992188 402.351562 276.992188 405 C 276.992188 407.648438 277.074219 410.296875 277.238281 412.941406 C 277.40625 415.585938 277.652344 418.222656 277.984375 420.851562 C 278.3125 423.480469 278.722656 426.09375 279.21875 428.699219 C 279.710938 431.300781 280.285156 433.886719 280.941406 436.453125 C 281.59375 439.019531 282.328125 441.5625 283.140625 444.085938 C 283.957031 446.605469 284.847656 449.101562 285.816406 451.566406 C 286.785156 454.03125 287.832031 456.464844 288.953125 458.863281 C 290.074219 461.265625 291.269531 463.628906 292.539062 465.953125 C 293.808594 468.28125 295.148438 470.5625 296.558594 472.804688 C 297.972656 475.046875 299.449219 477.242188 301 479.394531 C 302.546875 481.542969 304.164062 483.640625 305.84375 485.691406 C 307.523438 487.738281 309.265625 489.734375 311.070312 491.675781 C 312.871094 493.613281 314.734375 495.496094 316.65625 497.320312 C 318.578125 499.144531 320.558594 500.90625 322.589844 502.605469 C 324.621094 504.304688 326.703125 505.941406 328.835938 507.511719 C 330.972656 509.082031 333.152344 510.582031 335.378906 512.015625 C 337.609375 513.449219 339.878906 514.8125 342.191406 516.105469 C 344.503906 517.398438 346.855469 518.617188 349.246094 519.761719 C 351.632812 520.90625 354.054688 521.976562 356.511719 522.96875 C 358.96875 523.964844 361.453125 524.878906 363.964844 525.71875 C 366.476562 526.558594 369.015625 527.316406 371.574219 527.996094 C 374.136719 528.679688 376.714844 529.277344 379.3125 529.796875 C 381.910156 530.316406 384.523438 530.753906 387.148438 531.109375 C 389.773438 531.464844 392.40625 531.738281 395.050781 531.933594 C 397.691406 532.125 400.339844 532.234375 402.988281 532.257812 C 405.636719 532.285156 408.285156 532.230469 410.929688 532.089844 C 413.574219 531.953125 416.214844 531.730469 418.847656 531.425781 C 421.476562 531.121094 424.097656 530.738281 426.707031 530.269531 C 429.3125 529.800781 431.90625 529.253906 434.476562 528.625 C 437.050781 527.996094 439.601562 527.285156 442.132812 526.5 C 444.660156 525.710938 447.164062 524.84375 449.640625 523.898438 C 452.113281 522.953125 454.558594 521.933594 456.96875 520.835938 L 512.832031 520.835938 C 512.996094 520.839844 513.136719 520.902344 513.25 521.019531 C 513.367188 521.136719 513.425781 521.273438 513.429688 521.4375 L 513.429688 617.230469 C 512.582031 617.386719 511.742188 617.566406 510.90625 617.777344 C 510.070312 617.984375 509.242188 618.214844 508.417969 618.476562 C 507.597656 618.734375 506.785156 619.019531 505.980469 619.328125 C 505.175781 619.636719 504.382812 619.96875 503.601562 620.328125 C 502.816406 620.683594 502.046875 621.066406 501.285156 621.472656 C 500.527344 621.878906 499.78125 622.304688 499.046875 622.757812 C 498.3125 623.207031 497.59375 623.683594 496.890625 624.179688 C 496.1875 624.671875 495.5 625.191406 494.828125 625.730469 C 494.152344 626.265625 493.5 626.824219 492.863281 627.402344 C 492.222656 627.984375 491.605469 628.582031 491.003906 629.195312 C 490.402344 629.8125 489.820312 630.449219 489.257812 631.101562 C 488.699219 631.753906 488.15625 632.421875 487.636719 633.109375 C 487.117188 633.796875 486.617188 634.496094 486.140625 635.214844 C 485.664062 635.929688 485.207031 636.660156 484.777344 637.40625 C 484.34375 638.152344 483.933594 638.910156 483.550781 639.679688 C 483.164062 640.449219 482.804688 641.230469 482.464844 642.023438 C 482.128906 642.816406 481.816406 643.617188 481.527344 644.429688 C 481.242188 645.238281 480.976562 646.058594 480.742188 646.886719 C 480.503906 647.714844 480.292969 648.550781 480.105469 649.390625 C 479.921875 650.230469 479.761719 651.078125 479.628906 651.929688 C 479.496094 652.777344 479.386719 653.632812 479.304688 654.488281 C 479.226562 655.347656 479.171875 656.207031 479.144531 657.066406 C 479.117188 657.925781 479.113281 658.789062 479.140625 659.648438 C 479.164062 660.507812 479.214844 661.367188 479.292969 662.226562 C 479.371094 663.085938 479.476562 663.9375 479.609375 664.789062 C 479.738281 665.640625 479.894531 666.488281 480.078125 667.328125 C 480.261719 668.167969 480.472656 669.003906 480.707031 669.832031 C 480.941406 670.660156 481.199219 671.480469 481.484375 672.292969 C 481.769531 673.105469 482.082031 673.910156 482.414062 674.703125 C 482.75 675.496094 483.109375 676.28125 483.492188 677.050781 C 483.875 677.820312 484.28125 678.582031 484.710938 679.328125 C 485.140625 680.074219 485.59375 680.804688 486.066406 681.523438 C 486.542969 682.242188 487.039062 682.945312 487.558594 683.632812 C 488.074219 684.320312 488.613281 684.992188 489.175781 685.644531 C 489.734375 686.300781 490.3125 686.9375 490.914062 687.554688 C 491.511719 688.175781 492.128906 688.773438 492.765625 689.355469 C 493.402344 689.933594 494.054688 690.496094 494.726562 691.035156 C 495.394531 691.574219 496.082031 692.09375 496.785156 692.59375 C 497.488281 693.089844 498.203125 693.566406 498.9375 694.019531 C 499.667969 694.472656 500.414062 694.90625 501.171875 695.3125 C 501.929688 695.71875 502.699219 696.105469 503.484375 696.464844 C 504.265625 696.824219 505.058594 697.160156 505.859375 697.472656 C 506.664062 697.785156 507.476562 698.070312 508.296875 698.332031 C 509.117188 698.59375 509.945312 698.828125 510.777344 699.039062 C 511.613281 699.25 512.453125 699.433594 513.300781 699.589844 C 514.148438 699.75 514.996094 699.882812 515.851562 699.988281 C 516.707031 700.09375 517.5625 700.171875 518.421875 700.226562 C 519.28125 700.28125 520.144531 700.304688 521.003906 700.304688 C 521.867188 700.304688 522.726562 700.28125 523.585938 700.226562 C 524.445312 700.171875 525.300781 700.09375 526.15625 699.988281 C 527.011719 699.882812 527.859375 699.75 528.707031 699.589844 C 529.554688 699.433594 530.394531 699.25 531.230469 699.039062 C 532.066406 698.828125 532.894531 698.59375 533.714844 698.332031 C 534.535156 698.070312 535.34375 697.785156 536.148438 697.472656 C 536.953125 697.160156 537.742188 696.824219 538.527344 696.464844 C 539.308594 696.105469 540.078125 695.71875 540.835938 695.3125 C 541.59375 694.90625 542.339844 694.472656 543.070312 694.019531 C 543.804688 693.566406 544.519531 693.089844 545.222656 692.59375 C 545.925781 692.09375 546.613281 691.574219 547.285156 691.035156 C 547.953125 690.496094 548.605469 689.933594 549.242188 689.355469 C 549.878906 688.773438 550.496094 688.175781 551.09375 687.554688 C 551.695312 686.9375 552.273438 686.300781 552.832031 685.644531 C 553.394531 684.992188 553.933594 684.320312 554.449219 683.632812 C 554.96875 682.945312 555.464844 682.242188 555.941406 681.523438 C 556.414062 680.804688 556.867188 680.074219 557.296875 679.328125 C 557.726562 678.582031 558.132812 677.820312 558.515625 677.050781 C 558.898438 676.28125 559.257812 675.496094 559.59375 674.703125 C 559.929688 673.910156 560.238281 673.105469 560.523438 672.292969 C 560.808594 671.480469 561.066406 670.660156 561.304688 669.832031 C 561.539062 669.003906 561.746094 668.167969 561.929688 667.328125 C 562.113281 666.488281 562.269531 665.640625 562.402344 664.789062 C 562.53125 663.9375 562.636719 663.085938 562.714844 662.226562 C 562.792969 661.367188 562.84375 660.507812 562.871094 659.648438 C 562.894531 658.789062 562.894531 657.925781 562.863281 657.066406 C 562.835938 656.207031 562.78125 655.347656 562.703125 654.488281 C 562.621094 653.632812 562.515625 652.777344 562.378906 651.929688 C 562.246094 651.078125 562.085938 650.230469 561.902344 649.390625 C 561.714844 648.550781 561.503906 647.714844 561.265625 646.886719 C 561.03125 646.058594 560.769531 645.238281 560.480469 644.429688 C 560.191406 643.617188 559.878906 642.816406 559.542969 642.023438 C 559.207031 641.230469 558.84375 640.449219 558.457031 639.679688 C 558.074219 638.910156 557.664062 638.152344 557.234375 637.40625 C 556.800781 636.660156 556.347656 635.929688 555.867188 635.214844 C 555.390625 634.496094 554.890625 633.796875 554.371094 633.109375 C 553.851562 632.421875 553.3125 631.753906 552.75 631.101562 C 552.1875 630.449219 551.605469 629.8125 551.003906 629.195312 C 550.402344 628.582031 549.785156 627.984375 549.148438 627.402344 C 548.507812 626.824219 547.855469 626.265625 547.183594 625.730469 C 546.511719 625.191406 545.820312 624.671875 545.117188 624.179688 C 544.414062 623.683594 543.695312 623.207031 542.960938 622.757812 C 542.226562 622.304688 541.480469 621.878906 540.722656 621.472656 C 539.960938 621.066406 539.191406 620.683594 538.40625 620.328125 C 537.625 619.96875 536.832031 619.636719 536.027344 619.328125 C 535.222656 619.019531 534.410156 618.734375 533.589844 618.476562 C 532.769531 618.214844 531.941406 617.984375 531.105469 617.777344 C 530.269531 617.566406 529.425781 617.386719 528.578125 617.230469 L 528.578125 521.4375 C 528.578125 520.40625 528.476562 519.378906 528.277344 518.367188 C 528.074219 517.351562 527.773438 516.367188 527.378906 515.414062 C 526.984375 514.457031 526.5 513.550781 525.925781 512.691406 C 525.347656 511.832031 524.695312 511.035156 523.964844 510.304688 C 523.234375 509.570312 522.441406 508.917969 521.578125 508.34375 C 520.71875 507.769531 519.8125 507.285156 518.859375 506.886719 C 517.902344 506.492188 516.917969 506.191406 515.90625 505.988281 C 514.890625 505.785156 513.867188 505.683594 512.832031 505.683594 L 482.019531 505.683594 C 488.867188 500.386719 495.113281 494.453125 500.757812 487.890625 C 506.402344 481.328125 511.332031 474.265625 515.546875 466.703125 L 605.664062 466.703125 C 605.828125 466.710938 605.96875 466.769531 606.085938 466.886719 C 606.203125 467.003906 606.261719 467.144531 606.269531 467.308594 L 606.269531 563.097656 C 605.421875 563.253906 604.582031 563.4375 603.746094 563.644531 C 602.910156 563.851562 602.082031 564.085938 601.261719 564.34375 C 600.441406 564.601562 599.628906 564.886719 598.828125 565.195312 C 598.023438 565.503906 597.230469 565.835938 596.449219 566.195312 C 595.664062 566.550781 594.894531 566.933594 594.136719 567.339844 C 593.375 567.746094 592.628906 568.171875 591.898438 568.625 C 591.164062 569.074219 590.449219 569.546875 589.742188 570.042969 C 589.039062 570.539062 588.351562 571.054688 587.679688 571.59375 C 587.011719 572.132812 586.355469 572.691406 585.71875 573.269531 C 585.082031 573.847656 584.460938 574.445312 583.863281 575.0625 C 583.261719 575.675781 582.679688 576.3125 582.121094 576.964844 C 581.558594 577.617188 581.019531 578.285156 580.5 578.96875 C 579.976562 579.65625 579.480469 580.355469 579.003906 581.074219 C 578.527344 581.789062 578.074219 582.519531 577.640625 583.265625 C 577.207031 584.007812 576.800781 584.765625 576.414062 585.535156 C 576.03125 586.304688 575.667969 587.085938 575.332031 587.878906 C 574.996094 588.667969 574.683594 589.472656 574.398438 590.28125 C 574.109375 591.09375 573.847656 591.910156 573.609375 592.738281 C 573.375 593.566406 573.160156 594.398438 572.976562 595.242188 C 572.792969 596.082031 572.632812 596.925781 572.5 597.777344 C 572.363281 598.625 572.257812 599.480469 572.175781 600.335938 C 572.097656 601.191406 572.042969 602.050781 572.015625 602.910156 C 571.988281 603.769531 571.984375 604.632812 572.011719 605.492188 C 572.035156 606.351562 572.089844 607.210938 572.167969 608.066406 C 572.246094 608.921875 572.347656 609.777344 572.480469 610.628906 C 572.609375 611.476562 572.769531 612.324219 572.949219 613.164062 C 573.132812 614.003906 573.34375 614.839844 573.578125 615.667969 C 573.8125 616.496094 574.070312 617.316406 574.355469 618.128906 C 574.640625 618.9375 574.953125 619.742188 575.285156 620.535156 C 575.621094 621.328125 575.980469 622.109375 576.363281 622.878906 C 576.746094 623.648438 577.152344 624.40625 577.582031 625.152344 C 578.007812 625.898438 578.460938 626.632812 578.9375 627.347656 C 579.410156 628.066406 579.90625 628.769531 580.425781 629.457031 C 580.945312 630.144531 581.480469 630.8125 582.042969 631.46875 C 582.601562 632.121094 583.179688 632.757812 583.777344 633.375 C 584.375 633.992188 584.992188 634.59375 585.628906 635.171875 C 586.265625 635.753906 586.917969 636.3125 587.585938 636.851562 C 588.257812 637.394531 588.945312 637.910156 589.644531 638.410156 C 590.347656 638.90625 591.0625 639.382812 591.796875 639.835938 C 592.527344 640.289062 593.273438 640.71875 594.03125 641.125 C 594.789062 641.535156 595.558594 641.917969 596.339844 642.277344 C 597.121094 642.636719 597.914062 642.972656 598.714844 643.285156 C 599.515625 643.59375 600.328125 643.882812 601.148438 644.140625 C 601.96875 644.402344 602.792969 644.640625 603.628906 644.847656 C 604.464844 645.058594 605.304688 645.242188 606.148438 645.402344 C 606.996094 645.558594 607.84375 645.691406 608.699219 645.796875 C 609.554688 645.902344 610.410156 645.984375 611.269531 646.035156 C 612.128906 646.089844 612.988281 646.117188 613.847656 646.117188 C 614.707031 646.117188 615.566406 646.089844 616.425781 646.035156 C 617.285156 645.984375 618.140625 645.902344 618.996094 645.796875 C 619.847656 645.691406 620.699219 645.558594 621.542969 645.402344 C 622.390625 645.242188 623.230469 645.058594 624.066406 644.847656 C 624.898438 644.640625 625.726562 644.402344 626.546875 644.140625 C 627.367188 643.882812 628.175781 643.59375 628.980469 643.285156 C 629.78125 642.972656 630.574219 642.636719 631.355469 642.277344 C 632.136719 641.917969 632.90625 641.535156 633.664062 641.125 C 634.421875 640.71875 635.167969 640.289062 635.898438 639.835938 C 636.628906 639.382812 637.347656 638.90625 638.046875 638.410156 C 638.75 637.910156 639.4375 637.394531 640.105469 636.851562 C 640.777344 636.3125 641.429688 635.753906 642.066406 635.171875 C 642.699219 634.59375 643.316406 633.992188 643.917969 633.375 C 644.515625 632.757812 645.09375 632.121094 645.652344 631.46875 C 646.210938 630.8125 646.75 630.144531 647.269531 629.457031 C 647.785156 628.769531 648.28125 628.066406 648.757812 627.347656 C 649.230469 626.632812 649.683594 625.898438 650.113281 625.152344 C 650.542969 624.40625 650.949219 623.648438 651.332031 622.878906 C 651.714844 622.109375 652.074219 621.328125 652.410156 620.535156 C 652.742188 619.742188 653.050781 618.9375 653.335938 618.128906 C 653.621094 617.316406 653.882812 616.496094 654.117188 615.667969 C 654.351562 614.839844 654.558594 614.003906 654.742188 613.164062 C 654.925781 612.324219 655.082031 611.476562 655.214844 610.628906 C 655.34375 609.777344 655.449219 608.921875 655.527344 608.066406 C 655.605469 607.210938 655.65625 606.351562 655.683594 605.492188 C 655.707031 604.632812 655.707031 603.769531 655.679688 602.910156 C 655.652344 602.050781 655.597656 601.191406 655.515625 600.335938 C 655.4375 599.480469 655.328125 598.625 655.195312 597.777344 C 655.0625 596.925781 654.902344 596.082031 654.71875 595.242188 C 654.53125 594.398438 654.320312 593.566406 654.085938 592.738281 C 653.847656 591.910156 653.585938 591.09375 653.296875 590.28125 C 653.011719 589.472656 652.699219 588.667969 652.359375 587.878906 C 652.023438 587.085938 651.664062 586.304688 651.277344 585.535156 C 650.894531 584.765625 650.484375 584.007812 650.054688 583.265625 C 649.621094 582.519531 649.167969 581.789062 648.691406 581.074219 C 648.214844 580.355469 647.714844 579.65625 647.195312 578.972656 C 646.675781 578.285156 646.136719 577.617188 645.574219 576.964844 C 645.011719 576.3125 644.433594 575.675781 643.832031 575.0625 C 643.230469 574.445312 642.613281 573.847656 641.976562 573.269531 C 641.339844 572.691406 640.683594 572.132812 640.011719 571.59375 C 639.339844 571.054688 638.652344 570.539062 637.949219 570.042969 C 637.246094 569.546875 636.527344 569.074219 635.796875 568.625 C 635.0625 568.171875 634.316406 567.746094 633.558594 567.339844 C 632.800781 566.933594 632.027344 566.550781 631.246094 566.195312 C 630.464844 565.835938 629.671875 565.503906 628.867188 565.195312 C 628.0625 564.886719 627.253906 564.601562 626.429688 564.34375 C 625.609375 564.085938 624.78125 563.851562 623.949219 563.644531 C 623.113281 563.4375 622.273438 563.253906 621.425781 563.097656 L 621.425781 467.308594 C 621.421875 466.273438 621.320312 465.25 621.113281 464.234375 C 620.910156 463.222656 620.609375 462.238281 620.214844 461.285156 C 619.816406 460.328125 619.328125 459.421875 618.753906 458.5625 C 618.179688 457.703125 617.527344 456.910156 616.792969 456.179688 C 616.0625 455.449219 615.269531 454.796875 614.410156 454.21875 C 613.550781 453.644531 612.644531 453.160156 611.6875 452.761719 C 610.734375 452.367188 609.75 452.066406 608.734375 451.863281 C 607.722656 451.660156 606.699219 451.554688 605.664062 451.550781 L 522.71875 451.550781 C 527.667969 439.019531 530.542969 426.03125 531.339844 412.578125 L 644.558594 412.578125 C 644.796875 413.875 645.097656 415.15625 645.457031 416.425781 C 645.816406 417.691406 646.234375 418.941406 646.710938 420.167969 C 647.191406 421.398438 647.722656 422.601562 648.316406 423.777344 C 648.90625 424.957031 649.550781 426.105469 650.25 427.222656 C 650.953125 428.339844 651.703125 429.417969 652.503906 430.464844 C 653.304688 431.511719 654.15625 432.519531 655.050781 433.484375 C 655.949219 434.449219 656.886719 435.371094 657.871094 436.246094 C 658.855469 437.125 659.878906 437.953125 660.941406 438.734375 C 662.003906 439.515625 663.101562 440.242188 664.230469 440.917969 C 665.363281 441.597656 666.523438 442.21875 667.710938 442.785156 C 668.902344 443.351562 670.113281 443.863281 671.351562 444.316406 C 672.589844 444.769531 673.847656 445.160156 675.121094 445.496094 C 676.398438 445.828125 677.683594 446.101562 678.984375 446.316406 C 680.285156 446.527344 681.59375 446.675781 682.910156 446.765625 C 684.222656 446.855469 685.539062 446.882812 686.855469 446.847656 C 688.175781 446.8125 689.488281 446.714844 690.796875 446.554688 C 692.105469 446.394531 693.402344 446.171875 694.691406 445.890625 C 695.976562 445.609375 697.246094 445.265625 698.503906 444.863281 C 699.757812 444.460938 700.992188 444 702.203125 443.484375 C 703.414062 442.964844 704.597656 442.390625 705.757812 441.757812 C 706.914062 441.128906 708.039062 440.445312 709.132812 439.707031 C 710.222656 438.972656 711.28125 438.183594 712.296875 437.347656 C 713.316406 436.511719 714.292969 435.628906 715.230469 434.699219 C 716.164062 433.773438 717.054688 432.800781 717.894531 431.789062 C 718.738281 430.773438 719.535156 429.726562 720.277344 428.636719 C 721.023438 427.550781 721.714844 426.429688 722.351562 425.277344 C 722.988281 424.125 723.574219 422.941406 724.097656 421.734375 C 724.625 420.527344 725.09375 419.296875 725.503906 418.042969 C 725.917969 416.792969 726.265625 415.523438 726.558594 414.238281 C 726.847656 412.953125 727.078125 411.65625 727.246094 410.347656 C 727.414062 409.042969 727.523438 407.730469 727.566406 406.410156 C 727.609375 405.09375 727.59375 403.777344 727.511719 402.460938 C 727.433594 401.148438 727.292969 399.839844 727.085938 398.535156 C 726.882812 397.234375 726.621094 395.945312 726.292969 394.667969 C 725.96875 393.390625 725.585938 392.132812 725.140625 390.890625 C 724.695312 389.648438 724.195312 388.433594 723.636719 387.238281 C 723.074219 386.046875 722.460938 384.882812 721.792969 383.746094 C 721.125 382.609375 720.402344 381.507812 719.628906 380.441406 C 718.855469 379.375 718.035156 378.34375 717.164062 377.355469 C 716.292969 376.367188 715.378906 375.417969 714.417969 374.515625 C 713.457031 373.613281 712.457031 372.757812 711.417969 371.949219 C 710.378906 371.140625 709.300781 370.382812 708.1875 369.675781 C 707.078125 368.96875 705.933594 368.3125 704.761719 367.714844 C 703.585938 367.117188 702.386719 366.574219 701.160156 366.085938 C 699.9375 365.601562 698.691406 365.175781 697.425781 364.804688 C 696.160156 364.4375 694.878906 364.128906 693.585938 363.882812 C 692.292969 363.636719 690.988281 363.449219 689.675781 363.324219 C 688.363281 363.199219 687.046875 363.140625 685.730469 363.136719 Z M 96.152344 357.9375 L 96.152344 452.046875 C 96.148438 452.667969 96.253906 453.265625 96.46875 453.84375 C 96.6875 454.421875 97 454.945312 97.40625 455.410156 C 97.816406 455.871094 98.292969 456.25 98.839844 456.535156 C 99.390625 456.824219 99.96875 457.003906 100.582031 457.078125 L 155.980469 463.878906 C 156.730469 463.972656 157.449219 464.175781 158.140625 464.484375 C 158.828125 464.792969 159.460938 465.195312 160.027344 465.691406 C 160.597656 466.1875 161.082031 466.757812 161.480469 467.398438 C 161.882812 468.039062 162.179688 468.726562 162.375 469.457031 C 168.078125 490.921875 176.507812 511.257812 187.652344 530.46875 C 188.035156 531.121094 188.308594 531.816406 188.480469 532.554688 C 188.652344 533.289062 188.714844 534.035156 188.660156 534.789062 C 188.609375 535.542969 188.449219 536.273438 188.175781 536.980469 C 187.90625 537.6875 187.539062 538.335938 187.074219 538.933594 L 152.710938 582.917969 C 152.328125 583.40625 152.046875 583.941406 151.863281 584.535156 C 151.675781 585.125 151.605469 585.726562 151.644531 586.34375 C 151.679688 586.960938 151.828125 587.550781 152.085938 588.113281 C 152.339844 588.675781 152.6875 589.171875 153.128906 589.609375 L 219.652344 656.160156 C 220.085938 656.601562 220.582031 656.953125 221.144531 657.210938 C 221.707031 657.464844 222.296875 657.613281 222.914062 657.648438 C 223.53125 657.6875 224.136719 657.613281 224.726562 657.425781 C 225.316406 657.238281 225.851562 656.949219 226.332031 656.5625 L 270.320312 622.210938 C 270.914062 621.742188 271.566406 621.375 272.273438 621.101562 C 272.976562 620.832031 273.707031 620.667969 274.460938 620.617188 C 275.21875 620.566406 275.960938 620.625 276.699219 620.796875 C 277.433594 620.96875 278.128906 621.246094 278.785156 621.628906 C 297.996094 632.773438 318.332031 641.199219 339.796875 646.90625 C 340.527344 647.101562 341.214844 647.398438 341.855469 647.800781 C 342.5 648.199219 343.070312 648.683594 343.566406 649.253906 C 344.0625 649.824219 344.464844 650.457031 344.773438 651.148438 C 345.082031 651.835938 345.28125 652.558594 345.371094 653.308594 L 352.175781 708.699219 C 352.25 709.3125 352.429688 709.890625 352.71875 710.4375 C 353.007812 710.984375 353.382812 711.460938 353.847656 711.871094 C 354.308594 712.277344 354.832031 712.589844 355.410156 712.804688 C 355.988281 713.023438 356.585938 713.128906 357.203125 713.125 L 396.71875 713.125 L 396.71875 564.917969 C 394.179688 564.796875 391.644531 564.617188 389.113281 564.375 C 386.585938 564.132812 384.0625 563.832031 381.546875 563.472656 C 379.03125 563.109375 376.527344 562.691406 374.03125 562.210938 C 371.535156 561.730469 369.054688 561.191406 366.585938 560.589844 C 364.117188 559.992188 361.660156 559.335938 359.222656 558.621094 C 356.785156 557.90625 354.367188 557.132812 351.964844 556.300781 C 349.5625 555.46875 347.183594 554.582031 344.824219 553.640625 C 342.464844 552.695312 340.128906 551.695312 337.816406 550.640625 C 335.503906 549.585938 333.21875 548.476562 330.960938 547.3125 C 328.703125 546.148438 326.472656 544.929688 324.273438 543.660156 C 322.070312 542.390625 319.902344 541.066406 317.765625 539.695312 C 315.625 538.320312 313.523438 536.898438 311.453125 535.421875 C 309.382812 533.949219 307.347656 532.429688 305.351562 530.859375 C 303.351562 529.285156 301.394531 527.667969 299.472656 526.007812 C 297.550781 524.34375 295.671875 522.632812 293.832031 520.878906 C 291.992188 519.128906 290.199219 517.332031 288.445312 515.492188 C 286.691406 513.652344 284.980469 511.773438 283.316406 509.855469 C 281.652344 507.933594 280.035156 505.976562 278.464844 503.976562 C 276.894531 501.980469 275.371094 499.945312 273.894531 497.878906 C 272.421875 495.808594 271 493.703125 269.625 491.566406 C 268.25 489.429688 266.929688 487.257812 265.65625 485.058594 C 264.386719 482.859375 263.167969 480.628906 262.003906 478.371094 C 260.839844 476.113281 259.730469 473.828125 258.675781 471.515625 C 257.617188 469.203125 256.617188 466.871094 255.671875 464.511719 C 254.730469 462.152344 253.839844 459.769531 253.011719 457.371094 C 252.179688 454.96875 251.40625 452.550781 250.6875 450.109375 C 249.972656 447.671875 249.316406 445.21875 248.714844 442.75 C 248.117188 440.28125 247.578125 437.796875 247.097656 435.304688 C 246.613281 432.808594 246.195312 430.300781 245.832031 427.789062 C 245.46875 425.273438 245.167969 422.75 244.925781 420.21875 C 244.6875 417.691406 244.503906 415.15625 244.382812 412.617188 C 244.261719 410.082031 244.203125 407.542969 244.203125 405 C 244.203125 402.460938 244.261719 399.917969 244.382812 397.382812 C 244.503906 394.84375 244.6875 392.308594 244.925781 389.78125 C 245.167969 387.25 245.46875 384.726562 245.832031 382.210938 C 246.195312 379.699219 246.613281 377.191406 247.097656 374.695312 C 247.578125 372.203125 248.117188 369.71875 248.714844 367.25 C 249.316406 364.78125 249.972656 362.328125 250.6875 359.890625 C 251.40625 357.449219 252.179688 355.03125 253.011719 352.628906 C 253.839844 350.230469 254.730469 347.847656 255.671875 345.488281 C 256.617188 343.132812 257.617188 340.796875 258.675781 338.484375 C 259.730469 336.171875 260.839844 333.886719 262.003906 331.628906 C 263.167969 329.371094 264.386719 327.140625 265.65625 324.941406 C 266.929688 322.742188 268.25 320.570312 269.625 318.433594 C 271 316.296875 272.421875 314.191406 273.894531 312.125 C 275.371094 310.054688 276.894531 308.019531 278.464844 306.023438 C 280.035156 304.027344 281.652344 302.066406 283.316406 300.144531 C 284.980469 298.226562 286.691406 296.347656 288.445312 294.507812 C 290.199219 292.667969 291.992188 290.871094 293.832031 289.121094 C 295.671875 287.367188 297.550781 285.65625 299.472656 283.992188 C 301.394531 282.332031 303.351562 280.714844 305.351562 279.140625 C 307.347656 277.570312 309.382812 276.050781 311.453125 274.578125 C 313.523438 273.101562 315.625 271.679688 317.765625 270.304688 C 319.902344 268.933594 322.070312 267.609375 324.273438 266.339844 C 326.472656 265.070312 328.703125 263.851562 330.960938 262.6875 C 333.21875 261.523438 335.503906 260.414062 337.816406 259.359375 C 340.128906 258.304688 342.464844 257.304688 344.824219 256.359375 C 347.183594 255.417969 349.5625 254.53125 351.964844 253.699219 C 354.367188 252.867188 356.785156 252.09375 359.222656 251.378906 C 361.660156 250.664062 364.117188 250.007812 366.585938 249.410156 C 369.054688 248.8125 371.535156 248.269531 374.03125 247.789062 C 376.527344 247.308594 379.03125 246.890625 381.546875 246.527344 C 384.0625 246.167969 386.585938 245.867188 389.113281 245.625 C 391.644531 245.382812 394.179688 245.203125 396.71875 245.082031 L 396.71875 96.871094 L 357.203125 96.871094 C 356.585938 96.867188 355.988281 96.972656 355.40625 97.1875 C 354.828125 97.40625 354.304688 97.71875 353.839844 98.128906 C 353.378906 98.539062 353.003906 99.015625 352.714844 99.566406 C 352.429688 100.113281 352.25 100.695312 352.175781 101.308594 L 345.371094 156.699219 C 345.28125 157.449219 345.078125 158.167969 344.769531 158.859375 C 344.460938 159.546875 344.058594 160.179688 343.5625 160.75 C 343.066406 161.316406 342.496094 161.800781 341.855469 162.203125 C 341.214844 162.601562 340.527344 162.898438 339.796875 163.09375 C 318.332031 168.800781 297.996094 177.226562 278.785156 188.371094 C 278.128906 188.753906 277.4375 189.03125 276.699219 189.203125 C 275.964844 189.375 275.21875 189.4375 274.464844 189.382812 C 273.710938 189.332031 272.980469 189.171875 272.273438 188.902344 C 271.566406 188.632812 270.917969 188.261719 270.320312 187.796875 L 226.332031 153.429688 C 225.847656 153.046875 225.308594 152.765625 224.722656 152.582031 C 224.132812 152.398438 223.527344 152.328125 222.914062 152.363281 C 222.296875 152.402344 221.707031 152.550781 221.144531 152.804688 C 220.585938 153.058594 220.085938 153.40625 219.652344 153.847656 L 153.128906 220.371094 C 152.683594 220.800781 152.335938 221.300781 152.078125 221.859375 C 151.816406 222.421875 151.667969 223.011719 151.632812 223.628906 C 151.59375 224.246094 151.667969 224.851562 151.851562 225.441406 C 152.039062 226.03125 152.324219 226.566406 152.710938 227.050781 L 187.074219 271.039062 C 187.539062 271.636719 187.90625 272.285156 188.179688 272.992188 C 188.449219 273.699219 188.609375 274.429688 188.660156 275.183594 C 188.714844 275.941406 188.652344 276.6875 188.480469 277.421875 C 188.308594 278.160156 188.035156 278.855469 187.652344 279.507812 C 176.507812 298.71875 168.082031 319.054688 162.375 340.515625 C 162.179688 341.246094 161.882812 341.933594 161.484375 342.574219 C 161.082031 343.214844 160.597656 343.785156 160.03125 344.28125 C 159.460938 344.777344 158.832031 345.179688 158.140625 345.488281 C 157.449219 345.796875 156.730469 346 155.980469 346.089844 L 100.589844 352.902344 C 99.976562 352.972656 99.394531 353.152344 98.847656 353.441406 C 98.296875 353.726562 97.820312 354.101562 97.410156 354.566406 C 97 355.03125 96.6875 355.554688 96.46875 356.132812 C 96.253906 356.710938 96.148438 357.3125 96.152344 357.929688 Z M 98.738281 472.121094 L 149.089844 478.304688 C 154.625 497.617188 162.269531 516.054688 172.015625 533.621094 L 140.769531 573.59375 C 140.019531 574.558594 139.363281 575.582031 138.796875 576.667969 C 138.230469 577.75 137.765625 578.875 137.40625 580.042969 C 137.042969 581.210938 136.789062 582.398438 136.644531 583.613281 C 136.496094 584.828125 136.460938 586.042969 136.539062 587.261719 C 136.613281 588.484375 136.796875 589.6875 137.089844 590.875 C 137.382812 592.058594 137.777344 593.210938 138.28125 594.324219 C 138.78125 595.4375 139.378906 596.5 140.074219 597.503906 C 140.765625 598.511719 141.546875 599.449219 142.410156 600.3125 L 208.960938 666.871094 C 209.828125 667.734375 210.761719 668.515625 211.769531 669.207031 C 212.777344 669.902344 213.835938 670.5 214.953125 671 C 216.066406 671.503906 217.21875 671.902344 218.402344 672.195312 C 219.589844 672.488281 220.792969 672.671875 222.015625 672.746094 C 223.234375 672.820312 224.453125 672.785156 225.664062 672.636719 C 226.878906 672.492188 228.070312 672.238281 229.238281 671.878906 C 230.40625 671.515625 231.53125 671.050781 232.613281 670.484375 C 233.699219 669.921875 234.722656 669.261719 235.6875 668.511719 L 275.6875 637.265625 C 293.253906 647.007812 311.695312 654.648438 331.003906 660.183594 L 337.191406 710.535156 C 337.339844 711.75 337.597656 712.941406 337.964844 714.105469 C 338.332031 715.273438 338.796875 716.398438 339.367188 717.480469 C 339.9375 718.5625 340.601562 719.582031 341.355469 720.546875 C 342.109375 721.507812 342.945312 722.394531 343.863281 723.203125 C 344.777344 724.011719 345.757812 724.734375 346.804688 725.367188 C 347.851562 726 348.949219 726.53125 350.089844 726.964844 C 351.234375 727.398438 352.40625 727.726562 353.609375 727.949219 C 354.8125 728.167969 356.023438 728.28125 357.246094 728.28125 L 404.28125 728.28125 C 404.777344 728.28125 405.273438 728.234375 405.757812 728.136719 C 406.246094 728.039062 406.722656 727.898438 407.179688 727.707031 C 407.640625 727.515625 408.078125 727.285156 408.488281 727.007812 C 408.902344 726.730469 409.285156 726.417969 409.636719 726.066406 C 409.988281 725.714844 410.304688 725.332031 410.578125 724.917969 C 410.855469 724.503906 411.089844 724.066406 411.277344 723.609375 C 411.46875 723.148438 411.613281 722.675781 411.710938 722.1875 C 411.804688 721.699219 411.855469 721.207031 411.855469 720.710938 L 411.855469 557.515625 C 411.855469 557.019531 411.804688 556.527344 411.710938 556.039062 C 411.613281 555.550781 411.46875 555.078125 411.277344 554.617188 C 411.089844 554.15625 410.855469 553.722656 410.578125 553.308594 C 410.304688 552.894531 409.988281 552.511719 409.636719 552.160156 C 409.285156 551.804688 408.902344 551.492188 408.492188 551.214844 C 408.078125 550.9375 407.640625 550.707031 407.179688 550.515625 C 406.722656 550.324219 406.246094 550.179688 405.757812 550.082031 C 405.273438 549.988281 404.777344 549.9375 404.28125 549.9375 C 401.910156 549.9375 399.539062 549.878906 397.167969 549.761719 C 394.800781 549.648438 392.4375 549.472656 390.074219 549.238281 C 387.714844 549.007812 385.359375 548.71875 383.015625 548.371094 C 380.667969 548.019531 378.332031 547.617188 376.003906 547.152344 C 373.679688 546.691406 371.367188 546.171875 369.066406 545.59375 C 366.761719 545.019531 364.476562 544.386719 362.207031 543.695312 C 359.9375 543.007812 357.6875 542.265625 355.453125 541.464844 C 353.21875 540.667969 351.007812 539.8125 348.816406 538.90625 C 346.625 537.996094 344.457031 537.035156 342.3125 536.023438 C 340.167969 535.007812 338.050781 533.941406 335.957031 532.824219 C 333.867188 531.707031 331.804688 530.535156 329.769531 529.316406 C 327.734375 528.097656 325.730469 526.828125 323.757812 525.511719 C 321.785156 524.195312 319.847656 522.828125 317.941406 521.414062 C 316.035156 520.003906 314.167969 518.542969 312.332031 517.039062 C 310.5 515.535156 308.703125 513.984375 306.945312 512.390625 C 305.191406 510.800781 303.472656 509.164062 301.796875 507.488281 C 300.117188 505.808594 298.484375 504.09375 296.890625 502.335938 C 295.296875 500.578125 293.746094 498.78125 292.242188 496.949219 C 290.738281 495.113281 289.28125 493.246094 287.867188 491.339844 C 286.453125 489.433594 285.089844 487.496094 283.769531 485.523438 C 282.453125 483.550781 281.183594 481.546875 279.964844 479.511719 C 278.746094 477.476562 277.574219 475.414062 276.457031 473.324219 C 275.339844 471.230469 274.273438 469.113281 273.257812 466.96875 C 272.246094 464.824219 271.285156 462.65625 270.375 460.464844 C 269.46875 458.273438 268.617188 456.0625 267.816406 453.828125 C 267.015625 451.59375 266.273438 449.34375 265.585938 447.074219 C 264.894531 444.804688 264.261719 442.519531 263.6875 440.21875 C 263.109375 437.917969 262.589844 435.601562 262.128906 433.277344 C 261.664062 430.949219 261.261719 428.613281 260.914062 426.265625 C 260.5625 423.921875 260.273438 421.566406 260.042969 419.207031 C 259.808594 416.847656 259.632812 414.480469 259.519531 412.113281 C 259.402344 409.742188 259.34375 407.371094 259.34375 405 C 259.34375 402.628906 259.402344 400.257812 259.519531 397.886719 C 259.632812 395.519531 259.808594 393.152344 260.042969 390.792969 C 260.273438 388.433594 260.5625 386.078125 260.914062 383.734375 C 261.261719 381.386719 261.664062 379.050781 262.128906 376.722656 C 262.589844 374.398438 263.109375 372.082031 263.6875 369.78125 C 264.261719 367.480469 264.894531 365.195312 265.585938 362.925781 C 266.273438 360.65625 267.015625 358.40625 267.816406 356.171875 C 268.617188 353.9375 269.46875 351.726562 270.375 349.535156 C 271.285156 347.34375 272.246094 345.175781 273.257812 343.03125 C 274.273438 340.886719 275.339844 338.769531 276.457031 336.675781 C 277.574219 334.585938 278.746094 332.523438 279.964844 330.488281 C 281.183594 328.453125 282.453125 326.449219 283.769531 324.476562 C 285.089844 322.503906 286.453125 320.566406 287.867188 318.660156 C 289.28125 316.753906 290.738281 314.886719 292.242188 313.050781 C 293.746094 311.21875 295.296875 309.421875 296.890625 307.664062 C 298.484375 305.90625 300.117188 304.191406 301.796875 302.511719 C 303.472656 300.835938 305.191406 299.199219 306.945312 297.609375 C 308.703125 296.015625 310.5 294.464844 312.332031 292.960938 C 314.167969 291.457031 316.035156 289.996094 317.941406 288.585938 C 319.847656 287.171875 321.785156 285.804688 323.757812 284.488281 C 325.730469 283.171875 327.734375 281.902344 329.769531 280.683594 C 331.804688 279.464844 333.867188 278.292969 335.957031 277.175781 C 338.050781 276.058594 340.167969 274.992188 342.3125 273.976562 C 344.457031 272.964844 346.625 272.003906 348.816406 271.09375 C 351.007812 270.1875 353.21875 269.332031 355.453125 268.535156 C 357.6875 267.734375 359.9375 266.992188 362.207031 266.304688 C 364.476562 265.613281 366.761719 264.980469 369.066406 264.40625 C 371.367188 263.828125 373.679688 263.308594 376.003906 262.847656 C 378.332031 262.382812 380.667969 261.980469 383.015625 261.628906 C 385.359375 261.28125 387.714844 260.992188 390.074219 260.761719 C 392.4375 260.527344 394.800781 260.351562 397.167969 260.238281 C 399.539062 260.121094 401.910156 260.0625 404.28125 260.0625 C 404.777344 260.0625 405.273438 260.011719 405.757812 259.917969 C 406.246094 259.820312 406.722656 259.675781 407.179688 259.484375 C 407.640625 259.292969 408.078125 259.0625 408.492188 258.785156 C 408.902344 258.507812 409.285156 258.195312 409.636719 257.84375 C 409.988281 257.488281 410.304688 257.105469 410.578125 256.691406 C 410.855469 256.28125 411.089844 255.84375 411.277344 255.382812 C 411.46875 254.921875 411.613281 254.449219 411.710938 253.960938 C 411.804688 253.472656 411.855469 252.980469 411.855469 252.484375 L 411.855469 89.289062 C 411.855469 88.792969 411.804688 88.300781 411.710938 87.8125 C 411.613281 87.324219 411.46875 86.851562 411.277344 86.390625 C 411.089844 85.933594 410.855469 85.496094 410.578125 85.082031 C 410.304688 84.667969 409.988281 84.285156 409.636719 83.933594 C 409.285156 83.582031 408.902344 83.269531 408.488281 82.992188 C 408.078125 82.714844 407.640625 82.484375 407.179688 82.292969 C 406.722656 82.101562 406.246094 81.960938 405.757812 81.863281 C 405.273438 81.765625 404.777344 81.71875 404.28125 81.71875 L 357.21875 81.71875 C 355.996094 81.71875 354.785156 81.832031 353.582031 82.050781 C 352.378906 82.273438 351.207031 82.601562 350.0625 83.035156 C 348.917969 83.46875 347.824219 84 346.777344 84.632812 C 345.730469 85.265625 344.75 85.988281 343.832031 86.796875 C 342.917969 87.605469 342.082031 88.492188 341.328125 89.453125 C 340.570312 90.417969 339.910156 91.4375 339.339844 92.519531 C 338.769531 93.601562 338.300781 94.726562 337.9375 95.894531 C 337.570312 97.058594 337.3125 98.25 337.160156 99.464844 L 331.003906 149.816406 C 311.695312 155.351562 293.253906 162.988281 275.6875 172.734375 L 235.6875 141.488281 C 234.722656 140.738281 233.699219 140.082031 232.613281 139.515625 C 231.53125 138.949219 230.40625 138.488281 229.238281 138.125 C 228.070312 137.765625 226.878906 137.511719 225.664062 137.367188 C 224.453125 137.21875 223.234375 137.183594 222.015625 137.257812 C 220.796875 137.335938 219.589844 137.519531 218.40625 137.8125 C 217.21875 138.105469 216.066406 138.5 214.953125 139 C 213.835938 139.503906 212.777344 140.101562 211.769531 140.792969 C 210.765625 141.488281 209.828125 142.265625 208.960938 143.128906 L 142.410156 209.679688 C 141.546875 210.546875 140.765625 211.480469 140.074219 212.488281 C 139.378906 213.496094 138.78125 214.554688 138.28125 215.671875 C 137.777344 216.785156 137.382812 217.9375 137.089844 219.121094 C 136.796875 220.308594 136.609375 221.511719 136.535156 222.734375 C 136.460938 223.953125 136.496094 225.171875 136.644531 226.382812 C 136.789062 227.597656 137.042969 228.789062 137.40625 229.957031 C 137.765625 231.125 138.230469 232.25 138.796875 233.332031 C 139.359375 234.417969 140.019531 235.441406 140.769531 236.40625 L 172.007812 276.40625 C 162.269531 293.976562 154.628906 312.414062 149.089844 331.722656 L 98.738281 337.914062 C 97.527344 338.066406 96.335938 338.324219 95.171875 338.6875 C 94.007812 339.054688 92.882812 339.519531 91.800781 340.089844 C 90.722656 340.65625 89.699219 341.316406 88.738281 342.070312 C 87.777344 342.824219 86.894531 343.660156 86.082031 344.574219 C 85.273438 345.488281 84.554688 346.46875 83.921875 347.511719 C 83.289062 348.554688 82.753906 349.648438 82.320312 350.789062 C 81.886719 351.933594 81.558594 353.101562 81.335938 354.304688 C 81.113281 355.503906 81.003906 356.714844 81 357.9375 L 81 452.046875 C 81 453.269531 81.109375 454.484375 81.332031 455.6875 C 81.550781 456.890625 81.878906 458.0625 82.3125 459.207031 C 82.742188 460.351562 83.277344 461.449219 83.910156 462.496094 C 84.539062 463.542969 85.261719 464.523438 86.070312 465.441406 C 86.878906 466.355469 87.765625 467.191406 88.726562 467.949219 C 89.691406 468.703125 90.710938 469.367188 91.792969 469.9375 C 92.875 470.507812 94 470.976562 95.167969 471.34375 C 96.332031 471.710938 97.523438 471.96875 98.738281 472.121094 Z M 98.738281 472.121094 " fill-opacity="1" fill-rule="evenodd"/></svg>