<svg xmlns="http://www.w3.org/2000/svg" xmlns:xlink="http://www.w3.org/1999/xlink" width="1080" zoomAndPan="magnify" viewBox="0 0 810 809.999993" height="1080" preserveAspectRatio="xMidYMid meet" version="1.0"><defs><clipPath id="9422547a0f"><path d="M 245 51.023438 L 619 51.023438 L 619 596 L 245 596 Z M 245 51.023438 " clip-rule="nonzero"/></clipPath><clipPath id="ca3a1b9fe5"><path d="M 244 51.023438 L 620 51.023438 L 620 597 L 244 597 Z M 244 51.023438 " clip-rule="nonzero"/></clipPath></defs><path fill="#0f172a" d="M 753.984375 191.515625 L 511.789062 191.515625 C 501.886719 191.515625 492.671875 199.542969 491.203125 209.445312 L 421.347656 680.476562 C 419.878906 690.375 426.714844 698.402344 436.617188 698.402344 L 678.820312 698.402344 C 688.714844 698.402344 697.929688 690.375 699.398438 680.476562 L 769.253906 209.445312 C 770.722656 199.542969 763.886719 191.515625 753.984375 191.515625 " fill-opacity="1" fill-rule="nonzero"/><path fill="#0f172a" d="M 511.785156 192.386719 C 502.3125 192.386719 493.460938 200.097656 492.054688 209.574219 L 422.203125 680.601562 C 421.523438 685.179688 422.667969 689.457031 425.433594 692.65625 C 428.144531 695.804688 432.117188 697.535156 436.613281 697.535156 L 678.8125 697.535156 C 688.28125 697.535156 697.132812 689.828125 698.539062 680.355469 L 768.390625 209.320312 C 769.070312 204.75 767.921875 200.46875 765.160156 197.269531 C 762.445312 194.121094 758.480469 192.386719 753.980469 192.386719 Z M 678.8125 699.269531 L 436.613281 699.269531 C 431.609375 699.269531 427.167969 697.324219 424.117188 693.789062 C 421.023438 690.203125 419.738281 685.429688 420.488281 680.355469 L 490.34375 209.320312 C 491.871094 199.027344 501.488281 190.652344 511.785156 190.652344 L 753.980469 190.652344 C 758.988281 190.652344 763.421875 192.601562 766.476562 196.132812 C 769.566406 199.722656 770.855469 204.496094 770.105469 209.574219 L 700.253906 680.601562 C 698.726562 690.898438 689.109375 699.269531 678.8125 699.269531 " fill-opacity="1" fill-rule="nonzero"/><path fill="#f0f9ff" d="M 744.371094 191.519531 L 502.171875 191.519531 C 492.273438 191.519531 483.054688 199.546875 481.589844 209.449219 L 411.734375 680.476562 C 410.269531 690.378906 417.101562 698.402344 427.003906 698.402344 L 669.199219 698.402344 C 679.105469 698.402344 688.320312 690.378906 689.785156 680.476562 L 759.640625 209.449219 C 761.105469 199.546875 754.269531 191.519531 744.371094 191.519531 " fill-opacity="1" fill-rule="nonzero"/><path fill="#0f172a" d="M 502.175781 192.382812 C 492.703125 192.382812 483.851562 200.097656 482.445312 209.570312 L 412.59375 680.601562 C 411.914062 685.179688 413.0625 689.457031 415.824219 692.65625 C 418.539062 695.804688 422.507812 697.535156 427.003906 697.535156 L 669.199219 697.535156 C 678.675781 697.535156 687.523438 689.824219 688.929688 680.351562 L 758.785156 209.320312 C 759.464844 204.746094 758.320312 200.464844 755.554688 197.265625 C 752.839844 194.117188 748.867188 192.382812 744.375 192.382812 Z M 669.199219 699.269531 L 427.003906 699.269531 C 421.996094 699.269531 417.5625 697.324219 414.511719 693.789062 C 411.417969 690.203125 410.128906 685.429688 410.878906 680.351562 L 480.734375 209.320312 C 482.261719 199.023438 491.878906 190.65625 502.175781 190.65625 L 744.375 190.65625 C 749.378906 190.65625 753.816406 192.601562 756.867188 196.132812 C 759.960938 199.722656 761.25 204.492188 760.496094 209.570312 L 690.644531 680.601562 C 689.117188 690.898438 679.5 699.269531 669.199219 699.269531 " fill-opacity="1" fill-rule="nonzero"/><path fill="#0f172a" d="M 553.027344 191.515625 L 551.539062 201.570312 C 549.949219 212.253906 557.324219 220.910156 568.007812 220.910156 L 669.828125 220.910156 C 680.503906 220.910156 690.449219 212.253906 692.035156 201.570312 L 693.523438 191.515625 L 553.027344 191.515625 " fill-opacity="1" fill-rule="nonzero"/><path fill="#f0f9ff" d="M 620.261719 211.835938 C 616.378906 211.835938 613.699219 208.6875 614.269531 204.804688 C 614.847656 200.917969 618.460938 197.773438 622.34375 197.773438 C 626.226562 197.773438 628.90625 200.917969 628.332031 204.804688 C 627.757812 208.6875 624.144531 211.835938 620.261719 211.835938 " fill-opacity="1" fill-rule="nonzero"/><path fill="#0f172a" d="M 498.777344 266.414062 L 725.554688 266.414062 L 728.367188 247.433594 L 501.59375 247.433594 Z M 726.296875 268.148438 L 497.777344 268.148438 C 497.523438 268.148438 497.285156 268.035156 497.117188 267.847656 C 496.957031 267.65625 496.882812 267.402344 496.921875 267.152344 L 499.988281 246.441406 C 500.054688 246.019531 500.417969 245.703125 500.851562 245.703125 L 729.371094 245.703125 C 729.625 245.703125 729.863281 245.8125 730.027344 246.003906 C 730.191406 246.195312 730.265625 246.445312 730.230469 246.695312 L 727.160156 267.410156 C 727.097656 267.832031 726.730469 268.148438 726.296875 268.148438 " fill-opacity="1" fill-rule="nonzero"/><path fill="#0f172a" d="M 476.101562 419.359375 L 702.875 419.359375 L 723.054688 283.28125 L 496.277344 283.28125 Z M 703.617188 421.09375 L 475.09375 421.09375 C 474.839844 421.09375 474.605469 420.980469 474.441406 420.789062 C 474.277344 420.597656 474.199219 420.347656 474.238281 420.097656 L 494.675781 282.289062 C 494.742188 281.867188 495.101562 281.546875 495.527344 281.546875 L 724.054688 281.546875 C 724.3125 281.546875 724.550781 281.65625 724.710938 281.851562 C 724.875 282.039062 724.953125 282.289062 724.914062 282.542969 L 704.480469 420.351562 C 704.414062 420.777344 704.046875 421.09375 703.617188 421.09375 " fill-opacity="1" fill-rule="nonzero"/><path fill="#0f172a" d="M 718.3125 256.921875 C 717.90625 259.675781 715.34375 261.910156 712.585938 261.910156 C 709.835938 261.910156 707.933594 259.675781 708.34375 256.921875 C 708.753906 254.167969 711.316406 251.9375 714.066406 251.9375 C 716.824219 251.9375 718.722656 254.167969 718.3125 256.921875 " fill-opacity="1" fill-rule="nonzero"/><path fill="#0f172a" d="M 461.953125 514.753906 L 688.726562 514.753906 L 701.210938 430.574219 L 474.4375 430.574219 Z M 689.46875 516.488281 L 460.949219 516.488281 C 460.695312 516.488281 460.457031 516.378906 460.292969 516.1875 C 460.132812 515.996094 460.050781 515.742188 460.09375 515.492188 L 472.832031 429.582031 C 472.894531 429.15625 473.261719 428.839844 473.6875 428.839844 L 702.214844 428.839844 C 702.464844 428.839844 702.703125 428.949219 702.871094 429.140625 C 703.035156 429.332031 703.105469 429.585938 703.074219 429.835938 L 690.332031 515.746094 C 690.265625 516.171875 689.902344 516.488281 689.46875 516.488281 " fill-opacity="1" fill-rule="nonzero"/><path fill="#0f172a" d="M 447.351562 613.214844 L 674.125 613.214844 L 686.609375 529.035156 L 459.832031 529.035156 Z M 674.875 614.945312 L 446.34375 614.945312 C 446.097656 614.945312 445.855469 614.835938 445.691406 614.644531 C 445.523438 614.457031 445.457031 614.199219 445.492188 613.953125 L 458.226562 528.039062 C 458.292969 527.613281 458.660156 527.300781 459.089844 527.300781 L 687.613281 527.300781 C 687.867188 527.300781 688.105469 527.414062 688.269531 527.601562 C 688.433594 527.792969 688.507812 528.042969 688.46875 528.292969 L 675.730469 614.207031 C 675.664062 614.628906 675.300781 614.945312 674.875 614.945312 " fill-opacity="1" fill-rule="nonzero"/><path fill="#f0f9ff" d="M 664.582031 683.457031 L 436.0625 683.457031 L 444.488281 626.628906 L 673.011719 626.628906 L 664.582031 683.457031 " fill-opacity="1" fill-rule="nonzero"/><path fill="#0f172a" d="M 437.0625 682.589844 L 663.835938 682.589844 L 672.003906 627.492188 L 445.230469 627.492188 Z M 664.582031 684.324219 L 436.058594 684.324219 C 435.808594 684.324219 435.566406 684.214844 435.40625 684.023438 C 435.238281 683.832031 435.167969 683.578125 435.203125 683.332031 L 443.632812 626.5 C 443.695312 626.074219 444.054688 625.761719 444.488281 625.761719 L 673.011719 625.761719 C 673.265625 625.761719 673.507812 625.871094 673.667969 626.0625 C 673.832031 626.25 673.910156 626.507812 673.871094 626.753906 L 665.441406 683.585938 C 665.378906 684.007812 665.011719 684.324219 664.582031 684.324219 " fill-opacity="1" fill-rule="nonzero"/><path fill="#0f172a" d="M 437.0625 682.589844 L 663.835938 682.589844 L 672.003906 627.492188 L 445.230469 627.492188 Z M 664.582031 684.324219 L 436.058594 684.324219 C 435.808594 684.324219 435.566406 684.214844 435.40625 684.023438 C 435.238281 683.832031 435.167969 683.578125 435.203125 683.332031 L 443.632812 626.5 C 443.695312 626.074219 444.054688 625.761719 444.488281 625.761719 L 673.011719 625.761719 C 673.265625 625.761719 673.507812 625.871094 673.667969 626.0625 C 673.832031 626.25 673.910156 626.507812 673.871094 626.753906 L 665.441406 683.585938 C 665.378906 684.007812 665.011719 684.324219 664.582031 684.324219 " fill-opacity="1" fill-rule="nonzero"/><path fill="#f0f9ff" d="M 609.039062 472.664062 C 606.789062 487.835938 592.671875 500.128906 577.503906 500.128906 C 562.339844 500.128906 551.867188 487.835938 554.117188 472.664062 C 556.363281 457.496094 570.480469 445.203125 585.652344 445.203125 C 600.816406 445.203125 611.285156 457.496094 609.039062 472.664062 " fill-opacity="1" fill-rule="nonzero"/><path fill="#0f172a" d="M 571.054688 544.527344 C 556.320312 544.527344 542.5625 556.515625 540.375 571.25 C 539.316406 578.390625 541.113281 585.078125 545.429688 590.082031 C 549.675781 595.007812 555.886719 597.71875 562.90625 597.71875 C 577.640625 597.71875 591.402344 585.730469 593.582031 570.996094 C 594.640625 563.859375 592.851562 557.167969 588.535156 552.164062 C 584.285156 547.242188 578.074219 544.527344 571.054688 544.527344 Z M 562.90625 599.449219 C 555.371094 599.449219 548.699219 596.523438 544.117188 591.210938 C 539.46875 585.816406 537.527344 578.640625 538.660156 570.996094 C 540.96875 555.449219 555.496094 542.800781 571.054688 542.800781 C 578.589844 542.800781 585.257812 545.71875 589.84375 551.03125 C 594.496094 556.425781 596.433594 563.605469 595.296875 571.25 C 592.988281 586.800781 578.464844 599.449219 562.90625 599.449219 " fill-opacity="1" fill-rule="nonzero"/><path fill="#0f172a" d="M 527.65625 683.636719 L 572.796875 683.636719 C 576.101562 679.378906 578.238281 674.484375 578.980469 669.457031 C 580.039062 662.320312 578.242188 655.628906 573.925781 650.625 C 569.679688 645.703125 563.472656 642.992188 556.453125 642.992188 C 541.71875 642.992188 527.960938 654.976562 525.773438 669.710938 C 525.039062 674.652344 525.691406 679.457031 527.65625 683.636719 Z M 573.21875 685.363281 L 527.113281 685.363281 C 526.785156 685.363281 526.484375 685.183594 526.339844 684.886719 C 524.035156 680.277344 523.25 674.941406 524.058594 669.457031 C 526.367188 653.90625 540.894531 641.257812 556.453125 641.257812 C 563.984375 641.257812 570.65625 644.183594 575.238281 649.496094 C 579.890625 654.886719 581.828125 662.066406 580.695312 669.710938 C 579.886719 675.167969 577.535156 680.46875 573.894531 685.039062 C 573.726562 685.246094 573.476562 685.363281 573.21875 685.363281 " fill-opacity="1" fill-rule="nonzero"/><path fill="#f0f9ff" d="M 179.582031 61.027344 L 118.246094 117.972656 C 116.5625 119.535156 116.289062 122.105469 117.609375 123.984375 L 170.308594 198.796875 C 171.910156 201.074219 175.15625 201.421875 177.199219 199.523438 L 238.535156 142.582031 C 240.21875 141.019531 240.492188 138.449219 239.167969 136.570312 L 186.46875 61.75 C 184.867188 59.472656 181.625 59.132812 179.582031 61.027344 " fill-opacity="1" fill-rule="nonzero"/><path fill="#0f172a" d="M 180.171875 61.664062 L 118.832031 118.609375 C 117.472656 119.871094 117.253906 121.972656 118.320312 123.488281 L 171.015625 198.304688 C 171.636719 199.183594 172.605469 199.753906 173.679688 199.867188 C 174.75 199.984375 175.816406 199.625 176.605469 198.894531 L 237.945312 141.945312 C 239.304688 140.6875 239.523438 138.585938 238.457031 137.070312 L 185.761719 62.253906 C 185.140625 61.375 184.171875 60.804688 183.101562 60.691406 C 182.027344 60.574219 180.960938 60.933594 180.171875 61.664062 Z M 174.070312 201.617188 C 173.878906 201.617188 173.6875 201.609375 173.496094 201.585938 C 171.925781 201.421875 170.507812 200.589844 169.597656 199.300781 L 116.902344 124.484375 C 115.339844 122.261719 115.664062 119.191406 117.65625 117.339844 L 178.992188 60.394531 C 180.148438 59.324219 181.710938 58.804688 183.28125 58.96875 C 184.851562 59.136719 186.269531 59.96875 187.179688 61.261719 L 239.875 136.070312 C 241.4375 138.296875 241.113281 141.367188 239.125 143.21875 L 177.785156 200.164062 C 176.769531 201.105469 175.441406 201.617188 174.070312 201.617188 " fill-opacity="1" fill-rule="nonzero"/><path fill="#f0f9ff" d="M 223.882812 128.285156 L 167.039062 181.058594 L 125.96875 122.601562 L 182.816406 69.828125 L 223.882812 128.285156 " fill-opacity="1" fill-rule="nonzero"/><path fill="#0f172a" d="M 127.113281 122.730469 L 167.175781 179.75 L 222.738281 128.164062 L 182.675781 71.140625 Z M 167.039062 181.925781 C 167.007812 181.925781 166.976562 181.925781 166.945312 181.917969 C 166.699219 181.894531 166.472656 181.761719 166.328125 181.558594 L 125.261719 123.105469 C 125.011719 122.746094 125.0625 122.265625 125.382812 121.972656 L 182.226562 69.195312 C 182.410156 69.027344 182.65625 68.945312 182.90625 68.96875 C 183.15625 69 183.378906 69.132812 183.523438 69.332031 L 224.59375 127.789062 C 224.84375 128.144531 224.789062 128.628906 224.472656 128.921875 L 167.628906 181.695312 C 167.464844 181.84375 167.253906 181.925781 167.039062 181.925781 " fill-opacity="1" fill-rule="nonzero"/><path fill="#0f172a" d="M 190.875 103.335938 C 187.664062 102.980469 184.777344 105.3125 184.453125 108.527344 L 182.09375 131.789062 C 181.886719 133.824219 180.0625 135.300781 178.03125 135.074219 L 169.753906 134.15625 C 166.542969 133.800781 163.660156 136.132812 163.332031 139.347656 L 160.6875 165.441406 L 167.644531 175.339844 L 218.894531 127.757812 L 202.652344 104.640625 L 190.875 103.335938 " fill-opacity="1" fill-rule="nonzero"/><path fill="#0f172a" d="M 164.890625 109.683594 C 167.640625 113.605469 167.054688 119.394531 163.578125 122.621094 C 160.105469 125.847656 155.054688 125.289062 152.304688 121.371094 C 149.550781 117.453125 150.140625 111.664062 153.613281 108.433594 C 157.089844 105.210938 162.136719 105.769531 164.890625 109.683594 " fill-opacity="1" fill-rule="nonzero"/><path fill="#f0f9ff" d="M 169.71875 105.304688 L 108.378906 162.246094 C 106.695312 163.8125 106.425781 166.378906 107.746094 168.257812 L 160.445312 243.070312 C 162.046875 245.347656 165.289062 245.695312 167.332031 243.800781 L 228.667969 186.855469 C 230.351562 185.289062 230.625 182.722656 229.300781 180.84375 L 176.605469 106.027344 C 175.003906 103.746094 171.757812 103.40625 169.71875 105.304688 " fill-opacity="1" fill-rule="nonzero"/><path fill="#0f172a" d="M 170.308594 105.933594 L 108.96875 162.878906 C 107.609375 164.136719 107.390625 166.238281 108.457031 167.753906 L 161.152344 242.570312 C 161.773438 243.449219 162.742188 244.023438 163.816406 244.136719 C 164.886719 244.25 165.953125 243.894531 166.742188 243.160156 L 228.082031 186.214844 C 229.441406 184.953125 229.660156 182.851562 228.597656 181.335938 L 175.898438 106.523438 C 175.277344 105.640625 174.308594 105.070312 173.234375 104.953125 C 172.164062 104.84375 171.097656 105.199219 170.308594 105.933594 Z M 164.207031 245.890625 C 164.015625 245.890625 163.824219 245.875 163.632812 245.855469 C 162.0625 245.691406 160.644531 244.859375 159.738281 243.5625 L 107.039062 168.753906 C 105.476562 166.523438 105.800781 163.457031 107.792969 161.609375 L 169.128906 104.664062 C 170.285156 103.589844 171.847656 103.074219 173.417969 103.234375 C 174.988281 103.398438 176.40625 104.234375 177.316406 105.527344 L 230.011719 180.34375 C 231.574219 182.566406 231.25 185.632812 229.257812 187.484375 L 167.921875 244.429688 C 166.90625 245.371094 165.578125 245.890625 164.207031 245.890625 " fill-opacity="1" fill-rule="nonzero"/><path fill="#f0f9ff" d="M 214.019531 172.554688 L 157.171875 225.332031 L 116.105469 166.878906 L 172.949219 114.105469 L 214.019531 172.554688 " fill-opacity="1" fill-rule="nonzero"/><path fill="#0f172a" d="M 117.25 166.992188 L 157.3125 224.019531 L 212.878906 172.433594 L 172.8125 115.410156 Z M 157.175781 226.195312 C 157.144531 226.195312 157.113281 226.191406 157.085938 226.191406 C 156.835938 226.160156 156.609375 226.03125 156.464844 225.828125 L 115.398438 167.371094 C 115.148438 167.015625 115.199219 166.535156 115.515625 166.238281 L 172.363281 113.464844 C 172.542969 113.296875 172.789062 113.214844 173.042969 113.234375 C 173.289062 113.265625 173.515625 113.394531 173.660156 113.601562 L 214.730469 172.054688 C 214.976562 172.410156 214.925781 172.894531 214.609375 173.191406 L 157.765625 225.960938 C 157.605469 226.109375 157.390625 226.195312 157.175781 226.195312 " fill-opacity="1" fill-rule="nonzero"/><path fill="#0f172a" d="M 181.007812 147.609375 C 177.796875 147.253906 174.910156 149.585938 174.585938 152.800781 L 172.226562 176.0625 C 172.023438 178.097656 170.195312 179.570312 168.164062 179.347656 L 159.890625 178.429688 C 156.675781 178.074219 153.792969 180.40625 153.46875 183.621094 L 150.820312 209.714844 L 157.777344 219.613281 L 209.027344 172.035156 L 192.785156 148.917969 L 181.007812 147.609375 " fill-opacity="1" fill-rule="nonzero"/><path fill="#0f172a" d="M 155.027344 153.953125 C 157.777344 157.867188 157.191406 163.660156 153.714844 166.890625 C 150.238281 170.117188 145.191406 169.554688 142.441406 165.636719 C 139.6875 161.722656 140.273438 155.929688 143.75 152.707031 C 147.226562 149.480469 152.273438 150.039062 155.027344 153.953125 " fill-opacity="1" fill-rule="nonzero"/><path fill="#f0f9ff" d="M 656.953125 90.023438 L 407.96875 90.023438 C 401.613281 90.023438 395.699219 95.171875 394.757812 101.53125 L 324.148438 577.652344 C 323.207031 584.007812 327.59375 589.160156 333.945312 589.160156 L 582.933594 589.160156 C 589.285156 589.160156 595.199219 584.007812 596.140625 577.652344 L 666.753906 101.53125 C 667.695312 95.171875 663.304688 90.023438 656.953125 90.023438 " fill-opacity="1" fill-rule="nonzero"/><path fill="#0f172a" d="M 407.96875 90.886719 C 402.035156 90.886719 396.496094 95.71875 395.613281 101.65625 L 325.007812 577.78125 C 324.585938 580.625 325.296875 583.285156 327.003906 585.269531 C 328.6875 587.21875 331.15625 588.292969 333.949219 588.292969 L 582.929688 588.292969 C 588.867188 588.292969 594.40625 583.464844 595.285156 577.527344 L 665.894531 101.402344 C 666.316406 98.558594 665.601562 95.898438 663.894531 93.910156 C 662.210938 91.960938 659.746094 90.886719 656.953125 90.886719 Z M 582.929688 590.027344 L 333.949219 590.027344 C 330.640625 590.027344 327.710938 588.738281 325.695312 586.402344 C 323.648438 584.03125 322.792969 580.875 323.292969 577.527344 L 393.902344 101.402344 C 394.90625 94.648438 401.210938 89.15625 407.96875 89.15625 L 656.953125 89.15625 C 660.261719 89.15625 663.1875 90.445312 665.203125 92.78125 C 667.25 95.152344 668.109375 98.304688 667.605469 101.65625 L 597 577.78125 C 595.996094 584.53125 589.6875 590.027344 582.929688 590.027344 " fill-opacity="1" fill-rule="nonzero"/><path fill="#0f172a" d="M 643.253906 121.601562 L 412.304688 121.601562 C 411.820312 121.601562 411.433594 121.21875 411.433594 120.738281 C 411.433594 120.261719 411.820312 119.871094 412.304688 119.871094 L 643.253906 119.871094 C 643.734375 119.871094 644.121094 120.261719 644.121094 120.738281 C 644.121094 121.21875 643.734375 121.601562 643.253906 121.601562 " fill-opacity="1" fill-rule="nonzero"/><path fill="#f0f9ff" d="M 427.304688 109.023438 C 427.023438 110.925781 425.25 112.46875 423.347656 112.46875 C 421.441406 112.46875 420.132812 110.925781 420.414062 109.023438 C 420.691406 107.117188 422.464844 105.574219 424.371094 105.574219 C 426.273438 105.574219 427.589844 107.117188 427.304688 109.023438 " fill-opacity="1" fill-rule="nonzero"/><path fill="#f0f9ff" d="M 441.09375 109.023438 C 440.808594 110.925781 439.035156 112.46875 437.132812 112.46875 C 435.230469 112.46875 433.914062 110.925781 434.195312 109.023438 C 434.484375 107.117188 436.25 105.574219 438.15625 105.574219 C 440.054688 105.574219 441.371094 107.117188 441.09375 109.023438 " fill-opacity="1" fill-rule="nonzero"/><path fill="#f0f9ff" d="M 454.875 109.023438 C 454.589844 110.925781 452.816406 112.46875 450.917969 112.46875 C 449.015625 112.46875 447.699219 110.925781 447.984375 109.023438 C 448.265625 107.117188 450.03125 105.574219 451.9375 105.574219 C 453.839844 105.574219 455.15625 107.117188 454.875 109.023438 " fill-opacity="1" fill-rule="nonzero"/><path fill="#0f172a" d="M 645.160156 109.886719 L 625.753906 109.886719 C 625.273438 109.886719 624.886719 109.496094 624.886719 109.015625 C 624.886719 108.542969 625.273438 108.152344 625.753906 108.152344 L 645.160156 108.152344 C 645.640625 108.152344 646.03125 108.542969 646.03125 109.015625 C 646.03125 109.496094 645.640625 109.886719 645.160156 109.886719 " fill-opacity="1" fill-rule="nonzero"/><path fill="#0f172a" d="M 617.019531 109.886719 L 501.398438 109.886719 C 500.921875 109.886719 500.53125 109.496094 500.53125 109.015625 C 500.53125 108.542969 500.921875 108.152344 501.398438 108.152344 L 617.019531 108.152344 C 617.5 108.152344 617.890625 108.542969 617.890625 109.015625 C 617.890625 109.496094 617.5 109.886719 617.019531 109.886719 " fill-opacity="1" fill-rule="nonzero"/><path fill="#0f172a" d="M 480.261719 109.886719 L 463.148438 109.886719 C 462.667969 109.886719 462.277344 109.496094 462.277344 109.015625 C 462.277344 108.542969 462.667969 108.152344 463.148438 108.152344 L 480.261719 108.152344 C 480.738281 108.152344 481.125 108.542969 481.125 109.015625 C 481.125 109.496094 480.738281 109.886719 480.261719 109.886719 " fill-opacity="1" fill-rule="nonzero"/><g clip-path="url(#9422547a0f)"><path fill="#f0f9ff" d="M 608.144531 51.992188 L 336.847656 51.992188 C 329.925781 51.992188 323.480469 57.601562 322.449219 64.53125 L 245.511719 583.328125 C 244.488281 590.25 249.265625 595.867188 256.191406 595.867188 L 527.488281 595.867188 C 534.414062 595.867188 540.859375 590.25 541.882812 583.328125 L 618.824219 64.53125 C 619.847656 57.601562 615.066406 51.992188 608.144531 51.992188 " fill-opacity="1" fill-rule="nonzero"/></g><g clip-path="url(#ca3a1b9fe5)"><path fill="#0f172a" d="M 336.847656 52.855469 C 330.34375 52.855469 324.273438 58.148438 323.308594 64.65625 L 246.371094 583.457031 C 245.910156 586.578125 246.6875 589.496094 248.570312 591.675781 C 250.417969 593.820312 253.125 595 256.191406 595 L 527.492188 595 C 533.984375 595 540.0625 589.707031 541.03125 583.199219 L 617.964844 64.398438 C 618.425781 61.28125 617.652344 58.363281 615.765625 56.179688 C 613.921875 54.035156 611.214844 52.855469 608.144531 52.855469 Z M 527.492188 596.730469 L 256.191406 596.730469 C 252.613281 596.730469 249.441406 595.339844 247.257812 592.808594 C 245.042969 590.238281 244.121094 586.828125 244.65625 583.199219 L 321.59375 64.398438 C 322.683594 57.082031 329.523438 51.125 336.847656 51.125 L 608.144531 51.125 C 611.726562 51.125 614.898438 52.515625 617.082031 55.050781 C 619.296875 57.613281 620.21875 61.027344 619.679688 64.65625 L 542.746094 583.457031 C 541.660156 590.773438 534.816406 596.730469 527.492188 596.730469 " fill-opacity="1" fill-rule="nonzero"/></g><path fill="#f0f9ff" d="M 565.609375 273.523438 L 313.582031 273.523438 L 338.890625 102.882812 L 590.917969 102.882812 L 565.609375 273.523438 " fill-opacity="1" fill-rule="nonzero"/><path fill="#0f172a" d="M 361.289062 103.746094 L 350.890625 103.746094 C 350.414062 103.746094 350.023438 103.359375 350.023438 102.882812 C 350.023438 102.402344 350.414062 102.015625 350.890625 102.015625 L 361.289062 102.015625 C 361.765625 102.015625 362.152344 102.402344 362.152344 102.882812 C 362.152344 103.359375 361.765625 103.746094 361.289062 103.746094 Z M 382.074219 103.746094 L 371.679688 103.746094 C 371.203125 103.746094 370.8125 103.359375 370.8125 102.882812 C 370.8125 102.402344 371.203125 102.015625 371.679688 102.015625 L 382.074219 102.015625 C 382.550781 102.015625 382.941406 102.402344 382.941406 102.882812 C 382.941406 103.359375 382.550781 103.746094 382.074219 103.746094 Z M 402.859375 103.746094 L 392.464844 103.746094 C 391.988281 103.746094 391.601562 103.359375 391.601562 102.882812 C 391.601562 102.402344 391.988281 102.015625 392.464844 102.015625 L 402.859375 102.015625 C 403.339844 102.015625 403.726562 102.402344 403.726562 102.882812 C 403.726562 103.359375 403.339844 103.746094 402.859375 103.746094 Z M 423.648438 103.746094 L 413.253906 103.746094 C 412.777344 103.746094 412.390625 103.359375 412.390625 102.882812 C 412.390625 102.402344 412.777344 102.015625 413.253906 102.015625 L 423.648438 102.015625 C 424.125 102.015625 424.515625 102.402344 424.515625 102.882812 C 424.515625 103.359375 424.125 103.746094 423.648438 103.746094 Z M 444.433594 103.746094 L 434.042969 103.746094 C 433.5625 103.746094 433.175781 103.359375 433.175781 102.882812 C 433.175781 102.402344 433.5625 102.015625 434.042969 102.015625 L 444.433594 102.015625 C 444.914062 102.015625 445.300781 102.402344 445.300781 102.882812 C 445.300781 103.359375 444.914062 103.746094 444.433594 103.746094 Z M 465.226562 103.746094 L 454.832031 103.746094 C 454.355469 103.746094 453.964844 103.359375 453.964844 102.882812 C 453.964844 102.402344 454.355469 102.015625 454.832031 102.015625 L 465.226562 102.015625 C 465.703125 102.015625 466.09375 102.402344 466.09375 102.882812 C 466.09375 103.359375 465.703125 103.746094 465.226562 103.746094 Z M 486.015625 103.746094 L 475.621094 103.746094 C 475.140625 103.746094 474.753906 103.359375 474.753906 102.882812 C 474.753906 102.402344 475.140625 102.015625 475.621094 102.015625 L 486.015625 102.015625 C 486.492188 102.015625 486.878906 102.402344 486.878906 102.882812 C 486.878906 103.359375 486.492188 103.746094 486.015625 103.746094 Z M 506.800781 103.746094 L 496.402344 103.746094 C 495.925781 103.746094 495.539062 103.359375 495.539062 102.882812 C 495.539062 102.402344 495.925781 102.015625 496.402344 102.015625 L 506.800781 102.015625 C 507.277344 102.015625 507.667969 102.402344 507.667969 102.882812 C 507.667969 103.359375 507.277344 103.746094 506.800781 103.746094 Z M 527.585938 103.746094 L 517.195312 103.746094 C 516.714844 103.746094 516.328125 103.359375 516.328125 102.882812 C 516.328125 102.402344 516.714844 102.015625 517.195312 102.015625 L 527.585938 102.015625 C 528.066406 102.015625 528.453125 102.402344 528.453125 102.882812 C 528.453125 103.359375 528.066406 103.746094 527.585938 103.746094 Z M 548.375 103.746094 L 537.980469 103.746094 C 537.503906 103.746094 537.113281 103.359375 537.113281 102.882812 C 537.113281 102.402344 537.503906 102.015625 537.980469 102.015625 L 548.375 102.015625 C 548.851562 102.015625 549.238281 102.402344 549.238281 102.882812 C 549.238281 103.359375 548.851562 103.746094 548.375 103.746094 Z M 569.167969 103.746094 L 558.773438 103.746094 C 558.289062 103.746094 557.90625 103.359375 557.90625 102.882812 C 557.90625 102.402344 558.289062 102.015625 558.773438 102.015625 L 569.167969 102.015625 C 569.644531 102.015625 570.03125 102.402344 570.03125 102.882812 C 570.03125 103.359375 569.644531 103.746094 569.167969 103.746094 Z M 589.949219 103.746094 L 579.554688 103.746094 C 579.074219 103.746094 578.6875 103.359375 578.6875 102.882812 C 578.6875 102.402344 579.074219 102.015625 579.554688 102.015625 L 589.949219 102.015625 C 590.425781 102.015625 590.8125 102.402344 590.8125 102.882812 C 590.8125 103.359375 590.425781 103.746094 589.949219 103.746094 Z M 337.601562 112.4375 C 337.558594 112.4375 337.519531 112.4375 337.476562 112.425781 C 337 112.359375 336.675781 111.914062 336.742188 111.445312 L 338.035156 102.753906 C 338.09375 102.328125 338.460938 102.015625 338.890625 102.015625 L 340.496094 102.015625 C 340.976562 102.015625 341.363281 102.402344 341.363281 102.882812 C 341.363281 103.359375 340.976562 103.746094 340.496094 103.746094 L 339.636719 103.746094 L 338.457031 111.695312 C 338.394531 112.128906 338.023438 112.4375 337.601562 112.4375 Z M 588.011719 123.351562 C 587.96875 123.351562 587.925781 123.351562 587.882812 123.339844 C 587.410156 123.273438 587.082031 122.835938 587.152344 122.359375 L 588.679688 112.078125 C 588.75 111.601562 589.1875 111.28125 589.660156 111.347656 C 590.136719 111.417969 590.464844 111.859375 590.386719 112.332031 L 588.867188 122.613281 C 588.800781 123.042969 588.433594 123.351562 588.011719 123.351562 Z M 334.554688 133 C 334.511719 133 334.464844 132.996094 334.425781 132.988281 C 333.953125 132.921875 333.628906 132.480469 333.695312 132.007812 L 335.21875 121.726562 C 335.292969 121.253906 335.734375 120.921875 336.203125 120.996094 C 336.679688 121.066406 337.003906 121.507812 336.933594 121.980469 L 335.410156 132.261719 C 335.34375 132.691406 334.976562 133 334.554688 133 Z M 584.960938 143.914062 C 584.917969 143.914062 584.875 143.914062 584.832031 143.90625 C 584.359375 143.832031 584.035156 143.394531 584.105469 142.921875 L 585.628906 132.640625 C 585.699219 132.167969 586.140625 131.839844 586.613281 131.910156 C 587.082031 131.980469 587.410156 132.421875 587.34375 132.898438 L 585.8125 143.175781 C 585.753906 143.605469 585.382812 143.914062 584.960938 143.914062 Z M 331.503906 153.566406 C 331.460938 153.566406 331.417969 153.558594 331.378906 153.554688 C 330.902344 153.484375 330.574219 153.042969 330.648438 152.570312 L 332.171875 142.289062 C 332.238281 141.816406 332.679688 141.488281 333.15625 141.554688 C 333.628906 141.628906 333.953125 142.070312 333.882812 142.542969 L 332.363281 152.820312 C 332.296875 153.25 331.921875 153.566406 331.503906 153.566406 Z M 581.914062 164.476562 C 581.871094 164.476562 581.828125 164.472656 581.785156 164.46875 C 581.3125 164.398438 580.984375 163.957031 581.054688 163.484375 L 582.574219 153.203125 C 582.648438 152.730469 583.089844 152.40625 583.558594 152.476562 C 584.039062 152.542969 584.363281 152.988281 584.289062 153.460938 L 582.769531 163.742188 C 582.703125 164.171875 582.335938 164.476562 581.914062 164.476562 Z M 328.453125 174.125 C 328.414062 174.125 328.367188 174.125 328.324219 174.113281 C 327.855469 174.046875 327.527344 173.609375 327.597656 173.136719 L 329.121094 162.851562 C 329.191406 162.375 329.636719 162.054688 330.105469 162.121094 C 330.578125 162.191406 330.90625 162.632812 330.835938 163.105469 L 329.308594 173.386719 C 329.246094 173.816406 328.875 174.125 328.453125 174.125 Z M 578.863281 185.042969 C 578.820312 185.042969 578.777344 185.039062 578.734375 185.035156 C 578.261719 184.960938 577.933594 184.523438 578.003906 184.046875 L 579.53125 173.765625 C 579.597656 173.296875 580.039062 172.964844 580.515625 173.035156 C 580.984375 173.105469 581.3125 173.546875 581.246094 174.019531 L 579.71875 184.300781 C 579.652344 184.730469 579.285156 185.042969 578.863281 185.042969 Z M 325.402344 194.6875 C 325.363281 194.6875 325.320312 194.683594 325.277344 194.679688 C 324.804688 194.609375 324.476562 194.167969 324.546875 193.695312 L 326.070312 183.414062 C 326.140625 182.941406 326.589844 182.613281 327.054688 182.6875 C 327.527344 182.753906 327.855469 183.195312 327.785156 183.667969 L 326.261719 193.949219 C 326.199219 194.382812 325.828125 194.6875 325.402344 194.6875 Z M 575.8125 205.601562 C 575.773438 205.601562 575.730469 205.601562 575.683594 205.59375 C 575.210938 205.523438 574.886719 205.082031 574.957031 204.613281 L 576.480469 194.328125 C 576.550781 193.855469 576.992188 193.527344 577.460938 193.597656 C 577.941406 193.671875 578.265625 194.109375 578.195312 194.585938 L 576.671875 204.863281 C 576.605469 205.292969 576.234375 205.601562 575.8125 205.601562 Z M 322.355469 215.253906 C 322.3125 215.253906 322.269531 215.25 322.226562 215.242188 C 321.753906 215.171875 321.429688 214.730469 321.496094 214.257812 L 323.019531 203.980469 C 323.09375 203.503906 323.535156 203.179688 324.007812 203.25 C 324.480469 203.316406 324.808594 203.757812 324.734375 204.230469 L 323.210938 214.515625 C 323.144531 214.941406 322.777344 215.253906 322.355469 215.253906 Z M 572.765625 226.167969 C 572.722656 226.167969 572.679688 226.160156 572.636719 226.15625 C 572.164062 226.085938 571.835938 225.648438 571.90625 225.171875 L 573.433594 214.890625 C 573.503906 214.417969 573.9375 214.097656 574.417969 214.164062 C 574.890625 214.234375 575.214844 214.675781 575.144531 215.148438 L 573.621094 225.429688 C 573.554688 225.859375 573.1875 226.167969 572.765625 226.167969 Z M 319.304688 235.8125 C 319.261719 235.8125 319.222656 235.8125 319.179688 235.808594 C 318.703125 235.734375 318.378906 235.296875 318.449219 234.824219 L 319.972656 224.539062 C 320.046875 224.0625 320.488281 223.742188 320.957031 223.808594 C 321.429688 223.878906 321.753906 224.320312 321.6875 224.792969 L 320.160156 235.074219 C 320.097656 235.503906 319.726562 235.8125 319.304688 235.8125 Z M 569.714844 246.730469 C 569.671875 246.730469 569.628906 246.726562 569.585938 246.722656 C 569.113281 246.652344 568.785156 246.210938 568.855469 245.738281 L 570.382812 235.453125 C 570.453125 234.984375 570.894531 234.65625 571.363281 234.722656 C 571.839844 234.792969 572.167969 235.234375 572.097656 235.707031 L 570.566406 245.992188 C 570.511719 246.417969 570.136719 246.730469 569.714844 246.730469 Z M 316.257812 256.375 C 316.214844 256.375 316.171875 256.371094 316.128906 256.367188 C 315.65625 256.296875 315.328125 255.855469 315.398438 255.382812 L 316.921875 245.101562 C 316.992188 244.628906 317.441406 244.300781 317.90625 244.375 C 318.382812 244.445312 318.707031 244.882812 318.636719 245.359375 L 317.113281 255.636719 C 317.046875 256.070312 316.679688 256.375 316.257812 256.375 Z M 566.664062 267.289062 C 566.625 267.289062 566.582031 267.289062 566.539062 267.28125 C 566.0625 267.210938 565.738281 266.773438 565.808594 266.300781 L 567.332031 256.015625 C 567.398438 255.542969 567.84375 255.222656 568.320312 255.289062 C 568.792969 255.359375 569.113281 255.796875 569.046875 256.273438 L 567.523438 266.550781 C 567.457031 266.984375 567.085938 267.289062 566.664062 267.289062 Z M 316.160156 274.394531 L 313.585938 274.394531 C 313.332031 274.394531 313.09375 274.285156 312.929688 274.089844 C 312.761719 273.902344 312.691406 273.648438 312.726562 273.398438 L 313.875 265.667969 C 313.945312 265.195312 314.390625 264.867188 314.859375 264.9375 C 315.332031 265.003906 315.65625 265.449219 315.589844 265.917969 L 314.585938 272.660156 L 316.160156 272.660156 C 316.636719 272.660156 317.023438 273.046875 317.023438 273.527344 C 317.023438 274.003906 316.636719 274.394531 316.160156 274.394531 Z M 336.949219 274.394531 L 326.550781 274.394531 C 326.078125 274.394531 325.683594 274.003906 325.683594 273.527344 C 325.683594 273.046875 326.078125 272.660156 326.550781 272.660156 L 336.949219 272.660156 C 337.425781 272.660156 337.8125 273.046875 337.8125 273.527344 C 337.8125 274.003906 337.425781 274.394531 336.949219 274.394531 Z M 357.734375 274.394531 L 347.339844 274.394531 C 346.863281 274.394531 346.476562 274.003906 346.476562 273.527344 C 346.476562 273.046875 346.863281 272.660156 347.339844 272.660156 L 357.734375 272.660156 C 358.210938 272.660156 358.601562 273.046875 358.601562 273.527344 C 358.601562 274.003906 358.210938 274.394531 357.734375 274.394531 Z M 378.523438 274.394531 L 368.128906 274.394531 C 367.648438 274.394531 367.261719 274.003906 367.261719 273.527344 C 367.261719 273.046875 367.648438 272.660156 368.128906 272.660156 L 378.523438 272.660156 C 379 272.660156 379.386719 273.046875 379.386719 273.527344 C 379.386719 274.003906 379 274.394531 378.523438 274.394531 Z M 399.308594 274.394531 L 388.917969 274.394531 C 388.4375 274.394531 388.050781 274.003906 388.050781 273.527344 C 388.050781 273.046875 388.4375 272.660156 388.917969 272.660156 L 399.308594 272.660156 C 399.789062 272.660156 400.175781 273.046875 400.175781 273.527344 C 400.175781 274.003906 399.789062 274.394531 399.308594 274.394531 Z M 420.097656 274.394531 L 409.703125 274.394531 C 409.222656 274.394531 408.835938 274.003906 408.835938 273.527344 C 408.835938 273.046875 409.222656 272.660156 409.703125 272.660156 L 420.097656 272.660156 C 420.574219 272.660156 420.964844 273.046875 420.964844 273.527344 C 420.964844 274.003906 420.574219 274.394531 420.097656 274.394531 Z M 440.890625 274.394531 L 430.492188 274.394531 C 430.011719 274.394531 429.628906 274.003906 429.628906 273.527344 C 429.628906 273.046875 430.011719 272.660156 430.492188 272.660156 L 440.890625 272.660156 C 441.367188 272.660156 441.75 273.046875 441.75 273.527344 C 441.75 274.003906 441.367188 274.394531 440.890625 274.394531 Z M 461.671875 274.394531 L 451.277344 274.394531 C 450.796875 274.394531 450.410156 274.003906 450.410156 273.527344 C 450.410156 273.046875 450.796875 272.660156 451.277344 272.660156 L 461.671875 272.660156 C 462.148438 272.660156 462.539062 273.046875 462.539062 273.527344 C 462.539062 274.003906 462.148438 274.394531 461.671875 274.394531 Z M 482.460938 274.394531 L 472.0625 274.394531 C 471.585938 274.394531 471.195312 274.003906 471.195312 273.527344 C 471.195312 273.046875 471.585938 272.660156 472.0625 272.660156 L 482.460938 272.660156 C 482.941406 272.660156 483.324219 273.046875 483.324219 273.527344 C 483.324219 274.003906 482.941406 274.394531 482.460938 274.394531 Z M 503.25 274.394531 L 492.855469 274.394531 C 492.378906 274.394531 491.988281 274.003906 491.988281 273.527344 C 491.988281 273.046875 492.378906 272.660156 492.855469 272.660156 L 503.25 272.660156 C 503.726562 272.660156 504.117188 273.046875 504.117188 273.527344 C 504.117188 274.003906 503.726562 274.394531 503.25 274.394531 Z M 524.035156 274.394531 L 513.644531 274.394531 C 513.164062 274.394531 512.777344 274.003906 512.777344 273.527344 C 512.777344 273.046875 513.164062 272.660156 513.644531 272.660156 L 524.035156 272.660156 C 524.515625 272.660156 524.902344 273.046875 524.902344 273.527344 C 524.902344 274.003906 524.515625 274.394531 524.035156 274.394531 Z M 544.824219 274.394531 L 534.429688 274.394531 C 533.949219 274.394531 533.5625 274.003906 533.5625 273.527344 C 533.5625 273.046875 533.949219 272.660156 534.429688 272.660156 L 544.824219 272.660156 C 545.300781 272.660156 545.6875 273.046875 545.6875 273.527344 C 545.6875 274.003906 545.300781 274.394531 544.824219 274.394531 Z M 565.609375 274.394531 L 555.214844 274.394531 C 554.738281 274.394531 554.347656 274.003906 554.347656 273.527344 C 554.347656 273.046875 554.738281 272.660156 555.214844 272.660156 L 565.609375 272.660156 C 566.085938 272.660156 566.476562 273.046875 566.476562 273.527344 C 566.476562 274.003906 566.085938 274.394531 565.609375 274.394531 " fill-opacity="1" fill-rule="nonzero"/><path fill="#0f172a" d="M 302.074219 357.03125 L 481.625 357.03125 L 490.757812 295.414062 L 311.214844 295.414062 Z M 482.371094 358.761719 L 301.070312 358.761719 C 300.820312 358.761719 300.582031 358.65625 300.417969 358.460938 C 300.25 358.273438 300.179688 358.019531 300.214844 357.769531 L 309.609375 294.425781 C 309.671875 293.996094 310.035156 293.683594 310.464844 293.683594 L 491.761719 293.683594 C 492.019531 293.683594 492.257812 293.792969 492.421875 293.984375 C 492.582031 294.175781 492.660156 294.425781 492.621094 294.675781 L 483.230469 358.023438 C 483.164062 358.449219 482.800781 358.761719 482.371094 358.761719 " fill-opacity="1" fill-rule="nonzero"/><path fill="#0f172a" d="M 501.308594 357.03125 L 552.351562 357.03125 L 561.492188 295.417969 L 510.445312 295.417969 Z M 553.101562 358.761719 L 500.304688 358.761719 C 500.050781 358.761719 499.8125 358.652344 499.644531 358.460938 C 499.484375 358.269531 499.410156 358.019531 499.445312 357.769531 L 508.84375 294.421875 C 508.902344 293.996094 509.269531 293.679688 509.699219 293.679688 L 562.492188 293.679688 C 562.746094 293.679688 562.984375 293.792969 563.148438 293.984375 C 563.316406 294.171875 563.386719 294.425781 563.351562 294.675781 L 553.957031 358.023438 C 553.890625 358.449219 553.53125 358.761719 553.101562 358.761719 " fill-opacity="1" fill-rule="nonzero"/><path fill="#f0f9ff" d="M 520.316406 578.941406 L 268.292969 578.941406 L 297.867188 379.492188 L 549.894531 379.492188 L 520.316406 578.941406 " fill-opacity="1" fill-rule="nonzero"/><path fill="#0f172a" d="M 311.933594 380.359375 L 301.542969 380.359375 C 301.0625 380.359375 300.675781 379.972656 300.675781 379.492188 C 300.675781 379.015625 301.0625 378.628906 301.542969 378.628906 L 311.933594 378.628906 C 312.414062 378.628906 312.800781 379.015625 312.800781 379.492188 C 312.800781 379.972656 312.414062 380.359375 311.933594 380.359375 Z M 332.722656 380.359375 L 322.328125 380.359375 C 321.847656 380.359375 321.460938 379.972656 321.460938 379.492188 C 321.460938 379.015625 321.847656 378.628906 322.328125 378.628906 L 332.722656 378.628906 C 333.199219 378.628906 333.585938 379.015625 333.585938 379.492188 C 333.585938 379.972656 333.199219 380.359375 332.722656 380.359375 Z M 353.511719 380.359375 L 343.113281 380.359375 C 342.640625 380.359375 342.25 379.972656 342.25 379.492188 C 342.25 379.015625 342.640625 378.628906 343.113281 378.628906 L 353.511719 378.628906 C 353.992188 378.628906 354.378906 379.015625 354.378906 379.492188 C 354.378906 379.972656 353.992188 380.359375 353.511719 380.359375 Z M 374.296875 380.359375 L 363.90625 380.359375 C 363.425781 380.359375 363.039062 379.972656 363.039062 379.492188 C 363.039062 379.015625 363.425781 378.628906 363.90625 378.628906 L 374.296875 378.628906 C 374.777344 378.628906 375.164062 379.015625 375.164062 379.492188 C 375.164062 379.972656 374.777344 380.359375 374.296875 380.359375 Z M 395.082031 380.359375 L 384.691406 380.359375 C 384.210938 380.359375 383.824219 379.972656 383.824219 379.492188 C 383.824219 379.015625 384.210938 378.628906 384.691406 378.628906 L 395.082031 378.628906 C 395.5625 378.628906 395.949219 379.015625 395.949219 379.492188 C 395.949219 379.972656 395.5625 380.359375 395.082031 380.359375 Z M 415.875 380.359375 L 405.480469 380.359375 C 405 380.359375 404.613281 379.972656 404.613281 379.492188 C 404.613281 379.015625 405 378.628906 405.480469 378.628906 L 415.875 378.628906 C 416.351562 378.628906 416.738281 379.015625 416.738281 379.492188 C 416.738281 379.972656 416.351562 380.359375 415.875 380.359375 Z M 436.660156 380.359375 L 426.265625 380.359375 C 425.789062 380.359375 425.398438 379.972656 425.398438 379.492188 C 425.398438 379.015625 425.789062 378.628906 426.265625 378.628906 L 436.660156 378.628906 C 437.136719 378.628906 437.523438 379.015625 437.523438 379.492188 C 437.523438 379.972656 437.136719 380.359375 436.660156 380.359375 Z M 457.449219 380.359375 L 447.054688 380.359375 C 446.578125 380.359375 446.191406 379.972656 446.191406 379.492188 C 446.191406 379.015625 446.578125 378.628906 447.054688 378.628906 L 457.449219 378.628906 C 457.929688 378.628906 458.316406 379.015625 458.316406 379.492188 C 458.316406 379.972656 457.929688 380.359375 457.449219 380.359375 Z M 478.234375 380.359375 L 467.84375 380.359375 C 467.363281 380.359375 466.976562 379.972656 466.976562 379.492188 C 466.976562 379.015625 467.363281 378.628906 467.84375 378.628906 L 478.234375 378.628906 C 478.714844 378.628906 479.101562 379.015625 479.101562 379.492188 C 479.101562 379.972656 478.714844 380.359375 478.234375 380.359375 Z M 499.023438 380.359375 L 488.628906 380.359375 C 488.148438 380.359375 487.761719 379.972656 487.761719 379.492188 C 487.761719 379.015625 488.148438 378.628906 488.628906 378.628906 L 499.023438 378.628906 C 499.503906 378.628906 499.886719 379.015625 499.886719 379.492188 C 499.886719 379.972656 499.503906 380.359375 499.023438 380.359375 Z M 519.8125 380.359375 L 509.417969 380.359375 C 508.9375 380.359375 508.550781 379.972656 508.550781 379.492188 C 508.550781 379.015625 508.9375 378.628906 509.417969 378.628906 L 519.8125 378.628906 C 520.289062 378.628906 520.675781 379.015625 520.675781 379.492188 C 520.675781 379.972656 520.289062 380.359375 519.8125 380.359375 Z M 540.597656 380.359375 L 530.203125 380.359375 C 529.726562 380.359375 529.339844 379.972656 529.339844 379.492188 C 529.339844 379.015625 529.726562 378.628906 530.203125 378.628906 L 540.597656 378.628906 C 541.074219 378.628906 541.464844 379.015625 541.464844 379.492188 C 541.464844 379.972656 541.074219 380.359375 540.597656 380.359375 Z M 548.210938 391.726562 C 548.167969 391.726562 548.125 391.726562 548.082031 391.71875 C 547.609375 391.644531 547.28125 391.207031 547.355469 390.734375 L 548.878906 380.449219 C 548.945312 379.980469 549.390625 379.652344 549.863281 379.722656 C 550.332031 379.796875 550.660156 380.234375 550.59375 380.707031 L 549.066406 390.988281 C 549.003906 391.417969 548.632812 391.726562 548.210938 391.726562 Z M 295.359375 397.289062 C 295.316406 397.289062 295.273438 397.285156 295.230469 397.28125 C 294.757812 397.210938 294.429688 396.769531 294.5 396.296875 L 296.023438 386.015625 C 296.097656 385.542969 296.542969 385.21875 297.007812 385.285156 C 297.484375 385.355469 297.808594 385.796875 297.738281 386.269531 L 296.214844 396.550781 C 296.152344 396.980469 295.78125 397.289062 295.359375 397.289062 Z M 545.160156 412.292969 C 545.121094 412.292969 545.078125 412.289062 545.03125 412.28125 C 544.5625 412.210938 544.234375 411.773438 544.304688 411.296875 L 545.824219 401.015625 C 545.898438 400.542969 546.339844 400.21875 546.808594 400.289062 C 547.285156 400.355469 547.613281 400.796875 547.539062 401.269531 L 546.015625 411.550781 C 545.953125 411.980469 545.582031 412.292969 545.160156 412.292969 Z M 292.308594 417.851562 C 292.269531 417.851562 292.222656 417.851562 292.183594 417.84375 C 291.707031 417.777344 291.382812 417.335938 291.453125 416.859375 L 292.976562 406.578125 C 293.046875 406.105469 293.492188 405.777344 293.960938 405.847656 C 294.433594 405.921875 294.761719 406.359375 294.691406 406.832031 L 293.164062 417.113281 C 293.101562 417.542969 292.730469 417.851562 292.308594 417.851562 Z M 542.109375 432.855469 C 542.070312 432.855469 542.027344 432.851562 541.984375 432.84375 C 541.507812 432.773438 541.183594 432.332031 541.253906 431.863281 L 542.777344 421.578125 C 542.847656 421.105469 543.289062 420.78125 543.761719 420.851562 C 544.234375 420.917969 544.5625 421.359375 544.492188 421.835938 L 542.96875 432.113281 C 542.90625 432.542969 542.53125 432.855469 542.109375 432.855469 Z M 289.261719 438.417969 C 289.21875 438.417969 289.175781 438.414062 289.132812 438.40625 C 288.660156 438.335938 288.332031 437.898438 288.402344 437.421875 L 289.925781 427.140625 C 289.996094 426.667969 290.441406 426.34375 290.910156 426.414062 C 291.382812 426.480469 291.710938 426.921875 291.640625 427.394531 L 290.117188 437.675781 C 290.050781 438.105469 289.683594 438.417969 289.261719 438.417969 Z M 539.0625 453.414062 C 539.019531 453.414062 538.976562 453.410156 538.933594 453.410156 C 538.460938 453.335938 538.136719 452.894531 538.203125 452.425781 L 539.726562 442.140625 C 539.800781 441.667969 540.238281 441.34375 540.710938 441.410156 C 541.1875 441.484375 541.511719 441.921875 541.441406 442.394531 L 539.917969 452.679688 C 539.855469 453.109375 539.484375 453.414062 539.0625 453.414062 Z M 286.210938 458.980469 C 286.167969 458.980469 286.125 458.976562 286.082031 458.96875 C 285.609375 458.898438 285.28125 458.457031 285.351562 457.988281 L 286.878906 447.703125 C 286.949219 447.230469 287.390625 446.90625 287.859375 446.976562 C 288.335938 447.042969 288.660156 447.484375 288.589844 447.960938 L 287.066406 458.238281 C 287.003906 458.671875 286.632812 458.980469 286.210938 458.980469 Z M 536.011719 473.976562 C 535.96875 473.976562 535.929688 473.976562 535.886719 473.96875 C 535.410156 473.898438 535.082031 473.457031 535.15625 472.984375 L 536.679688 462.703125 C 536.75 462.230469 537.191406 461.90625 537.664062 461.972656 C 538.136719 462.046875 538.460938 462.488281 538.394531 462.957031 L 536.867188 473.238281 C 536.804688 473.671875 536.433594 473.976562 536.011719 473.976562 Z M 283.160156 479.539062 C 283.117188 479.539062 283.074219 479.535156 283.03125 479.535156 C 282.558594 479.460938 282.234375 479.019531 282.304688 478.550781 L 283.828125 468.265625 C 283.898438 467.796875 284.34375 467.46875 284.8125 467.535156 C 285.285156 467.609375 285.613281 468.050781 285.542969 468.519531 L 284.015625 478.804688 C 283.953125 479.234375 283.582031 479.539062 283.160156 479.539062 Z M 532.964844 494.542969 C 532.921875 494.542969 532.878906 494.539062 532.835938 494.53125 C 532.363281 494.464844 532.035156 494.023438 532.105469 493.546875 L 533.628906 483.269531 C 533.699219 482.792969 534.140625 482.464844 534.613281 482.539062 C 535.085938 482.609375 535.414062 483.046875 535.339844 483.519531 L 533.820312 493.804688 C 533.753906 494.230469 533.386719 494.542969 532.964844 494.542969 Z M 280.113281 500.101562 C 280.070312 500.101562 280.027344 500.101562 279.984375 500.09375 C 279.511719 500.023438 279.183594 499.582031 279.253906 499.109375 L 280.777344 488.828125 C 280.847656 488.355469 281.292969 488.03125 281.761719 488.097656 C 282.234375 488.171875 282.5625 488.613281 282.492188 489.082031 L 280.96875 499.363281 C 280.902344 499.796875 280.535156 500.101562 280.113281 500.101562 Z M 529.910156 515.105469 C 529.871094 515.105469 529.828125 515.101562 529.785156 515.09375 C 529.3125 515.023438 528.984375 514.585938 529.058594 514.109375 L 530.582031 503.828125 C 530.652344 503.355469 531.09375 503.027344 531.566406 503.101562 C 532.039062 503.167969 532.363281 503.609375 532.292969 504.085938 L 530.769531 514.363281 C 530.707031 514.792969 530.332031 515.105469 529.910156 515.105469 Z M 277.0625 520.667969 C 277.019531 520.667969 276.976562 520.664062 276.933594 520.65625 C 276.460938 520.589844 276.132812 520.148438 276.203125 519.671875 L 277.730469 509.394531 C 277.800781 508.917969 278.246094 508.589844 278.714844 508.664062 C 279.1875 508.734375 279.511719 509.171875 279.441406 509.644531 L 277.917969 519.929688 C 277.855469 520.355469 277.484375 520.667969 277.0625 520.667969 Z M 526.863281 535.667969 C 526.824219 535.667969 526.78125 535.664062 526.734375 535.660156 C 526.265625 535.585938 525.9375 535.144531 526.003906 534.675781 L 527.535156 524.394531 C 527.601562 523.921875 528.042969 523.597656 528.511719 523.664062 C 528.988281 523.730469 529.316406 524.171875 529.246094 524.648438 L 527.71875 534.925781 C 527.652344 535.359375 527.285156 535.667969 526.863281 535.667969 Z M 274.011719 541.230469 C 273.972656 541.230469 273.929688 541.226562 273.886719 541.21875 C 273.414062 541.148438 273.085938 540.710938 273.15625 540.238281 L 274.679688 529.953125 C 274.75 529.484375 275.195312 529.152344 275.664062 529.226562 C 276.136719 529.292969 276.464844 529.734375 276.394531 530.210938 L 274.867188 540.488281 C 274.804688 540.921875 274.4375 541.230469 274.011719 541.230469 Z M 523.8125 556.226562 C 523.769531 556.226562 523.730469 556.226562 523.6875 556.222656 C 523.210938 556.148438 522.886719 555.707031 522.957031 555.238281 L 524.480469 544.953125 C 524.550781 544.484375 524.992188 544.160156 525.464844 544.222656 C 525.9375 544.296875 526.265625 544.738281 526.195312 545.207031 L 524.671875 555.492188 C 524.605469 555.921875 524.238281 556.226562 523.8125 556.226562 Z M 270.964844 561.792969 C 270.921875 561.792969 270.878906 561.789062 270.835938 561.785156 C 270.363281 561.710938 270.035156 561.269531 270.105469 560.800781 L 271.632812 550.519531 C 271.699219 550.046875 272.144531 549.714844 272.613281 549.789062 C 273.085938 549.859375 273.414062 550.300781 273.34375 550.773438 L 271.820312 561.054688 C 271.753906 561.484375 271.386719 561.792969 270.964844 561.792969 Z M 520.765625 576.792969 C 520.722656 576.792969 520.683594 576.789062 520.636719 576.78125 C 520.164062 576.714844 519.839844 576.273438 519.90625 575.796875 L 521.433594 565.519531 C 521.503906 565.046875 521.945312 564.722656 522.414062 564.789062 C 522.890625 564.859375 523.214844 565.300781 523.144531 565.769531 L 521.621094 576.054688 C 521.558594 576.484375 521.1875 576.792969 520.765625 576.792969 Z M 270.863281 579.808594 L 268.292969 579.808594 C 268.039062 579.808594 267.800781 579.699219 267.636719 579.507812 C 267.46875 579.316406 267.398438 579.0625 267.433594 578.816406 L 268.582031 571.078125 C 268.652344 570.609375 269.101562 570.285156 269.566406 570.347656 C 270.039062 570.421875 270.363281 570.863281 270.296875 571.332031 L 269.292969 578.074219 L 270.863281 578.074219 C 271.34375 578.074219 271.730469 578.464844 271.730469 578.941406 C 271.730469 579.421875 271.34375 579.808594 270.863281 579.808594 Z M 291.652344 579.808594 L 281.257812 579.808594 C 280.78125 579.808594 280.394531 579.421875 280.394531 578.941406 C 280.394531 578.464844 280.78125 578.074219 281.257812 578.074219 L 291.652344 578.074219 C 292.132812 578.074219 292.519531 578.464844 292.519531 578.941406 C 292.519531 579.421875 292.132812 579.808594 291.652344 579.808594 Z M 312.441406 579.808594 L 302.046875 579.808594 C 301.566406 579.808594 301.179688 579.421875 301.179688 578.941406 C 301.179688 578.464844 301.566406 578.074219 302.046875 578.074219 L 312.441406 578.074219 C 312.917969 578.074219 313.304688 578.464844 313.304688 578.941406 C 313.304688 579.421875 312.917969 579.808594 312.441406 579.808594 Z M 333.226562 579.808594 L 322.832031 579.808594 C 322.355469 579.808594 321.96875 579.421875 321.96875 578.941406 C 321.96875 578.464844 322.355469 578.074219 322.832031 578.074219 L 333.226562 578.074219 C 333.707031 578.074219 334.09375 578.464844 334.09375 578.941406 C 334.09375 579.421875 333.707031 579.808594 333.226562 579.808594 Z M 354.015625 579.808594 L 343.625 579.808594 C 343.144531 579.808594 342.757812 579.421875 342.757812 578.941406 C 342.757812 578.464844 343.144531 578.074219 343.625 578.074219 L 354.015625 578.074219 C 354.496094 578.074219 354.882812 578.464844 354.882812 578.941406 C 354.882812 579.421875 354.496094 579.808594 354.015625 579.808594 Z M 374.804688 579.808594 L 364.410156 579.808594 C 363.929688 579.808594 363.542969 579.421875 363.542969 578.941406 C 363.542969 578.464844 363.929688 578.074219 364.410156 578.074219 L 374.804688 578.074219 C 375.28125 578.074219 375.667969 578.464844 375.667969 578.941406 C 375.667969 579.421875 375.28125 579.808594 374.804688 579.808594 Z M 395.59375 579.808594 L 385.195312 579.808594 C 384.722656 579.808594 384.335938 579.421875 384.335938 578.941406 C 384.335938 578.464844 384.722656 578.074219 385.195312 578.074219 L 395.59375 578.074219 C 396.066406 578.074219 396.457031 578.464844 396.457031 578.941406 C 396.457031 579.421875 396.066406 579.808594 395.59375 579.808594 Z M 416.378906 579.808594 L 405.984375 579.808594 C 405.507812 579.808594 405.121094 579.421875 405.121094 578.941406 C 405.121094 578.464844 405.507812 578.074219 405.984375 578.074219 L 416.378906 578.074219 C 416.859375 578.074219 417.246094 578.464844 417.246094 578.941406 C 417.246094 579.421875 416.859375 579.808594 416.378906 579.808594 Z M 437.164062 579.808594 L 426.773438 579.808594 C 426.292969 579.808594 425.90625 579.421875 425.90625 578.941406 C 425.90625 578.464844 426.292969 578.074219 426.773438 578.074219 L 437.164062 578.074219 C 437.644531 578.074219 438.03125 578.464844 438.03125 578.941406 C 438.03125 579.421875 437.644531 579.808594 437.164062 579.808594 Z M 457.953125 579.808594 L 447.5625 579.808594 C 447.082031 579.808594 446.695312 579.421875 446.695312 578.941406 C 446.695312 578.464844 447.082031 578.074219 447.5625 578.074219 L 457.953125 578.074219 C 458.433594 578.074219 458.820312 578.464844 458.820312 578.941406 C 458.820312 579.421875 458.433594 579.808594 457.953125 579.808594 Z M 478.742188 579.808594 L 468.347656 579.808594 C 467.867188 579.808594 467.480469 579.421875 467.480469 578.941406 C 467.480469 578.464844 467.867188 578.074219 468.347656 578.074219 L 478.742188 578.074219 C 479.21875 578.074219 479.609375 578.464844 479.609375 578.941406 C 479.609375 579.421875 479.21875 579.808594 478.742188 579.808594 Z M 499.53125 579.808594 L 489.132812 579.808594 C 488.660156 579.808594 488.273438 579.421875 488.273438 578.941406 C 488.273438 578.464844 488.660156 578.074219 489.132812 578.074219 L 499.53125 578.074219 C 500.007812 578.074219 500.398438 578.464844 500.398438 578.941406 C 500.398438 579.421875 500.007812 579.808594 499.53125 579.808594 Z M 520.316406 579.808594 L 509.925781 579.808594 C 509.445312 579.808594 509.058594 579.421875 509.058594 578.941406 C 509.058594 578.464844 509.445312 578.074219 509.925781 578.074219 L 520.316406 578.074219 C 520.796875 578.074219 521.183594 578.464844 521.183594 578.941406 C 521.183594 579.421875 520.796875 579.808594 520.316406 579.808594 " fill-opacity="1" fill-rule="nonzero"/><path fill="#0f172a" d="M 593.214844 86.332031 L 341.566406 86.332031 C 341.089844 86.332031 340.699219 85.941406 340.699219 85.464844 C 340.699219 84.984375 341.089844 84.597656 341.566406 84.597656 L 593.214844 84.597656 C 593.695312 84.597656 594.082031 84.984375 594.082031 85.464844 C 594.082031 85.941406 593.695312 86.332031 593.214844 86.332031 " fill-opacity="1" fill-rule="nonzero"/><path fill="#0f172a" d="M 357.917969 72.691406 C 357.609375 74.765625 355.679688 76.449219 353.605469 76.449219 C 351.53125 76.449219 350.101562 74.765625 350.40625 72.691406 C 350.714844 70.617188 352.644531 68.9375 354.71875 68.9375 C 356.792969 68.9375 358.222656 70.617188 357.917969 72.691406 " fill-opacity="1" fill-rule="nonzero"/><path fill="#0f172a" d="M 372.9375 72.691406 C 372.628906 74.765625 370.699219 76.449219 368.625 76.449219 C 366.550781 76.449219 365.121094 74.765625 365.429688 72.691406 C 365.734375 70.617188 367.664062 68.9375 369.738281 68.9375 C 371.8125 68.9375 373.246094 70.617188 372.9375 72.691406 " fill-opacity="1" fill-rule="nonzero"/><path fill="#0f172a" d="M 387.953125 72.691406 C 387.648438 74.765625 385.71875 76.449219 383.648438 76.449219 C 381.570312 76.449219 380.140625 74.765625 380.445312 72.691406 C 380.753906 70.617188 382.683594 68.9375 384.761719 68.9375 C 386.832031 68.9375 388.261719 70.617188 387.953125 72.691406 " fill-opacity="1" fill-rule="nonzero"/><path fill="#0f172a" d="M 595.300781 73.558594 L 574.148438 73.558594 C 573.671875 73.558594 573.28125 73.167969 573.28125 72.691406 C 573.28125 72.214844 573.671875 71.824219 574.148438 71.824219 L 595.300781 71.824219 C 595.777344 71.824219 596.167969 72.214844 596.167969 72.691406 C 596.167969 73.167969 595.777344 73.558594 595.300781 73.558594 " fill-opacity="1" fill-rule="nonzero"/><path fill="#0f172a" d="M 564.636719 73.558594 L 438.648438 73.558594 C 438.167969 73.558594 437.785156 73.167969 437.785156 72.691406 C 437.785156 72.214844 438.167969 71.824219 438.648438 71.824219 L 564.636719 71.824219 C 565.121094 71.824219 565.503906 72.214844 565.503906 72.691406 C 565.503906 73.167969 565.121094 73.558594 564.636719 73.558594 " fill-opacity="1" fill-rule="nonzero"/><path fill="#0f172a" d="M 415.617188 73.558594 L 396.96875 73.558594 C 396.492188 73.558594 396.105469 73.167969 396.105469 72.691406 C 396.105469 72.214844 396.492188 71.824219 396.96875 71.824219 L 415.617188 71.824219 C 416.09375 71.824219 416.484375 72.214844 416.484375 72.691406 C 416.484375 73.167969 416.09375 73.558594 415.617188 73.558594 " fill-opacity="1" fill-rule="nonzero"/><path fill="#0f172a" d="M 312.917969 304.753906 C 294.28125 284.589844 266.574219 280.34375 245.753906 286.03125 C 219.402344 293.230469 206.113281 316.03125 196.742188 332.109375 C 180.171875 360.53125 188.171875 370.820312 175.152344 387.335938 C 152.089844 416.578125 115.941406 398.300781 87.839844 419.660156 C 44.964844 452.25 39.136719 562.832031 97.152344 604.941406 C 135.835938 633.019531 188.464844 616.777344 202.78125 612.359375 C 246.234375 598.953125 300.304688 561.523438 308.066406 510.789062 C 314.480469 468.835938 286.835938 433.933594 309.96875 398.769531 C 315.859375 389.816406 320.742188 387.382812 325.117188 376.183594 C 332.222656 358 333.820312 327.378906 312.917969 304.753906 " fill-opacity="1" fill-rule="nonzero"/><path fill="#0f172a" d="M 256.722656 309.730469 C 266.621094 301.695312 260.355469 278.015625 254.019531 265.230469 C 251.644531 260.441406 241.019531 239.011719 227.042969 239.847656 C 212.691406 240.699219 198.945312 264.796875 204.070312 283.882812 C 210.472656 307.75 245.121094 319.140625 256.722656 309.730469 " fill-opacity="1" fill-rule="nonzero"/><path fill="#f0f9ff" d="M 419.480469 642.480469 C 419.480469 642.480469 319.914062 468.929688 306.210938 460.597656 C 292.507812 452.269531 306.210938 540.105469 306.210938 540.105469 L 380.558594 664.226562 L 419.480469 642.480469 " fill-opacity="1" fill-rule="nonzero"/><path fill="#0f172a" d="M 307.039062 539.804688 L 380.871094 663.058594 L 418.292969 642.15625 C 411.09375 629.632812 318.664062 469.1875 305.761719 461.339844 C 304.699219 460.695312 304.152344 460.910156 303.832031 461.121094 C 297.820312 465.148438 302.449219 510.3125 307.039062 539.804688 Z M 380.558594 665.089844 C 380.265625 665.089844 379.980469 664.941406 379.816406 664.667969 L 305.46875 540.550781 C 305.410156 540.457031 305.371094 540.347656 305.355469 540.238281 C 304.164062 532.621094 293.996094 465.617188 302.867188 459.679688 C 303.625 459.171875 304.902344 458.789062 306.660156 459.859375 C 320.398438 468.214844 416.164062 634.957031 420.230469 642.050781 C 420.347656 642.253906 420.375 642.488281 420.316406 642.710938 C 420.253906 642.9375 420.105469 643.125 419.902344 643.238281 L 380.980469 664.980469 C 380.847656 665.054688 380.703125 665.089844 380.558594 665.089844 " fill-opacity="1" fill-rule="nonzero"/><path fill="#f0f9ff" d="M 159.222656 457.085938 C 159.222656 457.085938 227.523438 423.589844 306.210938 460.597656 C 306.210938 460.597656 373.625 687.957031 378.382812 711.605469 C 383.140625 735.25 351.421875 734.109375 321.011719 729.253906 C 290.601562 724.398438 215.949219 724.445312 184.667969 741.652344 C 153.386719 758.863281 150.171875 716.742188 153.695312 688.660156 C 157.214844 660.582031 159.222656 457.085938 159.222656 457.085938 " fill-opacity="1" fill-rule="nonzero"/><path fill="#0f172a" d="M 160.082031 457.636719 C 159.964844 469.363281 157.953125 661.671875 154.554688 688.769531 C 152.035156 708.835938 153.085938 734.984375 164.328125 742.617188 C 169.316406 746.003906 176.019531 745.425781 184.25 740.898438 C 215.566406 723.667969 291.109375 723.605469 321.148438 728.398438 C 350.390625 733.066406 367.914062 731.894531 374.71875 724.808594 C 377.742188 721.65625 378.667969 717.394531 377.535156 711.773438 C 372.929688 688.882812 308.59375 471.683594 305.492188 461.21875 C 265.195312 442.367188 227.746094 442.429688 203.398438 445.8125 C 179.371094 449.148438 163.035156 456.28125 160.082031 457.636719 Z M 171.636719 746.527344 C 168.554688 746.527344 165.789062 745.699219 163.351562 744.046875 C 151.476562 735.988281 150.132812 710.09375 152.835938 688.554688 C 156.3125 660.84375 158.335938 459.113281 158.355469 457.078125 C 158.359375 456.75 158.546875 456.453125 158.839844 456.308594 C 159.011719 456.222656 176.351562 447.832031 203.089844 444.105469 C 227.757812 440.671875 265.738281 440.605469 306.582031 459.816406 C 306.804688 459.921875 306.972656 460.113281 307.042969 460.355469 C 307.714844 462.625 374.523438 688.019531 379.234375 711.433594 C 380.46875 717.566406 379.371094 722.46875 375.96875 726.011719 C 368.640625 733.640625 351.136719 734.941406 320.875 730.109375 C 291.039062 725.347656 216.066406 725.371094 185.085938 742.414062 C 180.105469 745.15625 175.609375 746.527344 171.636719 746.527344 " fill-opacity="1" fill-rule="nonzero"/><path fill="#f0f9ff" d="M 164.875 639.65625 L 262.375 581.53125 L 315.335938 599.261719 C 315.335938 599.261719 310.683594 604.355469 303.152344 601.882812 C 295.621094 599.410156 285.007812 600.085938 277.46875 606.246094 C 269.933594 612.40625 259.695312 606.246094 259.695312 606.246094 C 259.695312 606.246094 197.71875 698.054688 143.085938 699.945312 C 98.671875 701.480469 122.945312 545.480469 133.582031 487.066406 C 136.027344 473.632812 145.328125 462.460938 158.085938 457.597656 L 174.4375 451.359375 L 164.875 639.65625 " fill-opacity="1" fill-rule="nonzero"/><path fill="#0f172a" d="M 173.503906 452.644531 L 158.394531 458.40625 C 145.988281 463.136719 136.808594 474.179688 134.433594 487.222656 C 124.902344 539.578125 105.421875 664.460938 130.332031 693.289062 C 133.851562 697.363281 138.003906 699.261719 143.054688 699.078125 C 196.621094 697.226562 258.359375 606.671875 258.976562 605.757812 C 259.234375 605.378906 259.746094 605.265625 260.140625 605.5 C 260.238281 605.558594 269.957031 611.269531 276.925781 605.570312 C 284.890625 599.058594 295.976562 598.613281 303.421875 601.058594 C 308.324219 602.667969 311.917969 600.824219 313.609375 599.59375 L 262.476562 582.476562 L 165.316406 640.398438 C 165.042969 640.5625 164.699219 640.5625 164.425781 640.394531 C 164.15625 640.234375 163.992188 639.929688 164.007812 639.613281 Z M 142.441406 700.824219 C 137.207031 700.824219 132.695312 698.671875 129.023438 694.417969 C 103.621094 665.027344 123.152344 539.507812 132.730469 486.910156 C 135.210938 473.273438 144.808594 461.734375 157.777344 456.785156 L 174.128906 450.550781 C 174.402344 450.445312 174.707031 450.484375 174.945312 450.660156 C 175.183594 450.832031 175.316406 451.113281 175.300781 451.40625 L 165.820312 638.082031 L 261.933594 580.785156 C 262.148438 580.65625 262.410156 580.628906 262.652344 580.707031 L 315.609375 598.441406 C 315.886719 598.53125 316.097656 598.757812 316.171875 599.042969 C 316.246094 599.324219 316.171875 599.628906 315.972656 599.84375 C 315.769531 600.070312 310.855469 605.320312 302.882812 602.703125 C 295.882812 600.402344 285.480469 600.816406 278.019531 606.914062 C 271.191406 612.496094 262.507812 608.699219 259.964844 607.378906 C 257.257812 611.292969 242.539062 632.171875 222.503906 652.984375 C 202.023438 674.257812 171.625 699.824219 143.117188 700.8125 C 142.890625 700.820312 142.664062 700.824219 142.441406 700.824219 " fill-opacity="1" fill-rule="nonzero"/><path fill="#0f172a" d="M 426.257812 661.65625 L 283.941406 667.40625 C 279.125 667.40625 276.171875 662.128906 278.691406 658.023438 L 350.484375 541.140625 C 352.246094 538.265625 355.375 536.519531 358.742188 536.519531 L 502.609375 539.804688 L 426.257812 661.65625 " fill-opacity="1" fill-rule="nonzero"/><path fill="#0f172a" d="M 426.257812 661.65625 L 426.265625 661.65625 Z M 358.722656 537.382812 C 355.695312 537.382812 352.816406 538.996094 351.21875 541.589844 L 279.429688 658.476562 C 278.414062 660.132812 278.371094 662.136719 279.320312 663.828125 C 280.269531 665.527344 281.996094 666.539062 283.941406 666.539062 L 425.769531 660.808594 L 501.066406 540.632812 Z M 283.972656 668.273438 C 281.359375 668.273438 279.066406 666.925781 277.808594 664.675781 C 276.546875 662.425781 276.605469 659.769531 277.953125 657.570312 L 349.746094 540.6875 C 351.652344 537.582031 355.097656 535.652344 358.742188 535.652344 L 502.628906 538.9375 C 502.9375 538.945312 503.222656 539.117188 503.371094 539.394531 C 503.515625 539.667969 503.507812 540 503.34375 540.265625 L 426.992188 662.117188 C 426.839844 662.355469 426.578125 662.507812 426.292969 662.519531 L 283.972656 668.273438 " fill-opacity="1" fill-rule="nonzero"/><path fill="#f0f9ff" d="M 436.507812 667.40625 L 282.882812 667.40625 L 363.273438 536.519531 L 516.898438 536.519531 L 436.507812 667.40625 " fill-opacity="1" fill-rule="nonzero"/><path fill="#0f172a" d="M 284.433594 666.539062 L 436.023438 666.539062 L 515.351562 537.382812 L 363.761719 537.382812 Z M 436.507812 668.273438 L 282.882812 668.273438 C 282.570312 668.273438 282.28125 668.101562 282.128906 667.828125 C 281.976562 667.554688 281.980469 667.21875 282.144531 666.953125 L 362.535156 536.066406 C 362.695312 535.808594 362.972656 535.652344 363.273438 535.652344 L 516.898438 535.652344 C 517.210938 535.652344 517.5 535.824219 517.652344 536.097656 C 517.808594 536.371094 517.800781 536.703125 517.636719 536.96875 L 437.246094 667.859375 C 437.089844 668.117188 436.808594 668.273438 436.507812 668.273438 " fill-opacity="1" fill-rule="nonzero"/><path fill="#f0f9ff" d="M 440.039062 661.65625 C 440.039062 661.65625 437.152344 646.527344 440.039062 636.433594 C 442.925781 626.34375 460.824219 596.332031 465.941406 590.046875 C 471.058594 583.769531 475.394531 650.832031 440.039062 661.65625 " fill-opacity="1" fill-rule="nonzero"/><path fill="#0f172a" d="M 466.621094 590.582031 C 466.621094 590.589844 466.613281 590.59375 466.613281 590.597656 C 461.429688 596.957031 443.636719 627.011719 440.875 636.675781 C 438.488281 645.007812 440.160156 657.050781 440.722656 660.523438 C 459.949219 653.957031 465.828125 630.621094 467.621094 617.148438 C 469.539062 602.71875 467.921875 592.007812 466.621094 590.582031 Z M 440.039062 662.523438 C 439.882812 662.523438 439.726562 662.476562 439.59375 662.398438 C 439.378906 662.269531 439.234375 662.058594 439.1875 661.816406 C 439.070312 661.195312 436.292969 646.375 439.207031 636.199219 C 442.085938 626.132812 459.882812 596.109375 465.269531 589.503906 C 466.019531 588.578125 466.8125 588.746094 467.121094 588.859375 C 469.9375 589.910156 470.367188 600.769531 470.183594 607.023438 C 469.511719 629.613281 461.300781 656.050781 440.292969 662.480469 C 440.210938 662.507812 440.125 662.523438 440.039062 662.523438 " fill-opacity="1" fill-rule="nonzero"/><path fill="#f0f9ff" d="M 273.949219 407.804688 C 278.390625 410.03125 283.773438 409.167969 287.285156 405.652344 C 291.3125 401.613281 294.5625 397.324219 297.207031 392.980469 L 302.285156 393.082031 C 303.910156 393.117188 305.265625 391.847656 305.335938 390.226562 L 306.210938 370.382812 C 317.898438 351.320312 308.699219 341.105469 308.699219 341.105469 C 307.832031 331.328125 283.148438 325.5 269.320312 344.34375 C 259.941406 357.121094 246.453125 344.34375 246.453125 344.34375 C 246.453125 344.34375 239.386719 325.292969 231.125 337.007812 C 222.859375 348.726562 239.246094 369.328125 239.246094 369.328125 L 227.003906 421.480469 C 224.179688 433.511719 215.578125 443.363281 204.039062 447.785156 L 192.28125 452.289062 C 192.28125 452.289062 210.644531 512.460938 262.667969 511.347656 C 302.371094 510.492188 285.253906 456.839844 285.253906 456.839844 L 280.039062 454.539062 C 266.390625 448.515625 258.917969 433.671875 262.210938 419.121094 L 265.710938 403.675781 L 273.949219 407.804688 " fill-opacity="1" fill-rule="nonzero"/><path fill="#0f172a" d="M 193.359375 452.804688 C 194.460938 456.042969 199.207031 469.035156 208.691406 481.761719 C 218.6875 495.175781 236.175781 511.066406 262.652344 510.480469 C 271.769531 510.28125 278.527344 507.199219 282.738281 501.300781 C 292.859375 487.136719 285.554688 460.894531 284.539062 457.46875 L 279.691406 455.332031 C 265.695312 449.160156 257.988281 433.851562 261.367188 418.929688 L 264.867188 403.484375 C 264.925781 403.222656 265.097656 403.003906 265.339844 402.890625 C 265.578125 402.777344 265.859375 402.78125 266.097656 402.898438 L 274.335938 407.027344 C 278.464844 409.101562 283.421875 408.296875 286.671875 405.042969 C 290.382812 401.324219 293.675781 397.113281 296.464844 392.53125 C 296.625 392.265625 296.921875 392.109375 297.222656 392.113281 L 302.304688 392.214844 C 303.453125 392.242188 304.417969 391.347656 304.46875 390.1875 L 305.347656 370.34375 C 305.351562 370.195312 305.394531 370.054688 305.472656 369.929688 C 316.644531 351.703125 308.40625 342.082031 308.050781 341.683594 C 307.929688 341.542969 307.851562 341.367188 307.835938 341.183594 C 307.550781 337.964844 304.25 335.085938 299.222656 333.683594 C 290.542969 331.261719 278.148438 333.777344 270.019531 344.851562 C 267.351562 348.488281 264.101562 350.5 260.355469 350.835938 C 252.851562 351.511719 246.136719 345.238281 245.855469 344.972656 C 245.761719 344.878906 245.6875 344.765625 245.640625 344.644531 C 244.613281 341.886719 241.085938 334.613281 237.128906 334.09375 C 235.367188 333.875 233.589844 335.015625 231.832031 337.507812 C 224.03125 348.566406 239.765625 368.589844 239.921875 368.789062 C 240.089844 369 240.148438 369.269531 240.089844 369.527344 L 227.847656 421.679688 C 224.953125 434 216.171875 444.0625 204.347656 448.59375 Z M 261.265625 512.226562 C 234.820312 512.226562 217.335938 496.277344 207.269531 482.757812 C 196.214844 467.902344 191.5 452.699219 191.453125 452.546875 C 191.320312 452.109375 191.546875 451.644531 191.96875 451.480469 L 203.730469 446.976562 C 215.015625 442.652344 223.398438 433.046875 226.160156 421.285156 L 238.308594 369.535156 C 236.132812 366.703125 222.363281 347.925781 230.414062 336.511719 C 232.574219 333.449219 234.910156 332.0625 237.351562 332.378906 C 242.785156 333.089844 246.589844 342.308594 247.1875 343.839844 C 248.160156 344.703125 254.046875 349.675781 260.207031 349.113281 C 263.433594 348.820312 266.265625 347.042969 268.621094 343.832031 C 277.242188 332.082031 290.4375 329.433594 299.691406 332.015625 C 305.292969 333.582031 309.03125 336.910156 309.53125 340.75 C 310.859375 342.410156 317.988281 352.675781 307.066406 370.644531 L 306.199219 390.261719 C 306.105469 392.371094 304.410156 393.996094 302.269531 393.949219 L 297.683594 393.859375 C 294.878906 398.390625 291.589844 402.5625 287.898438 406.265625 C 284.117188 410.050781 278.355469 410.980469 273.558594 408.582031 L 266.3125 404.945312 L 263.054688 419.3125 C 259.859375 433.425781 267.148438 447.90625 280.390625 453.746094 L 285.601562 456.050781 C 285.832031 456.148438 286.003906 456.339844 286.078125 456.578125 C 286.46875 457.792969 295.4375 486.5 284.148438 502.308594 C 279.601562 508.671875 272.382812 512.003906 262.6875 512.214844 C 262.210938 512.222656 261.734375 512.226562 261.265625 512.226562 " fill-opacity="1" fill-rule="nonzero"/><path fill="#0f172a" d="M 269.871094 408.425781 C 269.742188 408.425781 269.613281 408.394531 269.492188 408.335938 C 254.535156 401.0625 253.058594 382.855469 253.042969 382.675781 C 253.007812 382.199219 253.367188 381.785156 253.84375 381.746094 C 254.316406 381.710938 254.734375 382.074219 254.769531 382.550781 C 254.785156 382.722656 256.203125 399.949219 270.25 406.777344 C 270.679688 406.988281 270.859375 407.503906 270.648438 407.933594 C 270.5 408.246094 270.191406 408.425781 269.871094 408.425781 " fill-opacity="1" fill-rule="nonzero"/><path fill="#0f172a" d="M 567.128906 256.921875 L 547.777344 256.921875 C 544.386719 256.921875 541.640625 259.667969 541.640625 263.058594 L 541.640625 282.40625 C 541.640625 285.796875 544.386719 288.542969 547.777344 288.542969 L 567.128906 288.542969 C 570.515625 288.542969 573.261719 285.796875 573.261719 282.40625 L 573.261719 263.058594 C 573.261719 259.667969 570.515625 256.921875 567.128906 256.921875 " fill-opacity="1" fill-rule="nonzero"/><path fill="#f0f9ff" d="M 648.066406 360.871094 C 640.558594 368.378906 628.390625 368.378906 620.882812 360.871094 C 613.375 353.359375 613.375 341.195312 620.882812 333.6875 C 628.390625 326.179688 640.558594 326.179688 648.066406 333.6875 C 655.574219 341.195312 655.574219 353.359375 648.066406 360.871094 Z M 692.34375 362.902344 L 682.777344 320.003906 C 682.15625 318.394531 680.863281 317.144531 679.242188 316.578125 L 563.414062 268.757812 C 558.785156 267.136719 554.339844 271.589844 555.953125 276.21875 L 603.773438 392.046875 C 604.339844 393.667969 605.589844 394.960938 607.199219 395.582031 L 650.097656 405.148438 C 652.257812 405.976562 654.710938 405.460938 656.347656 403.820312 L 691.015625 369.152344 C 692.65625 367.515625 693.175781 365.0625 692.34375 362.902344 " fill-opacity="1" fill-rule="nonzero"/><path fill="#0f172a" d="M 648.074219 360.867188 L 648.078125 360.867188 Z M 634.476562 328.929688 C 629.777344 328.929688 625.078125 330.71875 621.496094 334.296875 C 614.339844 341.453125 614.339844 353.097656 621.496094 360.253906 C 628.65625 367.414062 640.300781 367.414062 647.460938 360.253906 C 654.613281 353.097656 654.613281 341.453125 647.460938 334.296875 C 643.882812 330.71875 639.179688 328.929688 634.476562 328.929688 Z M 634.476562 367.355469 C 629.332031 367.355469 624.191406 365.394531 620.273438 361.480469 C 612.441406 353.648438 612.441406 340.902344 620.273438 333.070312 C 628.109375 325.242188 640.851562 325.242188 648.683594 333.070312 C 656.515625 340.902344 656.515625 353.648438 648.683594 361.480469 C 644.765625 365.394531 639.625 367.355469 634.476562 367.355469 Z M 607.457031 394.746094 L 650.289062 404.296875 C 650.332031 404.304688 650.375 404.320312 650.417969 404.332031 C 652.25 405.042969 654.34375 404.601562 655.742188 403.210938 L 690.410156 368.539062 C 691.808594 367.140625 692.246094 365.054688 691.535156 363.210938 C 691.519531 363.175781 691.511719 363.132812 691.5 363.089844 L 681.949219 320.25 C 681.414062 318.910156 680.324219 317.871094 678.957031 317.390625 L 563.085938 269.554688 C 561.28125 268.921875 559.34375 269.367188 557.957031 270.753906 C 556.566406 272.144531 556.128906 274.074219 556.773438 275.929688 L 604.574219 391.710938 C 605.070312 393.125 606.109375 394.210938 607.457031 394.746094 Z M 652.203125 406.398438 C 651.414062 406.398438 650.617188 406.261719 649.855469 405.976562 L 607.011719 396.421875 C 606.96875 396.414062 606.925781 396.402344 606.890625 396.386719 C 605.042969 395.671875 603.613281 394.195312 602.960938 392.324219 L 555.152344 276.542969 C 554.277344 274.042969 554.890625 271.371094 556.730469 269.53125 C 558.574219 267.6875 561.242188 267.078125 563.703125 267.933594 L 679.570312 315.777344 C 681.394531 316.40625 682.878906 317.839844 683.585938 319.691406 C 683.601562 319.726562 683.613281 319.769531 683.625 319.808594 L 693.175781 362.648438 C 694.101562 365.113281 693.496094 367.898438 691.636719 369.761719 L 656.960938 404.429688 C 655.679688 405.714844 653.960938 406.398438 652.203125 406.398438 " fill-opacity="1" fill-rule="nonzero"/><path fill="#0f172a" d="M 718.714844 398.671875 L 685.867188 431.519531 C 682.257812 435.132812 676.402344 435.132812 672.789062 431.519531 L 664.34375 423.078125 C 660.738281 419.46875 660.738281 413.613281 664.34375 410.003906 L 697.195312 377.148438 C 700.808594 373.542969 706.664062 373.542969 710.273438 377.148438 L 718.714844 385.597656 C 722.324219 389.207031 722.324219 395.058594 718.714844 398.671875 " fill-opacity="1" fill-rule="nonzero"/><path fill="#0f172a" d="M 609.90625 323.574219 C 609.683594 323.574219 609.457031 323.488281 609.289062 323.3125 C 590.910156 304.675781 563.117188 276.648438 561.105469 275.066406 C 561.027344 275.023438 560.941406 274.972656 560.871094 274.902344 C 560.53125 274.5625 560.53125 274.011719 560.867188 273.671875 C 561.03125 273.511719 561.261719 273.417969 561.488281 273.417969 L 561.492188 273.417969 C 562.027344 273.421875 562.277344 273.421875 586.5625 297.886719 C 598.449219 309.855469 610.40625 321.980469 610.519531 322.101562 C 610.859375 322.441406 610.855469 322.988281 610.511719 323.320312 C 610.347656 323.492188 610.125 323.574219 609.90625 323.574219 " fill-opacity="1" fill-rule="nonzero"/><path fill="#0f172a" d="M 579.097656 210.8125 C 578.878906 210.8125 578.660156 210.726562 578.492188 210.558594 C 578.152344 210.21875 578.152344 209.671875 578.492188 209.332031 L 649.625 138.199219 C 655.871094 131.949219 666.035156 131.949219 672.28125 138.199219 C 677.855469 143.769531 686.921875 143.769531 692.496094 138.199219 L 716.855469 113.839844 C 717.195312 113.5 717.742188 113.5 718.078125 113.839844 C 718.417969 114.175781 718.417969 114.726562 718.078125 115.0625 L 693.71875 139.425781 C 687.472656 145.671875 677.304688 145.671875 671.058594 139.425781 C 665.488281 133.855469 656.417969 133.855469 650.84375 139.425781 L 579.714844 210.558594 C 579.539062 210.726562 579.320312 210.8125 579.097656 210.8125 " fill-opacity="1" fill-rule="nonzero"/><path fill="#0f172a" d="M 481.660156 214.707031 C 481.4375 214.707031 481.21875 214.625 481.046875 214.457031 C 480.707031 214.113281 480.707031 213.570312 481.046875 213.230469 L 504.433594 189.84375 C 504.773438 189.503906 505.324219 189.503906 505.664062 189.84375 C 506 190.179688 506 190.730469 505.664062 191.066406 L 482.269531 214.457031 C 482.105469 214.625 481.882812 214.707031 481.660156 214.707031 " fill-opacity="1" fill-rule="nonzero"/><path fill="#0f172a" d="M 411.5 284.871094 C 411.277344 284.871094 411.058594 284.78125 410.886719 284.613281 C 410.550781 284.277344 410.550781 283.730469 410.886719 283.390625 L 465.457031 228.824219 C 465.792969 228.484375 466.34375 228.484375 466.683594 228.824219 C 467.019531 229.160156 467.019531 229.707031 466.683594 230.046875 L 412.113281 284.613281 C 411.945312 284.78125 411.722656 284.871094 411.5 284.871094 " fill-opacity="1" fill-rule="nonzero"/><path fill="#0f172a" d="M 395.914062 300.457031 C 395.6875 300.457031 395.46875 300.375 395.300781 300.203125 C 394.960938 299.863281 394.960938 299.316406 395.300781 298.980469 L 403.09375 291.183594 C 403.433594 290.84375 403.980469 290.84375 404.316406 291.183594 C 404.65625 291.519531 404.65625 292.070312 404.316406 292.410156 L 396.523438 300.203125 C 396.351562 300.375 396.132812 300.457031 395.914062 300.457031 " fill-opacity="1" fill-rule="nonzero"/><path fill="#0f172a" d="M 403.707031 510.933594 C 403.484375 510.933594 403.265625 510.847656 403.09375 510.679688 C 402.753906 510.339844 402.753906 509.792969 403.09375 509.453125 L 504.433594 408.113281 C 504.769531 407.773438 505.320312 407.773438 505.660156 408.113281 C 506 408.453125 506 409 505.660156 409.339844 L 404.316406 510.679688 C 404.152344 510.847656 403.925781 510.933594 403.707031 510.933594 " fill-opacity="1" fill-rule="nonzero"/><path fill="#0f172a" d="M 107.480469 355.023438 C 107.261719 355.023438 107.039062 354.9375 106.871094 354.769531 C 106.53125 354.433594 106.53125 353.886719 106.871094 353.546875 L 180.925781 279.488281 C 181.261719 279.152344 181.8125 279.152344 182.152344 279.488281 C 182.488281 279.828125 182.488281 280.378906 182.152344 280.71875 L 108.09375 354.769531 C 107.925781 354.9375 107.703125 355.023438 107.480469 355.023438 " fill-opacity="1" fill-rule="nonzero"/><path fill="#0f172a" d="M 473.394531 192.238281 C 468.355469 192.238281 464.261719 188.148438 464.261719 183.121094 C 464.261719 178.09375 468.355469 174 473.394531 174 C 473.871094 174 474.261719 174.386719 474.261719 174.867188 C 474.261719 175.34375 473.871094 175.730469 473.394531 175.730469 C 469.308594 175.730469 465.996094 179.046875 465.996094 183.121094 C 465.996094 187.195312 469.308594 190.503906 473.394531 190.503906 C 477.472656 190.503906 480.792969 187.195312 480.792969 183.121094 C 480.792969 182.640625 481.179688 182.253906 481.660156 182.253906 C 482.136719 182.253906 482.527344 182.640625 482.527344 183.121094 C 482.527344 188.148438 478.429688 192.238281 473.394531 192.238281 " fill-opacity="1" fill-rule="nonzero"/><path fill="#0f172a" d="M 452.980469 503.769531 C 452.765625 503.769531 452.550781 503.691406 452.378906 503.53125 C 452.035156 503.199219 452.023438 502.648438 452.355469 502.308594 L 456.441406 498.03125 C 456.773438 497.6875 457.320312 497.675781 457.667969 498.003906 C 458.015625 498.335938 458.027344 498.882812 457.695312 499.226562 L 453.605469 503.503906 C 453.4375 503.679688 453.210938 503.769531 452.980469 503.769531 " fill-opacity="1" fill-rule="nonzero"/><path fill="#0f172a" d="M 438.667969 518.726562 C 438.453125 518.726562 438.242188 518.648438 438.070312 518.488281 C 437.722656 518.15625 437.710938 517.609375 438.042969 517.261719 L 442.132812 512.988281 C 442.460938 512.640625 443.007812 512.628906 443.359375 512.960938 C 443.703125 513.292969 443.714844 513.839844 443.386719 514.183594 L 439.296875 518.460938 C 439.125 518.640625 438.898438 518.726562 438.667969 518.726562 " fill-opacity="1" fill-rule="nonzero"/><path fill="#0f172a" d="M 442.683594 503.996094 C 442.460938 503.996094 442.242188 503.914062 442.074219 503.75 L 437.921875 499.660156 C 437.582031 499.324219 437.578125 498.777344 437.914062 498.433594 C 438.25 498.09375 438.792969 498.089844 439.140625 498.421875 L 443.289062 502.515625 C 443.628906 502.851562 443.632812 503.402344 443.296875 503.738281 C 443.128906 503.914062 442.90625 503.996094 442.683594 503.996094 " fill-opacity="1" fill-rule="nonzero"/><path fill="#0f172a" d="M 457.210938 518.316406 C 456.988281 518.316406 456.769531 518.234375 456.597656 518.066406 L 452.449219 513.976562 C 452.109375 513.636719 452.105469 513.089844 452.441406 512.75 C 452.777344 512.410156 453.320312 512.40625 453.664062 512.742188 L 457.816406 516.828125 C 458.15625 517.167969 458.160156 517.714844 457.824219 518.058594 C 457.65625 518.226562 457.433594 518.316406 457.210938 518.316406 " fill-opacity="1" fill-rule="nonzero"/><path fill="#0f172a" d="M 486.085938 459.046875 L 486.097656 459.046875 Z M 489.289062 459.222656 C 488.320312 459.222656 487.355469 459.425781 486.441406 459.835938 C 482.855469 461.449219 481.226562 465.746094 482.804688 469.417969 C 483.578125 471.210938 484.988281 472.578125 486.777344 473.273438 C 488.527344 473.957031 490.433594 473.90625 492.144531 473.132812 C 495.730469 471.523438 497.359375 467.226562 495.78125 463.554688 C 495.007812 461.761719 493.59375 460.390625 491.808594 459.699219 C 490.992188 459.378906 490.140625 459.222656 489.289062 459.222656 Z M 489.296875 475.484375 C 488.234375 475.484375 487.171875 475.285156 486.152344 474.890625 C 483.925781 474.023438 482.171875 472.324219 481.214844 470.101562 C 479.261719 465.570312 481.289062 460.253906 485.734375 458.257812 C 487.867188 457.296875 490.246094 457.234375 492.433594 458.082031 C 494.660156 458.945312 496.410156 460.648438 497.367188 462.871094 C 499.320312 467.402344 497.296875 472.714844 492.855469 474.714844 C 491.714844 475.226562 490.503906 475.484375 489.296875 475.484375 " fill-opacity="1" fill-rule="nonzero"/><path fill="#0f172a" d="M 728.988281 97.777344 C 728.332031 97.777344 727.679688 97.914062 727.0625 98.191406 C 724.625 99.285156 723.523438 102.199219 724.59375 104.691406 C 725.121094 105.90625 726.074219 106.839844 727.285156 107.308594 C 728.46875 107.769531 729.757812 107.734375 730.917969 107.214844 C 733.351562 106.117188 734.457031 103.203125 733.382812 100.710938 C 732.859375 99.496094 731.902344 98.570312 730.691406 98.097656 C 730.132812 97.882812 729.5625 97.777344 728.988281 97.777344 Z M 728.992188 109.363281 C 728.203125 109.363281 727.414062 109.214844 726.660156 108.921875 C 725.011719 108.285156 723.714844 107.023438 723.003906 105.378906 C 721.5625 102.023438 723.0625 98.09375 726.351562 96.613281 C 727.9375 95.898438 729.699219 95.855469 731.320312 96.480469 C 732.96875 97.125 734.261719 98.382812 734.972656 100.023438 C 736.417969 103.382812 734.917969 107.3125 731.625 108.792969 C 730.78125 109.171875 729.890625 109.363281 728.992188 109.363281 " fill-opacity="1" fill-rule="nonzero"/></svg>